<svg width="141" height="40" viewBox="0 0 141 40" fill="none" xmlns="http://www.w3.org/2000/svg">
<path d="M49.9992 32.8753V0.430664H43.5293V34.7347C43.5293 37.137 44.497 40.0004 49.0933 40.0004H73.6914V34.4888H51.7286C50.2051 34.4888 49.9992 34.1661 49.9992 32.8804V32.8753Z" fill="white"/>
<path d="M100.379 18.6046H83.2704V7.82726C83.2704 6.2291 83.4043 5.94225 85.108 5.94225H106.69V0.430664H82.8638C78.7873 0.430664 76.8057 2.42324 76.8057 6.51595V40.0004H83.2756V24.1162H100.385V18.6046H100.379Z" fill="white"/>
<path d="M114.801 18.5888L119.434 7.55026C119.485 7.43245 119.537 7.30951 119.583 7.18146C119.701 6.88436 119.948 6.28506 120.123 6.12626C120.329 6.29018 120.623 6.99193 120.757 7.30439L125.42 18.5888H131.967L126.073 4.62031C125.116 2.33577 123.659 0 120.123 0C116.87 0 115.455 1.76719 114.225 4.62031L108.306 18.5939H114.806L114.801 18.5888Z" fill="white"/>
<path d="M134.298 24.1162H127.704H112.484H105.958L99.2305 40.0004H106.097L110.379 29.6278H129.804L134.138 40.0004H140.999L134.298 24.1162Z" fill="white"/>
<path d="M15.5699 18.5888L20.2023 7.55026C20.2537 7.43245 20.3001 7.30951 20.3515 7.18146C20.4699 6.88436 20.717 6.28506 20.892 6.12626C21.0979 6.29018 21.3913 6.99193 21.5251 7.30439L26.1884 18.5888H32.7355L26.842 4.62031C25.8847 2.33577 24.428 0 20.892 0C17.639 0 16.2236 1.76719 14.9934 4.62031L9.07422 18.5939H15.575L15.5699 18.5888Z" fill="white"/>
<path d="M35.0673 24.1162H28.4687H13.2487H6.72728L0 40.0004H6.86625L11.1435 29.6278H30.5738L34.9026 40.0004H41.7688L35.0673 24.1162Z" fill="white"/>
</svg>
