<svg width="48" height="49" viewBox="0 0 48 49" fill="none" xmlns="http://www.w3.org/2000/svg">
<path d="M11.3223 0.320312L14.5355 5.88605M36.6767 0.320312L33.4633 5.88605" stroke="url(#paint0_linear_2054_43707)" stroke-width="0.641707" stroke-linecap="round" stroke-linejoin="round"/>
<path d="M37.8428 14.2822V34.0801C37.8428 36.209 36.1577 37.9247 34.0654 37.9248H33.917V45.7549C33.917 47.4372 32.5534 48.8008 30.8711 48.8008C29.189 48.8008 27.8252 47.4372 27.8252 45.7549V37.9248H20.1738V45.7539C20.1738 47.4362 18.8103 48.7998 17.1279 48.7998C15.4458 48.7998 14.082 47.4362 14.082 45.7539V37.9248H13.9316C11.8395 37.9247 10.1543 36.2092 10.1543 34.0801V14.2822C10.1543 14.1642 10.1628 14.0471 10.1729 13.9316H37.8291C37.8389 14.0467 37.8428 14.1642 37.8428 14.2822ZM5.26074 15.6934C6.94286 15.6934 8.30663 17.0569 8.30664 18.7393V31.8066C8.3066 33.4889 6.94284 34.8525 5.26074 34.8525C3.57853 34.8524 2.21484 33.4887 2.21484 31.8066V18.7393C2.21476 17.0571 3.57839 15.6935 5.26074 15.6934ZM42.7383 15.6934C44.4204 15.6934 45.7842 17.0569 45.7842 18.7393V31.8066C45.7841 33.4889 44.4204 34.8525 42.7383 34.8525C41.0561 34.8524 39.6924 33.4887 39.6924 31.8066V18.7393C39.6925 17.0571 41.0562 15.6935 42.7383 15.6934ZM25.5303 0.90625C32.3439 1.5636 37.6516 6.55007 37.7363 12.6309H10.2627C10.3474 6.54964 15.6556 1.56338 22.4688 0.90625H25.5303ZM18.3252 5.63672C17.4549 5.63921 16.7516 6.33049 16.7539 7.18066V7.18848C16.7565 8.03845 17.4639 8.72565 18.334 8.72363C19.2044 8.72128 19.9086 8.03052 19.9062 7.18066V7.17188C19.9037 6.3214 19.1954 5.63437 18.3252 5.63672ZM30.0889 5.63672C29.2187 5.63926 28.5152 6.33052 28.5176 7.18066V7.18848C28.5201 8.03842 29.2277 8.7256 30.0977 8.72363C30.9681 8.72128 31.6723 8.03052 31.6699 7.18066V7.17188C31.6674 6.3214 30.959 5.63437 30.0889 5.63672Z" fill="url(#paint1_linear_2054_43707)"/>
<defs>
<linearGradient id="paint0_linear_2054_43707" x1="14.7655" y1="-0.231248" x2="34.6937" y2="5.88304" gradientUnits="userSpaceOnUse">
<stop stop-color="#47647A"/>
<stop offset="1" stop-color="#769CB8"/>
</linearGradient>
<linearGradient id="paint1_linear_2054_43707" x1="8.13167" y1="-3.84006" x2="45.4601" y2="-1.553" gradientUnits="userSpaceOnUse">
<stop stop-color="#47647A"/>
<stop offset="1" stop-color="#769CB8"/>
</linearGradient>
</defs>
</svg>
