<svg width="48" height="50" viewBox="0 0 48 50" fill="none" xmlns="http://www.w3.org/2000/svg">
<path d="M36.5739 26.5899C36.5194 20.2732 41.5325 17.2 41.7618 17.057C38.9226 12.7393 34.5221 12.1494 32.9757 12.1024C29.2798 11.6967 25.6947 14.4092 23.812 14.4092C21.8917 14.4092 18.9924 12.1416 15.8677 12.2082C11.8467 12.2729 8.08505 14.7012 6.02195 18.472C1.76421 26.1607 4.93966 37.4595 9.0189 43.6743C11.0595 46.72 13.4439 50.1165 16.5648 49.9969C19.6181 49.8676 20.7587 47.9684 24.4433 47.9684C28.0942 47.9684 29.1652 49.9969 32.3481 49.9205C35.6251 49.8676 37.6882 46.8631 39.6573 43.7919C42.0154 40.3053 42.9624 36.8676 43 36.6912C42.9248 36.6638 36.6378 34.159 36.5739 26.5899ZM30.5612 8.01401C32.2035 5.87185 33.3271 2.95748 33.0152 0C30.6383 0.109754 27.6658 1.71491 25.954 3.81004C24.4396 5.65626 23.0867 8.68234 23.4362 11.5281C26.1062 11.7359 28.8476 10.1229 30.5612 8.01401Z" fill="url(#paint0_linear_2054_43715)"/>
<defs>
<linearGradient id="paint0_linear_2054_43715" x1="9.2963" y1="-4.95496" x2="42.743" y2="-3.19788" gradientUnits="userSpaceOnUse">
<stop stop-color="#47647A"/>
<stop offset="1" stop-color="#769CB8"/>
</linearGradient>
</defs>
</svg>
