<svg width="122" height="20" viewBox="0 0 122 20" fill="none" xmlns="http://www.w3.org/2000/svg">
<g clip-path="url(#clip0_111_2588)">
<path d="M6.16683 12.0922H4.5004H3.52832H2.55366L3.52832 9.67735L3.99893 10.8476H5.66794L3.52832 5.53906L0 14.2894H1.66643L1.97503 13.5262H5.07903L5.38762 14.2894H7.05406L6.16683 12.0922Z" fill="#C6CE4E"/>
<path d="M12.6484 10.5989C13.2862 10.1047 13.6976 9.33389 13.6976 8.46832V8.41456C13.6976 6.92159 12.4838 5.71289 10.9845 5.71289H8.47461V7.24937H11C11.6558 7.24937 12.1855 7.77691 12.1855 8.42991V8.45296C12.1855 9.10597 11.6558 9.63351 11 9.63351H9.99961V8.49137H8.47461V14.2916H9.99961V11.1726H10.9845C11.0566 11.1726 11.126 11.1674 11.198 11.1623L12.7744 14.2916H14.5077L12.651 10.6015L12.6484 10.5989Z" fill="#C6CE4E"/>
<path d="M19.5835 5.71289L17.3668 8.79099V5.71289H15.8418V14.2891H17.3668V11.4517L21.4429 5.71289H19.5835Z" fill="#C6CE4E"/>
<path d="M19.8169 10.0361L18.832 11.4215L20.3724 14.2896H22.1031L19.8169 10.0361Z" fill="#C6CE4E"/>
<path d="M26.6596 5.50879C24.1677 5.50879 22.1465 7.52161 22.1465 10.0005C22.1465 12.4793 24.1677 14.4922 26.6596 14.4922C29.1516 14.4922 31.173 12.4793 31.173 10.0005C31.173 7.52161 29.1516 5.50879 26.6596 5.50879ZM26.6596 12.948C25.0267 12.948 23.7022 11.6292 23.7022 10.003C23.7022 8.37691 25.0267 7.05809 26.6596 7.05809C28.2926 7.05809 29.6171 8.37691 29.6171 10.003C29.6171 11.6292 28.2926 12.948 26.6596 12.948Z" fill="#C6CE4E"/>
<path d="M36.8157 5.72579V10.3762L32.5957 5.44922V7.84359L36.8157 12.7706L38.3382 14.5504V12.1535V5.72579H36.8157Z" fill="#C6CE4E"/>
<path d="M32.5957 14.2892H34.1182V11.2675L32.5957 9.49023V14.2892Z" fill="#C6CE4E"/>
<path d="M74.7462 15.7584C74.6922 15.8916 74.5844 16.1605 74.3429 16.1605C74.1016 16.1605 73.9911 15.8916 73.9373 15.7584L68.3034 0.570312H64.4492L71.2949 17.5586C72.05 19.4126 73.4776 19.6021 74.3404 19.6021C76.2535 19.6021 77.0366 18.4473 77.3859 17.5586L84.2343 0.570312H80.3799L74.7462 15.7584Z" fill="#C6CE4E"/>
<path d="M88.7353 5.1416H85.582V19.39H88.7353V5.1416Z" fill="#C6CE4E"/>
<path d="M102.455 13.1518C101.754 12.3989 100.596 12.0225 98.8956 11.5385L95.8219 10.6781C95.4445 10.5705 94.4481 10.276 94.0425 9.95335C93.611 9.60252 93.5828 9.25425 93.5828 8.8522C93.5828 8.47577 93.611 8.1275 93.9886 7.83045C94.3377 7.56157 94.7434 7.56157 95.0927 7.56157H102.668V5.1416H94.6074C93.3954 5.1416 92.019 5.22355 91.1846 6.37847C90.6195 7.15695 90.5117 8.09934 90.5117 8.79844C90.5117 9.49754 90.6195 10.4374 91.1846 11.2184C91.7519 11.9969 92.8021 12.5346 94.3121 12.9393L97.0623 13.6921C99.0574 14.2299 99.4349 14.4168 99.6505 14.6063C99.9998 14.929 100.054 15.3054 100.054 15.6819C100.054 15.897 100.054 16.2734 99.7841 16.5705C99.4888 16.9188 99.0574 16.9725 98.7339 16.9725H90.7017V19.3925H99.8405C100.513 19.3925 101.404 19.3386 102.131 18.801C102.67 18.3706 103.317 17.4846 103.317 15.7638C103.317 14.9853 103.184 13.9354 102.455 13.1569" fill="#C6CE4E"/>
<path d="M87.1563 0.393555C86.1933 0.393555 85.4102 1.17204 85.4102 2.13489C85.4102 3.09776 86.1906 3.87624 87.1563 3.87624C88.1217 3.87624 88.9024 3.09776 88.9024 2.13489C88.9024 1.17204 88.1217 0.393555 87.1563 0.393555Z" fill="#C6CE4E"/>
<path d="M55.0528 0C49.984 0 45.7984 3.74902 45.123 8.6171H48.6051C49.2418 5.64913 51.8867 3.42378 55.0528 3.42378C58.219 3.42378 60.8637 5.64913 61.5006 8.6171H64.9825C64.3071 3.74902 60.119 0 55.0528 0Z" fill="#C6CE4E"/>
<path d="M55.0528 16.5761C51.8867 16.5761 49.2418 14.3508 48.6051 11.3828H45.123C45.7984 16.2509 49.984 20 55.0528 20C60.1217 20 64.3071 16.2509 64.9825 11.3828H61.5006C60.8637 14.3508 58.219 16.5761 55.0528 16.5761Z" fill="#C6CE4E"/>
<path d="M114.12 0.570312H110.967V19.3871H114.12V0.570312Z" fill="#C6CE4E"/>
<path d="M121.163 0.570312H118.01V19.3871H121.163V0.570312Z" fill="#C6CE4E"/>
</g>
<defs>
<clipPath id="clip0_111_2588">
<rect width="122" height="20" fill="white"/>
</clipPath>
</defs>
</svg>
