<svg width="94" height="16" viewBox="0 0 94 16" fill="none" xmlns="http://www.w3.org/2000/svg">
<g clip-path="url(#clip0_2591_69705)">
<path d="M59.5718 13.1481V0.171875H57.124V13.8917C57.124 14.8525 57.4901 15.9977 59.2291 15.9977H68.5352V13.7934H60.2261C59.6497 13.7934 59.5718 13.6643 59.5718 13.1501V13.1481Z" fill="#9DACB7"/>
<path d="M78.6325 7.44051H72.1597V3.13013C72.1597 2.49095 72.2103 2.37623 72.8549 2.37623H81.0199V0.171875H72.0058C70.4636 0.171875 69.7139 0.968802 69.7139 2.60568V15.9977H72.1616V9.64486H78.6344V7.44051H78.6325Z" fill="#9DACB7"/>
<path d="M84.0883 7.43457L85.8409 3.01972C85.8604 2.9726 85.8799 2.92343 85.8974 2.87222C85.9422 2.75339 86.0356 2.5137 86.1019 2.45019C86.1797 2.51575 86.2907 2.79641 86.3414 2.92138L88.1056 7.43457H90.5826L88.3529 1.84789C87.9907 0.934187 87.4396 0 86.1019 0C84.8712 0 84.3357 0.706786 83.8703 1.84789L81.6309 7.43662H84.0903L84.0883 7.43457Z" fill="#9DACB7"/>
<path d="M91.4642 9.64844H88.9697H83.2116H80.7424L78.1973 16.0013H80.795L82.4151 11.8528H89.7642L91.4038 16.0013H93.9996L91.4642 9.64844Z" fill="#9DACB7"/>
<path d="M46.5464 7.43457L48.2989 3.01972C48.3184 2.9726 48.3359 2.92343 48.3554 2.87222C48.4002 2.75339 48.4937 2.5137 48.5599 2.45019C48.6378 2.51575 48.7488 2.79641 48.7994 2.92138L50.5636 7.43457H53.0406L50.8109 1.84789C50.4487 0.934187 49.8977 0 48.5599 0C47.3292 0 46.7937 0.706786 46.3283 1.84789L44.0889 7.43662H46.5483L46.5464 7.43457Z" fill="#9DACB7"/>
<path d="M53.9232 9.64844H51.4268H45.6686H43.2014L40.6562 16.0013H43.2539L44.8721 11.8528H52.2232L53.8609 16.0013H56.4586L53.9232 9.64844Z" fill="#9DACB7"/>
<path d="M4.66962 9.6722H3.40777H2.67169H1.93367L2.67169 7.74032L3.02805 8.67655H4.29185L2.67169 4.42969L0 11.4299H1.26185L1.49553 10.8194H3.84591L4.07959 11.4299H5.34144L4.66962 9.6722Z" fill="#9DACB7"/>
<path d="M9.57648 8.47915C10.0594 8.08376 10.371 7.46711 10.371 6.77467V6.73164C10.371 5.53728 9.45185 4.57031 8.31658 4.57031H6.41602V5.79951H8.32826C8.82482 5.79951 9.22597 6.22153 9.22597 6.74394V6.76237C9.22597 7.28478 8.82482 7.7068 8.32826 7.7068H7.57076V6.7931H6.41602V11.4333H7.57076V8.93805H8.31658C8.3711 8.93805 8.42368 8.93395 8.47821 8.92985L9.6719 11.4333H10.9844L9.57843 8.4812L9.57648 8.47915Z" fill="#9DACB7"/>
<path d="M14.8284 4.57031L13.1499 7.0328V4.57031H11.9951V11.4313H13.1499V9.16135L16.2363 4.57031H14.8284Z" fill="#9DACB7"/>
<path d="M15.0066 8.02344L14.2607 9.13176L15.4272 11.4263H16.7377L15.0066 8.02344Z" fill="#9DACB7"/>
<path d="M20.188 4.40625C18.3011 4.40625 16.7705 6.01649 16.7705 7.99959C16.7705 9.98269 18.3011 11.5929 20.188 11.5929C22.0749 11.5929 23.6055 9.98269 23.6055 7.99959C23.6055 6.01649 22.0749 4.40625 20.188 4.40625V4.40625ZM20.188 10.3576C18.9515 10.3576 17.9486 9.30254 17.9486 8.00164C17.9486 6.70074 18.9515 5.64569 20.188 5.64569C21.4246 5.64569 22.4274 6.70074 22.4274 8.00164C22.4274 9.30254 21.4246 10.3576 20.188 10.3576Z" fill="#9DACB7"/>
<path d="M27.8772 4.58063V8.30099L24.6816 4.35938V6.27487L27.8772 10.2165L29.03 11.6403V9.72276V4.58063H27.8772Z" fill="#9DACB7"/>
<path d="M24.6816 11.4251H25.8344V9.0077L24.6816 7.58594V11.4251Z" fill="#9DACB7"/>
</g>
<defs>
<clipPath id="clip0_2591_69705">
<rect width="94" height="16" rx="5.68148" fill="white"/>
</clipPath>
</defs>
</svg>
