<svg width="94" height="16" viewBox="0 0 94 16" fill="none" xmlns="http://www.w3.org/2000/svg">
<g clip-path="url(#clip0_156_1524)">
<path d="M59.5728 13.15V0.173828H57.125V13.8937C57.125 14.8545 57.4911 15.9997 59.23 15.9997H68.5362V13.7953H60.227C59.6506 13.7953 59.5728 13.6663 59.5728 13.1521V13.15Z" fill="#47647A"/>
<path d="M78.6335 7.44246H72.1607V3.13209C72.1607 2.49291 72.2113 2.37818 72.8558 2.37818H81.0209V0.173828H72.0068C70.4646 0.173828 69.7148 0.970755 69.7148 2.60763V15.9997H72.1626V9.64681H78.6354V7.44246H78.6335Z" fill="#47647A"/>
<path d="M84.0903 7.43652L85.8429 3.02167C85.8623 2.97455 85.8818 2.92538 85.8993 2.87417C85.9441 2.75535 86.0376 2.51565 86.1038 2.45215C86.1817 2.5177 86.2927 2.79837 86.3433 2.92334L88.1076 7.43652H90.5845L88.3549 1.84984C87.9927 0.93614 87.4416 0.00195312 86.1038 0.00195312C84.8731 0.00195312 84.3376 0.708739 83.8722 1.84984L81.6328 7.43857H84.0922L84.0903 7.43652Z" fill="#47647A"/>
<path d="M91.4662 9.64746H88.9717H83.2135H80.7443L78.1992 16.0003H80.7969L82.4171 11.8518H89.7662L91.4058 16.0003H94.0015L91.4662 9.64746Z" fill="#47647A"/>
<path d="M46.5473 7.43652L48.2999 3.02167C48.3194 2.97455 48.3369 2.92538 48.3564 2.87417C48.4012 2.75535 48.4946 2.51565 48.5608 2.45215C48.6387 2.5177 48.7497 2.79837 48.8004 2.92334L50.5646 7.43652H53.0416L50.8119 1.84984C50.4497 0.93614 49.8986 0.00195312 48.5608 0.00195312C47.3301 0.00195312 46.7946 0.708739 46.3292 1.84984L44.0898 7.43857H46.5493L46.5473 7.43652Z" fill="#47647A"/>
<path d="M53.9232 9.64746H51.4268H45.6686H43.2014L40.6562 16.0003H43.2539L44.8721 11.8518H52.2232L53.8609 16.0003H56.4586L53.9232 9.64746Z" fill="#47647A"/>
<path d="M4.66962 9.67317H3.40777H2.67169H1.93367L2.67169 7.74129L3.02805 8.67753H4.29185L2.67169 4.43066L0 11.4309H1.26185L1.49553 10.8204H3.84591L4.07959 11.4309H5.34144L4.66962 9.67317Z" fill="#47647A"/>
<path d="M9.57648 8.47915C10.0594 8.08376 10.371 7.46711 10.371 6.77467V6.73164C10.371 5.53728 9.45185 4.57031 8.31658 4.57031H6.41602V5.79951H8.32826C8.82482 5.79951 9.22597 6.22153 9.22597 6.74394V6.76237C9.22597 7.28478 8.82482 7.7068 8.32826 7.7068H7.57076V6.7931H6.41602V11.4333H7.57076V8.93805H8.31658C8.3711 8.93805 8.42368 8.93395 8.4782 8.92985L9.6719 11.4333H10.9844L9.57843 8.4812L9.57648 8.47915Z" fill="#47647A"/>
<path d="M14.8294 4.57031L13.1508 7.0328V4.57031H11.9961V11.4313H13.1508V9.16135L16.2373 4.57031H14.8294Z" fill="#47647A"/>
<path d="M15.0056 8.02832L14.2598 9.13664L15.4262 11.4311H16.7367L15.0056 8.02832Z" fill="#47647A"/>
<path d="M20.187 4.40625C18.3001 4.40625 16.7695 6.01649 16.7695 7.99959C16.7695 9.98269 18.3001 11.5929 20.187 11.5929C22.074 11.5929 23.6045 9.98269 23.6045 7.99959C23.6045 6.01649 22.074 4.40625 20.187 4.40625ZM20.187 10.3576C18.9505 10.3576 17.9476 9.30254 17.9476 8.00164C17.9476 6.70074 18.9505 5.64569 20.187 5.64569C21.4236 5.64569 22.4264 6.70074 22.4264 8.00164C22.4264 9.30254 21.4236 10.3576 20.187 10.3576Z" fill="#47647A"/>
<path d="M27.8772 4.58063V8.30099L24.6816 4.35938V6.27487L27.8772 10.2165L29.03 11.6403V9.72275V4.58063H27.8772Z" fill="#47647A"/>
<path d="M24.6816 11.431H25.8344V9.01356L24.6816 7.5918V11.431Z" fill="#47647A"/>
</g>
<defs>
<clipPath id="clip0_156_1524">
<rect width="94" height="16" rx="5.68148" fill="white"/>
</clipPath>
</defs>
</svg>
