<svg width="76" height="74" viewBox="0 0 76 74" fill="none" xmlns="http://www.w3.org/2000/svg">
<path d="M30.6073 32.2809C31.5327 32.2809 32.2829 31.5307 32.2829 30.6053C32.2829 29.6799 31.5327 28.9297 30.6073 28.9297C29.6818 28.9297 28.9316 29.6799 28.9316 30.6053C28.9316 31.5307 29.6818 32.2809 30.6073 32.2809Z" fill="#C6CF4F"/>
<path d="M20.8422 23.8876C22.5242 23.8876 23.8876 22.5242 23.8876 20.8422C23.8876 19.1603 22.5242 17.7969 20.8422 17.7969C19.1603 17.7969 17.7969 19.1603 17.7969 20.8422C17.7969 22.5242 19.1603 23.8876 20.8422 23.8876Z" fill="#C6CF4F"/>
<path d="M36.2871 20.9414C45.3361 20.9544 52.6869 28.331 52.6484 37.3672C52.6099 46.4035 45.2778 53.7091 36.2607 53.6963C27.2118 53.6833 19.861 46.3067 19.8994 37.2705C19.9381 28.2344 27.2701 20.9286 36.2871 20.9414ZM36.293 23.8125C28.8206 23.7934 22.8028 29.7789 22.7705 37.2705C22.7385 44.7366 28.7114 50.7679 36.2031 50.8193C43.6629 50.8706 49.7064 44.8971 49.7705 37.4053C49.8345 29.9135 43.8104 23.8317 36.293 23.8125Z" fill="#5D798E"/>
<path d="M35.5233 1.03906C15.905 1.03906 0 16.9441 0 36.5623C0 56.1806 15.905 72.0856 35.5233 72.0856C55.1415 72.0856 71.0465 56.1806 71.0465 36.5623C71.0465 16.9441 55.1415 1.03906 35.5233 1.03906ZM35.5233 64.7129C19.9735 64.7129 7.37275 52.1121 7.37275 36.5623C7.37275 21.0125 19.9735 8.41182 35.5233 8.41182C51.0731 8.41182 63.6738 21.0125 63.6738 36.5623C63.6738 52.1121 51.0731 64.7129 35.5233 64.7129Z" fill="#2B3846"/>
<path d="M70.5507 0H50.7649C47.8998 0 45.5771 2.32263 45.5771 5.18774V11.5685C45.5771 14.4336 47.8998 16.7563 50.7649 16.7563H70.5507C73.4158 16.7563 75.7384 14.4336 75.7384 11.5685V5.18774C75.7384 2.32263 73.4158 0 70.5507 0Z" fill="#47647A"/>
<path d="M53.1638 10.2258C52.9895 10.2928 52.7817 10.333 52.5605 10.333C52.1182 10.333 51.7294 10.1789 51.4412 9.88395C51.0391 9.4751 51.0391 8.9322 51.0391 8.24854V8.08098C51.0391 7.26327 51.1262 6.93485 51.4412 6.61313C51.7294 6.31822 52.1115 6.16406 52.5538 6.16406C52.7817 6.16406 52.9828 6.19758 53.1571 6.2713C53.3514 6.35173 53.4654 6.41876 53.6865 6.63324L53.1571 7.16274C52.9292 6.94155 52.7884 6.87453 52.5538 6.87453C52.3393 6.87453 52.1651 6.94155 52.0377 7.08901C51.8367 7.31689 51.8367 7.73915 51.8367 8.1346V8.35578C51.8367 9.00592 51.8769 9.23381 52.0377 9.40807C52.1651 9.55553 52.3326 9.62256 52.5538 9.62256C52.7951 9.62256 52.9359 9.55553 53.1571 9.33435L53.6865 9.86385C53.4587 10.0783 53.3514 10.1454 53.1571 10.2258H53.1638Z" fill="#D4DBE1"/>
<path d="M56.9035 9.88284C56.6153 10.1845 56.24 10.3319 55.7976 10.3319C55.3552 10.3319 54.9732 10.1778 54.685 9.88284C54.2493 9.44048 54.2828 8.75682 54.2828 8.30105V8.07317C54.2828 7.25546 54.37 6.92704 54.685 6.60532C54.9732 6.31041 55.3552 6.15625 55.7976 6.15625C56.24 6.15625 56.6153 6.31041 56.9035 6.60532C57.1917 6.90023 57.3124 7.28897 57.3124 7.95252V8.24073C57.3124 8.83055 57.3392 9.42037 56.9035 9.87614V9.88284ZM56.307 7.0879C56.1796 6.94715 55.9987 6.86672 55.7909 6.86672C55.5831 6.86672 55.4021 6.94044 55.2748 7.0879C55.0871 7.28897 55.0804 7.67772 55.0804 8.18711C55.0804 8.6965 55.0603 9.17908 55.2748 9.40026C55.4155 9.54101 55.5831 9.62144 55.7909 9.62144C55.9987 9.62144 56.1796 9.54772 56.307 9.40026C56.4745 9.21259 56.5081 9.01152 56.5081 8.1737C56.5081 7.49675 56.4678 7.27557 56.307 7.0946V7.0879Z" fill="#D4DBE1"/>
<path d="M60.4699 10.2961L60.2286 9.57226H58.7674L58.5195 10.2961H57.6816L59.1763 6.1875H59.8063L61.3077 10.2961H60.4699ZM59.5114 7.40065L58.9953 8.89531H60.0141L59.5114 7.40065Z" fill="#D4DBE1"/>
<path d="M63.3787 6.90467V10.2961H62.5744V6.90467H61.502V6.1875H64.4511V6.90467H63.3787Z" fill="#D4DBE1"/>
<path d="M65.1016 10.2961V6.1875H67.8094V6.90467H65.9059V7.86983H67.5279V8.587H65.9059V9.58567H67.8094V10.3028H65.1016V10.2961Z" fill="#D4DBE1"/>
<path d="M70.074 6.19531C70.5298 6.19531 70.8984 6.32936 71.1598 6.59076C71.4614 6.89237 71.5754 7.2409 71.5754 7.87094V8.23287C71.5754 8.66183 71.5553 8.98355 71.5285 9.19804C71.495 9.43933 71.3408 9.73424 71.1598 9.9152C70.8917 10.1766 70.5298 10.3039 70.074 10.3039H68.5928V6.19531H70.074ZM70.0003 9.58678C70.2684 9.58678 70.4695 9.49965 70.5968 9.33208C70.7376 9.15112 70.7711 8.93664 70.7711 8.16585C70.7711 7.55592 70.7309 7.33474 70.5968 7.16047C70.4628 6.99291 70.2617 6.90578 70.0003 6.90578H69.3971V9.58008H70.0003V9.58678Z" fill="#D4DBE1"/>
</svg>
