<svg width="76" height="74" viewBox="0 0 76 74" fill="none" xmlns="http://www.w3.org/2000/svg">
<path d="M36.5233 1.08594C16.905 1.08594 1 16.991 1 36.6092C1 56.2274 16.905 72.1325 36.5233 72.1325C56.1415 72.1325 72.0465 56.2274 72.0465 36.6092C72.0465 16.991 56.1415 1.08594 36.5233 1.08594ZM36.5233 64.7597C20.9735 64.7597 8.37275 52.159 8.37275 36.6092C8.37275 21.0594 20.9735 8.45869 36.5233 8.45869C52.0731 8.45869 64.6738 21.0594 64.6738 36.6092C64.6738 52.159 52.0731 64.7597 36.5233 64.7597Z" fill="#2B3846"/>
<path d="M69.6122 1.08594H49.8264C46.9613 1.08594 44.6387 3.40857 44.6387 6.27368V12.6545C44.6387 15.5196 46.9613 17.8422 49.8264 17.8422H69.6122C72.4773 17.8422 74.7999 15.5196 74.7999 12.6545V6.27368C74.7999 3.40857 72.4773 1.08594 69.6122 1.08594Z" fill="#47647A"/>
<path d="M46.0772 25.8919C47.1094 25.8919 48.0477 25.8919 48.9861 25.8919C49.4284 25.8919 49.7837 26.1198 49.8306 26.5421C49.8574 26.8236 49.7166 27.1989 49.5156 27.4067C49.3614 27.5743 49.0129 27.6078 48.7448 27.6145C47.5987 27.6346 46.4458 27.6212 45.2997 27.6212C45.1522 27.6212 44.9713 27.5743 44.8573 27.6413C43.6777 28.3182 42.498 29.0019 41.3318 29.7124C41.1643 29.8129 41.0771 30.0609 40.9498 30.2486C43.5101 31.455 43.8654 31.8304 44.5021 33.955C45.0852 33.8076 45.6616 33.6333 46.2515 33.5194C47.2434 33.3317 48.2086 33.4725 49.1469 33.8277C49.7971 34.069 49.9713 34.4108 49.8105 35.0744C49.3145 37.1253 48.3627 38.9082 46.7608 40.3224C45.4606 41.4753 43.9391 42.0651 42.2031 42.1053C42.0959 42.1053 41.9819 42.1187 41.7742 42.1388C41.7206 42.9632 41.6803 43.7876 41.5999 44.6053C41.4726 45.9123 41.4659 47.2461 41.1575 48.5129C40.3868 51.6229 37.4712 52.8963 34.6159 51.4821C33.8049 51.0799 33.3223 50.3963 32.9537 49.6121C32.2968 48.2247 32.1829 46.73 32.1293 45.222C32.0958 44.2099 32.0287 43.1978 31.9751 42.1723C31.3116 42.0919 30.715 42.0718 30.1453 41.9444C27.3504 41.3144 25.6547 39.4243 24.5286 36.9243C24.2538 36.321 24.0796 35.6709 23.8986 35.0275C23.731 34.4309 23.9254 34.0824 24.5152 33.8478C25.9026 33.3049 27.2968 33.3116 28.6976 33.8143C28.8517 33.8679 29.0059 33.9349 29.207 34.0154C29.6493 32.0783 30.8156 30.8317 32.9135 30.2687C32.4443 29.833 32.1159 29.4108 31.6869 29.1427C30.8759 28.6333 30.0113 28.1976 29.1534 27.7552C28.9523 27.6547 28.6909 27.6212 28.463 27.6212C27.3303 27.6078 26.2043 27.6212 25.0715 27.6145C24.8906 27.6145 24.6962 27.6145 24.5219 27.5676C24.0595 27.4603 23.8316 27.152 23.845 26.6828C23.8584 26.2204 24.2203 25.8919 24.7431 25.8852C25.6815 25.8718 26.6198 25.8852 27.6453 25.8852C27.0488 24.8061 26.4925 23.8075 25.9429 22.8021C25.8423 22.6211 25.7418 22.4468 25.6479 22.2659C25.3731 21.7364 25.4804 21.2538 25.9228 21.0058C26.3651 20.7511 26.841 20.8986 27.1426 21.408C27.4174 21.8704 27.6654 22.3463 27.9268 22.8155C28.4228 23.7069 28.9389 24.5849 29.3946 25.4898C29.656 26.0126 30.0314 26.3343 30.5944 26.522C30.9161 25.8048 31.2311 25.0742 31.5663 24.3571C31.8411 23.7538 32.2566 23.5461 32.7459 23.7471C33.2553 23.9549 33.4094 24.4375 33.1481 25.0474C32.8196 25.8115 32.4778 26.5689 32.1628 27.2794C32.7057 27.7351 33.2754 28.1038 33.691 28.6065C34.073 29.0622 34.2741 29.6654 34.5824 30.1882C34.6762 30.3491 34.8505 30.5435 35.0113 30.577C36.2379 30.8384 37.4779 30.8317 38.7044 30.577C38.8519 30.5502 39.0463 30.4094 39.0865 30.2821C39.4752 28.9617 40.2996 28.0166 41.5865 27.3732C41.2313 26.5689 40.8827 25.778 40.5275 24.9938C40.3331 24.5514 40.3666 24.156 40.7688 23.8477C41.2313 23.4924 41.8077 23.6667 42.0892 24.2565C42.4444 25.0072 42.7728 25.7646 43.1147 26.522C43.6844 26.3276 44.0463 25.9925 44.3144 25.4831C45.0115 24.156 45.7555 22.8557 46.4927 21.5487C46.8413 20.9187 47.3172 20.731 47.793 21.0058C48.2555 21.2739 48.3359 21.7565 48.0008 22.3597C47.3708 23.5058 46.7407 24.652 46.0638 25.8718L46.0772 25.8919ZM36.821 50.2622C38.3291 50.2756 39.1602 49.6858 39.502 48.0839C39.7567 46.8641 39.8103 45.5906 39.8774 44.3439C40.0315 41.5289 40.5074 38.8345 42.297 36.5221C42.8332 35.8317 42.9337 34.9939 42.7527 34.1427C42.4578 32.7486 41.2782 31.8371 40.0315 32.132C37.9135 32.628 35.8156 32.6548 33.7111 32.1186C32.8799 31.9108 32.2231 32.2124 31.6869 32.8357C30.7284 33.9416 30.6547 35.4229 31.526 36.6226C32.5917 38.0905 33.3223 39.6924 33.5435 41.4954C33.6977 42.7755 33.7379 44.0758 33.8853 45.3627C34.0127 46.4418 34.1132 47.541 34.4148 48.5732C34.7768 49.8333 35.5073 50.2555 36.8277 50.2689L36.821 50.2622ZM42.1495 40.3224C44.6898 40.4766 47.6858 37.7621 47.8533 35.2821C47.096 35.1481 46.3319 35.1213 45.6415 35.4698C45.1455 35.7178 44.6227 36.0261 44.2742 36.4484C43.8184 36.9913 43.5168 37.6615 43.175 38.2916C42.8265 38.935 42.5114 39.5986 42.1495 40.3224ZM25.8624 35.2888C26.4724 37.8358 28.8383 40.5503 31.4791 40.3157C31.4657 40.242 31.4657 40.1616 31.4322 40.1012C30.7419 38.801 30.0448 37.5074 29.3477 36.2138C29.3075 36.1401 29.2137 36.0864 29.14 36.0328C28.1748 35.2888 27.089 35.061 25.8624 35.2888Z" fill="url(#paint0_linear_2717_97324)"/>
<path d="M40.9498 30.2478C43.5101 31.4542 43.8654 31.8296 44.5021 33.9543C45.0852 33.8068 45.6616 33.6326 46.2515 33.5186C47.2434 33.3309 48.2086 33.4717 49.1469 33.8269C49.7971 34.0682 49.9713 34.41 49.8105 35.0736C49.3145 37.1246 48.3627 38.9074 46.7608 40.3217C45.4606 41.4745 43.9391 42.0643 42.2031 42.1045C42.0959 42.1045 41.9819 42.1179 41.7742 42.138C41.7206 42.9624 41.6803 43.7868 41.5999 44.6046C41.4726 45.9115 41.4659 47.2453 41.1575 48.5121C40.3868 51.6221 37.4712 52.8955 34.6159 51.4813C33.8049 51.0792 33.3223 50.3955 32.9537 49.6113C32.2968 48.2239 32.1829 46.7292 32.1293 45.2212C32.0958 44.2091 32.0287 43.197 31.9751 42.1715C31.3116 42.0911 30.715 42.071 30.1453 41.9437C27.3504 41.3136 25.6547 39.4235 24.5286 36.9235C24.2538 36.3203 24.0796 35.6701 23.8986 35.0267C23.731 34.4302 23.9254 34.0816 24.5152 33.847C25.9026 33.3041 27.2968 33.3108 28.6976 33.8135C28.8517 33.8671 29.0059 33.9342 29.207 34.0146C29.6493 32.0776 30.8156 30.8309 32.9135 30.2679C33.7111 30.2679 34.1288 30.3924 35.0113 30.5762C36.2379 30.8376 37.4779 30.8309 38.7044 30.5762C38.7777 30.5629 39.829 30.0183 40.9498 30.2478ZM36.821 50.2615C38.3291 50.2749 39.1602 49.685 39.502 48.0831C39.7567 46.8633 39.8103 45.5898 39.8774 44.3432C40.0315 41.5281 40.5074 38.8337 42.297 36.5213C42.8332 35.831 42.9337 34.9932 42.7527 34.1419C42.4578 32.7478 41.2782 31.8363 40.0315 32.1312C37.9135 32.6272 35.8156 32.654 33.7111 32.1178C32.8799 31.91 32.2231 32.2116 31.6869 32.835C30.7284 33.9409 30.6547 35.4221 31.526 36.6219C32.5917 38.0897 33.3223 39.6916 33.5435 41.4946C33.6977 42.7748 33.7379 44.0751 33.8853 45.3619C34.0127 46.441 34.1132 47.5402 34.4148 48.5724C34.7768 49.8325 35.5073 50.2548 36.8277 50.2682L36.821 50.2615ZM42.1495 40.3217C44.6898 40.4758 47.6858 37.7613 47.8533 35.2814C47.096 35.1473 46.3319 35.1205 45.6415 35.469C45.1455 35.717 44.6227 36.0253 44.2742 36.4476C43.8184 36.9905 43.5168 37.6608 43.175 38.2908C42.8265 38.9342 42.5114 39.5978 42.1495 40.3217ZM25.8624 35.2881C26.4724 37.835 28.8383 40.5495 31.4791 40.315C31.4657 40.2412 31.4657 40.1608 31.4322 40.1005C30.7419 38.8002 30.0448 37.5066 29.3477 36.213C29.3075 36.1393 29.2137 36.0857 29.14 36.0321C28.1748 35.2881 27.089 35.0602 25.8624 35.2881Z" fill="#C6CF4F"/>
<rect x="36.0215" y="7.17578" width="3.04537" height="10.6588" fill="#2B3846"/>
<rect x="36.0215" y="57.4258" width="3.04537" height="10.6588" fill="#2B3846"/>
<rect x="67.998" y="36.1055" width="3.04537" height="10.6588" transform="rotate(90 67.998 36.1055)" fill="#2B3846"/>
<rect x="17.75" y="36.1055" width="3.04537" height="10.6588" transform="rotate(90 17.75 36.1055)" fill="#2B3846"/>
<path d="M51.7915 11.5094V10.5411L49.2963 9.63989L51.7915 8.7312V7.77038L48.2461 9.17065V10.1091L51.7915 11.5094Z" fill="#D4DBE1"/>
<path d="M55.0461 9.03658C55.2249 8.93231 55.2919 8.88017 55.3813 8.77589C55.5675 8.55989 55.6569 8.29176 55.6569 7.95658C55.6569 7.06279 54.9866 6.42969 54.0406 6.42969C53.3479 6.42969 52.7819 6.76486 52.5435 7.32348C52.4616 7.50969 52.4392 7.63631 52.4169 7.94169H53.3852C53.4299 7.52458 53.6608 7.30114 54.0406 7.30114C54.4279 7.30114 54.6886 7.56927 54.6886 7.97893C54.6886 8.39603 54.4428 8.64183 54.0183 8.64183H53.8768V9.48348H54.0183C54.4801 9.48348 54.7631 9.75907 54.7631 10.2134C54.7631 10.6678 54.4875 10.9508 54.0481 10.9508C53.6086 10.9508 53.3554 10.7124 53.3256 10.2581H52.3573C52.3871 10.6901 52.4616 11.0551 52.7819 11.3679C53.0798 11.6584 53.5267 11.8222 54.0406 11.8222C55.0685 11.8222 55.7314 11.204 55.7314 10.2432C55.7314 9.87079 55.6346 9.56541 55.4186 9.31962C55.3143 9.20789 55.2398 9.14831 55.0461 9.03658Z" fill="#D4DBE1"/>
<path d="M57.5038 8.48541V7.34583H59.6489V6.47438H56.6249V9.46858H57.5113C57.623 9.17065 57.8241 9.03658 58.1518 9.03658C58.5987 9.03658 58.7998 9.33452 58.7998 9.99741C58.7998 10.6603 58.5987 10.9508 58.1295 10.9508C57.7422 10.9508 57.556 10.7571 57.4815 10.2953H56.5132C56.5356 10.5486 56.5505 10.6529 56.5951 10.8018C56.6622 11.0402 56.7814 11.2338 56.9452 11.3977C57.2208 11.6733 57.6379 11.8222 58.1295 11.8222C58.6136 11.8222 59.0009 11.6807 59.2989 11.3902C59.634 11.0625 59.7681 10.6752 59.7681 9.99741C59.7681 9.31962 59.6266 8.90252 59.2914 8.57479C59.0531 8.33645 58.7179 8.21727 58.3157 8.21727C57.988 8.21727 57.7273 8.2992 57.5038 8.48541Z" fill="#D4DBE1"/>
<path d="M66.1585 11.7775V9.29727C66.1585 8.41093 65.6222 7.85231 64.7657 7.85231C64.5348 7.85231 64.3262 7.88955 64.14 7.97148C63.9464 8.05341 63.8421 8.12789 63.6186 8.34389C63.4548 8.14279 63.3728 8.06831 63.209 7.98638C63.0228 7.897 62.8217 7.85231 62.6057 7.85231C62.412 7.85231 62.2258 7.88955 62.0545 7.96403C61.8832 8.03107 61.8013 8.09065 61.6225 8.25452V7.897H60.6766V11.7775H61.6448V9.43134C61.6448 8.99189 61.8906 8.72376 62.2928 8.72376C62.6876 8.72376 62.9334 8.99189 62.9334 9.43134V11.7775H63.9017V9.409C63.9017 8.99189 64.1549 8.72376 64.5497 8.72376C64.9444 8.72376 65.1902 8.99189 65.1902 9.43134V11.7775H66.1585Z" fill="#D4DBE1"/>
<path d="M71.5658 11.7775L69.6814 8.58224L71.4392 6.47438H70.1804L68.3109 8.78334V6.47438H67.2756V11.7775H68.3109V10.1836L68.9961 9.36431L70.3592 11.7775H71.5658Z" fill="#D4DBE1"/>
<defs>
<linearGradient id="paint0_linear_2717_97324" x1="27.3752" y1="17.7935" x2="49.6861" y2="19.048" gradientUnits="userSpaceOnUse">
<stop stop-color="#47647A"/>
<stop offset="1" stop-color="#769CB8"/>
</linearGradient>
</defs>
</svg>
