<svg width="76" height="74" viewBox="0 0 76 74" fill="none" xmlns="http://www.w3.org/2000/svg">
<path d="M61.6416 12.3651C47.7694 -1.50711 25.2763 -1.50711 11.4041 12.3651C-2.46805 26.2373 -2.46805 48.7304 11.4041 62.6026C25.2763 76.4748 47.7694 76.4748 61.6416 62.6026C75.5138 48.7304 75.5138 26.2373 61.6416 12.3651ZM16.6175 57.3892C5.62209 46.3939 5.62209 28.5738 16.6175 17.5784C27.6128 6.58302 45.4329 6.58302 56.4283 17.5784C67.4237 28.5738 67.4237 46.3939 56.4283 57.3892C45.4329 68.3846 27.6128 68.3846 16.6175 57.3892Z" fill="#2B3846"/>
<path d="M56.9803 16.3172L59.1337 18.4706L51.5968 26.0075L49.4434 23.8541L56.9803 16.3172Z" fill="#2B3846"/>
<path d="M21.4492 51.8483L23.6026 54.0017L16.0657 61.5386L13.9123 59.3852L21.4492 51.8483Z" fill="#2B3846"/>
<path d="M59.134 59.385L56.9806 61.5384L49.4437 54.0015L51.5971 51.8481L59.134 59.385Z" fill="#2B3846"/>
<path d="M23.6028 23.8538L21.4494 26.0072L13.9125 18.4703L16.0659 16.3169L23.6028 23.8538Z" fill="#2B3846"/>
<path d="M16.6209 40.4836C16.6209 40.5775 16.5941 40.6512 16.5338 40.7115C16.4802 40.7719 16.3997 40.7987 16.2992 40.7987H15.2C15.0994 40.7987 15.0257 40.7719 14.9654 40.7115C14.9118 40.6512 14.8783 40.5775 14.8783 40.4836V35.135L13.6852 36.1672C13.5713 36.2678 13.4774 36.3147 13.3903 36.3147C13.3099 36.3147 13.2764 36.2611 13.2764 36.1538V35.0881C13.2764 34.8133 13.3434 34.619 13.4841 34.4983L14.5699 33.56C14.7777 33.379 14.9788 33.2852 15.1732 33.2852H16.2925C16.393 33.2852 16.4668 33.312 16.5271 33.3723C16.5807 33.4326 16.6142 33.5063 16.6142 33.6002V40.4769L16.6209 40.4836Z" fill="#5D798E"/>
<path d="M23.5511 38.5215C23.5511 39.2119 23.3233 39.7749 22.8742 40.2106C22.4251 40.6462 21.842 40.8674 21.1315 40.8674C20.4211 40.8674 19.8446 40.6529 19.3889 40.2106C18.9331 39.7682 18.7119 39.2119 18.7119 38.5215V35.5724C18.7119 34.8821 18.9398 34.3191 19.3889 33.8834C19.8379 33.4477 20.4211 33.2266 21.1315 33.2266C21.842 33.2266 22.4184 33.4477 22.8742 33.8834C23.3233 34.3191 23.5511 34.8821 23.5511 35.5724V38.5215ZM20.4546 38.5349C20.4546 38.7762 20.5149 38.9639 20.6422 39.098C20.7696 39.232 20.9304 39.3057 21.1449 39.3057C21.3594 39.3057 21.5203 39.2387 21.6476 39.098C21.775 38.9572 21.8353 38.7762 21.8353 38.5349V35.5724C21.8353 35.3311 21.775 35.1435 21.6476 35.0027C21.5203 34.862 21.3594 34.7949 21.1516 34.7949C20.9439 34.7949 20.7763 34.862 20.6489 35.0027C20.5283 35.1435 20.4613 35.3311 20.4613 35.5724V38.5349H20.4546Z" fill="#5D798E"/>
<path d="M29.5167 40.4312C29.5167 40.5384 29.4899 40.6256 29.4296 40.6926C29.3693 40.7596 29.2955 40.7998 29.195 40.7998H24.6172V39.2381L27.3384 36.289C27.5931 36.0075 27.7205 35.7461 27.7205 35.4981C27.7205 35.2837 27.6601 35.1094 27.5395 34.982C27.4188 34.8547 27.258 34.7944 27.0435 34.7944C26.829 34.7944 26.6816 34.848 26.5676 34.9485C26.4537 35.0491 26.3934 35.1496 26.3867 35.2501C26.3733 35.4579 26.2526 35.5652 26.018 35.5652H24.9925C24.7446 35.5652 24.6239 35.4713 24.6239 35.2837C24.6239 35.0826 24.6775 34.848 24.7848 34.6C24.959 34.171 25.2472 33.8359 25.6494 33.6013C26.0515 33.36 26.5207 33.2461 27.0502 33.2461C27.7607 33.2461 28.3371 33.4539 28.7795 33.8694C29.2218 34.285 29.443 34.8279 29.443 35.5048C29.443 35.8534 29.3827 36.155 29.2553 36.403C29.128 36.651 28.8867 36.966 28.5114 37.3614L26.7218 39.2582H29.1883C29.2955 39.2582 29.376 39.2985 29.4229 39.3722C29.4765 39.4459 29.5033 39.533 29.5033 39.6336V40.458L29.5167 40.4312Z" fill="#5D798E"/>
<path d="M35.5822 39.4967C35.5822 39.7045 35.4749 39.8117 35.2672 39.8117H34.9589V40.4887C34.9589 40.5825 34.932 40.6562 34.8717 40.7165C34.8181 40.7769 34.7377 40.8037 34.6371 40.8037H33.625C33.5245 40.8037 33.4508 40.7769 33.3905 40.7165C33.3368 40.6562 33.3033 40.5825 33.3033 40.4887V39.8117H30.5084C30.3006 39.8117 30.1934 39.7045 30.1934 39.4967V38.4846C30.1934 38.2902 30.2537 38.0758 30.3743 37.8412L32.5124 33.6119C32.5527 33.5181 32.5862 33.4577 32.5996 33.4309C32.6197 33.4041 32.6532 33.3706 32.7135 33.3438C32.7738 33.3103 32.8543 33.2969 32.9481 33.2969H34.121C34.3355 33.2969 34.4361 33.3639 34.4361 33.4979C34.4361 33.5382 34.4159 33.5985 34.3824 33.6655L32.0835 38.1696H33.2966V37.4926C33.2966 37.3988 33.3234 37.3251 33.3838 37.2648C33.4374 37.2044 33.5178 37.1776 33.6183 37.1776H34.6304C34.731 37.1776 34.8047 37.2044 34.865 37.2648C34.9186 37.3251 34.9521 37.3988 34.9521 37.4926V38.1696H35.2605C35.4682 38.1696 35.5755 38.2768 35.5755 38.4846V39.4967H35.5822Z" fill="#5D798E"/>
<path d="M41.5073 40.6345C41.5073 40.7484 41.4067 40.802 41.199 40.802H39.8987C39.6775 40.802 39.5233 40.7283 39.4362 40.5808L38.7056 39.3677L38.0019 40.5808C37.9147 40.7283 37.7606 40.802 37.5394 40.802H36.2458C36.0447 40.802 35.9375 40.7484 35.9375 40.6345C35.9375 40.6076 35.9509 40.5741 35.9777 40.5272L37.7606 37.8998L36.0447 35.3998C36.0179 35.3596 36.0045 35.3194 36.0045 35.2926C36.0045 35.1786 36.1051 35.125 36.3128 35.125H37.6131C37.8343 35.125 37.9952 35.1987 38.0756 35.3462L38.719 36.4923L39.3826 35.3462C39.4697 35.1987 39.6239 35.125 39.8451 35.125H41.1386C41.333 35.125 41.4336 35.1786 41.4336 35.2926C41.4336 35.3328 41.4201 35.373 41.4 35.3998L39.6842 37.8998L41.4671 40.5272C41.4939 40.5674 41.5073 40.6076 41.5073 40.6345Z" fill="#C6CF4F"/>
<path d="M47.157 34.619C47.157 34.7731 47.1034 34.9876 46.9962 35.249L44.9385 40.4769C44.8983 40.5909 44.8446 40.6713 44.791 40.7182C44.7374 40.7651 44.6369 40.792 44.4961 40.792H43.3232C43.1154 40.792 43.0082 40.7249 43.0082 40.5909C43.0082 40.5641 43.0283 40.5038 43.0618 40.4233L45.2535 34.8468H43.6516V35.7115C43.6516 35.8053 43.6248 35.879 43.5645 35.9393C43.5109 35.9997 43.4304 36.0265 43.3299 36.0265H42.3178C42.2173 36.0265 42.1436 35.9997 42.0832 35.9393C42.0296 35.879 41.9961 35.8053 41.9961 35.7115V33.6002C41.9961 33.5063 42.0229 33.4326 42.0832 33.3723C42.1368 33.312 42.2173 33.2852 42.3178 33.2852H46.775C46.8822 33.2852 46.9693 33.312 47.0364 33.3723C47.1034 33.4259 47.1436 33.5063 47.1436 33.6069V34.619H47.157Z" fill="#5D798E"/>
<path d="M52.9151 38.4645C52.9151 39.1884 52.6872 39.7715 52.2315 40.2072C51.7757 40.6495 51.1725 40.864 50.4151 40.864C49.6577 40.864 49.0679 40.6428 48.6054 40.2072C48.1429 39.7648 47.915 39.1951 47.915 38.4846C47.915 38.25 47.9419 38.0355 47.9888 37.8278C48.0491 37.5396 48.2636 37.0168 48.6322 36.2661L49.9191 33.6119C49.9593 33.5181 49.9928 33.4577 50.0062 33.4309C50.0263 33.4041 50.0598 33.3706 50.1202 33.3438C50.1805 33.3103 50.2609 33.2969 50.3548 33.2969H51.5277C51.7355 33.2969 51.8427 33.3639 51.8427 33.4979C51.8427 33.5382 51.8226 33.5985 51.7891 33.6655L50.4821 36.2393C50.5893 36.2058 50.7167 36.1857 50.8641 36.1857C51.4473 36.1857 51.9366 36.4001 52.3253 36.8358C52.714 37.2715 52.9084 37.8144 52.9084 38.4645H52.9151ZM51.1859 38.4779C51.1859 38.2098 51.1121 37.9953 50.9781 37.8412C50.8373 37.6803 50.6497 37.6066 50.4218 37.6066C50.1939 37.6066 50.0062 37.687 49.8655 37.8412C49.7247 37.9953 49.6577 38.2031 49.6577 38.4645C49.6577 38.7259 49.7247 38.9337 49.8655 39.0878C50.0062 39.242 50.1939 39.3224 50.4218 39.3224C50.6497 39.3224 50.8306 39.242 50.9781 39.0878C51.1188 38.9337 51.1926 38.7326 51.1926 38.4846L51.1859 38.4779Z" fill="#5D798E"/>
<path d="M57.9886 36.9409C58.2969 37.1956 58.5181 37.4435 58.6387 37.6915C58.7661 37.9395 58.8264 38.2344 58.8264 38.5897C58.8264 39.28 58.5985 39.8296 58.1428 40.2452C57.687 40.6607 57.0771 40.8685 56.3063 40.8685C55.5355 40.8685 54.9256 40.6608 54.4698 40.2519C54.014 39.843 53.7861 39.2934 53.7861 38.6031C53.7861 38.2411 53.8532 37.9261 53.9939 37.6781C54.1347 37.4234 54.3424 37.1822 54.6307 36.9476C54.3491 36.6996 54.1481 36.465 54.0341 36.2371C53.9202 36.0092 53.8599 35.7344 53.8599 35.4194C53.8599 34.7961 54.0944 34.2733 54.5569 33.8577C55.0194 33.4422 55.6025 33.2344 56.3063 33.2344C57.01 33.2344 57.5932 33.4422 58.0556 33.8577C58.5181 34.2733 58.7527 34.7961 58.7527 35.4194C58.7527 35.7344 58.6924 36.0092 58.5784 36.2371C58.4645 36.465 58.2634 36.6996 57.9819 36.9476L57.9886 36.9409ZM57.1039 38.5227C57.1039 38.2948 57.0234 38.1071 56.8693 37.9529C56.7151 37.7988 56.5274 37.7183 56.313 37.7183C56.0985 37.7183 55.9108 37.7988 55.7567 37.9529C55.6025 38.1071 55.5221 38.2948 55.5221 38.5092C55.5221 38.7237 55.6025 38.9114 55.7567 39.0656C55.9108 39.2197 56.0985 39.3001 56.313 39.3001C56.5274 39.3001 56.7084 39.2197 56.8693 39.0656C57.0301 38.9114 57.1039 38.7304 57.1039 38.5159V38.5227ZM57.0301 35.5199C57.0301 35.3189 56.9631 35.1446 56.8224 35.0038C56.6816 34.8631 56.514 34.7961 56.313 34.7961C56.1119 34.7961 55.951 34.8631 55.8103 35.0038C55.6695 35.1446 55.6025 35.3122 55.6025 35.5132C55.6025 35.7143 55.6695 35.8819 55.8103 36.0159C55.951 36.1567 56.1186 36.2237 56.313 36.2237C56.5073 36.2237 56.6816 36.1567 56.8224 36.0159C56.9631 35.8819 57.0301 35.7143 57.0301 35.5132V35.5199Z" fill="#5D798E"/>
<path d="M69.2899 0.390625H49.5041C46.639 0.390625 44.3164 2.71325 44.3164 5.57836V11.9591C44.3164 14.8243 46.639 17.1469 49.5041 17.1469H69.2899C72.1551 17.1469 74.4777 14.8243 74.4777 11.9591V5.57836C74.4777 2.71325 72.1551 0.390625 69.2899 0.390625Z" fill="#47647A"/>
<path d="M54.0014 10.8749C53.6395 11.2435 53.1703 11.4312 52.6207 11.4312C52.0711 11.4312 51.6086 11.2368 51.2467 10.8749C50.7306 10.3521 50.7373 9.61479 50.7373 8.81048V8.52898C50.7373 7.67106 50.8043 7.10805 51.2467 6.66568C51.6086 6.30375 52.0845 6.10938 52.6207 6.10938C53.1569 6.10938 53.6395 6.31045 54.0014 6.66568C54.4036 7.07454 54.5108 7.65765 54.5108 8.40163V8.77027C54.5108 9.66841 54.5175 10.3454 54.0014 10.8749ZM53.3982 7.14826C53.1904 6.93378 52.9223 6.82654 52.6207 6.82654C52.3191 6.82654 52.0443 6.94049 51.8432 7.14826C51.5349 7.46998 51.5416 8.01289 51.5416 8.73676C51.5416 9.40701 51.5081 10.0639 51.8432 10.399C52.0577 10.6135 52.3191 10.7207 52.6207 10.7207C52.9223 10.7207 53.2038 10.6068 53.3982 10.399C53.7065 10.0773 53.7065 9.61479 53.7065 8.72335C53.7065 7.93246 53.6931 7.45658 53.3982 7.14826Z" fill="#D4DBE1"/>
<path d="M55.6844 11.3909V6.15625H56.4753V10.6804H58.9955V11.3909H55.6777H55.6844Z" fill="#D4DBE1"/>
<path d="M59.9062 11.3909V6.15625H63.2575V6.86672H60.6971V8.39489H62.8755V9.09865H60.6971V10.6737H63.2575V11.3842H59.9062V11.3909Z" fill="#D4DBE1"/>
<path d="M67.9966 9.99008C67.943 10.3051 67.7687 10.667 67.5408 10.8949C67.2124 11.2233 66.7432 11.3909 66.1802 11.3909H64.3438V6.15625H66.1802C67.0851 6.15625 67.8156 6.60532 67.9899 7.51686C68.0368 7.74474 68.0636 7.99274 68.0636 8.28094V8.73001C68.0636 9.27291 68.0435 9.70187 67.9966 9.99678V9.99008ZM67.2593 8.56245C67.2593 7.75145 67.1856 7.45654 66.9778 7.21525C66.7768 6.98066 66.4684 6.86001 66.0797 6.86001H65.1279V10.667H66.0797C66.4684 10.667 66.7768 10.5531 66.9778 10.3118C67.1856 10.0705 67.2593 9.72198 67.2593 8.87076V8.55575V8.56245Z" fill="#D4DBE1"/>
</svg>
