<svg width="76" height="74" viewBox="0 0 76 74" fill="none" xmlns="http://www.w3.org/2000/svg">
<path d="M21.5078 65.6256C22.4261 64.7074 23.2773 63.8561 24.1285 63.0116C24.8524 62.2877 25.5695 61.5639 26.2934 60.8534C26.3738 60.773 26.4945 60.6724 26.6017 60.6724C27.5937 60.659 28.5924 60.6657 29.6514 60.6657C29.5441 60.7864 29.4905 60.8601 29.4235 60.9271C27.9221 62.4285 26.4275 63.9299 24.9194 65.4178C24.8055 65.5318 24.6111 65.6189 24.4502 65.6189C23.4985 65.639 22.5534 65.6256 21.5145 65.6256H21.5078Z" fill="#5D798E"/>
<path d="M27.6279 65.6245C28.3317 64.9207 28.9751 64.2773 29.6119 63.6405C30.5368 62.7156 31.4551 61.7906 32.3867 60.8724C32.4806 60.7786 32.6079 60.6713 32.7219 60.6646C33.7138 60.6512 34.7125 60.6579 35.7715 60.6579C35.6709 60.7786 35.6106 60.8523 35.5436 60.9193C34.0422 62.4207 32.5476 63.922 31.0395 65.41C30.9189 65.5306 30.7111 65.6111 30.5368 65.6111C29.5985 65.6312 28.6601 65.6178 27.6279 65.6178V65.6245Z" fill="#5D798E"/>
<path d="M33.7803 65.6217C33.9009 65.4943 33.9747 65.4072 34.0484 65.3335C35.5296 63.8522 37.0109 62.3643 38.5056 60.8897C38.6329 60.7624 38.8541 60.6685 39.0351 60.6618C39.8729 60.6417 40.7107 60.6484 41.5418 60.6551C41.6423 60.6551 41.7362 60.6618 41.8903 60.6752C41.7764 60.7959 41.7094 60.8763 41.6289 60.9501C40.1477 62.4313 38.6597 63.9126 37.1852 65.4005C37.0243 65.5614 36.8701 65.6284 36.649 65.6217C35.7106 65.6083 34.7789 65.6217 33.7803 65.6217Z" fill="#5D798E"/>
<path d="M39.8125 65.6217C39.9331 65.4943 40.0069 65.4072 40.0806 65.3335C41.5619 63.8522 43.0431 62.3643 44.5378 60.8897C44.6651 60.7624 44.8863 60.6685 45.0673 60.6618C45.9051 60.6417 46.7429 60.6484 47.574 60.6551C47.6745 60.6551 47.7684 60.6618 47.9226 60.6752C47.8086 60.7959 47.7416 60.8763 47.6611 60.9501C46.1799 62.4313 44.6919 63.9126 43.2174 65.4005C43.0565 65.5614 42.9024 65.6284 42.6812 65.6217C41.7428 65.6083 40.8112 65.6217 39.8125 65.6217Z" fill="#5D798E"/>
<path d="M13.4922 58.1809C13.834 57.4369 14.4238 57.2157 15.2281 57.2224C20.5834 57.2425 25.9388 57.2358 31.2941 57.2358H31.8638C30.8718 56.4449 29.9803 55.7277 29.0889 55.0106C25.0875 51.8068 21.0861 48.6097 17.0847 45.4126C16.629 45.0439 16.4011 44.5949 16.5217 44.0185C16.629 43.5158 16.9641 43.1873 17.4668 43.0533C17.9561 42.926 18.3582 43.1069 18.7402 43.4085C20.7912 45.0506 22.8422 46.6928 24.8932 48.3349C28.345 51.0963 31.7967 53.8577 35.2485 56.6259C35.4563 56.7934 35.597 56.8336 35.8316 56.646C40.8183 52.5843 45.8117 48.5359 50.805 44.4809C50.8453 44.4474 50.8854 44.4072 50.9927 44.3067C50.5771 44.2463 50.2219 44.186 49.8667 44.1391C49.0423 44.0319 48.5128 43.4152 48.6133 42.6847C48.7205 41.9139 49.3908 41.4581 50.2219 41.572C51.5825 41.7597 52.9498 41.934 54.3171 42.1283C55.0946 42.2423 55.5504 42.8053 55.4566 43.5828C55.289 45.0104 55.1014 46.4314 54.8869 47.8456C54.7662 48.6298 54.163 49.0587 53.4123 48.9582C52.722 48.8711 52.2796 48.2611 52.3466 47.4904C52.3734 47.1887 52.4136 46.8938 52.4672 46.4649L39.2097 57.2224H39.766C45.195 57.2224 50.6174 57.2224 56.0464 57.2224C57.1456 57.2224 57.6215 57.6983 57.6215 58.7908C57.6215 59.5951 57.6215 60.3994 57.6215 61.2037C57.6215 61.2305 57.6081 61.2573 57.5813 61.3444H57.0116C42.7084 61.3444 28.412 61.3444 14.1088 61.3444C13.9078 61.3444 13.7067 61.3511 13.5056 61.3578V58.1674L13.4922 58.1809Z" fill="#2B3846"/>
<path d="M56.6356 56.9688H15.0801V58.9795H56.6356V56.9688Z" fill="#C6CF4F"/>
<path d="M35.5233 1.34375C15.905 1.34375 0 17.2488 0 36.867C0 56.4853 15.905 72.3903 35.5233 72.3903C55.1415 72.3903 71.0465 56.4853 71.0465 36.867C71.0465 17.2488 55.1415 1.34375 35.5233 1.34375ZM35.5233 65.0175C19.9735 65.0175 7.37275 52.4168 7.37275 36.867C7.37275 21.3172 19.9735 8.7165 35.5233 8.7165C51.0731 8.7165 63.6738 21.3172 63.6738 36.867C63.6738 52.4168 51.0731 65.0175 35.5233 65.0175Z" fill="#2B3846"/>
<path d="M35.0805 25.4688C35.4089 25.7436 35.7775 25.9848 36.0523 26.3066C38.492 29.1417 40.5698 32.2048 41.8366 35.7571C42.4599 37.5064 42.8286 39.3094 42.6007 41.1861C42.2723 43.8872 40.8647 45.8511 38.4049 46.9637C35.7574 48.1567 33.0898 48.0696 30.5228 46.6889C27.8552 45.2545 26.5013 42.406 26.8431 39.229C27.1112 36.7424 27.9959 34.4769 29.189 32.312C30.3753 30.1538 31.7895 28.1565 33.4182 26.3066C33.6998 25.9915 34.0617 25.7436 34.3901 25.4688H35.0872H35.0805Z" fill="url(#paint0_linear_2717_97303)"/>
<path d="M40.8251 16.0848C40.9793 16.2189 41.1602 16.3328 41.2943 16.487C42.4672 17.8476 43.4659 19.3221 44.0691 21.0246C44.3708 21.8691 44.545 22.7337 44.4378 23.6318C44.2836 24.9321 43.6067 25.8705 42.4203 26.4067C41.1468 26.9831 39.8667 26.9362 38.6334 26.2726C37.3532 25.5823 36.7031 24.215 36.864 22.6868C36.9913 21.4937 37.4203 20.4012 37.99 19.3624C38.5597 18.3235 39.2433 17.365 40.0208 16.4803C40.1549 16.3261 40.3291 16.2122 40.49 16.0781H40.8251V16.0848Z" fill="url(#paint1_linear_2717_97303)"/>
<path d="M69.9628 0H50.177C47.3119 0 44.9893 2.32263 44.9893 5.18774V11.5685C44.9893 14.4336 47.3119 16.7563 50.177 16.7563H69.9628C72.8279 16.7563 75.1505 14.4336 75.1505 11.5685V5.18774C75.1505 2.32263 72.8279 0 69.9628 0Z" fill="#47647A"/>
<path d="M52.2686 11.357V5.35156H53.1801V11.357H52.2686Z" fill="#D4DBE1"/>
<path d="M57.0279 8.99772H55.6606V11.357H54.749V5.35156H57.0279C58.1673 5.35156 58.9515 6.09554 58.9515 7.17464C58.9515 8.25375 58.1673 8.99772 57.0279 8.99772ZM56.9676 6.16927H55.6606V8.18002H56.9676C57.6244 8.18002 58.0399 7.79127 58.0399 7.17464C58.0399 6.55801 57.6244 6.16927 56.9676 6.16927Z" fill="#D4DBE1"/>
<path d="M61.5117 11.4078C60.446 11.4078 59.7422 10.6974 59.7422 9.63837C59.7422 9.1893 59.8494 8.82066 60.1912 8.13701L61.5585 5.35547H62.4768L61.1832 7.94264C61.3575 7.86891 61.5116 7.8421 61.706 7.8421C62.6243 7.8421 63.2811 8.56597 63.2811 9.59145C63.2811 10.6773 62.5707 11.4145 61.5117 11.4145V11.4078ZM61.5117 8.55927C60.9554 8.55927 60.6001 8.96142 60.6001 9.59815C60.6001 10.2349 60.9554 10.6437 61.5117 10.6437C62.068 10.6437 62.4299 10.2282 62.4299 9.62496C62.4299 8.98152 62.068 8.55927 61.5117 8.55927Z" fill="#D4DBE1"/>
<path d="M65.8683 11.3559H64.9434L66.9608 6.11454H65.131V7.05959H64.3066V5.34375H67.8858V6.11454L65.875 11.3559H65.8683Z" fill="#D4DBE1"/>
<defs>
<linearGradient id="paint0_linear_2717_97303" x1="28.9472" y1="23.2561" x2="42.5703" y2="23.9086" gradientUnits="userSpaceOnUse">
<stop stop-color="#47647A"/>
<stop offset="1" stop-color="#769CB8"/>
</linearGradient>
<linearGradient id="paint1_linear_2717_97303" x1="37.876" y1="15.0149" x2="44.4223" y2="15.3284" gradientUnits="userSpaceOnUse">
<stop stop-color="#47647A"/>
<stop offset="1" stop-color="#769CB8"/>
</linearGradient>
</defs>
</svg>
