<svg width="76" height="74" viewBox="0 0 76 74" fill="none" xmlns="http://www.w3.org/2000/svg">
<path d="M35.5649 43.8398C39.3488 43.8398 42.417 40.7716 42.417 36.9878C42.417 33.2039 39.3488 30.1357 35.5649 30.1357C31.781 30.1357 28.7128 33.2039 28.7128 36.9878C28.7128 40.7716 31.781 43.8398 35.5649 43.8398Z" fill="#47647A"/>
<path d="M35.332 53.6953C25.9463 53.6953 18.3351 46.0849 18.335 36.6992C18.335 27.3134 25.9462 19.7021 35.332 19.7021C44.7177 19.7023 52.3281 27.3135 52.3281 36.6992C52.3279 46.0848 44.7176 53.6951 35.332 53.6953ZM35.3145 50.875C43.1534 50.8748 49.5096 44.5186 49.5098 36.6797C49.5098 28.8407 43.1534 22.4836 35.3145 22.4834C27.4753 22.4834 21.1182 28.8406 21.1182 36.6797C21.1183 44.5187 27.4754 50.875 35.3145 50.875Z" fill="#47647A"/>
<path d="M35.5233 1.13281C15.905 1.13281 0 17.0379 0 36.6561C0 56.2743 15.905 72.1794 35.5233 72.1794C55.1415 72.1794 71.0465 56.2743 71.0465 36.6561C71.0465 17.0379 55.1415 1.13281 35.5233 1.13281ZM35.5233 64.8066C19.9735 64.8066 7.37275 52.2059 7.37275 36.6561C7.37275 21.1063 19.9735 8.50557 35.5233 8.50557C51.0731 8.50557 63.6738 21.1063 63.6738 36.6561C63.6738 52.2059 51.0731 64.8066 35.5233 64.8066Z" fill="#2B3846"/>
<rect x="33.999" y="7.09375" width="3.142" height="18.852" fill="#2B3846"/>
<rect x="33.999" y="47.418" width="3.142" height="19.3757" fill="#2B3846"/>
<rect x="64.8955" y="35.375" width="3.14201" height="18.3284" transform="rotate(90 64.8955 35.375)" fill="#2B3846"/>
<rect x="24.5732" y="35.375" width="3.14201" height="18.852" transform="rotate(90 24.5732 35.375)" fill="#2B3846"/>
<path d="M38.5159 35.1562L38.9286 35.9767L39.5746 35.3239L39.7135 36.2318L40.5297 35.8106L40.3813 36.7169L41.2876 36.5685L40.8664 37.3846L41.7742 37.5236L41.1215 38.1696L41.9419 38.5823L41.1215 38.995L41.7742 39.641L40.8664 39.7799L41.2876 40.5961L40.3813 40.4477L40.5297 41.354L39.7135 40.9328L39.5746 41.8407L38.9286 41.1879L38.5159 42.0083L38.1032 41.1879L37.4572 41.8407L37.3182 40.9328L36.5021 41.354L36.6505 40.4477L35.7442 40.5961L36.1654 39.7799L35.2575 39.641L35.9103 38.995L35.0898 38.5823L35.9103 38.1696L35.2575 37.5236L36.1654 37.3846L35.7442 36.5685L36.6505 36.7169L36.5021 35.8106L37.3182 36.2318L37.4572 35.3239L38.1032 35.9767L38.5159 35.1562Z" fill="#C6CF4F"/>
<path d="M70.6669 1.13281H50.8811C48.016 1.13281 45.6934 3.45544 45.6934 6.32055V12.7013C45.6934 15.5664 48.016 17.8891 50.8811 17.8891H70.6669C73.532 17.8891 75.8546 15.5664 75.8546 12.7013V6.32055C75.8546 3.45544 73.532 1.13281 70.6669 1.13281Z" fill="#47647A"/>
<path d="M50.6466 9.26912L51.6138 7.3478H50.6858L49.7056 9.36061C49.3984 9.99451 49.3135 10.2625 49.3135 10.6219C49.3135 11.4714 49.8951 12.04 50.7577 12.04C51.6334 12.04 52.2151 11.4584 52.2151 10.5957C52.2151 9.79846 51.6922 9.2103 50.9865 9.2103C50.8558 9.2103 50.7643 9.22337 50.6466 9.26912ZM51.3655 10.6088C51.3655 11.0075 51.1237 11.2754 50.7643 11.2754C50.3983 11.2754 50.163 11.0075 50.163 10.5957C50.163 10.184 50.3983 9.91609 50.7643 9.91609C51.1302 9.91609 51.3655 10.1906 51.3655 10.6088Z" fill="#D4DBE1"/>
<path d="M55.7373 10.6546V8.69403C55.7373 7.87715 55.1556 7.30859 54.3257 7.30859C53.4892 7.30859 52.9076 7.87715 52.9076 8.69403V10.6546C52.9076 11.4714 53.4892 12.04 54.3257 12.04C55.1622 12.04 55.7373 11.4714 55.7373 10.6546ZM53.7571 10.648V8.7071C53.7571 8.32807 53.9859 8.0732 54.3257 8.0732C54.6655 8.0732 54.8877 8.32153 54.8877 8.7071V10.648C54.8877 11.0271 54.6655 11.2754 54.3257 11.2754C53.9793 11.2754 53.7571 11.0271 53.7571 10.648Z" fill="#D4DBE1"/>
<path d="M59.2856 10.6546V8.69403C59.2856 7.87715 58.704 7.30859 57.874 7.30859C57.0375 7.30859 56.4559 7.87715 56.4559 8.69403V10.6546C56.4559 11.4714 57.0375 12.04 57.874 12.04C58.7105 12.04 59.2856 11.4714 59.2856 10.6546ZM57.3055 10.648V8.7071C57.3055 8.32807 57.5342 8.0732 57.874 8.0732C58.2139 8.0732 58.4361 8.32153 58.4361 8.7071V10.648C58.4361 11.0271 58.2139 11.2754 57.874 11.2754C57.5277 11.2754 57.3055 11.0271 57.3055 10.648Z" fill="#D4DBE1"/>
<path d="M62.834 10.6546V8.69403C62.834 7.87715 62.2523 7.30859 61.4224 7.30859C60.5859 7.30859 60.0043 7.87715 60.0043 8.69403V10.6546C60.0043 11.4714 60.5859 12.04 61.4224 12.04C62.2589 12.04 62.834 11.4714 62.834 10.6546ZM60.8538 10.648V8.7071C60.8538 8.32807 61.0826 8.0732 61.4224 8.0732C61.7622 8.0732 61.9844 8.32153 61.9844 8.7071V10.648C61.9844 11.0271 61.7622 11.2754 61.4224 11.2754C61.076 11.2754 60.8538 11.0271 60.8538 10.648Z" fill="#D4DBE1"/>
<path d="M67.6501 13.0333V11.1904H67.1142V7.3478H64.3172V7.55693C64.3172 9.34754 64.1538 10.269 63.7879 11.1904H63.3239V13.0333H64.1996V12.0008H66.7744V13.0333H67.6501ZM66.2059 11.1904H64.7289C65.0165 10.4062 65.2125 9.68737 65.2125 8.30846V8.15816H66.2059V11.1904Z" fill="#D4DBE1"/>
<path d="M72.806 12.0008L71.6559 10.0207L72.7146 8.59601H71.7343L70.7671 10.0403V8.59601H69.9175V10.0403L68.9569 8.59601H67.9701L69.0288 10.0207L67.8786 12.0008H68.8654L69.5842 10.6872L69.9175 11.1186V12.0008H70.7671V11.1186L71.1004 10.6872L71.8192 12.0008H72.806Z" fill="#D4DBE1"/>
</svg>
