<svg width="76" height="74" viewBox="0 0 76 74" fill="none" xmlns="http://www.w3.org/2000/svg">
<path d="M45.0492 52.7514H43.1323V48.8706H41.2958V52.7447H39.2918V48.8773H37.4553V52.738H35.4981V48.8773H33.6617V52.7313H31.7045V48.8773H29.8681V52.7246H27.9109V48.8304H24.2916V45.2178H20.3371V43.2539H24.1709V41.4174H20.3438V39.4603H24.1642V37.6238H20.3438V35.6667H24.1575V33.7967H20.2969V31.8798H24.1508V30.0031H20.3036V28.0393H24.2179V24.4266H27.8774V20.4453H29.7943V24.3261H31.6308V20.452H33.6349V24.3194H35.4714V20.4587H37.4285V24.3194H39.265V20.4654H41.2221V24.3194H43.0586V20.4721H45.0157V24.3596H48.6351V27.9722H52.5895V29.9361H48.7557V31.7725H52.5828V33.7297H48.7624V35.5662H52.5762V37.5233H48.7624V39.3933H52.623V41.3102H48.7691V43.1869H52.6164V45.1507H48.7021V48.7634H45.0425V52.7447L45.0492 52.7514ZM28.1388 28.247V44.9296H44.761V28.247H28.1388Z" fill="url(#paint0_linear_2717_97380)"/>
<circle cx="31.1107" cy="31.1214" r="0.785501" fill="#C6CF4F"/>
<circle cx="33.7289" cy="31.1214" r="0.785501" fill="#C6CF4F"/>
<circle cx="36.348" cy="31.1214" r="0.785501" fill="#C6CF4F"/>
<circle cx="38.9652" cy="31.1214" r="0.785501" fill="#C6CF4F"/>
<circle cx="41.5843" cy="31.1214" r="0.785501" fill="#C6CF4F"/>
<circle cx="31.1107" cy="33.7386" r="0.785501" fill="#C6CF4F"/>
<circle cx="31.1107" cy="36.3558" r="0.785501" fill="#C6CF4F"/>
<circle cx="31.1107" cy="38.973" r="0.785501" fill="#C6CF4F"/>
<circle cx="31.1107" cy="41.5902" r="0.785501" fill="#C6CF4F"/>
<circle cx="33.7289" cy="33.7386" r="0.785501" fill="#C6CF4F"/>
<circle cx="33.7289" cy="36.3558" r="0.785501" fill="#C6CF4F"/>
<circle cx="33.7289" cy="38.973" r="0.785501" fill="#C6CF4F"/>
<circle cx="33.7289" cy="41.5902" r="0.785501" fill="#C6CF4F"/>
<circle cx="36.348" cy="33.7386" r="0.785501" fill="#C6CF4F"/>
<circle cx="36.348" cy="36.3558" r="0.785501" fill="#C6CF4F"/>
<circle cx="36.348" cy="38.973" r="0.785501" fill="#C6CF4F"/>
<circle cx="36.348" cy="41.5902" r="0.785501" fill="#C6CF4F"/>
<circle cx="38.9652" cy="33.7386" r="0.785501" fill="#C6CF4F"/>
<circle cx="38.9652" cy="36.3558" r="0.785501" fill="#C6CF4F"/>
<circle cx="38.9652" cy="38.973" r="0.785501" fill="#C6CF4F"/>
<circle cx="38.9662" cy="41.5902" r="0.785501" fill="#C6CF4F"/>
<circle cx="41.5843" cy="33.7386" r="0.785501" fill="#C6CF4F"/>
<circle cx="41.5843" cy="36.3558" r="0.785501" fill="#C6CF4F"/>
<circle cx="41.5843" cy="38.973" r="0.785501" fill="#C6CF4F"/>
<circle cx="41.5843" cy="41.5902" r="0.785501" fill="#C6CF4F"/>
<path d="M36.5233 1.00781C16.905 1.00781 1 16.9129 1 36.5311C1 56.1493 16.905 72.0544 36.5233 72.0544C56.1415 72.0544 72.0465 56.1493 72.0465 36.5311C72.0465 16.9129 56.1415 1.00781 36.5233 1.00781ZM36.5233 64.6816C20.9735 64.6816 8.37275 52.0809 8.37275 36.5311C8.37275 20.9813 20.9735 8.38057 36.5233 8.38057C52.0731 8.38057 64.6738 20.9813 64.6738 36.5311C64.6738 52.0809 52.0731 64.6816 36.5233 64.6816Z" fill="#2B3846"/>
<path d="M69.6122 1.00781H49.8264C46.9613 1.00781 44.6387 3.33044 44.6387 6.19555V12.5763C44.6387 15.4414 46.9613 17.7641 49.8264 17.7641H69.6122C72.4773 17.7641 74.7999 15.4414 74.7999 12.5763V6.19555C74.7999 3.33044 72.4773 1.00781 69.6122 1.00781Z" fill="#47647A"/>
<path d="M52.1726 11.1036V7.36356L51.2275 8.18796V7.26972L52.1726 6.44531H53.0238V11.0969H52.1726V11.1036Z" fill="#D4DBE1"/>
<path d="M54.4842 11.1058V10.3417L56.2202 8.32428C56.3945 8.1232 56.4615 7.96234 56.4615 7.76127C56.4615 7.39933 56.247 7.17815 55.8985 7.17815C55.5298 7.17815 55.3489 7.37252 55.3288 7.77467H54.4775C54.4909 7.49317 54.5111 7.37922 54.5848 7.21166C54.7993 6.70897 55.2818 6.41406 55.9052 6.41406C56.743 6.41406 57.3127 6.95697 57.3127 7.76127C57.3127 8.15001 57.2055 8.3779 56.8167 8.83367L55.5164 10.3417H57.3127V11.1058H54.4842Z" fill="#D4DBE1"/>
<path d="M61.6232 11.108V10.793C61.3886 11.0209 61.1205 11.1482 60.7854 11.1482C60.6446 11.1482 60.5709 11.1214 60.4704 11.0544V12.3547H59.6191V7.70312H60.4704V9.76079C60.4704 10.1495 60.6848 10.3841 61.0334 10.3841C61.3819 10.3841 61.6031 10.1495 61.6031 9.76079V7.70312H62.4543V11.108H61.6232Z" fill="#D4DBE1"/>
<path d="M67.3673 11.1052V9.04757C67.3673 8.65883 67.1528 8.42424 66.8043 8.42424C66.4557 8.42424 66.2346 8.65883 66.2346 9.02747V11.1052H65.3833V9.04757C65.3833 8.65883 65.1689 8.42424 64.8203 8.42424C64.4718 8.42424 64.2506 8.65883 64.2506 9.04757V11.1052H63.3994V7.70037H64.2305V8.01539C64.3847 7.87464 64.4584 7.82102 64.6126 7.76069C64.76 7.69367 64.9276 7.66016 65.0951 7.66016C65.2828 7.66016 65.4638 7.70037 65.6246 7.7808C65.7654 7.85453 65.8391 7.92155 65.9866 8.09582C66.181 7.90815 66.2748 7.84112 66.4423 7.7674C66.6032 7.69367 66.7909 7.66016 66.992 7.66016C67.7426 7.66016 68.2118 8.14944 68.2118 8.92693V11.1052H67.3606H67.3673Z" fill="#D4DBE1"/>
<defs>
<linearGradient id="paint0_linear_2717_97380" x1="24.6868" y1="17.2438" x2="52.3608" y2="19.1088" gradientUnits="userSpaceOnUse">
<stop stop-color="#47647A"/>
<stop offset="1" stop-color="#769CB8"/>
</linearGradient>
</defs>
</svg>
