<svg width="1860" height="16" viewBox="0 0 1860 16" fill="none" xmlns="http://www.w3.org/2000/svg">
<rect y="6" width="1" height="10" fill="#9DACB7" fill-opacity="0.5"/>
<rect x="61" y="6" width="1" height="10" fill="#9DACB7" fill-opacity="0.5"/>
<rect x="122" y="6" width="1" height="10" fill="#9DACB7" fill-opacity="0.5"/>
<rect x="183" y="6" width="1" height="10" fill="#9DACB7" fill-opacity="0.5"/>
<rect x="244" y="6" width="1" height="10" fill="#9DACB7" fill-opacity="0.5"/>
<rect x="305" y="6" width="1" height="10" fill="#9DACB7" fill-opacity="0.5"/>
<rect x="366" y="6" width="1" height="10" fill="#9DACB7" fill-opacity="0.5"/>
<rect x="427" y="6" width="1" height="10" fill="#9DACB7" fill-opacity="0.5"/>
<rect x="488" y="6" width="1" height="10" fill="#9DACB7" fill-opacity="0.5"/>
<rect x="549" y="6" width="1" height="10" fill="#9DACB7" fill-opacity="0.5"/>
<rect x="610" y="6" width="1" height="10" fill="#9DACB7" fill-opacity="0.5"/>
<rect x="671" y="6" width="1" height="10" fill="#9DACB7" fill-opacity="0.5"/>
<rect x="732" y="6" width="1" height="10" fill="#9DACB7" fill-opacity="0.5"/>
<rect x="793" y="6" width="1" height="10" fill="#9DACB7" fill-opacity="0.5"/>
<rect x="854" y="6" width="1" height="10" fill="#9DACB7" fill-opacity="0.5"/>
<path d="M930 2.50336e-06L945 16L915 16L930 2.50336e-06Z" fill="#C6CE4E"/>
<rect x="1005" y="6" width="1" height="10" fill="#9DACB7" fill-opacity="0.5"/>
<rect x="1066" y="6" width="1" height="10" fill="#9DACB7" fill-opacity="0.5"/>
<rect x="1127" y="6" width="1" height="10" fill="#9DACB7" fill-opacity="0.5"/>
<rect x="1188" y="6" width="1" height="10" fill="#9DACB7" fill-opacity="0.5"/>
<rect x="1249" y="6" width="1" height="10" fill="#9DACB7" fill-opacity="0.5"/>
<rect x="1310" y="6" width="1" height="10" fill="#9DACB7" fill-opacity="0.5"/>
<rect x="1371" y="6" width="1" height="10" fill="#9DACB7" fill-opacity="0.5"/>
<rect x="1432" y="6" width="1" height="10" fill="#9DACB7" fill-opacity="0.5"/>
<rect x="1493" y="6" width="1" height="10" fill="#9DACB7" fill-opacity="0.5"/>
<rect x="1554" y="6" width="1" height="10" fill="#9DACB7" fill-opacity="0.5"/>
<rect x="1615" y="6" width="1" height="10" fill="#9DACB7" fill-opacity="0.5"/>
<rect x="1676" y="6" width="1" height="10" fill="#9DACB7" fill-opacity="0.5"/>
<rect x="1737" y="6" width="1" height="10" fill="#9DACB7" fill-opacity="0.5"/>
<rect x="1798" y="6" width="1" height="10" fill="#9DACB7" fill-opacity="0.5"/>
<rect x="1859" y="6" width="1" height="10" fill="#9DACB7" fill-opacity="0.5"/>
</svg>
