<svg width="238" height="107" viewBox="0 0 238 107" fill="none" xmlns="http://www.w3.org/2000/svg">
<g filter="url(#filter0_d_1404_143)">
<path d="M174.414 21.1009C173.005 19.8253 171.406 18.997 169.645 18.7069C160.957 17.2879 151.685 29.6426 148.937 46.296C146.189 62.9495 151.007 77.6003 159.695 79.0193C161.326 79.2849 162.974 79.0682 164.598 78.4251M63.4376 13.0139C63.4376 13.0139 55.1466 12.2346 53.5826 11.9794C45.8539 10.7178 38.308 18.0257 36.505 28.9684C34.6985 39.9076 39.503 49.8018 47.2352 51.0635C48.6832 51.3011 56.9601 52.6047 56.9601 52.6047M71.9778 10.8406C63.6165 9.47755 55.1181 18.7741 53.0023 31.6076C50.8865 44.441 55.9476 55.9534 64.3089 57.3164M58.4068 12.3998C51.3881 11.2534 44.2464 19.1415 42.4504 30.0143C40.6579 40.8871 44.893 50.631 51.9082 51.7739M174.416 19.611C174.824 19.2476 175.028 18.9225 175.158 18.1187C175.369 16.8325 174.972 15.6967 174.269 15.5814C173.917 15.5254 173.682 15.6582 173.481 15.8749M223.254 16.1108C222.471 15.9815 213.241 13.7587 210.001 14.5137C201.966 16.3835 192.881 32.3589 189.468 53.0455M189.467 53.042C185.878 74.7981 189.53 93.3038 197.315 96.4877C199.15 97.2392 209.869 98.4309 210.242 98.4939M201.26 21.5363L196.54 22.7036C189.254 23.9687 181.838 35.5825 179.209 51.5264M179.206 51.5266C176.44 68.2988 180.253 78.5181 184.495 82.0445C184.495 82.0445 189.911 86.3537 190.252 86.4097M177.864 51.5258C180.472 35.7182 187.189 26.0721 191.884 24.8209C191.916 24.8104 191.916 24.7685 191.884 24.7615L189.47 24.2023L188.352 25.0411C188.352 25.0411 189.856 26.2748 187.607 27.4106C187.607 27.4106 186.45 27.4945 185.871 27.2778L184.778 28.6094C184.778 28.6094 185.593 29.3993 185.523 29.9759C185.452 30.5526 185.059 31.982 183.769 32.2127C182.479 32.4434 182.18 32.1638 182.18 32.1638L181.319 34.0371C181.319 34.0371 182.279 34.8759 182.279 35.4036C182.279 35.9313 182.145 37.525 180.989 38.1821C179.832 38.8391 179.203 38.7588 179.203 38.7588L178.472 40.8313C178.472 40.8313 179.333 41.5372 179.499 42.2607C179.664 42.9842 179.829 44.6443 178.82 45.3363C177.812 46.0283 176.986 46.3708 176.986 46.3708L176.441 48.6739C176.441 48.6739 177.302 49.2331 177.615 49.8413C177.928 50.4494 177.928 52.5883 177.186 53.476C176.444 54.3637 175.516 54.4965 175.516 54.4965L175.351 56.8801C175.351 56.8801 176.212 57.2436 176.61 57.7678C177.007 58.292 177.14 60.3156 176.525 61.5493C176.525 61.5493 175.945 62.14 175.351 62.4371L175.285 64.6913C175.285 64.6913 176.36 64.887 176.708 65.268C177.056 65.6489 177.337 67.4558 177.105 68.2597C176.873 69.0635 175.914 69.5738 175.914 69.5738L176.047 71.447C176.047 71.447 177.126 71.5659 177.833 72.188C178.539 72.8101 178.76 73.4881 178.493 74.4562C178.493 74.4562 177.98 75.3928 177.4 75.5571L177.994 76.9376C177.994 76.9376 179.084 76.8712 179.815 77.3011C180.546 77.731 180.774 78.5663 180.708 78.748C180.641 78.9297 179.815 79.7685 179.815 79.7685L180.493 80.5759C180.493 80.5759 182.275 80.443 183.263 80.8065M177.865 51.5266C175.099 68.2988 179.731 77.9624 182.617 79.9755M193.911 23.5985L168.419 20.3342C168.419 20.3342 166.585 20.7571 165.973 21.1241M189.475 24.2008L165.976 21.1252L164.873 22.0374L188.354 25.0396M185.875 27.2739L162.204 24.2822L161.093 25.439L184.782 28.6054M182.177 32.1578L158.717 28.7921L157.779 30.5781L181.316 34.0346M178.479 40.8236L154.531 37.2412L155.455 35.2002L179.21 38.751M176.442 48.668L152.279 45.0018L153.007 42.4365L176.991 46.3648M175.349 56.8762L151.218 53.0423L151.682 50.463L175.514 54.4927M175.349 62.4361L151.218 58.1583V60.2972L175.282 64.6904M175.915 69.5741L152.279 65.1985L152.677 67.1067L176.045 71.4509M177.402 75.5598L153.868 70.922L154.993 72.7639L178 76.9403M179.817 79.7713L156.645 75.0671L157.904 76.1191L180.496 80.5751M184.496 82.0458L160.284 77.5058C160.284 77.5058 159.507 76.7334 157.901 76.1253M164.872 22.0352C164.872 22.0352 161.909 23.0802 162.208 24.2824M161.094 25.4416C161.094 25.4416 158.328 27.1157 158.725 28.7898M157.782 30.5784C157.782 30.5784 154.313 32.3887 155.455 35.2022M154.523 37.2412C154.523 37.2412 151.578 39.1984 153.001 42.4382M152.28 45.004C152.28 45.004 149.75 46.8773 151.686 50.4631M151.222 53.042C151.222 53.042 149.12 55.3661 151.222 58.1621M151.222 60.297C151.222 60.297 149.461 62.8413 152.28 65.1969M152.675 67.1045C152.675 67.1045 152.278 68.9638 153.867 70.921M154.989 72.7659C154.989 72.7659 155.386 74.0171 156.645 75.0691M164.592 78.4273C161.731 81.1953 161.052 80.692 158.722 81.384C156.392 82.076 150.238 82.5688 150.238 82.5688C150.238 82.5688 145.426 83.1594 147.011 82.5688C148.597 81.9782 150.484 79.3115 150.28 78.3259C150.076 77.3404 149.591 76.7462 148.161 76.9454C146.73 77.1446 144.432 79.9755 144.432 79.9755L142.843 66.485C145.226 58.0971 145.226 52.8687 145.324 46.5009C145.423 40.1331 143.339 29.6762 143.339 29.6762L144.53 27.9986C145.82 29.7741 148.698 29.6762 148.698 29.6762C150.783 28.6906 150.386 27.2088 149.69 25.4403C148.994 23.6719 145.722 22.0362 145.722 22.0362L146.119 20.3342L171.92 12.6034H172.348L173.143 14.3543C173.143 14.3543 173.375 19.3486 175.276 21.1241M175.156 18.1183L176.154 21.3232M171.928 12.5999L167.362 12.2713C167.362 12.2713 160.547 13.5854 156.544 14.9345C152.541 16.2835 143.807 19.7156 143.807 19.7156C143.807 19.7156 143.543 19.8344 143.41 20.3272C143.276 20.82 140.134 28.785 140.134 28.785C140.134 28.785 139.804 29.3756 139.871 29.8999C139.937 30.4241 137.818 64.6851 137.818 64.6851C137.818 64.6851 137.685 65.6882 137.818 65.9852C137.952 66.2823 140.299 78.9131 140.299 78.9131C140.299 78.9131 140.331 79.647 140.795 79.972C141.259 80.2971 142.978 82.041 142.978 82.041L144.334 82.3032L142.117 79.972H144.433M146.557 82.1618L143.594 81.5222M133.107 77.9648L142.125 79.9744M142.851 66.4852L61.3121 49.2796L62.8972 54.6758L126.477 68.2921L134.48 79.9757L142.981 82.0447M143.348 29.6758L64.0898 18.5968C64.0898 18.5968 58.2696 35.6626 61.3097 49.279M130.077 57.9207L68.8209 45.262C68.4659 45.262 68.1777 44.9754 68.1777 44.6225C68.1777 44.6225 67.9915 39.9777 68.5011 35.6789C69.1618 30.1149 70.276 27.1093 70.276 27.1093C70.276 26.7563 70.5642 26.4697 70.9192 26.4697L131.835 35.8921M71.3882 27.4942L72.889 30.0036L131.348 37.2416L71.3882 27.4977C71.3882 27.4977 70.0773 33.4985 69.891 37.2416C69.7047 40.9847 69.6134 44.1826 69.6134 44.1826L129.784 55.6635L71.564 43.0327M69.6134 44.1795L71.564 43.0296C71.564 43.0296 71.6308 36.6479 72.8855 30.004M167.363 12.2734L165.974 11.5185C165.974 11.5185 160.028 12.2559 153.575 14.3529C147.122 16.4499 142.852 18.5958 142.852 18.5958V19.4625C142.852 19.4625 149.877 16.5652 154.067 15.1952C159.887 13.2939 166.955 12.3538 166.955 12.3538M142.853 19.4638L69.3204 12.0196C69.3204 12.0196 68.874 11.9637 69.3204 11.7155C69.7667 11.4674 71.3061 11.2717 71.3061 11.2717L142.857 18.5971L140.045 15.3398L113.584 12.9667L105.029 14.7247M71.3028 11.2707C74.3676 9.46382 78.7503 8.16021 82.5109 7.28996C71.5207 8.82075 69.3173 11.7146 69.3173 11.7146M165.97 11.5194L148.164 10.1983M124.562 26.2662L132.832 27.4965L137.766 20.3353L129.324 19.4651M124.562 26.2662L128.266 25.0395L130.582 21.5376L129.324 19.4651M124.562 26.2662L129.324 19.4651M137.76 20.3342L130.577 21.5365M128.261 25.035L132.826 27.492M114.581 24.6697L122.134 25.7951L126.64 19.256L118.932 18.4592M114.581 24.6697L117.966 23.5513L120.078 20.35L118.932 18.4592M114.581 24.6697L118.932 18.4592M126.635 19.2529L120.074 20.3468M117.96 23.5489L122.129 25.7926M104.585 23.3933L111.853 24.4767L116.193 18.1788L108.77 17.4169M104.585 23.3933L107.843 22.3134L109.878 19.2343L108.77 17.4169M104.585 23.3933L108.77 17.4169M116.198 18.1787L109.882 19.2341M107.841 22.3166L111.851 24.48M101.859 23.063L105.943 17.139L98.9594 16.4191M101.859 23.063L95.0195 22.0459M101.859 23.063L98.0807 21.0289M95.0195 22.0459L98.0807 21.0289M95.0195 22.0459L98.9594 16.4191M98.0807 21.0289L99.9962 18.1316L98.9594 16.4191M105.943 17.1408L99.996 18.1334M85.6099 20.6325L91.9889 21.5831L95.7953 16.0576L89.2827 15.3866M85.6099 20.6325L88.4673 19.6854L90.2527 16.9838L89.2827 15.3866M85.6099 20.6325L89.2827 15.3866M95.7956 16.0586L90.253 16.9848M88.4659 19.6897L91.9875 21.5874M76.2402 19.386L82.5947 20.3051L86.3869 14.9509L79.899 14.3008M76.2402 19.386L79.0871 18.4668L80.8655 15.8491L79.899 14.3008M76.2402 19.386L79.899 14.3008M86.3897 14.9533L80.8682 15.8515M79.0873 18.469L82.5949 20.3073M67.4183 18.2125L73.4143 19.0792L76.9922 14.0255L70.8732 13.4139M67.4183 18.2125L70.107 17.3457L71.7835 14.8748L70.8732 13.4139M67.4183 18.2125L70.8732 13.4139M76.9851 14.0274L71.7764 14.8766M70.1016 17.3477L73.4089 19.0812M64.0882 18.596L67.7294 11.9766L72.2 12.3086M70.6101 10.7079L67.7282 11.9766M174.27 15.5789L173.237 15.3377M147.647 23.9356L144.955 23.8028C144.445 23.8552 143.612 24.3235 143.398 25.6097C143.247 26.5288 143.408 27.3711 143.767 27.8185M145.729 22.0352H144.639L142.281 27.8193L144.541 27.9976M115.757 14.0274L135.541 15.8482M53.3709 29.6986C53.3709 29.6986 58.9908 30.5374 59.3458 30.5968C60.0487 30.7122 60.7903 29.7615 61.0047 28.4754C61.2191 27.1893 60.8184 26.0534 60.1155 25.9381C59.8519 25.8961 54.6045 25.3964 54.6045 25.3964M53.5004 45.2276C53.5004 45.2276 58.927 46.2831 59.289 46.2936C59.7565 46.3041 59.7248 43.952 59.7881 39.9048C59.8092 38.6012 59.8971 33.8691 59.1941 33.7537C58.9305 33.7118 53.0646 32.5235 53.0646 32.5235M54.3572 47.6017C54.3572 47.6017 58.9017 48.6956 59.2601 48.755C59.9631 48.8703 61.1159 49.765 61.2775 50.7576C61.4392 51.7502 60.9155 52.3688 60.4305 52.3583C60.1634 52.3513 56.2551 51.6104 56.2551 51.6104M64.9383 17.0497L59.5996 16.5185M66.2702 14.6267L61.789 14.2876L53.7827 13.4139L52.1484 14.1793L60.5589 15.2837M67.2236 12.9035L64.0323 12.6309M58.4007 18.0587L49.2451 16.7831L47.8533 18.2125L57.3674 19.6105M55.3214 23.5881L45.5016 22.0538L44.5597 24.0739L54.506 25.6886M53.2465 30.3054L43.1947 28.7362L42.7237 31.0289L52.8283 32.8113M52.5238 37.5948L42.5985 35.8438L42.7215 38.2344L52.6258 40.0098M53.2868 44.3514L43.7411 42.6913L44.3843 44.3514L53.8105 46.2911M55.0876 49.5327L46.3468 47.8831L47.6155 49.2811L55.8855 51.0076M204.853 86.5648C211.043 86.432 217.886 74.4408 220.455 58.8568C223.147 42.5424 220.139 28.4717 213.735 27.4267M56.2328 12.2521C54.1732 9.86151 51.5759 8.25732 48.5955 7.77153C39.7386 6.32811 30.8818 15.3136 28.8152 27.843C26.7486 40.3724 32.2525 51.7031 41.1093 53.1465C44.0651 53.6288 47.0174 52.9508 49.7202 51.364M38.7632 6.87067C37.6174 6.25556 36.3873 5.82917 35.0799 5.61598C26.223 4.17257 17.3661 13.1581 15.2995 25.6875C13.2329 38.2169 18.7369 49.5475 27.5937 50.9909C29.0699 51.2321 30.5495 51.1832 31.994 50.8756M44.8726 7.7612C44.0431 7.42219 43.175 7.17405 42.2717 7.02376C33.4149 5.58035 24.5861 14.4051 22.5512 26.7388C20.5162 39.0725 26.0482 50.2423 34.9051 51.6858C35.6432 51.8046 36.3812 51.857 37.1158 51.836M38.9067 6.74492C36.3235 3.80567 33.0267 1.81704 29.252 1.19843C18.4621 -0.559527 7.81283 9.55836 5.46154 23.8003C3.11377 38.0422 9.95323 51.012 20.7431 52.7734C24.2402 53.3431 27.7197 52.6686 30.9074 51.0085M38.1941 6.58123C35.8112 3.70489 32.764 1.77218 29.2564 1.2025C19.1729 -0.44362 9.08948 9.76863 6.74171 24.0071C4.39394 38.249 10.664 51.1279 20.7475 52.7705C23.8544 53.2773 26.9613 52.6587 29.8398 51.1454M146.883 28.5949L144.908 28.4202M134.907 9.21455L122.135 8.26741L123.362 8.93495V9.7982C123.362 10.0324 123.2 10.2351 122.972 10.284L116.586 11.7449C116.326 11.8043 116.059 11.8253 115.795 11.8113L107.293 11.0948C107.072 11.0808 106.931 10.8537 107.019 10.651L107.293 9.8716L95.7967 12.9297C95.4382 13.024 95.0622 13.0555 94.6896 13.0171L87.105 12.1608C86.9117 12.1433 86.866 11.8777 87.0453 11.7973L87.8501 11.5457L87.8572 11.2731C87.938 10.9306 89.0803 10.1687 89.4177 10.0568L92.5387 8.87903C93.7547 8.47711 95.0516 8.38624 96.3134 8.6204L100.956 9.74578C101.093 9.77024 101.216 9.84014 101.308 9.94499C101.431 10.0813 101.497 10.256 101.497 10.4378V10.6824L95.8108 12.1992C95.5437 12.2866 95.2625 12.3181 94.9848 12.2901L87.6182 11.6156C87.576 11.6086 87.8431 11.5876 87.8537 11.5457L87.8607 11.2731C87.9275 10.9795 88.2086 10.7873 88.5074 10.8257L94.7704 11.2206C95.1325 11.2486 95.498 11.2137 95.8494 11.1123L101.041 9.93101M122.133 8.26994L117.283 7.5395C115.754 7.24592 114.176 7.30883 112.675 7.71774C112.675 7.71774 108.12 9.16465 107.881 9.37085L107.294 9.87413L115.691 10.5032C116.032 10.5172 116.369 10.4927 116.707 10.4333L123.367 8.94097M83.6235 11.1526V10.5829L82.8116 9.04867M83.6235 11.1526H84.467V10.3977L83.6235 9.04867H82.8116M83.6235 11.1526L82.8116 9.71271V9.04867M84.4674 10.4025H83.6239M104.017 10.6539L103.887 9.5041L103.124 9.67535L103.317 10.93M93.3789 8.61954C93.3789 8.61954 95.572 6.95944 99.2659 8.04986C102.443 8.98651 102.805 9.13679 103.118 9.70647M96.9529 7.32804L100.366 6.2446C101.655 5.83569 103.033 5.78327 104.355 6.09082L107.989 7.17426C108.432 7.27561 108.941 7.62161 109.222 7.9781V8.69107L104.077 10.0646L103.887 9.50539C103.81 9.3621 103.733 9.23628 103.613 9.11046C103.258 8.73301 102.513 8.37652 100.13 7.67404C96.4363 6.58361 93.73 8.4639 93.73 8.4639M109.212 7.98066L103.726 9.25632M128.627 10.5076L130.747 9.97285L131.422 10.0323L129.32 10.5076M146.282 9.83187L140.335 8.8428C138.94 8.61213 137.513 8.67504 136.145 9.03152L130.097 10.6147M134.903 9.21397V8.7072L136.903 8.26334C137.598 8.10956 138.315 8.07811 139.022 8.17597L140.435 8.36819V8.8435M130.577 11.3409L136.133 11.7079M146.23 10.4256L141.963 11.4881M111.693 11.6369L103.12 12.4268V12.9231M111.693 11.6369V12.1332L103.12 12.9231M111.693 11.6369L111.313 11.4377L102.846 12.1332V12.6644L103.12 12.9231M112.24 14.5263L136.14 16.8015M110.58 8.39682L110.485 7.74327C110.415 7.54755 110.299 7.36931 110.141 7.2365C109.497 6.69129 107.614 5.44359 104.355 6.09365L107.814 5.28981C109.167 4.97527 110.58 5.00323 111.922 5.37369L115.416 6.3383C115.876 6.46412 116.196 6.88351 116.196 7.35882M115.991 6.73332L110.484 7.74336M101.236 6.02995L93.9746 5.62803M90.7073 9.50357L82.5147 8.69274C82.5147 8.69274 82.1984 7.88191 83.0876 7.15147M97.8549 7.0451C97.6932 6.59775 97.2152 6.34961 96.7513 6.46844L91.4301 7.85593C91.1138 7.93981 90.787 7.96428 90.4636 7.93632L83.1005 7.26529C83.0372 7.2583 83.0267 7.17092 83.0864 7.14995L88.0491 5.50733C89.4971 5.02852 91.0471 4.93415 92.5443 5.23821L97.2082 6.50688M223.268 16.1094C231.957 17.5273 235.959 37.1055 232.207 59.8384C228.455 82.5713 218.37 99.8506 209.682 98.4326C200.993 97.0147 196.991 77.4366 200.743 54.7036C204.495 31.9707 214.58 14.6915 223.268 16.1094ZM223.662 17.4096C232.025 18.7744 235.841 37.8401 232.184 59.9939C228.528 82.1478 218.785 99.0007 210.422 97.6359C202.059 96.2712 198.244 77.2055 201.9 55.0516C205.556 32.8977 215.299 16.0448 223.662 17.4096ZM223.564 18.9121C231.534 20.2128 235.154 38.4838 231.649 59.7215C228.144 80.9592 218.841 97.1214 210.871 95.8207C202.901 94.52 199.281 76.249 202.786 55.0113C206.291 33.7735 215.594 17.6114 223.564 18.9121ZM219.794 24.0673C226.197 25.1123 228.956 40.6931 225.957 58.8681C222.957 77.043 215.335 90.9295 208.931 89.8845C202.528 88.8395 199.769 73.2587 202.768 55.0838C205.768 36.9089 213.39 23.0223 219.794 24.0673ZM147.66 23.9365C148.363 24.0512 148.761 25.1864 148.549 26.4721C148.337 27.7578 147.595 28.7071 146.892 28.5924C146.189 28.4776 145.791 27.3424 146.003 26.0567C146.216 24.771 146.957 23.8217 147.66 23.9365ZM147.66 77.6537C148.363 77.7684 148.761 78.9037 148.549 80.1894C148.337 81.4751 147.595 82.4243 146.892 82.3096C146.189 82.1949 145.791 81.0596 146.003 79.7739C146.216 78.4883 146.957 77.539 147.66 77.6537ZM222.401 20.6685C229.903 21.8929 233.271 39.3316 229.923 59.6189C226.575 79.9061 217.779 95.3596 210.276 94.1352C202.773 92.9107 199.405 75.4721 202.753 55.1848C206.101 34.8975 214.898 19.4441 222.401 20.6685ZM202.735 55.2469C200.426 69.2547 203.016 82.0078 203.016 82.0078C207.406 82.7242 216.33 71.848 218.639 57.8437C220.948 43.8359 215.591 31.9461 211.525 30.2685C211.525 30.2685 205.048 41.2462 202.739 55.2504L202.735 55.2469ZM134.479 79.9728L67.6627 63.3543L62.8968 54.6729L126.476 69.7361L134.479 79.9728ZM134.942 62.3249L63.3494 47.3979C62.8503 47.3979 62.4461 46.9925 62.4461 46.4997C62.4461 46.4997 62.1825 39.9781 62.8995 33.9389C63.8274 26.1242 65.4371 21.9861 65.4371 21.9861C65.4371 21.4898 65.8448 21.0879 66.3403 21.0879L136.861 31.4155C137.36 31.4155 137.765 31.8209 137.765 32.3137L135.849 61.4302C135.849 61.9264 135.441 62.3284 134.946 62.3284L134.942 62.3249ZM128.627 10.5062V12.736C128.627 13.1624 128.954 13.5224 129.383 13.5608L138.591 14.4311C139.242 14.494 139.899 14.4346 140.532 14.2633L147.216 12.4354C147.571 12.3376 147.814 12.0195 147.814 11.6561V9.14669L145.498 8.78322L144.935 8.92651L147.216 9.30746L146.777 9.40881C146.454 9.4857 146.225 9.77229 146.225 10.1008V10.4748C146.225 10.7928 146.007 11.0689 145.698 11.1458L142.623 11.9042C142.285 11.9881 141.958 11.733 141.958 11.387C141.958 11.1074 141.705 10.8942 141.428 10.9431L140.212 11.1598C139.836 11.2262 139.449 11.2472 139.069 11.2192L136.824 11.0619C136.451 11.0375 136.138 11.3275 136.138 11.698C136.138 12.0021 135.878 12.2432 135.572 12.2188L131.088 11.8728C130.803 11.8518 130.582 11.6141 130.582 11.331V11.1213C130.582 10.8487 130.371 10.6251 130.1 10.6041L128.631 10.4957L128.627 10.5062Z" stroke="#47647A" stroke-width="0.538269" stroke-linecap="round" stroke-linejoin="round" shape-rendering="crispEdges"/>
</g>
<defs>
<filter id="filter0_d_1404_143" x="0.730957" y="0.730713" width="237.153" height="106.052" filterUnits="userSpaceOnUse" color-interpolation-filters="sRGB">
<feFlood flood-opacity="0" result="BackgroundImageFix"/>
<feColorMatrix in="SourceAlpha" type="matrix" values="0 0 0 0 0 0 0 0 0 0 0 0 0 0 0 0 0 0 127 0" result="hardAlpha"/>
<feOffset dy="4"/>
<feGaussianBlur stdDeviation="2"/>
<feComposite in2="hardAlpha" operator="out"/>
<feColorMatrix type="matrix" values="0 0 0 0 0 0 0 0 0 0 0 0 0 0 0 0 0 0 0.25 0"/>
<feBlend mode="normal" in2="BackgroundImageFix" result="effect1_dropShadow_1404_143"/>
<feBlend mode="normal" in="SourceGraphic" in2="effect1_dropShadow_1404_143" result="shape"/>
</filter>
</defs>
</svg>
