<svg width="118" height="51" viewBox="0 0 118 51" fill="none" xmlns="http://www.w3.org/2000/svg">
<path d="M114.603 30.4194C116.479 19.0531 114.478 9.2641 110.134 8.55515C105.79 7.84619 100.747 16.4857 98.8712 27.8521C96.9953 39.2184 98.9963 49.0073 103.341 49.7163C107.685 50.4252 112.727 41.7857 114.603 30.4194Z" stroke="#47647A" stroke-width="0.538269" stroke-linecap="round" stroke-linejoin="round"/>
<path d="M85.707 11.0494C85.0024 10.4115 84.2028 9.9974 83.3224 9.85236C78.9783 9.14289 74.3425 15.3201 72.9683 23.6468C71.594 31.9734 74.0033 39.2987 78.3474 40.0082C79.1628 40.141 79.987 40.0327 80.7989 39.7111" stroke="#47647A" stroke-width="0.538269" stroke-linecap="round" stroke-linejoin="round"/>
<path d="M30.2199 7.00589C30.2199 7.00589 26.0744 6.61621 25.2924 6.48864C21.428 5.85781 17.6551 9.51174 16.7536 14.983C15.8503 20.4526 18.2526 25.3996 22.1187 26.0304C22.8427 26.1493 26.9812 26.8011 26.9812 26.8011" stroke="#47647A" stroke-width="0.538269" stroke-linecap="round" stroke-linejoin="round"/>
<path d="M114.593 30.4968C116.421 19.42 114.513 9.88727 110.332 9.20488C106.151 8.5225 101.279 16.9488 99.4507 28.0257C97.6226 39.1025 99.5303 48.6352 103.712 49.3176C107.893 50 112.765 41.5736 114.593 30.4968Z" stroke="#47647A" stroke-width="0.538269" stroke-linecap="round" stroke-linejoin="round"/>
<path d="M34.49 5.92081C30.3093 5.2393 26.0601 9.88754 25.0022 16.3042C23.9443 22.7209 26.4749 28.477 30.6555 29.1585" stroke="#47647A" stroke-width="0.538269" stroke-linecap="round" stroke-linejoin="round"/>
<path d="M27.7023 6.69987C24.193 6.12671 20.6221 10.0707 19.7241 15.5071C18.8279 20.9434 20.9455 25.8153 24.4531 26.3867" stroke="#47647A" stroke-width="0.538269" stroke-linecap="round" stroke-linejoin="round"/>
<path d="M114.324 30.3606C116.077 19.7419 114.267 10.6065 110.282 9.95611C106.297 9.30577 101.645 17.3867 99.893 28.0055C98.1404 38.6242 99.9503 47.7596 103.935 48.41C107.92 49.0603 112.572 40.9793 114.324 30.3606Z" stroke="#47647A" stroke-width="0.538269" stroke-linecap="round" stroke-linejoin="round"/>
<path d="M111.479 29.9341C112.979 20.8468 111.599 13.0564 108.397 12.5339C105.196 12.0114 101.384 18.9546 99.8845 28.042C98.3848 37.1293 99.7644 44.9197 102.966 45.4422C106.168 45.9646 109.979 39.0215 111.479 29.9341Z" stroke="#47647A" stroke-width="0.538269" stroke-linecap="round" stroke-linejoin="round"/>
<path d="M72.7745 13.7371C72.8806 13.0943 72.6817 12.5267 72.3302 12.4693C71.9787 12.4119 71.6078 12.8866 71.5017 13.5294C71.3956 14.1722 71.5945 14.7399 71.946 14.7972C72.2975 14.8546 72.6684 14.38 72.7745 13.7371Z" stroke="#47647A" stroke-width="0.538269" stroke-linecap="round" stroke-linejoin="round"/>
<path d="M85.7077 10.3044C85.9115 10.1227 86.0135 9.96017 86.0785 9.55825C86.1839 8.91519 85.9853 8.34726 85.6339 8.2896C85.4581 8.26164 85.3404 8.32804 85.2402 8.43638" stroke="#47647A" stroke-width="0.538269" stroke-linecap="round" stroke-linejoin="round"/>
<path d="M72.7745 40.5936C72.8806 39.9507 72.6817 39.3831 72.3302 39.3257C71.9787 39.2684 71.6078 39.743 71.5017 40.3858C71.3956 41.0287 71.5945 41.5963 71.946 41.6537C72.2975 41.711 72.6684 41.2364 72.7745 40.5936Z" stroke="#47647A" stroke-width="0.538269" stroke-linecap="round" stroke-linejoin="round"/>
<path d="M113.462 30.3095C115.136 20.166 113.452 11.4468 109.701 10.8346C105.949 10.2224 101.551 17.949 99.8769 28.0925C98.2028 38.236 99.8868 46.9553 103.638 47.5675C107.39 48.1797 111.788 40.453 113.462 30.3095Z" stroke="#47647A" stroke-width="0.538269" stroke-linecap="round" stroke-linejoin="round"/>
<path d="M99.8677 28.1238C98.7132 35.1276 100.008 41.5041 100.008 41.5041C102.203 41.8623 106.665 36.4242 107.82 29.4222C108.974 22.4184 106.296 16.4735 104.263 15.6348C104.263 15.6348 101.024 21.1235 99.8695 28.1256L99.8677 28.1238Z" stroke="#47647A" stroke-width="0.538269" stroke-linecap="round" stroke-linejoin="round"/>
<path d="M110.127 8.55434C109.736 8.48968 105.121 7.3783 103.501 7.75575C99.4834 8.69064 94.9407 16.6783 93.2344 27.0214" stroke="#47647A" stroke-width="0.538269" stroke-linecap="round" stroke-linejoin="round"/>
<path d="M93.2337 27.0215C91.4395 37.8994 93.2654 47.1522 97.1578 48.7441C98.0751 49.1198 103.435 49.7157 103.621 49.7472" stroke="#47647A" stroke-width="0.538269" stroke-linecap="round" stroke-linejoin="round"/>
<path d="M99.1309 11.2676L96.7708 11.8512C93.1279 12.4838 89.4199 18.2906 88.1055 26.2625" stroke="#47647A" stroke-width="0.538269" stroke-linecap="round" stroke-linejoin="round"/>
<path d="M88.1018 26.2627C86.7188 34.6487 88.6254 39.7583 90.7465 41.5215C90.7465 41.5215 93.4545 43.6761 93.625 43.7041" stroke="#47647A" stroke-width="0.538269" stroke-linecap="round" stroke-linejoin="round"/>
<path d="M87.4324 26.2622C88.7364 18.3585 92.0946 13.5355 94.4424 12.9099C94.4582 12.9046 94.4582 12.8837 94.4424 12.8802L93.2351 12.6006L92.6763 13.02C92.6763 13.02 93.4284 13.6368 92.3037 14.2048C92.3037 14.2048 91.7256 14.2467 91.4356 14.1383L90.8891 14.8041C90.8891 14.8041 91.2968 15.1991 91.2616 15.4874C91.2265 15.7757 91.0297 16.4904 90.3847 16.6058C89.7398 16.7211 89.5904 16.5813 89.5904 16.5813L89.1599 17.5179C89.1599 17.5179 89.6396 17.9373 89.6396 18.2012C89.6396 18.465 89.5729 19.2619 88.9947 19.5904C88.4165 19.9189 88.102 19.8787 88.102 19.8787L87.7365 20.915C87.7365 20.915 88.167 21.268 88.2496 21.6297C88.3322 21.9914 88.4148 22.8215 87.9104 23.1675C87.4061 23.5134 86.9931 23.6847 86.9931 23.6847L86.7207 24.8363C86.7207 24.8363 87.1513 25.1159 87.3077 25.4199C87.4641 25.724 87.4641 26.7934 87.0933 27.2373C86.7225 27.6811 86.2586 27.7475 86.2586 27.7475L86.176 28.9393C86.176 28.9393 86.6065 29.121 86.8051 29.3832C87.0037 29.6453 87.0704 30.6571 86.7629 31.2739C86.7629 31.2739 86.473 31.5692 86.176 31.7178L86.1426 32.8449C86.1426 32.8449 86.6803 32.9427 86.8543 33.1332C87.0283 33.3237 87.1688 34.2271 87.0529 34.629C86.9369 35.0309 86.4571 35.2861 86.4571 35.2861L86.5239 36.2227C86.5239 36.2227 87.0634 36.2821 87.4166 36.5932C87.7699 36.9042 87.8806 37.2432 87.747 37.7273C87.747 37.7273 87.4904 38.1956 87.2005 38.2777L87.4975 38.968C87.4975 38.968 88.0422 38.9347 88.4078 39.1497C88.7733 39.3646 88.8875 39.7823 88.8541 39.8731C88.8207 39.964 88.4078 40.3834 88.4078 40.3834L88.7469 40.787C88.7469 40.787 89.6379 40.7206 90.1317 40.9024" stroke="#47647A" stroke-width="0.538269" stroke-linecap="round" stroke-linejoin="round"/>
<path d="M87.4323 26.2627C86.0493 34.6487 88.3655 39.4805 89.8082 40.487" stroke="#47647A" stroke-width="0.538269" stroke-linecap="round" stroke-linejoin="round"/>
<path d="M95.4552 12.2981L82.7094 10.666C82.7094 10.666 81.7921 10.8775 81.4863 11.0609" stroke="#47647A" stroke-width="0.538269" stroke-linecap="round" stroke-linejoin="round"/>
<path d="M93.2368 12.5993L81.4873 11.0615L80.9355 11.5176L92.6762 13.0187" stroke="#47647A" stroke-width="0.538269" stroke-linecap="round" stroke-linejoin="round"/>
<path d="M91.4367 14.1374L79.6012 12.6416L79.0459 13.22L90.8902 14.8032" stroke="#47647A" stroke-width="0.538269" stroke-linecap="round" stroke-linejoin="round"/>
<path d="M89.5889 16.5783L77.8588 14.8955L77.3896 15.7885L89.1584 17.5167" stroke="#47647A" stroke-width="0.538269" stroke-linecap="round" stroke-linejoin="round"/>
<path d="M87.74 20.9122L75.7656 19.1211L76.2278 18.1006L88.1055 19.876" stroke="#47647A" stroke-width="0.538269" stroke-linecap="round" stroke-linejoin="round"/>
<path d="M86.7202 24.8345L74.6387 23.0014L75.0024 21.7188L86.9944 23.6829" stroke="#47647A" stroke-width="0.538269" stroke-linecap="round" stroke-linejoin="round"/>
<path d="M86.1741 28.938L74.1084 27.0211L74.3404 25.7314L86.2567 27.7463" stroke="#47647A" stroke-width="0.538269" stroke-linecap="round" stroke-linejoin="round"/>
<path d="M86.1741 31.718L74.1084 29.5791V30.6485L86.1407 32.8451" stroke="#47647A" stroke-width="0.538269" stroke-linecap="round" stroke-linejoin="round"/>
<path d="M86.4566 35.2864L74.6387 33.0986L74.8372 34.0527L86.5216 36.2248" stroke="#47647A" stroke-width="0.538269" stroke-linecap="round" stroke-linejoin="round"/>
<path d="M87.2016 38.2798L75.4346 35.9609L75.9969 36.8818L87.5003 38.9701" stroke="#47647A" stroke-width="0.538269" stroke-linecap="round" stroke-linejoin="round"/>
<path d="M88.4083 40.3853L76.8223 38.0332L77.4514 38.5592L88.7474 40.7872" stroke="#47647A" stroke-width="0.538269" stroke-linecap="round" stroke-linejoin="round"/>
<path d="M90.7488 41.5217L78.6426 39.2518C78.6426 39.2518 78.2543 38.8656 77.4512 38.5615" stroke="#47647A" stroke-width="0.538269" stroke-linecap="round" stroke-linejoin="round"/>
<path d="M80.9354 11.5176C80.9354 11.5176 79.454 12.0401 79.6034 12.6412" stroke="#47647A" stroke-width="0.538269" stroke-linecap="round" stroke-linejoin="round"/>
<path d="M79.0467 13.2197C79.0467 13.2197 77.6637 14.0568 77.8623 14.8938" stroke="#47647A" stroke-width="0.538269" stroke-linecap="round" stroke-linejoin="round"/>
<path d="M77.3911 15.7881C77.3911 15.7881 75.6566 16.6933 76.2277 18.1" stroke="#47647A" stroke-width="0.538269" stroke-linecap="round" stroke-linejoin="round"/>
<path d="M75.7619 19.1211C75.7619 19.1211 74.2892 20.0997 75.0009 21.7196" stroke="#47647A" stroke-width="0.538269" stroke-linecap="round" stroke-linejoin="round"/>
<path d="M74.6394 23.002C74.6394 23.002 73.3741 23.9386 74.3424 25.7315" stroke="#47647A" stroke-width="0.538269" stroke-linecap="round" stroke-linejoin="round"/>
<path d="M74.1106 27.0215C74.1106 27.0215 73.0597 28.1835 74.1106 29.5815" stroke="#47647A" stroke-width="0.538269" stroke-linecap="round" stroke-linejoin="round"/>
<path d="M74.1115 30.6484C74.1115 30.6484 73.231 31.9206 74.6404 33.0984" stroke="#47647A" stroke-width="0.538269" stroke-linecap="round" stroke-linejoin="round"/>
<path d="M74.8365 34.0527C74.8365 34.0527 74.6379 34.9824 75.4322 35.961" stroke="#47647A" stroke-width="0.538269" stroke-linecap="round" stroke-linejoin="round"/>
<path d="M75.9941 36.8818C75.9941 36.8818 76.1927 37.5074 76.8218 38.0334" stroke="#47647A" stroke-width="0.538269" stroke-linecap="round" stroke-linejoin="round"/>
<path d="M80.7961 39.7143C79.3657 41.0983 79.0265 40.8467 77.8614 41.1927C76.6963 41.5387 73.6193 41.7851 73.6193 41.7851C73.6193 41.7851 71.2135 42.0804 72.0061 41.7851C72.7986 41.4897 73.7423 40.1564 73.6404 39.6636C73.5384 39.1709 73.2959 38.8738 72.5807 38.9734C71.8655 39.073 70.7162 40.4884 70.7162 40.4884L69.9219 33.7433C71.1133 29.5494 71.1133 26.9352 71.1625 23.7513C71.2117 20.5674 70.1697 15.3391 70.1697 15.3391L70.7654 14.5003C71.4103 15.388 72.8496 15.3391 72.8496 15.3391C73.8917 14.8463 73.6931 14.1054 73.3451 13.2211C72.9972 12.3369 71.3611 11.5191 71.3611 11.5191L71.5597 10.6681L84.4601 6.80273H84.6745L85.0717 7.67821C85.0717 7.67821 85.1877 10.1753 86.1384 11.063" stroke="#47647A" stroke-width="0.538269" stroke-linecap="round" stroke-linejoin="round"/>
<path d="M86.0771 9.55859L86.5762 11.161" stroke="#47647A" stroke-width="0.538269" stroke-linecap="round" stroke-linejoin="round"/>
<path d="M84.4643 6.80098L82.1816 6.63672C82.1816 6.63672 78.7741 7.29376 76.7725 7.96828C74.771 8.6428 70.404 10.3588 70.404 10.3588C70.404 10.3588 70.2722 10.4182 70.2055 10.6646C70.1387 10.911 68.5676 14.8934 68.5676 14.8934C68.5676 14.8934 68.4024 15.1888 68.4358 15.4509C68.4692 15.713 67.4096 32.8433 67.4096 32.8433C67.4096 32.8433 67.3428 33.3448 67.4096 33.4934C67.4763 33.6419 68.6502 39.9572 68.6502 39.9572C68.6502 39.9572 68.666 40.3242 68.898 40.4867C69.13 40.6492 69.9893 41.5212 69.9893 41.5212L70.6676 41.6522L69.5588 40.4867H70.7168" stroke="#47647A" stroke-width="0.538269" stroke-linecap="round" stroke-linejoin="round"/>
<path d="M71.7793 41.5805L70.2979 41.2607" stroke="#47647A" stroke-width="0.538269" stroke-linecap="round" stroke-linejoin="round"/>
<path d="M65.0537 39.4824L69.563 40.4872" stroke="#47647A" stroke-width="0.538269" stroke-linecap="round" stroke-linejoin="round"/>
<path d="M69.926 33.7414L29.1562 25.1387L29.9488 27.8367L61.7386 34.6448L65.74 40.4866L69.991 41.5211" stroke="#47647A" stroke-width="0.538269" stroke-linecap="round" stroke-linejoin="round"/>
<path d="M65.7395 40.4867L32.3312 32.1776L29.9482 27.8369L61.7381 35.3684L65.7395 40.4867Z" stroke="#47647A" stroke-width="0.538269" stroke-linecap="round" stroke-linejoin="round"/>
<path d="M70.1747 15.3373L30.5454 9.79785C30.5454 9.79785 27.6353 18.3307 29.1554 25.1388" stroke="#47647A" stroke-width="0.538269" stroke-linecap="round" stroke-linejoin="round"/>
<path d="M65.971 31.6622L30.1745 24.1988C29.925 24.1988 29.7229 23.9961 29.7229 23.7497C29.7229 23.7497 29.5911 20.4889 29.9496 17.4693C30.4135 13.562 31.2184 11.493 31.2184 11.493C31.2184 11.2449 31.4222 11.0439 31.67 11.0439L66.9305 16.2077C67.1801 16.2077 67.3822 16.4104 67.3822 16.6568L66.4244 31.2148C66.4244 31.463 66.2206 31.6639 65.9728 31.6639L65.971 31.6622Z" stroke="#47647A" stroke-width="0.538269" stroke-linecap="round" stroke-linejoin="round"/>
<path d="M65.971 31.6622L30.1745 24.1988C29.925 24.1988 29.7229 23.9961 29.7229 23.7497C29.7229 23.7497 29.5911 20.4889 29.9496 17.4693C30.4135 13.562 31.2184 11.493 31.2184 11.493C31.2184 11.2449 31.4222 11.0439 31.67 11.0439L66.9305 16.2077C67.1801 16.2077 67.3822 16.4104 67.3822 16.6568L66.4244 31.2148C66.4244 31.463 66.2206 31.6639 65.9728 31.6639L65.971 31.6622Z" stroke="#47647A" stroke-width="0.538269" stroke-linecap="round" stroke-linejoin="round"/>
<path d="M63.5387 29.4607L32.9105 23.1314C32.733 23.1314 32.5889 22.9881 32.5889 22.8116C32.5889 22.8116 32.4957 20.4893 32.7505 18.3399C33.0809 15.5579 33.638 14.0551 33.638 14.0551C33.638 13.8786 33.7821 13.7354 33.9596 13.7354L64.4174 18.4465" stroke="#47647A" stroke-width="0.538269" stroke-linecap="round" stroke-linejoin="round"/>
<path d="M34.1941 14.2471L34.9445 15.5017L64.1739 19.1207L34.1941 14.2488C34.1941 14.2488 33.5386 17.2492 33.4455 19.1207C33.3523 20.9923 33.3066 22.5912 33.3066 22.5912L63.3919 28.3316L34.282 22.0163" stroke="#47647A" stroke-width="0.538269" stroke-linecap="round" stroke-linejoin="round"/>
<path d="M33.3066 22.5896L34.282 22.0147C34.282 22.0147 34.3153 18.8239 34.9427 15.502" stroke="#47647A" stroke-width="0.538269" stroke-linecap="round" stroke-linejoin="round"/>
<path d="M82.1813 6.63722L81.4872 6.25977C81.4872 6.25977 78.5138 6.62848 75.2874 7.67695C72.0609 8.72543 69.9258 9.79836 69.9258 9.79836V10.2317C69.9258 10.2317 73.4387 8.78309 75.5334 8.09809C78.4435 7.14747 81.9774 6.67741 81.9774 6.67741" stroke="#47647A" stroke-width="0.538269" stroke-linecap="round" stroke-linejoin="round"/>
<path d="M69.9273 10.2308L33.1607 6.50872C33.1607 6.50872 32.9375 6.48076 33.1607 6.35669C33.3839 6.23262 34.1536 6.13477 34.1536 6.13477L69.929 9.79743L68.5232 8.1688L55.2923 6.98228L51.015 7.86125" stroke="#47647A" stroke-width="0.538269" stroke-linecap="round" stroke-linejoin="round"/>
<path d="M39.7554 4.14551C37.8751 4.58062 35.6837 5.23243 34.1514 6.13586" stroke="#47647A" stroke-width="0.538269" stroke-linecap="round" stroke-linejoin="round"/>
<path d="M81.4846 6.25917L72.582 5.59863" stroke="#47647A" stroke-width="0.538269" stroke-linecap="round" stroke-linejoin="round"/>
<path d="M33.1592 6.35779C33.1592 6.35779 34.261 4.91089 39.7561 4.14551" stroke="#47647A" stroke-width="0.538269" stroke-linecap="round" stroke-linejoin="round"/>
<path d="M67.3835 10.6666L64.9162 14.2471L60.7812 13.632L62.6335 13.0186L63.7915 11.2677L63.1624 10.2314L67.3835 10.6666Z" stroke="#47647A" stroke-width="0.538269" stroke-linecap="round" stroke-linejoin="round"/>
<path d="M60.7812 13.632L63.1624 10.2314" stroke="#47647A" stroke-width="0.538269" stroke-linecap="round" stroke-linejoin="round"/>
<path d="M67.381 10.666L63.7891 11.2671" stroke="#47647A" stroke-width="0.538269" stroke-linecap="round" stroke-linejoin="round"/>
<path d="M62.6299 13.0186L64.9126 14.247" stroke="#47647A" stroke-width="0.538269" stroke-linecap="round" stroke-linejoin="round"/>
<path d="M61.8204 10.1269L59.5675 13.3964L55.791 12.8337L57.4833 12.2746L58.5395 10.6739L57.9666 9.72852L61.8204 10.1269Z" stroke="#47647A" stroke-width="0.538269" stroke-linecap="round" stroke-linejoin="round"/>
<path d="M55.791 12.8337L57.9666 9.72852" stroke="#47647A" stroke-width="0.538269" stroke-linecap="round" stroke-linejoin="round"/>
<path d="M61.818 10.127L58.5371 10.6739" stroke="#47647A" stroke-width="0.538269" stroke-linecap="round" stroke-linejoin="round"/>
<path d="M57.4805 12.2744L59.5646 13.3963" stroke="#47647A" stroke-width="0.538269" stroke-linecap="round" stroke-linejoin="round"/>
<path d="M56.5964 9.58993L54.4261 12.7388L50.792 12.1971L52.421 11.6572L53.4385 10.1177L52.885 9.20898L56.5964 9.58993Z" stroke="#47647A" stroke-width="0.538269" stroke-linecap="round" stroke-linejoin="round"/>
<path d="M50.792 12.1971L52.885 9.20898" stroke="#47647A" stroke-width="0.538269" stroke-linecap="round" stroke-linejoin="round"/>
<path d="M56.5983 9.58984L53.4404 10.1176" stroke="#47647A" stroke-width="0.538269" stroke-linecap="round" stroke-linejoin="round"/>
<path d="M52.4199 11.6572L54.425 12.7389" stroke="#47647A" stroke-width="0.538269" stroke-linecap="round" stroke-linejoin="round"/>
<path d="M51.4715 9.06896L49.4295 12.0309L46.0098 11.5224L47.5404 11.0139L48.4981 9.56524L47.9797 8.70898L51.4715 9.06896Z" stroke="#47647A" stroke-width="0.538269" stroke-linecap="round" stroke-linejoin="round"/>
<path d="M46.0098 11.5224L47.9797 8.70898" stroke="#47647A" stroke-width="0.538269" stroke-linecap="round" stroke-linejoin="round"/>
<path d="M51.4724 9.06934L48.499 9.56561" stroke="#47647A" stroke-width="0.538269" stroke-linecap="round" stroke-linejoin="round"/>
<path d="M47.54 11.0146L49.4292 12.0317" stroke="#47647A" stroke-width="0.538269" stroke-linecap="round" stroke-linejoin="round"/>
<path d="M46.3974 8.52985L44.4942 11.2926L41.3047 10.8173L42.7334 10.3437L43.6261 8.99292L43.1411 8.19434L46.3974 8.52985Z" stroke="#47647A" stroke-width="0.538269" stroke-linecap="round" stroke-linejoin="round"/>
<path d="M41.3047 10.8173L43.1411 8.19434" stroke="#47647A" stroke-width="0.538269" stroke-linecap="round" stroke-linejoin="round"/>
<path d="M46.3973 8.5293L43.626 8.99237" stroke="#47647A" stroke-width="0.538269" stroke-linecap="round" stroke-linejoin="round"/>
<path d="M42.7324 10.3438L44.4933 11.2926" stroke="#47647A" stroke-width="0.538269" stroke-linecap="round" stroke-linejoin="round"/>
<path d="M41.6935 7.97542L39.7973 10.6525L36.6201 10.1929L38.0435 9.73336L38.9327 8.42451L38.4495 7.65039L41.6935 7.97542Z" stroke="#47647A" stroke-width="0.538269" stroke-linecap="round" stroke-linejoin="round"/>
<path d="M36.6201 10.1929L38.4495 7.65039" stroke="#47647A" stroke-width="0.538269" stroke-linecap="round" stroke-linejoin="round"/>
<path d="M41.6943 7.97559L38.9336 8.42468" stroke="#47647A" stroke-width="0.538269" stroke-linecap="round" stroke-linejoin="round"/>
<path d="M38.0439 9.7334L39.7977 10.6526" stroke="#47647A" stroke-width="0.538269" stroke-linecap="round" stroke-linejoin="round"/>
<path d="M36.9959 7.51381L35.207 10.0406L32.209 9.60726L33.5533 9.1739L34.3916 7.93844L33.9364 7.20801L36.9959 7.51381Z" stroke="#47647A" stroke-width="0.538269" stroke-linecap="round" stroke-linejoin="round"/>
<path d="M32.209 9.60726L33.9364 7.20801" stroke="#47647A" stroke-width="0.538269" stroke-linecap="round" stroke-linejoin="round"/>
<path d="M36.992 7.51367L34.3877 7.9383" stroke="#47647A" stroke-width="0.538269" stroke-linecap="round" stroke-linejoin="round"/>
<path d="M33.5508 9.17383L35.2044 10.0406" stroke="#47647A" stroke-width="0.538269" stroke-linecap="round" stroke-linejoin="round"/>
<path d="M30.5439 9.79796L32.3645 6.48828L34.5998 6.65429" stroke="#47647A" stroke-width="0.538269" stroke-linecap="round" stroke-linejoin="round"/>
<path d="M33.8053 5.85449L32.3643 6.48882" stroke="#47647A" stroke-width="0.538269" stroke-linecap="round" stroke-linejoin="round"/>
<path d="M85.6348 8.2905L85.1182 8.16992" stroke="#47647A" stroke-width="0.538269" stroke-linecap="round" stroke-linejoin="round"/>
<path d="M72.3238 12.4678L70.9776 12.4014C70.7228 12.4276 70.3064 12.6617 70.1992 13.3048C70.1236 13.7644 70.2044 14.1855 70.3837 14.4092" stroke="#47647A" stroke-width="0.538269" stroke-linecap="round" stroke-linejoin="round"/>
<path d="M71.3646 11.5176H70.8198L69.6406 14.4096L70.7706 14.4987" stroke="#47647A" stroke-width="0.538269" stroke-linecap="round" stroke-linejoin="round"/>
<path d="M56.3789 7.51367L66.2708 8.4241" stroke="#47647A" stroke-width="0.538269" stroke-linecap="round" stroke-linejoin="round"/>
<path d="M25.1865 15.3503C25.1865 15.3503 27.9965 15.7697 28.174 15.7994C28.5254 15.8571 28.8962 15.3818 29.0034 14.7387C29.1106 14.0957 28.9103 13.5277 28.5588 13.4701C28.427 13.4491 25.8033 13.1992 25.8033 13.1992" stroke="#47647A" stroke-width="0.538269" stroke-linecap="round" stroke-linejoin="round"/>
<path d="M25.2492 23.1137C25.2492 23.1137 27.9625 23.6415 28.1435 23.6467C28.3772 23.6519 28.3614 22.4759 28.393 20.4523C28.4035 19.8005 28.4475 17.4345 28.096 17.3768C27.9642 17.3559 25.0312 16.7617 25.0312 16.7617" stroke="#47647A" stroke-width="0.538269" stroke-linecap="round" stroke-linejoin="round"/>
<path d="M25.6797 24.3008C25.6797 24.3008 27.9519 24.8477 28.1311 24.8774C28.4826 24.9351 29.059 25.3825 29.1398 25.8787C29.2207 26.375 28.9588 26.6843 28.7163 26.6791C28.5828 26.6756 26.6286 26.3051 26.6286 26.3051" stroke="#47647A" stroke-width="0.538269" stroke-linecap="round" stroke-linejoin="round"/>
<path d="M30.9692 9.02538L28.2998 8.75977" stroke="#47647A" stroke-width="0.538269" stroke-linecap="round" stroke-linejoin="round"/>
<path d="M31.6351 7.81438L29.3945 7.64487L25.3914 7.20801L24.5742 7.5907L28.7795 8.1429" stroke="#47647A" stroke-width="0.538269" stroke-linecap="round" stroke-linejoin="round"/>
<path d="M32.1113 6.95173L30.5156 6.81543" stroke="#47647A" stroke-width="0.538269" stroke-linecap="round" stroke-linejoin="round"/>
<path d="M27.7014 9.5304L23.1236 8.89258L22.4277 9.60729L27.1848 10.3063" stroke="#47647A" stroke-width="0.538269" stroke-linecap="round" stroke-linejoin="round"/>
<path d="M26.1602 12.2935L21.2503 11.5264L20.7793 12.5364L25.7525 13.3437" stroke="#47647A" stroke-width="0.538269" stroke-linecap="round" stroke-linejoin="round"/>
<path d="M25.1227 15.6537L20.0968 14.8691L19.8613 16.0155L24.9136 16.9067" stroke="#47647A" stroke-width="0.538269" stroke-linecap="round" stroke-linejoin="round"/>
<path d="M24.7625 19.2973L19.7998 18.4219L19.8613 19.6171L24.8134 20.5048" stroke="#47647A" stroke-width="0.538269" stroke-linecap="round" stroke-linejoin="round"/>
<path d="M25.144 22.6767L20.3711 21.8467L20.6927 22.6767L25.4058 23.6466" stroke="#47647A" stroke-width="0.538269" stroke-linecap="round" stroke-linejoin="round"/>
<path d="M26.0433 25.2652L21.6729 24.4404L22.3072 25.1394L26.4422 26.0027" stroke="#47647A" stroke-width="0.538269" stroke-linecap="round" stroke-linejoin="round"/>
<path d="M100.927 43.7826C104.021 43.7162 107.443 37.7206 108.727 29.9287C110.074 21.7716 108.569 14.7364 105.367 14.2139" stroke="#47647A" stroke-width="0.538269" stroke-linecap="round" stroke-linejoin="round"/>
<path d="M26.6175 6.62493C25.5877 5.42967 24.289 4.62759 22.7988 4.38469C18.3704 3.66299 13.942 8.1557 12.9087 14.4203C11.8754 20.685 14.6273 26.3502 19.0557 27.0719C20.5336 27.3131 22.0098 26.9741 23.3612 26.1807" stroke="#47647A" stroke-width="0.538269" stroke-linecap="round" stroke-linejoin="round"/>
<path d="M17.8827 3.93586C17.3098 3.6283 16.6947 3.41511 16.041 3.30852C11.6126 2.58682 7.18414 7.07953 6.15084 13.3442C5.11754 19.6088 7.8695 25.274 12.2979 25.9957C13.036 26.1163 13.7758 26.0918 14.4981 25.9381" stroke="#47647A" stroke-width="0.538269" stroke-linecap="round" stroke-linejoin="round"/>
<path d="M20.9368 4.38059C20.5221 4.21108 20.0881 4.08702 19.6364 4.01187C15.208 3.29018 10.7936 7.7025 9.77612 13.8693C8.75864 20.036 11.5247 25.6209 15.9531 26.3426C16.3221 26.402 16.6912 26.4282 17.0584 26.4178" stroke="#47647A" stroke-width="0.538269" stroke-linecap="round" stroke-linejoin="round"/>
<path d="M17.9534 3.87243C16.6618 2.40282 15.0134 1.40852 13.126 1.09922C7.73108 0.220245 2.40642 5.27913 1.23077 12.4C0.0568852 19.5209 3.47662 26.0057 8.87158 26.8864C10.6201 27.1713 12.3598 26.834 13.9537 26.004" stroke="#47647A" stroke-width="0.538269" stroke-linecap="round" stroke-linejoin="round"/>
<path d="M17.5965 3.79005C16.4051 2.3519 14.8815 1.38555 13.1277 1.10072C8.08595 0.277666 3.04421 5.38373 1.87032 12.5029C0.696435 19.6238 3.83149 26.0631 8.87322 26.8844C10.4267 27.1378 11.9802 26.8285 13.4194 26.0719" stroke="#47647A" stroke-width="0.538269" stroke-linecap="round" stroke-linejoin="round"/>
<path d="M71.9417 14.7964L70.9541 14.709" stroke="#47647A" stroke-width="0.538269" stroke-linecap="round" stroke-linejoin="round"/>
<path d="M65.9532 5.10833L59.5672 4.63477L60.1805 4.96853V5.40015C60.1805 5.51723 60.0996 5.61858 59.9854 5.64305L56.7924 6.37348C56.6623 6.40319 56.5288 6.41368 56.397 6.40669L52.146 6.04846C52.0353 6.04147 51.965 5.92788 52.0089 5.82653L52.146 5.43685L46.3978 6.96587C46.2186 7.01305 46.0306 7.02878 45.8443 7.00956L42.052 6.58143C41.9553 6.57269 41.9325 6.43989 42.0221 6.3997L42.4245 6.27388L42.4281 6.13758C42.4685 5.96633 43.0396 5.58538 43.2083 5.52946L44.7688 4.94057C45.3768 4.73961 46.0253 4.69418 46.6562 4.81126L48.9776 5.37394C49.0461 5.38617 49.1076 5.42112 49.1533 5.47354C49.2148 5.5417 49.2482 5.62907 49.2482 5.71994V5.84226L46.4049 6.60065C46.2713 6.64434 46.1307 6.66007 45.9919 6.64609L42.3086 6.30883C42.2875 6.30533 42.421 6.29485 42.4263 6.27388L42.4298 6.13758C42.4632 5.99079 42.6038 5.89468 42.7532 5.9139L45.8847 6.11137C46.0657 6.12535 46.2485 6.10787 46.4242 6.05719L49.0198 5.46655" stroke="#47647A" stroke-width="0.538269" stroke-linecap="round" stroke-linejoin="round"/>
<path d="M59.5659 4.63496L57.1408 4.26974C56.3763 4.12296 55.5873 4.15441 54.8369 4.35886C54.8369 4.35886 52.5595 5.08231 52.44 5.18541L52.1465 5.43704L56.3447 5.75159C56.5152 5.75858 56.6839 5.74634 56.8526 5.71664L60.1827 4.97047" stroke="#47647A" stroke-width="0.538269" stroke-linecap="round" stroke-linejoin="round"/>
<path d="M40.3112 6.07736V5.79252L39.9053 5.02539H40.3112L40.733 5.69991V6.07736H40.3112Z" stroke="#47647A" stroke-width="0.538269" stroke-linecap="round" stroke-linejoin="round"/>
<path d="M39.9053 5.02539V5.35741L40.3112 6.07736" stroke="#47647A" stroke-width="0.538269" stroke-linecap="round" stroke-linejoin="round"/>
<path d="M40.7343 5.7002H40.3125" stroke="#47647A" stroke-width="0.538269" stroke-linecap="round" stroke-linejoin="round"/>
<path d="M50.5079 5.82589L50.4429 5.25098L50.0615 5.3366L50.1582 5.96394" stroke="#47647A" stroke-width="0.538269" stroke-linecap="round" stroke-linejoin="round"/>
<path d="M45.1895 4.80923C45.1895 4.80923 46.286 3.97918 48.133 4.52439C49.7216 4.99271 49.9026 5.06785 50.059 5.35268" stroke="#47647A" stroke-width="0.538269" stroke-linecap="round" stroke-linejoin="round"/>
<path d="M46.9757 4.16454L48.6821 3.62283C49.327 3.41837 50.0159 3.39216 50.6766 3.54594L52.4937 4.08765C52.7151 4.13833 52.9699 4.31132 53.1105 4.48956V4.84605L50.5378 5.5328L50.4429 5.2532C50.4042 5.18156 50.3656 5.11865 50.3058 5.05574C50.1283 4.86702 49.7558 4.68877 48.5643 4.33754C46.7174 3.79233 45.3643 4.73246 45.3643 4.73246" stroke="#47647A" stroke-width="0.538269" stroke-linecap="round" stroke-linejoin="round"/>
<path d="M53.1064 4.48926L50.3633 5.12708" stroke="#47647A" stroke-width="0.538269" stroke-linecap="round" stroke-linejoin="round"/>
<path d="M62.8135 5.7531V6.86797C62.8135 7.08116 62.9769 7.26115 63.1913 7.28037L67.7955 7.71549C68.1206 7.74694 68.4492 7.71724 68.7655 7.63161L72.1079 6.71769C72.2854 6.66876 72.4067 6.50975 72.4067 6.32801V5.07334L71.2486 4.8916L70.9674 4.96325L72.1079 5.15372L71.8883 5.2044C71.7266 5.24284 71.6124 5.38613 71.6124 5.55039V5.73737C71.6124 5.89639 71.5034 6.03444 71.3488 6.07288L69.8111 6.45208C69.6424 6.49402 69.479 6.36645 69.479 6.19346C69.479 6.05366 69.3524 5.94706 69.2136 5.97153L68.6056 6.07987C68.4176 6.11307 68.2242 6.12356 68.0345 6.10958L66.9115 6.03094C66.7253 6.01871 66.5689 6.16375 66.5689 6.34898C66.5689 6.50101 66.4388 6.62158 66.2859 6.60935L64.0436 6.43635C63.9013 6.42587 63.7905 6.30704 63.7905 6.1655V6.06065C63.7905 5.92435 63.6851 5.81251 63.5498 5.80203L62.8152 5.74785L62.8135 5.7531Z" stroke="#47647A" stroke-width="0.538269" stroke-linecap="round" stroke-linejoin="round"/>
<path d="M62.8135 5.75271L63.8731 5.48535L64.2105 5.51506L63.1597 5.75271" stroke="#47647A" stroke-width="0.538269" stroke-linecap="round" stroke-linejoin="round"/>
<path d="M71.6403 5.41699L68.6669 4.92246C67.9693 4.80712 67.2558 4.83858 66.5722 5.01682L63.5479 5.80842" stroke="#47647A" stroke-width="0.538269" stroke-linecap="round" stroke-linejoin="round"/>
<path d="M65.9521 5.1075V4.85412L66.9521 4.6322C67.3 4.55531 67.6585 4.53958 68.0117 4.58851L68.7182 4.68462V4.92227" stroke="#47647A" stroke-width="0.538269" stroke-linecap="round" stroke-linejoin="round"/>
<path d="M63.7891 6.16992L66.5674 6.3534" stroke="#47647A" stroke-width="0.538269" stroke-linecap="round" stroke-linejoin="round"/>
<path d="M71.6148 5.71387L69.4814 6.24509" stroke="#47647A" stroke-width="0.538269" stroke-linecap="round" stroke-linejoin="round"/>
<path d="M54.346 6.31738L50.0599 6.7123V6.96044L54.346 6.56552V6.31738ZM54.346 6.31738L54.1562 6.21777L49.9229 6.56552V6.83113L50.0599 6.96044" stroke="#47647A" stroke-width="0.538269" stroke-linecap="round" stroke-linejoin="round"/>
<path d="M54.6191 7.76367L66.5689 8.90127" stroke="#47647A" stroke-width="0.538269" stroke-linecap="round" stroke-linejoin="round"/>
<path d="M53.7899 4.69892L53.7425 4.37215C53.7073 4.27429 53.6494 4.18517 53.5703 4.11877C53.2487 3.84616 52.3068 3.22232 50.6777 3.54735L52.4069 3.14543C53.0835 2.98816 53.7899 3.00214 54.4612 3.18737L56.208 3.66967C56.4382 3.73258 56.5981 3.94227 56.5981 4.17993" stroke="#47647A" stroke-width="0.538269" stroke-linecap="round" stroke-linejoin="round"/>
<path d="M56.4959 3.86719L53.7422 4.3722" stroke="#47647A" stroke-width="0.538269" stroke-linecap="round" stroke-linejoin="round"/>
<path d="M49.1179 3.51443L45.4873 3.31348" stroke="#47647A" stroke-width="0.538269" stroke-linecap="round" stroke-linejoin="round"/>
<path d="M43.8531 5.25123L39.7568 4.84582C39.7568 4.84582 39.5987 4.44041 40.0433 4.0752" stroke="#47647A" stroke-width="0.538269" stroke-linecap="round" stroke-linejoin="round"/>
<path d="M47.4275 4.02307C47.3466 3.7994 47.1076 3.67533 46.8757 3.73474L44.2151 4.42848C44.0569 4.47042 43.8935 4.48265 43.7318 4.46867L40.0502 4.13316C40.0186 4.12966 40.0133 4.08598 40.0432 4.07549L42.5245 3.25419C43.2486 3.01479 44.0235 2.96761 44.7722 3.11964L47.1041 3.75396" stroke="#47647A" stroke-width="0.538269" stroke-linecap="round" stroke-linejoin="round"/>
</svg>
