<svg width="101" height="61" viewBox="0 0 101 61" fill="none" xmlns="http://www.w3.org/2000/svg">
<path d="M92.7761 49.2309C95.1552 42.7311 93.6763 36.226 89.4728 34.7013C85.2693 33.1767 79.933 37.2098 77.5539 43.7096C75.1747 50.2094 76.6537 56.7145 80.8572 58.2391C85.0607 59.7638 90.397 55.7306 92.7761 49.2309Z" stroke="#47647A" stroke-width="0.58" stroke-miterlimit="10"/>
<path d="M19.1628 33.707C16.17 34.4969 13.1503 34.9723 8.99747 34.2124C1.31382 32.8099 4.33684 20.5351 6.6638 13.9074C10.0164 4.36075 18.5575 -0.502949 25.9419 1.41173C30.1183 2.49628 31.4734 4.34736 32.2603 7.79513" stroke="#47647A" stroke-width="0.58" stroke-miterlimit="10"/>
<path d="M91.9733 48.9408C94.2081 42.8353 92.9714 36.7802 89.2111 35.4163C85.4508 34.0524 80.5908 37.8962 78.356 44.0017C76.1212 50.1072 77.3579 56.1623 81.1182 57.5262C84.8785 58.8901 89.7385 55.0463 91.9733 48.9408Z" stroke="#47647A" stroke-width="0.58" stroke-miterlimit="10"/>
<path d="M58.2094 51.304C59.6615 47.3368 58.5061 43.2746 55.6288 42.231C52.7514 41.1873 49.2416 43.5574 47.7895 47.5246C46.3373 51.4919 47.4927 55.554 50.3701 56.5977C53.2475 57.6413 56.7572 55.2713 58.2094 51.304Z" stroke="#47647A" stroke-width="0.58" stroke-miterlimit="10"/>
<path d="M52.6857 56.7462C52.5613 56.7027 50.5202 57.9345 48.6337 57.2416C46.5792 56.4851 43.8184 55.0056 43.6099 54.8483C41.3637 53.1713 40.4591 49.0908 41.8277 45.3485C43.388 41.0806 47.2853 38.617 50.7522 39.4605" stroke="#47647A" stroke-width="0.58" stroke-miterlimit="10"/>
<path d="M43.3434 54.8123C42.9634 54.6751 40.9055 53.7178 40.5826 53.4868C38.2826 51.8499 37.4957 48.0373 38.8643 44.3017C40.3237 40.3083 44.1908 37.7911 47.1869 38.2563C47.6207 38.3233 49.0296 38.7651 49.2246 38.8354" stroke="#47647A" stroke-width="0.58" stroke-miterlimit="10"/>
<path d="M42.4124 54.4834C42.4124 54.4834 28.5078 47.2096 26.961 46.4631C24.0052 45.0338 24.3449 42.2321 24.3449 37.3617C24.3449 34.3892 28.2489 33.703 30.0916 35.0788C31.5275 36.1499 38.774 39.6948 40.3006 40.4345" stroke="#47647A" stroke-width="0.58" stroke-miterlimit="10"/>
<path d="M43.6098 54.8491C40.3313 53.6608 36.5247 48.5728 38.1792 44.0506C39.8336 39.5283 43.8318 36.8303 47.1103 38.0187C47.3928 38.1224 48.9733 38.6848 49.2254 38.8354" stroke="#47647A" stroke-width="0.58" stroke-miterlimit="10"/>
<path d="M43.946 55.0767C40.6674 53.8884 39.3795 49.5904 41.0339 45.0682C42.6883 40.5459 46.6865 37.8479 49.9651 39.0362C50.7654 39.3274 55.6312 42.2263 55.6312 42.2263" stroke="#47647A" stroke-width="0.58" stroke-miterlimit="10"/>
<path d="M84.1285 36.6365C85.339 36.2516 86.5698 36.2282 87.7164 36.6432C91.3952 37.9788 92.8209 43.3078 90.9042 48.5531C88.9841 53.795 84.4479 56.965 80.7692 55.6294C79.6225 55.2143 78.6944 54.4076 78.0186 53.3365" stroke="#47647A" stroke-width="0.58" stroke-miterlimit="10"/>
<path d="M89.7133 48.1207C87.9445 52.9509 83.5294 55.7828 79.8507 54.4505C79.1613 54.1995 78.5459 53.8212 78.0146 53.3392C78.0752 53.6137 79.6186 55.2137 80.7653 55.6321C84.444 56.9677 88.9836 53.7978 90.9003 48.5559C92.8204 43.3139 91.3913 37.9816 87.7125 36.646C86.5659 36.2309 85.4999 35.9665 84.1246 36.6393C85.1569 36.4016 85.5571 36.7129 86.2464 36.964C89.9251 38.2996 91.4753 43.2938 89.7066 48.124L89.7133 48.1207Z" stroke="#47647A" stroke-width="0.58" stroke-miterlimit="10"/>
<path d="M82.1047 37.9412C83.4329 37.3153 84.8385 37.1713 86.1332 37.64C89.3781 38.8149 90.6794 43.4007 89.0385 47.8828C87.3975 52.3616 83.4397 55.0395 80.1947 53.8646C78.9035 53.3959 77.9216 52.3884 77.3096 51.0628" stroke="#47647A" stroke-width="0.58" stroke-miterlimit="10"/>
<path d="M78.0146 53.3392C78.5459 53.8212 79.1613 54.1995 79.8507 54.4505C83.5294 55.7861 87.9445 52.9509 89.7133 48.1207C91.4821 43.2905 89.9319 38.2962 86.2531 36.9606C85.5638 36.7096 84.8475 36.6058 84.1313 36.6359" stroke="#47647A" stroke-width="0.58" stroke-miterlimit="10"/>
<path d="M55.8368 42.3002C55.6855 39.9638 56.0352 37.4298 56.9532 34.926C59.6937 27.4347 66.4728 23.0128 72.0885 25.0513C73.8438 25.6873 74.8559 26.5577 75.9151 28.1242" stroke="#47647A" stroke-width="0.58" stroke-miterlimit="10"/>
<path d="M50.751 39.4638C50.8451 37.2847 51.289 35.0085 52.1162 32.7524C55.4217 23.7246 63.5862 18.3956 70.3552 20.8492C73.7414 22.0777 76.1356 25.0166 77.2722 28.7791" stroke="#47647A" stroke-width="0.58" stroke-miterlimit="10"/>
<path d="M57.1042 43.1528C56.9361 40.9168 57.3026 37.7803 58.1836 35.3703C60.7594 28.3308 67.1249 24.1767 72.4042 26.0914C73.3928 26.4496 74.2739 26.9985 75.0372 27.6948L89.473 34.6907" stroke="#47647A" stroke-width="0.58" stroke-miterlimit="10"/>
<path d="M81.4759 58.4109L58.5527 49.3965" stroke="#47647A" stroke-width="0.58" stroke-miterlimit="10"/>
<path d="M57.4532 51.0299C58.7635 47.45 57.8313 43.8244 55.371 42.9321C52.9106 42.0397 49.8539 44.2183 48.5435 47.7983C47.2332 51.3782 48.1654 55.0037 50.6257 55.8961C53.0861 56.7885 56.1428 54.6098 57.4532 51.0299Z" stroke="#47647A" stroke-width="0.58" stroke-miterlimit="10"/>
<path d="M53.6864 25.4363C52.6877 24.827 50.3002 26.5409 48.6996 25.9049C47.099 25.2689 46.2314 23.237 46.9376 21.309C47.6437 19.3809 49.5772 18.3097 51.2552 18.919C51.884 19.1466 52.2438 19.5851 52.4489 19.883" stroke="#47647A" stroke-width="0.58" stroke-miterlimit="10"/>
<path d="M35.8216 35.6955C32.2303 34.3934 30.5422 29.9882 32.052 25.861C33.5619 21.7337 37.7013 19.4408 41.2926 20.7429" stroke="#47647A" stroke-width="0.58" stroke-miterlimit="10"/>
<path d="M30.7877 35.5312C30.5792 35.4542 31.3728 34.3831 29.1703 33.1479C25.5621 31.1228 19.4522 29.4156 18.0231 28.3445C15.3128 26.3093 14.1224 22.3862 15.5112 18.5903C16.9269 14.7174 20.5014 12.3441 23.9514 12.7525C28.1077 13.2479 40.8117 20.5686 41.296 20.746" stroke="#47647A" stroke-width="0.58" stroke-miterlimit="10"/>
<path d="M15.9617 25.8304C12.5587 24.5952 11.3078 20.5616 12.7403 16.6486C14.1728 12.7355 17.1487 9.85013 22.9426 12.7054" stroke="#47647A" stroke-width="0.58" stroke-miterlimit="10"/>
<path d="M41.0903 30.9641C41.5048 29.8316 41.0417 28.6236 40.0558 28.266C39.0699 27.9084 37.9346 28.5366 37.5201 29.6691C37.1056 30.8016 37.5687 32.0096 38.5546 32.3672C39.5405 32.7248 40.6758 32.0966 41.0903 30.9641Z" stroke="#47647A" stroke-width="0.58" stroke-miterlimit="10"/>
<path d="M54.6376 50.0084C55.1202 48.6901 54.7773 47.3551 53.8716 47.0266C52.966 46.6981 51.8407 47.5006 51.3581 48.8189C50.8756 50.1373 51.2185 51.4723 52.1241 51.8008C53.0297 52.1293 54.1551 51.3268 54.6376 50.0084Z" stroke="#47647A" stroke-width="0.58" stroke-miterlimit="10"/>
<path d="M53.8931 49.7379C54.2002 48.899 54.0488 48.0737 53.555 47.8946C53.0612 47.7154 52.4119 48.2504 52.1049 49.0893C51.7978 49.9283 51.9491 50.7536 52.443 50.9327C52.9368 51.1118 53.586 50.5769 53.8931 49.7379Z" stroke="#47647A" stroke-width="0.58" stroke-miterlimit="10"/>
<path d="M53.6873 25.4354C52.739 24.5551 50.2439 25.6296 48.9863 25.1208C47.7287 24.612 47.2041 23.099 47.7522 21.6027C48.3003 20.1064 49.7395 19.2529 50.9703 19.6981C51.2763 19.8085 51.5419 19.9926 51.7571 20.227" stroke="#47647A" stroke-width="0.58" stroke-miterlimit="10"/>
<path d="M40.4731 30.7404C40.7446 29.9987 40.4413 29.2076 39.7957 28.9735C39.1501 28.7393 38.4066 29.1507 38.1351 29.8924C37.8636 30.6341 38.1669 31.4252 38.8126 31.6594C39.4582 31.8935 40.2016 31.4821 40.4731 30.7404Z" stroke="#47647A" stroke-width="0.58" stroke-miterlimit="10"/>
<path d="M48.2225 32.3164C48.6052 31.2707 48.1785 30.1557 47.2694 29.826C46.3603 29.4963 45.3131 30.0766 44.9303 31.1223C44.5476 32.1679 44.9743 33.2829 45.8834 33.6127C46.7925 33.9424 47.8397 33.362 48.2225 32.3164Z" stroke="#47647A" stroke-width="0.58" stroke-miterlimit="10"/>
<path d="M52.9865 24.9365C53.9203 24.8723 54.5999 23.7049 54.5045 22.3291C54.4091 20.9532 53.5747 19.8899 52.6409 19.9541C51.7072 20.0183 51.0276 21.1857 51.123 22.5615C51.2184 23.9373 52.0528 25.0007 52.9865 24.9365Z" stroke="#47647A" stroke-width="0.58" stroke-miterlimit="10"/>
<path d="M21.5918 12.036C24.756 8.15308 28.7139 6.50953 32.2581 7.79492C33.5359 8.2602 34.612 9.09703 35.456 10.2117C35.6308 10.4427 35.8629 10.6234 36.1218 10.7506L38.553 11.9423" stroke="#47647A" stroke-width="0.58" stroke-miterlimit="10"/>
<path d="M24.6604 36.0393C23.8836 36.0393 22.8042 35.9087 22.0678 35.6409C19.2667 34.6233 17.313 32.1229 16.748 27.1152" stroke="#47647A" stroke-width="0.58" stroke-miterlimit="10"/>
<path d="M39.6377 10.9222L44.0058 10.9289C46.3025 10.9289 45.9729 10.728 46.6656 11.0293L50.0417 12.4988C51.0942 12.9574 51.3498 13.3557 51.5146 14.554" stroke="#47647A" stroke-width="0.58" stroke-miterlimit="10"/>
<path d="M12.094 15.223L7.23836 15.8991C6.69361 15.9761 6.69697 16.7594 7.23836 16.8331L11.519 17.4055C12.0436 17.4757 12.5413 17.1678 12.7127 16.669C12.7531 16.5519 12.7934 16.4347 12.8372 16.3176C15.5306 8.95675 22.7301 4.80938 28.914 7.0521C29.3814 7.22282 29.4016 7.19269 29.8286 7.42366" stroke="#47647A" stroke-width="0.58" stroke-miterlimit="10"/>
<path d="M19.1624 33.7068C15.7425 32.465 13.3483 29.5327 12.3463 25.9109C12.3126 25.787 12.2555 25.6698 12.1781 25.5661L11.6368 24.264C11.3879 23.6681 10.8465 23.243 10.2076 23.1393L6.90215 22.8213C6.06485 22.7409 5.4932 21.9442 5.68151 21.1308L6.83489 16.2002" stroke="#47647A" stroke-width="0.58" stroke-miterlimit="10"/>
<path d="M38.1553 12.8423L44.8402 15.2223C45.1664 14.1243 44.6216 12.9561 43.5658 12.4975L40.1897 11.028C39.5003 10.7268 38.7 11.0916 38.4781 11.808L38.1553 12.8423Z" stroke="#47647A" stroke-width="0.58" stroke-miterlimit="10"/>
<path d="M54.4232 19.0863L47.7383 16.7064L48.2696 14.9925C48.3805 14.6377 48.7773 14.4569 49.1203 14.6042L53.1488 16.3582C54.2013 16.8168 54.7494 17.985 54.4232 19.083V19.0863Z" stroke="#47647A" stroke-width="0.58" stroke-miterlimit="10"/>
<path d="M55.8027 55.036L58.9838 54.9423C61.1493 54.8787 63.288 54.4335 65.2988 53.6301L67.2963 52.8301" stroke="#47647A" stroke-width="0.58" stroke-miterlimit="10"/>
<path d="M41.293 20.7461L44.9616 22.6106C45.3618 22.8148 45.6913 23.1328 45.9099 23.5244L46.0444 23.7687C46.616 24.7997 47.571 25.5696 48.7009 25.9077" stroke="#47647A" stroke-width="0.58" stroke-miterlimit="10"/>
<path d="M60.2217 16.8564L70.3567 20.8498" stroke="#47647A" stroke-width="0.58" stroke-miterlimit="10"/>
<path d="M51.1279 13.2754L54.0433 14.4235" stroke="#47647A" stroke-width="0.58" stroke-miterlimit="10"/>
<path d="M44.8398 15.2232L48.2697 14.9922" stroke="#47647A" stroke-width="0.58" stroke-miterlimit="10"/>
<path d="M54.5182 19.1159L60.9308 18.7142C60.9308 18.7142 60.6752 16.8196 59.6227 16.3611L55.5337 14.5803C55.2244 14.4464 54.8343 14.5535 54.0004 14.5334L48.6807 14.587" stroke="#47647A" stroke-width="0.58" stroke-miterlimit="10"/>
<path d="M53.6859 25.4355C53.8675 25.7502 54.0423 27.7285 51.5136 28.2774L48.2989 28.5051C46.7622 29.0306 45.5449 29.5093 44.9632 31.0189L44.9229 31.1193" stroke="#47647A" stroke-width="0.58" stroke-miterlimit="10"/>
<path d="M49.7958 28.3979L47.8691 28.2004C46.8334 28.0933 45.8279 27.7987 44.8998 27.3301L39.2439 24.4681C38.8 24.2438 38.2922 24.1836 37.808 24.2974L34.7615 24.756C33.1945 24.9602 32.7909 26.4096 32.4244 27.3234C31.8259 28.8196 32.7573 30.5 34.2974 30.9954L38.5512 32.3678" stroke="#47647A" stroke-width="0.58" stroke-miterlimit="10"/>
<path d="M44.8976 27.3271L44.753 27.364C43.7846 27.6117 42.7858 27.6987 41.7905 27.6184L40.0688 27.4778C38.9961 27.3907 38.021 28.1037 37.7822 29.1515" stroke="#47647A" stroke-width="0.58" stroke-miterlimit="10"/>
<path d="M35.8223 35.6953L41.9356 38.9657" stroke="#47647A" stroke-width="0.58" stroke-miterlimit="10"/>
<path d="M45.8788 33.6094L45.5762 37.74" stroke="#47647A" stroke-width="0.58" stroke-miterlimit="10"/>
<path d="M52.4502 19.8789L66.348 20.2505" stroke="#47647A" stroke-width="0.58" stroke-miterlimit="10"/>
<path d="M52.8125 24.9233L57.3622 24.5518" stroke="#47647A" stroke-width="0.58" stroke-miterlimit="10"/>
</svg>
