<svg width="56" height="63" viewBox="0 0 56 63" fill="none" xmlns="http://www.w3.org/2000/svg">
<path d="M22.9503 3.316C22.5966 2.43886 20.312 1.91099 17.6182 2.12134C15.0634 2.31979 13.0013 3.11359 12.6357 3.97485" stroke="#47647A" stroke-width="0.8" stroke-miterlimit="10"/>
<path d="M22.95 3.24805C22.958 3.27186 22.9619 3.29964 22.9659 3.32346C23.0335 3.43459 23.0732 3.54969 23.0851 3.66876C23.1765 4.75229 20.9197 5.83184 18.0431 6.07792C15.2817 6.31209 12.9573 5.6969 12.6911 4.68481C12.6236 4.57368 12.5839 4.45858 12.5719 4.33951C12.56 4.21647 12.5839 4.09741 12.6315 3.97834C12.4011 4.23235 12.2819 4.4943 12.3057 4.75625C12.4011 5.86757 14.9281 6.56213 17.9477 6.30415C20.9674 6.04617 23.3394 4.93486 23.244 3.82355C23.2281 3.61716 23.1248 3.42268 22.95 3.24805Z" stroke="#47647A" stroke-width="0.8" stroke-miterlimit="10"/>
<path d="M17.952 5.86033C15.3972 6.07862 13.2159 5.56662 12.6914 4.68948C12.9536 5.6976 15.278 6.31676 18.0433 6.08259C20.92 5.83651 23.1807 4.75695 23.0854 3.67343C23.0735 3.55039 23.0298 3.43529 22.9662 3.32812C22.9781 3.37178 22.99 3.41147 22.994 3.45513C23.0854 4.53866 20.8286 5.61822 17.952 5.86429V5.86033Z" stroke="#47647A" stroke-width="0.8" stroke-miterlimit="10"/>
<path d="M40.1514 32.158C42.9525 33.2217 46.1549 31.0824 47.6528 27.3912C49.1507 23.7001 48.4276 20.1122 45.5709 18.8857" stroke="#47647A" stroke-width="0.8" stroke-miterlimit="10"/>
<path d="M40.2451 32.2918C43.2926 33.3475 46.5149 31.2241 48.0168 27.533C49.5186 23.8418 48.6644 19.984 45.8394 18.833" stroke="#47647A" stroke-width="0.8" stroke-miterlimit="10"/>
<path d="M40.8535 33.0477C44.1314 34.1868 47.5285 31.9006 49.1417 27.9277C50.7548 23.9548 49.7853 19.8905 46.571 18.7832" stroke="#47647A" stroke-width="0.8" stroke-miterlimit="10"/>
<path d="M40.8535 33.0477C44.2824 33.7224 47.2464 31.7697 48.8596 27.7967C50.4727 23.8238 49.5231 20.089 46.571 18.7832" stroke="#47647A" stroke-width="0.8" stroke-miterlimit="10"/>
<path d="M39.5137 30.5869C41.5043 30.1464 43.3717 28.4 44.3888 25.8996C45.406 23.3991 45.3265 21.0019 44.2378 19.3389" stroke="#47647A" stroke-width="0.8" stroke-miterlimit="10"/>
<path d="M39.5537 30.7662C41.7271 30.409 43.6978 28.6348 44.7507 26.0471C45.8036 23.4593 45.6208 20.9549 44.4646 19.2363" stroke="#47647A" stroke-width="0.8" stroke-miterlimit="10"/>
<path d="M39.4808 27.9026C39.4967 26.7238 40.4741 25.9618 41.3005 24.3305C41.7018 23.5447 41.678 22.7072 41.7535 22.1992C41.7932 21.9293 42.0038 21.7507 42.115 21.5919L40.7999 22.1079C40.7999 22.1079 39.5801 23.3661 38.8371 26.958C38.3444 29.3314 38.6623 31.2286 39.2305 32.451C39.6476 33.348 40.3747 34.0585 41.1813 34.6895L40.3747 34.888C40.3747 34.888 38.6265 33.8084 38.0862 31.6096C37.7723 30.3356 37.375 28.0375 38.0186 25.6839C38.4914 23.9416 39.4768 22.4254 40.4502 21.3538C40.5615 21.2307 42.1865 20.8418 42.1865 20.8418C43.8156 19.1907 45.8419 18.4525 47.6021 18.9168L49.4734 18.123C49.4734 18.123 50.6217 18.6192 51.4799 20.4608" stroke="#47647A" stroke-width="0.8" stroke-miterlimit="10"/>
<path d="M45.8721 33.3537C46.5277 32.9925 47.0323 32.5638 47.66 31.9685L48.5818 31.6153C49.4599 30.7341 50.2307 29.599 50.7711 28.2615C52.3484 24.3798 51.4425 20.3474 48.7447 19.2519L50.032 18.8828C50.032 18.8828 53.0557 20.6887 52.3087 25.9238" stroke="#47647A" stroke-width="0.8" stroke-miterlimit="10"/>
<path d="M45.8721 33.3537C44.5927 34.0562 43.1822 34.1515 42.471 34.0364V34.1951C42.1809 34.1475 41.3505 33.6395 40.6592 32.8258C39.7851 31.8018 39.1573 30.6667 39.4792 27.9043" stroke="#47647A" stroke-width="0.8" stroke-miterlimit="10"/>
<path d="M37.8923 44.5583C37.8923 44.5583 38.5638 55.8659 38.9254 57.9615C39.2869 60.0571 39.9743 60.0928 40.5981 60.4183C41.2219 60.7437 44.9289 60.2873 47.0149 59.303C49.1008 58.3187 51.3258 56.0921 52.2675 55.0086C53.2091 53.925 53.1019 52.4526 53.1019 52.4526C53.1019 52.4526 53.6541 38.8509 53.5906 36.3941C53.527 33.9373 52.6052 32.056 52.6052 32.056C52.037 29.6985 52.7999 27.968 53.1813 26.8289C54.5243 22.8004 53.7892 18.8354 51.0636 17.0732C47.5632 14.8148 42.1079 17.0375 38.8777 22.0344C36.1163 26.305 36.6765 31.3099 37.8923 34.5922C38.7823 36.9974 36.5057 40.5615 36.8752 44.9909L37.8923 58.2195C37.8923 58.2195 38.2261 61.2359 40.165 61.5613C42.104 61.8868 44.8614 61.6288 47.2572 60.3151C49.6531 59.0014 53.0303 56.0564 53.3601 55.1713C53.6899 54.2862 54.115 53.6313 54.4408 51.2063C54.7666 48.7813 54.9971 37.2117 54.9971 37.2117C54.9971 37.2117 55.1044 34.7867 53.9044 31.2464C53.3045 29.4841 54.3336 26.2852 54.4369 25.6501C55.0686 21.8201 54.2263 17.7479 51.7986 16.1802C48.0241 13.7432 42.0483 16.2754 38.4526 21.8359C35.7905 25.9518 35.4567 29.0833 36.7917 33.1475C37.2963 34.6835 38.385 35.8345 36.7917 39.7876C36.7917 39.7876 35.7905 42.0618 36.0289 46.0506C36.6606 56.6755 37.1175 59.4578 37.1175 59.4578C37.1175 59.4578 37.6579 63.8197 45.3739 61.1168" stroke="#47647A" stroke-width="0.8" stroke-miterlimit="10"/>
<path d="M7.64523 2.30273C5.57915 2.41783 3.29057 4.19593 1.97543 6.94643C0.481497 10.07 0.747704 13.3841 2.47209 14.8844" stroke="#47647A" stroke-width="0.8" stroke-miterlimit="10"/>
<path d="M8.82263 2.42755C8.97361 2.3561 9.12857 2.29657 9.27955 2.23704C8.75508 2.13781 8.2028 2.16162 7.64258 2.30451C8.04785 2.28069 8.4412 2.31641 8.81865 2.42755H8.82263Z" stroke="#47647A" stroke-width="0.8" stroke-miterlimit="10"/>
<path d="M7.74284 3.03397C7.85806 2.9665 8.1044 2.80377 8.22757 2.73233C7.7031 2.6331 6.91243 2.60929 6.37207 2.77599C6.77734 2.75217 7.3614 2.92284 7.73886 3.03397H7.74284Z" stroke="#47647A" stroke-width="0.8" stroke-miterlimit="10"/>
<path d="M6.79496 3.73278C6.89031 3.66134 7.08898 3.47877 7.20023 3.39939C6.67576 3.30016 5.89303 3.2565 5.34473 3.37557C6.27049 3.45098 6.4175 3.62165 6.79496 3.73278Z" stroke="#47647A" stroke-width="0.8" stroke-miterlimit="10"/>
<path d="M5.86918 4.58627C5.96453 4.51482 6.11154 4.33225 6.21087 4.24097C5.68641 4.14174 4.96328 4.10999 4.41895 4.22906C5.34471 4.30447 5.49172 4.47513 5.86918 4.58627Z" stroke="#47647A" stroke-width="0.8" stroke-miterlimit="10"/>
<path d="M4.69358 6.23862L5.13858 5.58771C4.61411 5.48848 3.95058 5.4607 3.40625 5.58374C4.27241 5.81394 4.60617 6.17511 4.69358 6.24259V6.23862Z" stroke="#47647A" stroke-width="0.8" stroke-miterlimit="10"/>
<path d="M5.71387 4.85991C6.65155 3.76448 7.72432 2.93099 8.82093 2.42693C8.44348 2.3158 8.04615 2.28008 7.64486 2.3039" stroke="#47647A" stroke-width="0.8" stroke-miterlimit="10"/>
<path d="M3.20471 15.372C2.93453 15.245 2.69613 15.0783 2.47363 14.8838C2.79546 15.5942 3.48283 16.3404 3.84837 16.7373C3.6219 16.3206 3.4431 15.8165 3.27623 15.3958C3.25239 15.3839 3.22855 15.3799 3.20868 15.368L3.20471 15.372Z" stroke="#47647A" stroke-width="0.8" stroke-miterlimit="10"/>
<path d="M1.60645 12.8896C1.92828 13.6001 2.70306 14.4098 3.06859 14.8067C2.97721 14.4534 2.90967 14.0565 2.84212 13.7112C2.81828 13.6993 2.07131 13.3143 1.60645 12.8896Z" stroke="#47647A" stroke-width="0.8" stroke-miterlimit="10"/>
<path d="M1.40332 11.379C1.72515 12.0894 2.33306 12.5816 2.76217 12.8832V12.0537C2.73833 12.0418 1.86819 11.7997 1.40332 11.375V11.379Z" stroke="#47647A" stroke-width="0.8" stroke-miterlimit="10"/>
<path d="M1.57429 9.95709C1.89612 10.6675 2.46429 11.0089 2.82983 11.4058L2.92121 10.6794C2.89737 10.6675 2.03518 10.3778 1.57031 9.95312L1.57429 9.95709Z" stroke="#47647A" stroke-width="0.8" stroke-miterlimit="10"/>
<path d="M1.95703 8.35742C2.27886 9.06787 2.74373 9.45286 3.10927 9.84975L3.32382 9.15915C3.29998 9.14725 2.4219 8.77813 1.95703 8.35742Z" stroke="#47647A" stroke-width="0.8" stroke-miterlimit="10"/>
<path d="M2.63965 6.96484C2.96148 7.67529 3.28729 7.86183 3.6568 8.2627L3.95876 7.5721C3.93492 7.56019 3.10849 7.38952 2.64362 6.96484H2.63965Z" stroke="#47647A" stroke-width="0.8" stroke-miterlimit="10"/>
<path d="M2.47363 14.8851C2.6959 15.0756 2.938 15.2423 3.20392 15.3733C3.22774 15.3852 3.25155 15.3892 3.2714 15.4011C3.14042 15.0756 3.03326 14.7303 2.95388 14.3691" stroke="#47647A" stroke-width="0.8" stroke-miterlimit="10"/>
<path d="M2.95718 14.3699C2.52012 12.4013 2.82209 9.94057 3.95446 7.57506C4.44317 6.55107 5.0471 5.64218 5.7146 4.86426" stroke="#47647A" stroke-width="0.8" stroke-miterlimit="10"/>
<path d="M51.024 17.799C50.0029 17.1401 48.7394 17.0052 47.4004 17.3147C48.4732 17.2552 49.4784 17.4854 50.3406 18.0371C53.4 20.0097 53.7735 28.0071 48.5844 31.611C53.8291 28.031 53.9125 19.6564 51.024 17.795V17.799Z" stroke="#47647A" stroke-width="0.8" stroke-miterlimit="10"/>
<path d="M48.2795 47.1602L41.8389 49.9781" stroke="#47647A" stroke-width="0.8" stroke-miterlimit="10"/>
<path d="M41.0732 35.8416L47.6728 32.9521" stroke="#47647A" stroke-width="0.8" stroke-miterlimit="10"/>
<path d="M39.1304 38.7915C36.9689 43.3082 37.7159 48.1662 40.7991 49.6387C41.1329 49.7975 41.4825 49.9086 41.8361 49.9761L48.2767 47.1581C49.0515 46.3008 49.7429 45.2808 50.2951 44.1219C52.4566 39.6052 51.7096 34.7472 48.6264 33.2747C48.3165 33.1278 47.9986 33.0207 47.6688 32.9492L41.0693 35.8386C40.3263 36.6761 39.6628 37.6683 39.1264 38.7876L39.1304 38.7915Z" stroke="#47647A" stroke-width="0.8" stroke-miterlimit="10"/>
<path d="M40.9652 51.9752C39.6501 54.7218 40.0474 57.4207 41.5453 58.8297C41.7082 58.9844 41.891 59.1154 41.891 59.1154L47.9462 56.4999C48.3952 55.841 48.6654 55.2457 49.0031 54.5392C50.3182 51.7927 50.0639 49.8003 48.5223 48.2246C48.3713 48.0698 48.0654 47.8197 47.8667 47.7324L42.1493 50.1773C41.6963 50.6893 41.295 51.2926 40.9692 51.9713L40.9652 51.9752Z" stroke="#47647A" stroke-width="0.8" stroke-miterlimit="10"/>
<path d="M41.7676 59.0231C41.9345 59.1819 42.2483 59.4677 42.2483 59.4677L48.4823 56.7727C49.0147 56.0424 49.2929 55.6376 49.5988 54.8954C51.2517 50.8947 49.1498 49.5214 50.7471 45.6318C50.7471 45.6318 51.7563 42.9171 52.102 41.262C52.3642 40.0237 52.4238 37.4161 51.4623 35.4514C50.2027 32.8796 48.2797 32.6533 48.2797 32.6533L47.4016 33.074" stroke="#47647A" stroke-width="0.8" stroke-miterlimit="10"/>
<path d="M39.7285 48.9121L46.1493 46.1021L46.1612 46.0942C47.2935 44.9948 48.112 43.5501 48.8669 41.8037C50.2457 38.6127 49.6099 35.0089 48.6286 33.2744" stroke="#47647A" stroke-width="0.8" stroke-miterlimit="10"/>
<path d="M39.3711 48.5412L45.7283 45.7589L45.7402 45.751C46.8726 44.6516 47.7228 43.2188 48.446 41.4605C49.6379 38.5711 49.1651 35.3642 48.1519 33.082" stroke="#47647A" stroke-width="0.8" stroke-miterlimit="10"/>
<path d="M40.4355 21.3588C43.0936 18.4535 46.2206 17.5486 47.4006 17.3145" stroke="#47647A" stroke-width="0.8" stroke-miterlimit="10"/>
<path d="M52.0695 27.1602C52.0695 27.1602 51.0484 30.1805 52.0695 32.6492C53.0907 35.1179 52.9437 36.8087 52.9278 38.4757C52.9119 40.1426 52.4271 52.117 52.4271 52.117C52.4271 52.117 52.4748 53.6887 51.5332 54.5222C50.4087 55.5105 49.8485 56.7925 46.0898 58.6301C43.8767 59.7136 41.9259 60.1304 39.3711 59.4676" stroke="#47647A" stroke-width="0.8" stroke-miterlimit="10"/>
<path d="M51.8023 16.1878L49.4581 14.7589C49.4581 14.7589 47.0861 13.5365 43.9194 14.1477C40.7527 14.7589 37.6695 17.1879 35.9968 19.3391C34.3241 21.4903 33.0089 25.3323 32.9652 26.1181C32.9215 26.904 32.4566 37.2431 32.1785 38.6362C31.1296 43.8594 32.1586 53.25 32.4844 55.3972C32.7904 57.4055 33.1241 59.3027 34.92 59.9813C36.7159 60.66 39.3701 61.7872 39.3701 61.7872" stroke="#47647A" stroke-width="0.8" stroke-miterlimit="10"/>
<path d="M51.4267 15.8109L48.7686 14.1915C48.7686 14.1915 46.3966 12.9691 43.23 13.5803C40.0633 14.1915 36.9801 16.6206 35.3073 18.7717C33.6346 20.9229 32.3195 24.7649 32.2758 25.5507C32.232 26.3366 31.7672 36.6757 31.4891 38.0688C30.4401 43.292 31.4692 52.6826 31.795 54.8298C32.1009 56.8381 32.5817 59.1083 34.3776 59.787C36.1735 60.4657 38.8276 61.5929 38.8276 61.5929" stroke="#47647A" stroke-width="0.8" stroke-miterlimit="10"/>
<path d="M49.4588 14.7569C49.4588 14.7569 48.3026 13.2288 45.5015 12.9669C42.7004 12.7049 38.7629 13.7527 36.2717 16.2453C33.7805 18.7378 31.4998 21.1112 31.031 25.6557C30.5621 30.2001 29.251 47.3977 29.251 48.5685C29.251 49.7394 29.3304 53.5377 29.843 55.5063C30.3039 57.2764 30.2085 57.8162 33.3712 59.118" stroke="#47647A" stroke-width="0.8" stroke-miterlimit="10"/>
<path d="M49.5743 14.6788C49.5743 14.6788 47.997 12.7777 45.1958 12.5157C42.3947 12.2538 38.4572 13.3016 35.966 15.7941C33.4748 18.2866 31.1942 20.66 30.7253 25.2045C30.2565 29.749 28.9453 46.9465 28.9453 48.1174C28.9453 49.2882 28.9771 53.1063 29.3943 55.0948C29.732 56.7102 29.442 57.8969 33.3755 59.1193" stroke="#47647A" stroke-width="0.8" stroke-miterlimit="10"/>
<path d="M47.6716 13.2471L29.2517 6.13075C29.2517 6.13075 26.0374 5.03928 23.6733 5.56319C21.3092 6.08709 18.6869 7.98823 18.1624 8.51213C17.638 9.03603 16.3268 10.3775 16.2592 13.2471C16.1917 16.1167 17.1771 18.8037 13.176 22.4075C9.17497 26.0113 9.63189 26.7178 10.0252 27.9045C10.4186 29.0912 11.8609 33.7786 9.43323 36.025C7.00559 38.2714 8.18564 39.4502 8.77765 40.0376C9.36966 40.625 12.8462 42.1333 15.2739 45.2806C17.7015 48.428 19.2749 50.5236 20.7848 51.508C22.2946 52.4923 29.3868 57.39 31.0277 58.1401" stroke="#47647A" stroke-width="0.8" stroke-miterlimit="10"/>
<path d="M9.2832 2.23605C9.2832 2.23605 9.39048 2.33924 10.4434 2.07729C11.4963 1.81534 14.6669 2.30749 16.4549 2.25589" stroke="#47647A" stroke-width="0.8" stroke-miterlimit="10"/>
<path d="M26.3982 5.50249C26.3982 5.50249 25.7903 5.47471 25.0195 4.80395C24.2487 4.1332 23.4262 3.2243 22.6475 2.93457" stroke="#47647A" stroke-width="0.8" stroke-miterlimit="10"/>
<path d="M3.8457 16.7422C3.8457 16.7422 5.69326 18.9966 6.13031 20.7469C6.56737 22.4972 6.39254 23.6323 6.34884 24.2197C6.30513 24.8071 5.51843 30.8598 5.86808 33.1102C6.21772 35.3606 5.73696 37.9682 6.76603 39.4685C7.96594 41.2148 9.84926 42.092 10.9419 42.8778C12.0345 43.6637 14.5059 45.6958 16.4329 47.6644C18.3599 49.633 18.9281 50.7681 20.5214 51.816C22.1146 52.8638 30.1247 57.6503 30.1247 57.6503" stroke="#47647A" stroke-width="0.8" stroke-miterlimit="10"/>
<path d="M21.9792 6.12988C21.9792 6.12988 16.6471 7.72541 15.6657 10.3449C14.6844 12.9644 15.2724 15.1394 13.9612 16.7389C12.6501 18.3384 8.68875 21.1207 8.22786 22.9266C7.10343 27.3242 7.77094 27.3242 7.61201 28.5307" stroke="#47647A" stroke-width="0.8" stroke-miterlimit="10"/>
<path d="M8.26336 33.2529L8.08059 33.1259C7.87001 32.9632 7.76273 32.7488 7.76671 32.5186L8.1243 30.0737C8.16006 29.7602 8.2872 29.6848 8.47394 29.792L8.70439 29.9745C8.911 30.169 9.04212 30.4111 9.01828 30.6334L8.65274 32.9909C8.63685 33.1219 8.66466 33.5188 8.26336 33.2608V33.2529Z" stroke="#47647A" stroke-width="0.8" stroke-miterlimit="10"/>
<path d="M7.03811 31.922C6.94285 31.7712 6.89919 31.5648 6.9111 31.3306L7.21671 28.8818C7.24846 28.5682 7.3199 28.4849 7.40722 28.5801L7.51438 28.7468C7.60964 28.9294 7.66123 29.1636 7.63742 29.3858L7.33181 31.7474C7.31593 31.8784 7.29814 32.3492 7.10763 32.115L7.03811 31.922Z" stroke="#47647A" stroke-width="0.8" stroke-miterlimit="10"/>
<path d="M6.18531 31.2363L6.15355 31.1251C6.11783 30.9822 6.10593 30.7759 6.12577 30.5457L6.4036 28.0928C6.43535 27.7793 6.47504 27.692 6.51076 27.7833L6.55045 27.946C6.58617 28.1206 6.59808 28.3548 6.57426 28.5731L6.30041 30.9386C6.2885 31.0696 6.26072 31.4625 6.18531 31.2363Z" stroke="#47647A" stroke-width="0.8" stroke-miterlimit="10"/>
<path d="M8.80206 34.5522C8.80206 34.5522 7.18893 33.6354 6.76777 33.175C6.34661 32.7146 5.94134 32.5201 6.10424 30.8135" stroke="#47647A" stroke-width="0.8" stroke-miterlimit="10"/>
</svg>
