<svg width="111" height="52" viewBox="0 0 111 52" fill="none" xmlns="http://www.w3.org/2000/svg">
<path d="M108.431 32.977C109.849 24.3002 109.356 16.9956 107.329 16.6618C105.302 16.3279 102.509 23.0911 101.09 31.7678C99.6716 40.4446 100.165 47.7492 102.192 48.0831C104.219 48.417 107.012 41.6537 108.431 32.977Z" stroke="#47647A" stroke-width="0.87" stroke-linecap="round" stroke-linejoin="round"/>
<path d="M108.431 32.977C109.715 25.1243 109.112 18.4878 107.085 18.1539C105.058 17.82 102.374 23.9152 101.09 31.7678C99.8065 39.6205 100.409 46.257 102.436 46.5909C104.463 46.9248 107.147 40.8296 108.431 32.977Z" stroke="#47647A" stroke-width="0.87" stroke-linecap="round" stroke-linejoin="round"/>
<path d="M106.325 14.5732C103.635 15.2329 100.466 22.4023 98.9822 31.4826C97.5999 39.9373 98.131 47.2901 100.097 49.4637" stroke="#47647A" stroke-width="0.87" stroke-linecap="round" stroke-linejoin="round"/>
<path d="M92.3187 50.9984C92.3187 50.9984 100.219 49.475 100.377 49.4636C103.508 49.25 107.12 42.0769 108.627 32.851C110.113 23.7612 109.03 15.9076 106.224 14.5221C106.038 14.4295 100.373 10.1445 100.373 10.1445L100.164 10.0103C99.5839 9.63604 98.8288 9.69274 98.309 10.1464L95.6651 12.4562C91.4185 16.1665 88.9647 21.5308 88.929 27.1824L88.8028 47.4506C88.7915 49.4069 90.3677 51.0003 92.3168 51.0003L92.3187 50.9984Z" stroke="#47647A" stroke-width="0.87" stroke-linecap="round" stroke-linejoin="round"/>
<path d="M107.73 32.8615C108.77 26.5056 108.283 21.1342 106.643 20.8641C105.003 20.594 102.831 25.5274 101.792 31.8833C100.753 38.2392 101.24 43.6106 102.879 43.8807C104.519 44.1508 106.691 39.2174 107.73 32.8615Z" stroke="#47647A" stroke-width="0.87" stroke-linecap="round" stroke-linejoin="round"/>
<path d="M107.318 32.7949C108.285 26.881 107.832 21.883 106.306 21.6316C104.78 21.3803 102.759 25.9707 101.792 31.8846C100.825 37.7986 101.278 42.7965 102.804 43.0479C104.33 43.2993 106.351 38.7088 107.318 32.7949Z" stroke="#47647A" stroke-width="0.87" stroke-linecap="round" stroke-linejoin="round"/>
<path d="M106.564 32.6711C107.387 27.6358 107.09 23.395 105.899 23.1989C104.709 23.0029 103.077 26.9258 102.253 31.961C101.43 36.9962 101.728 41.2371 102.918 41.4332C104.108 41.6293 105.741 37.7063 106.564 32.6711Z" stroke="#47647A" stroke-width="0.87" stroke-linecap="round" stroke-linejoin="round"/>
<path d="M18.1653 6.27344C15.0411 7.50582 12.2428 11.8003 11.3539 17.2477C10.4443 22.8086 11.804 27.8704 14.48 29.9647" stroke="#47647A" stroke-width="0.87" stroke-linecap="round" stroke-linejoin="round"/>
<path d="M18.2018 6.25986C17.0493 3.38681 15.2057 1.4475 12.8988 1.06758C7.99128 0.258593 2.83706 6.80611 1.38325 15.688C-0.0686706 24.5717 2.7316 32.4273 7.63913 33.2362C9.98367 33.6218 12.3847 32.329 14.411 29.9058" stroke="#47647A" stroke-width="0.87" stroke-linecap="round" stroke-linejoin="round"/>
<path d="M20.9512 6.03664C16.878 6.67362 15.9213 5.33917 14.765 5.86841C11.317 7.44481 9.0082 11.7941 8.2248 16.5837C7.36796 21.8233 8.13065 25.9627 11.0138 28.8358C12.3245 30.1419 13.0419 29.382 16.4411 30.4292" stroke="#47647A" stroke-width="0.87" stroke-linecap="round" stroke-linejoin="round"/>
<path d="M101.825 38.466C102.834 37.8404 103.9 35.3983 104.395 32.3721C104.894 29.3195 104.653 26.6431 103.879 25.749" stroke="#47647A" stroke-width="0.87" stroke-linecap="round" stroke-linejoin="round"/>
<path d="M99.754 9.76274L97.2852 9.1938C96.6751 9.05204 96.0329 9.21459 95.5621 9.62665L93.1517 11.7361C88.5699 15.6355 86.6547 21.3551 86.4965 27.3828L85.9843 46.1465C85.9391 47.8873 86.7018 49.5525 88.052 50.6488C88.3308 50.8756 88.6791 50.9985 89.0388 50.9985H92.3212" stroke="#47647A" stroke-width="0.87" stroke-linecap="round" stroke-linejoin="round"/>
<path d="M97.2856 9.19343C97.2856 9.19343 71.4749 7.067 63.6861 6.51507C54.5641 5.87052 30.6818 4.59656 27.083 4.40376C26.7817 4.38864 26.4823 4.44534 26.2074 4.57009L19.4939 7.62649C18.2679 8.18408 17.4808 9.4108 17.4808 10.7623V11.1384C17.4808 12.626 17.3433 13.8451 18.3677 15.2684C19.138 16.3401 19.5466 16.0434 22.8082 19.1697C24.6104 20.8973 25.6029 23.3394 25.3976 25.8325C25.2206 27.9646 24.3543 29.7338 22.7009 30.4313L19.6445 31.8678C19.3677 31.985 19.5466 32.9131 19.5315 33.2155C19.5146 33.5841 19.7537 33.9149 20.1078 34.0113C20.3168 34.068 20.5447 34.1303 20.7217 34.1795C20.927 34.2362 21.1473 34.2059 21.33 34.0963L22.6388 33.3081" stroke="#47647A" stroke-width="0.87" stroke-linecap="round" stroke-linejoin="round"/>
<path d="M25.6041 4.8457H24.1974C23.8697 4.8457 23.5458 4.91375 23.2464 5.04228L19.2352 6.78123C14.3164 9.11558 12.7571 14.8995 13.5556 20.3016L14.7872 27.7186C14.904 29.414 16.6459 30.8071 18.1825 31.5197C24.5778 34.4797 43.1703 39.207 50.2868 41.2049C59.3166 43.7396 86.4436 50.5971 86.4436 50.5971C86.4436 50.5971 87.6959 50.9978 89.0367 50.9978" stroke="#47647A" stroke-width="0.87" stroke-linecap="round" stroke-linejoin="round"/>
<path d="M82.7688 49.6658C81.5711 49.3615 80.6484 47.8059 80.7312 44.5321V27.636C80.7312 26.3469 79.8104 25.243 78.5449 25.0181L50.4744 20.0148C49.4386 19.8296 48.4199 20.408 48.0413 21.3928L42.9493 34.6504C42.1885 36.6294 43.083 38.8616 44.9963 39.7595" stroke="#47647A" stroke-width="0.87" stroke-linecap="round" stroke-linejoin="round"/>
<path d="M82.1893 49.3843C81.0801 49.097 79.7619 48.2332 79.6564 44.7459L79.6206 28.2013C79.6206 26.9878 79.3608 26.7572 78.1894 26.5455L51.0134 21.5196C50.0549 21.3457 49.6802 21.5555 49.3299 22.4835L44.4563 35.3291C43.2397 38.4686 44.5805 39.2928 46.3526 40.1396" stroke="#47647A" stroke-width="0.87" stroke-linecap="round" stroke-linejoin="round"/>
<path d="M50.7659 21.9561L78.5463 27.086C78.8081 27.1332 79.0002 27.3619 79.0002 27.6303V34.76C79.0002 35.2231 78.5784 35.5709 78.1264 35.4821L48.3046 29.6056C47.7924 29.5054 47.5005 28.9572 47.702 28.4715L49.9862 22.3833C50.1143 22.0733 50.4401 21.8956 50.7696 21.9561H50.7659Z" stroke="#47647A" stroke-width="0.87" stroke-linecap="round" stroke-linejoin="round"/>
<path d="M47.6992 28.4727L44.6545 36.3338C44.1141 37.7288 44.7167 39.309 46.0479 39.9837L46.351 40.1387" stroke="#47647A" stroke-width="0.87" stroke-linecap="round" stroke-linejoin="round"/>
<path d="M78.9999 34.7598V44.0253C78.8286 46.7302 79.529 48.9795 82.1877 49.3839" stroke="#47647A" stroke-width="0.87" stroke-linecap="round" stroke-linejoin="round"/>
<path d="M18.2878 6.22532C17.1918 3.39007 15.4348 1.48479 13.2258 1.11999C8.50098 0.343132 3.49364 6.91334 2.04171 15.7971C0.589793 24.6809 3.24318 32.5118 7.96804 33.2905C10.2128 33.661 12.5197 32.3719 14.48 29.9658" stroke="#47647A" stroke-width="0.87" stroke-linecap="round" stroke-linejoin="round"/>
<path d="M50.6631 41.2793C50.8721 41.7896 51.8606 42.4002 53.1373 42.7574C54.4139 43.1146 55.5945 43.1071 56.0276 42.7706" stroke="#47647A" stroke-width="0.87" stroke-linecap="round" stroke-linejoin="round"/>
<path d="M89.6543 15.8067L28.796 9.87158C27.7151 9.76573 26.9185 8.24982 27.894 7.7735L32.5209 5.19532C33.1254 4.85509 33.4776 4.84375 34.1706 4.84375H35.8315" stroke="#47647A" stroke-width="0.87" stroke-linecap="round" stroke-linejoin="round"/>
<path d="M38.8805 5.66255L34.9221 5.38658C34.5021 5.35823 33.6264 5.31287 33.2573 5.51511L28.9863 8.04982C28.3837 8.38249 28.9468 9.29733 29.6304 9.36348L89.6525 15.2154" stroke="#47647A" stroke-width="0.87" stroke-linecap="round" stroke-linejoin="round"/>
<path d="M50.5314 6.47736L46.2646 6.17871" stroke="#47647A" stroke-width="0.87" stroke-linecap="round" stroke-linejoin="round"/>
<path d="M63.0843 7.35456L58.0645 7.00488" stroke="#47647A" stroke-width="0.87" stroke-linecap="round" stroke-linejoin="round"/>
<path d="M75.4683 8.222L70.584 7.87988" stroke="#47647A" stroke-width="0.87" stroke-linecap="round" stroke-linejoin="round"/>
<path d="M95.5625 9.62666L82.8643 8.73828" stroke="#47647A" stroke-width="0.87" stroke-linecap="round" stroke-linejoin="round"/>
<path d="M82.3869 8.40722L76.3607 7.90255C76.1743 7.88743 75.9897 7.92712 75.8278 8.01974L72.2837 10.0157C71.9372 10.2104 72.0483 10.7378 72.4419 10.7756L77.9671 11.3181C78.4774 11.3691 78.9896 11.2255 79.4002 10.9174L82.4528 8.63593C82.5469 8.56599 82.5036 8.41667 82.3869 8.40533V8.40722Z" stroke="#47647A" stroke-width="0.87" stroke-linecap="round" stroke-linejoin="round"/>
<path d="M72.1641 11.2476C72.1641 11.2476 72.407 11.5765 72.8025 11.6143L78.3277 12.1567C78.838 12.2078 79.3502 12.0641 79.7608 11.756L82.8134 9.47461" stroke="#47647A" stroke-width="0.87" stroke-linecap="round" stroke-linejoin="round"/>
<path d="M82.3867 8.40723C82.3867 8.40723 83.219 8.63027 82.8123 9.47517" stroke="#47647A" stroke-width="0.87" stroke-linecap="round" stroke-linejoin="round"/>
<path d="M72.5862 11.5262C72.5862 11.5262 71.6466 11.2295 72.0966 10.2617" stroke="#47647A" stroke-width="0.87" stroke-linecap="round" stroke-linejoin="round"/>
<path d="M45.7863 5.8916L39.7601 5.38692C39.5737 5.3718 39.3892 5.41149 39.2272 5.50411L35.6831 7.50012C35.3366 7.69481 35.4477 8.22216 35.8413 8.25997L41.3665 8.80244C41.8768 8.85348 42.389 8.70983 42.7996 8.40173L45.8522 6.12031C45.9463 6.05037 45.903 5.90105 45.7863 5.88971V5.8916Z" stroke="#47647A" stroke-width="0.87" stroke-linecap="round" stroke-linejoin="round"/>
<path d="M35.5625 8.73C35.5625 8.73 35.8054 9.05889 36.2009 9.09669L41.7261 9.63917C42.2364 9.6902 42.7487 9.54655 43.1592 9.23846L46.2118 6.95703" stroke="#47647A" stroke-width="0.87" stroke-linecap="round" stroke-linejoin="round"/>
<path d="M45.7861 5.8916C45.7861 5.8916 46.6184 6.11464 46.2117 6.95954" stroke="#47647A" stroke-width="0.87" stroke-linecap="round" stroke-linejoin="round"/>
<path d="M35.9846 9.00768C35.9846 9.00768 35.045 8.71093 35.4951 7.74316" stroke="#47647A" stroke-width="0.87" stroke-linecap="round" stroke-linejoin="round"/>
<path d="M57.5724 6.59472L51.5463 6.09005C51.3598 6.07493 51.1753 6.11462 51.0133 6.20724L47.4692 8.20325C47.1227 8.39793 47.2338 8.92529 47.6274 8.96309L53.1526 9.50557C53.663 9.5566 54.1752 9.41295 54.5857 9.10486L57.6383 6.82343C57.7325 6.75349 57.6892 6.60417 57.5724 6.59283V6.59472Z" stroke="#47647A" stroke-width="0.87" stroke-linecap="round" stroke-linejoin="round"/>
<path d="M47.3496 9.43508C47.3496 9.43508 47.5925 9.76397 47.988 9.80177L53.5132 10.3442C54.0236 10.3953 54.5358 10.2516 54.9463 9.94353L57.9989 7.66211" stroke="#47647A" stroke-width="0.87" stroke-linecap="round" stroke-linejoin="round"/>
<path d="M57.5732 6.59473C57.5732 6.59473 58.4055 6.81777 57.9988 7.66267" stroke="#47647A" stroke-width="0.87" stroke-linecap="round" stroke-linejoin="round"/>
<path d="M47.7708 9.71374C47.7708 9.71374 46.8312 9.41698 47.2812 8.44922" stroke="#47647A" stroke-width="0.87" stroke-linecap="round" stroke-linejoin="round"/>
<path d="M70.048 7.5166L64.0219 7.01192C63.8354 6.9968 63.6509 7.03649 63.4889 7.12911L59.9448 9.12512C59.5983 9.31981 59.7094 9.84716 60.103 9.88497L65.6282 10.4274C66.1385 10.4785 66.6508 10.3348 67.0613 10.0267L70.1139 7.7453C70.2081 7.67537 70.1647 7.52605 70.048 7.51471V7.5166Z" stroke="#47647A" stroke-width="0.87" stroke-linecap="round" stroke-linejoin="round"/>
<path d="M59.8252 10.3579C59.8252 10.3579 60.0681 10.6868 60.4636 10.7246L65.9888 11.2671C66.4991 11.3181 67.0114 11.1745 67.4219 10.8664L70.4745 8.58496" stroke="#47647A" stroke-width="0.87" stroke-linecap="round" stroke-linejoin="round"/>
<path d="M70.0469 7.5166C70.0469 7.5166 70.8791 7.73964 70.4724 8.58454" stroke="#47647A" stroke-width="0.87" stroke-linecap="round" stroke-linejoin="round"/>
<path d="M60.2454 10.6356C60.2454 10.6356 59.3058 10.3389 59.7558 9.37109" stroke="#47647A" stroke-width="0.87" stroke-linecap="round" stroke-linejoin="round"/>
</svg>
