<svg width="131" height="61" viewBox="0 0 131 61" fill="none" xmlns="http://www.w3.org/2000/svg">
<path d="M45.195 16.7334C45.195 16.7334 38.9598 16.1339 37.7833 15.9395C31.9707 14.9709 26.2959 20.5833 24.9384 28.9887C23.5793 37.3909 27.1939 44.9911 33.008 45.9597C34.0966 46.1427 40.3221 47.144 40.3221 47.144" stroke="#47647A" stroke-width="0.87" stroke-linecap="round" stroke-linejoin="round"/>
<path d="M51.6153 15.0667C45.3274 14.0197 38.9354 21.1609 37.3442 31.0185C35.753 40.876 39.5597 49.7193 45.8476 50.7663" stroke="#47647A" stroke-width="0.3" stroke-linecap="round" stroke-linejoin="round"/>
<path d="M41.4041 16.2627C36.1246 15.3823 30.7539 21.4406 29.4029 29.7922C28.055 38.1437 31.2406 45.628 36.5168 46.5051" stroke="#47647A" stroke-width="0.3" stroke-linecap="round" stroke-linejoin="round"/>
<path d="M49.835 40.6734L51.3013 39.7897C51.3013 39.7897 51.3509 34.8879 52.2954 29.7852" stroke="#47647A" stroke-width="0.3" stroke-linecap="round" stroke-linejoin="round"/>
<path d="M59.5353 12.3398C56.7067 13.0079 53.4106 14.0092 51.1055 15.3976" stroke="#47647A" stroke-width="0.3" stroke-linecap="round" stroke-linejoin="round"/>
<path d="M49.6123 15.737C49.6123 15.737 51.2691 13.5139 59.5357 12.3379" stroke="#47647A" stroke-width="0.3" stroke-linecap="round" stroke-linejoin="round"/>
<path d="M62.4494 18.2228L59.5968 22.3357L54.8184 21.6301L56.9586 20.9244L58.2969 18.9137L57.5701 17.7246L62.4494 18.2244V18.2228Z" stroke="#47647A" stroke-width="0.3" stroke-linecap="round" stroke-linejoin="round"/>
<path d="M54.8184 21.6281L57.5701 17.7227" stroke="#47647A" stroke-width="0.3" stroke-linecap="round" stroke-linejoin="round"/>
<path d="M62.4503 18.2227L58.2979 18.912" stroke="#47647A" stroke-width="0.3" stroke-linecap="round" stroke-linejoin="round"/>
<path d="M56.959 20.9248L59.5971 22.3377" stroke="#47647A" stroke-width="0.3" stroke-linecap="round" stroke-linejoin="round"/>
<path d="M55.383 17.5144L52.6921 21.3969L48.1826 20.7305L50.2044 20.0641L51.4659 18.1661L50.7807 17.0439L55.383 17.5144Z" stroke="#47647A" stroke-width="0.3" stroke-linecap="round" stroke-linejoin="round"/>
<path d="M48.1826 20.7305L50.7807 17.0439" stroke="#47647A" stroke-width="0.3" stroke-linecap="round" stroke-linejoin="round"/>
<path d="M55.382 17.5156L51.4648 18.1674" stroke="#47647A" stroke-width="0.3" stroke-linecap="round" stroke-linejoin="round"/>
<path d="M50.2041 20.0654L52.6918 21.3966" stroke="#47647A" stroke-width="0.3" stroke-linecap="round" stroke-linejoin="round"/>
<path d="M45.6816 21.0223L48.4206 15.9375L51.7823 16.1923" stroke="#47647A" stroke-width="0.3" stroke-linecap="round" stroke-linejoin="round"/>
<path d="M50.5864 14.9658L48.4189 15.941" stroke="#47647A" stroke-width="0.3" stroke-linecap="round" stroke-linejoin="round"/>
<path d="M37.6191 29.5521C37.6191 29.5521 41.8453 30.1956 42.1126 30.2414C42.6409 30.3296 43.1995 29.5995 43.3596 28.6113C43.5213 27.623 43.2188 26.7508 42.6905 26.6626C42.492 26.6299 38.546 26.2461 38.546 26.2461" stroke="#47647A" stroke-width="0.3" stroke-linecap="round" stroke-linejoin="round"/>
<path d="M37.7159 41.4793C37.7159 41.4793 41.7979 42.2894 42.0701 42.2976C42.4222 42.3058 42.3982 40.4992 42.4446 37.3909C42.4606 36.3896 42.5263 32.7553 41.998 32.6655C41.7995 32.6328 37.3877 31.7197 37.3877 31.7197" stroke="#47647A" stroke-width="0.3" stroke-linecap="round" stroke-linejoin="round"/>
<path d="M38.3623 43.3018C38.3623 43.3018 41.78 44.1413 42.0506 44.1871C42.5788 44.2753 43.4465 44.9629 43.5681 45.7257C43.6898 46.4885 43.296 46.9638 42.931 46.9557C42.7293 46.9508 39.7902 46.3807 39.7902 46.3807" stroke="#47647A" stroke-width="0.3" stroke-linecap="round" stroke-linejoin="round"/>
<path d="M46.3205 19.838L42.3057 19.4297" stroke="#47647A" stroke-width="0.3" stroke-linecap="round" stroke-linejoin="round"/>
<path d="M47.3225 17.976L43.9528 17.7162L37.9306 17.0449L36.7012 17.6329L43.0276 18.4807" stroke="#47647A" stroke-width="0.3" stroke-linecap="round" stroke-linejoin="round"/>
<path d="M48.0363 16.6495L45.6367 16.4404" stroke="#47647A" stroke-width="0.3" stroke-linecap="round" stroke-linejoin="round"/>
<path d="M41.4043 20.6129L34.5176 19.6328L33.4707 20.7305L40.6263 21.8036" stroke="#47647A" stroke-width="0.3" stroke-linecap="round" stroke-linejoin="round"/>
<path d="M39.0865 24.8561L31.7004 23.6768L30.9912 25.2285L38.4718 26.4682" stroke="#47647A" stroke-width="0.3" stroke-linecap="round" stroke-linejoin="round"/>
<path d="M37.5238 30.0189L29.9632 28.8135L29.6094 30.5743L37.2084 31.9431" stroke="#47647A" stroke-width="0.3" stroke-linecap="round" stroke-linejoin="round"/>
<path d="M36.9821 35.6158L29.5176 34.2715L29.6104 36.1074L37.059 37.4713" stroke="#47647A" stroke-width="0.3" stroke-linecap="round" stroke-linejoin="round"/>
<path d="M37.5546 40.8079L30.375 39.5322L30.8584 40.8079L37.9484 42.2976" stroke="#47647A" stroke-width="0.3" stroke-linecap="round" stroke-linejoin="round"/>
<path d="M38.9085 44.7851L32.334 43.5176L33.2881 44.5907L39.5072 45.917" stroke="#47647A" stroke-width="0.3" stroke-linecap="round" stroke-linejoin="round"/>
<path d="M39.7769 16.1503C38.2273 14.3144 36.2743 13.0812 34.0332 12.7088C27.3722 11.5997 20.7113 18.5024 19.1569 28.1264C17.6025 37.7504 21.7422 46.4531 28.4031 47.5622C30.6267 47.933 32.847 47.4119 34.88 46.1934" stroke="#47647A" stroke-width="0.87" stroke-linecap="round" stroke-linejoin="round"/>
<path d="M26.6352 12.0162C25.774 11.5442 24.8487 11.2159 23.8642 11.0525C17.2033 9.94343 10.5423 16.8462 8.98794 26.4701C7.43356 36.0941 11.5732 44.7969 18.2342 45.9059C19.3452 46.0905 20.4577 46.0529 21.5431 45.8177" stroke="#47647A" stroke-width="0.87" stroke-linecap="round" stroke-linejoin="round"/>
<path d="M31.2266 12.7022C30.6023 12.4425 29.9492 12.2514 29.2704 12.1354C22.6095 11.0264 15.9693 17.805 14.439 27.2787C12.9086 36.7524 17.0691 45.3326 23.73 46.44C24.2855 46.5315 24.841 46.5723 25.3933 46.556" stroke="#47647A" stroke-width="0.87" stroke-linecap="round" stroke-linejoin="round"/>
<path d="M26.7408 11.9193C24.7974 9.66191 22.3178 8.13468 19.4796 7.65936C11.3651 6.30854 3.35625 14.0802 1.58736 25.0207C-0.178327 35.9596 4.96506 45.9217 13.0811 47.2758C15.7113 47.7135 18.3286 47.1957 20.725 45.9201" stroke="#47647A" stroke-width="0.87" stroke-linecap="round" stroke-linejoin="round"/>
<path d="M26.2013 11.7939C24.4084 9.58387 22.1177 8.10075 19.4795 7.663C11.8965 6.39875 4.31191 14.2423 2.54623 25.1795C0.780538 36.1184 5.49651 46.0103 13.0795 47.2729C15.4167 47.6616 17.7523 47.1863 19.9182 46.025" stroke="#47647A" stroke-width="0.87" stroke-linecap="round" stroke-linejoin="round"/>
<path d="M60.3716 15.3075V14.8697L59.7617 13.6904H60.3716L61.0055 14.726V15.3059H60.3716V15.3075Z" stroke="#47647A" stroke-width="0.3" stroke-linecap="round" stroke-linejoin="round"/>
<path d="M59.7617 13.6914V14.201L60.3725 15.3068" stroke="#47647A" stroke-width="0.3" stroke-linecap="round" stroke-linejoin="round"/>
<path d="M61.0088 14.7275H60.374" stroke="#47647A" stroke-width="0.3" stroke-linecap="round" stroke-linejoin="round"/>
<path d="M64.1087 31.2783C63.382 34.8261 63.001 38.5714 63.0266 42.3903" stroke="#47647A" stroke-width="0.3" stroke-linecap="round" stroke-linejoin="round"/>
<path d="M63.0816 44.4277C63.0638 44.034 63.0491 43.642 63.041 43.25" stroke="#47647A" stroke-width="0.3" stroke-linecap="round" stroke-linejoin="round"/>
<path d="M64.1084 31.2784C64.1934 30.8668 64.2815 30.4585 64.3745 30.0518" stroke="#47647A" stroke-width="0.3" stroke-linecap="round" stroke-linejoin="round"/>
<path d="M68.9727 17.9727C69.1009 17.7473 69.2307 17.5252 69.3622 17.3047" stroke="#47647A" stroke-width="0.3" stroke-linecap="round" stroke-linejoin="round"/>
<path d="M66.1998 23.9531C65.9898 24.515 65.7894 25.0851 65.5986 25.6633" stroke="#47647A" stroke-width="0.3" stroke-linecap="round" stroke-linejoin="round"/>
<path d="M64.568 29.2432C64.5023 29.511 64.4365 29.7806 64.374 30.0517" stroke="#47647A" stroke-width="0.3" stroke-linecap="round" stroke-linejoin="round"/>
<path d="M63.0264 42.3906C63.028 42.6765 63.0329 42.9623 63.0394 43.2498" stroke="#47647A" stroke-width="0.3" stroke-linecap="round" stroke-linejoin="round"/>
<path d="M64.2012 52.9814C64.238 53.1415 64.2749 53.3 64.3118 53.4584" stroke="#47647A" stroke-width="0.3" stroke-linecap="round" stroke-linejoin="round"/>
<path d="M63.4723 48.8732C63.3906 48.259 63.3217 47.6367 63.2607 47.0078" stroke="#47647A" stroke-width="0.3" stroke-linecap="round" stroke-linejoin="round"/>
<path d="M63.2606 47.0085C63.1917 46.2816 63.1356 45.5466 63.0971 44.8001C63.0907 44.676 63.0859 44.5519 63.0811 44.4277" stroke="#47647A" stroke-width="0.3" stroke-linecap="round" stroke-linejoin="round"/>
<path d="M72.7533 12.623C72.6411 12.7488 72.5305 12.8779 72.4199 13.0069" stroke="#47647A" stroke-width="0.3" stroke-linecap="round" stroke-linejoin="round"/>
<path d="M63.4717 48.873C63.659 50.2892 63.9039 51.6596 64.2016 52.981" stroke="#47647A" stroke-width="0.3" stroke-linecap="round" stroke-linejoin="round"/>
<path d="M66.4662 60.0001C65.5954 58.0024 64.8686 55.8121 64.3115 53.46" stroke="#47647A" stroke-width="0.3" stroke-linecap="round" stroke-linejoin="round"/>
<path d="M71.756 13.8174C71.4615 14.1898 71.1733 14.5736 70.8916 14.9673" stroke="#47647A" stroke-width="0.3" stroke-linecap="round" stroke-linejoin="round"/>
<path d="M66.4807 23.2197C66.471 23.2426 66.4629 23.2638 66.4531 23.2867" stroke="#47647A" stroke-width="0.3" stroke-linecap="round" stroke-linejoin="round"/>
<path d="M68.2593 19.2891C67.6142 20.5353 67.0203 21.8486 66.4824 23.2174" stroke="#47647A" stroke-width="0.3" stroke-linecap="round" stroke-linejoin="round"/>
<path d="M66.1992 23.9526C66.2826 23.7288 66.3675 23.5066 66.4541 23.2861" stroke="#47647A" stroke-width="0.3" stroke-linecap="round" stroke-linejoin="round"/>
<path d="M70.2354 15.921C70.4502 15.5976 70.6698 15.2791 70.8926 14.9688" stroke="#47647A" stroke-width="0.3" stroke-linecap="round" stroke-linejoin="round"/>
<path d="M72.7529 12.6235C73.1595 12.1645 73.5757 11.7267 74 11.3086" stroke="#47647A" stroke-width="0.3" stroke-linecap="round" stroke-linejoin="round"/>
<path d="M64.5684 29.2435C64.8709 28.0201 65.2167 26.8261 65.5993 25.6631" stroke="#47647A" stroke-width="0.3" stroke-linecap="round" stroke-linejoin="round"/>
<path d="M70.2355 15.9219C70.088 16.144 69.9421 16.3711 69.7979 16.5997" stroke="#47647A" stroke-width="0.3" stroke-linecap="round" stroke-linejoin="round"/>
<path d="M68.9738 17.9727C68.7895 18.2961 68.6099 18.6244 68.4336 18.9576" stroke="#47647A" stroke-width="0.3" stroke-linecap="round" stroke-linejoin="round"/>
<path d="M68.2598 19.2896C68.3175 19.1785 68.3768 19.0691 68.4345 18.958" stroke="#47647A" stroke-width="0.3" stroke-linecap="round" stroke-linejoin="round"/>
<path d="M64.2015 52.9815L44.8125 48.7412" stroke="#47647A" stroke-width="0.3" stroke-linecap="round" stroke-linejoin="round"/>
<path d="M63.4716 48.8736L43.5928 44.5908L44.7854 48.7348V48.7364" stroke="#47647A" stroke-width="0.3" stroke-linecap="round" stroke-linejoin="round"/>
<path d="M44.7852 48.7363L44.8139 48.7414" stroke="#47647A" stroke-width="0.3" stroke-linecap="round" stroke-linejoin="round"/>
<path d="M44.8139 48.7412L44.7852 48.7344V48.7361" stroke="#47647A" stroke-width="0.3" stroke-linecap="round" stroke-linejoin="round"/>
<path d="M44.7852 48.7363L48.3694 55.4039L66.4665 60.0002" stroke="#47647A" stroke-width="0.3" stroke-linecap="round" stroke-linejoin="round"/>
<path d="M44.8125 48.7412L64.3119 53.4601" stroke="#47647A" stroke-width="0.3" stroke-linecap="round" stroke-linejoin="round"/>
<path d="M66.1992 23.9531L45.68 21.0244C45.68 21.0244 41.3018 34.1324 43.5894 44.5911" stroke="#47647A" stroke-width="0.3" stroke-linecap="round" stroke-linejoin="round"/>
<path d="M63.2601 47.0082L45.1246 43.1469C44.75 43.1469 44.4458 42.8349 44.4458 42.4576C44.4458 42.4576 44.2473 37.4479 44.7868 32.8091C45.4848 26.8064 46.695 23.6278 46.695 23.6278C46.695 23.2472 47.0023 22.9385 47.3737 22.9385L65.5973 25.6646" stroke="#47647A" stroke-width="0.3" stroke-linecap="round" stroke-linejoin="round"/>
<path d="M64.5683 29.2437L50.819 27.0713C50.5516 27.0713 50.3355 27.2918 50.3355 27.5629C50.3355 27.5629 49.4983 29.8709 49.0005 34.1455C48.6179 37.4483 48.7571 41.0156 48.7571 41.0156C48.7571 41.2867 48.9733 41.5073 49.2406 41.5073L63.0795 44.4278" stroke="#47647A" stroke-width="0.3" stroke-linecap="round" stroke-linejoin="round"/>
<path d="M51.1728 27.8622L51.1709 27.8584" stroke="#47647A" stroke-width="0.3" stroke-linecap="round" stroke-linejoin="round"/>
<path d="M63.0264 42.391L51.3037 39.7939" stroke="#47647A" stroke-width="0.3" stroke-linecap="round" stroke-linejoin="round"/>
<path d="M51.172 27.8613H51.1704C51.1704 27.8613 50.1843 32.4708 50.045 35.3456C49.9042 38.2203 49.8369 40.677 49.8369 40.677L63.0404 43.2496" stroke="#47647A" stroke-width="0.3" stroke-linecap="round" stroke-linejoin="round"/>
<path d="M64.109 31.2784L52.2998 29.7855L51.1729 27.8613" stroke="#47647A" stroke-width="0.3" stroke-linecap="round" stroke-linejoin="round"/>
<path d="M51.1729 27.8613L64.3747 30.0517" stroke="#47647A" stroke-width="0.3" stroke-linecap="round" stroke-linejoin="round"/>
<path d="M69.3624 17.3069L51.1068 15.3975C51.1068 15.3975 49.9494 15.5477 49.6133 15.7388C49.2771 15.9299 49.6133 15.9724 49.6133 15.9724L68.9734 17.9733" stroke="#47647A" stroke-width="0.3" stroke-linecap="round" stroke-linejoin="round"/>
<path d="M65.3582 19.7842L64.0151 21.8602L61.8652 22.5871" stroke="#47647A" stroke-width="0.3" stroke-linecap="round" stroke-linejoin="round"/>
<path d="M64.6299 18.5576L65.3598 19.7843" stroke="#47647A" stroke-width="0.3" stroke-linecap="round" stroke-linejoin="round"/>
<path d="M61.8652 22.5879L66.4547 23.287" stroke="#47647A" stroke-width="0.3" stroke-linecap="round" stroke-linejoin="round"/>
<path d="M66.4551 23.2861L66.6619 23.3172" stroke="#47647A" stroke-width="0.3" stroke-linecap="round" stroke-linejoin="round"/>
<path d="M64.6299 18.5576L68.435 18.9594" stroke="#47647A" stroke-width="0.3" stroke-linecap="round" stroke-linejoin="round"/>
<path d="M64.6282 18.5576L61.8652 22.5872" stroke="#47647A" stroke-width="0.3" stroke-linecap="round" stroke-linejoin="round"/>
<path d="M65.3584 19.784L68.2591 19.2891" stroke="#47647A" stroke-width="0.3" stroke-linecap="round" stroke-linejoin="round"/>
<path d="M65.3584 19.7842H65.3615" stroke="#47647A" stroke-width="0.3" stroke-linecap="round" stroke-linejoin="round"/>
<path d="M66.4814 23.2197L66.6626 23.3177" stroke="#47647A" stroke-width="0.3" stroke-linecap="round" stroke-linejoin="round"/>
<path d="M66.6653 23.3206L66.6621 23.3174" stroke="#47647A" stroke-width="0.3" stroke-linecap="round" stroke-linejoin="round"/>
<path d="M66.4805 23.2193L64.0137 21.8604" stroke="#47647A" stroke-width="0.3" stroke-linecap="round" stroke-linejoin="round"/>
<path d="M63.3795 15.6631L62.9441 15.8019C62.8096 15.864 62.8432 16.0682 62.9889 16.0812L68.6925 16.7395C68.9727 16.7689 69.256 16.7444 69.525 16.6725L69.7955 16.599" stroke="#47647A" stroke-width="0.3" stroke-linecap="round" stroke-linejoin="round"/>
<path d="M63.3799 15.6631L68.9155 16.1809C69.1236 16.2021 69.3365 16.1776 69.5366 16.1106L70.2345 15.9212" stroke="#47647A" stroke-width="0.3" stroke-linecap="round" stroke-linejoin="round"/>
<path d="M63.7793 15.1076C63.8577 15.0635 63.9506 15.0439 64.045 15.0553L68.7562 15.3591C69.0283 15.3804 69.3037 15.3542 69.5678 15.2758L70.8917 14.9688" stroke="#47647A" stroke-width="0.3" stroke-linecap="round" stroke-linejoin="round"/>
<path d="M63.7793 15.1082C64.0674 14.8387 64.5509 14.5267 64.7302 14.4662L67.077 13.5613C67.991 13.2526 68.9675 13.1824 69.9152 13.3621L71.7561 13.8178" stroke="#47647A" stroke-width="0.3" stroke-linecap="round" stroke-linejoin="round"/>
<path d="M63.3801 15.6638H63.3752C63.3638 15.6605 63.3849 15.6572 63.4158 15.6523" stroke="#47647A" stroke-width="0.3" stroke-linecap="round" stroke-linejoin="round"/>
<path d="M63.417 15.6514C63.4683 15.6433 63.5484 15.6286 63.5532 15.609L63.5581 15.3999C63.5613 15.3852 63.5677 15.3721 63.5725 15.3574" stroke="#47647A" stroke-width="0.3" stroke-linecap="round" stroke-linejoin="round"/>
<path d="M63.5723 15.3573C63.6091 15.2479 63.6829 15.1597 63.7791 15.1074" stroke="#47647A" stroke-width="0.3" stroke-linecap="round" stroke-linejoin="round"/>
<path d="M63.5723 15.3573C63.6059 15.2871 63.6813 15.2005 63.7791 15.1074" stroke="#47647A" stroke-width="0.3" stroke-linecap="round" stroke-linejoin="round"/>
<path d="M63.417 15.6514L63.5516 15.609L63.5565 15.3999C63.5597 15.3868 63.5661 15.3721 63.5725 15.3574" stroke="#47647A" stroke-width="0.3" stroke-linecap="round" stroke-linejoin="round"/>
<path d="M63.3799 15.6638L63.4172 15.6523" stroke="#47647A" stroke-width="0.3" stroke-linecap="round" stroke-linejoin="round"/>
<path d="M67.71 13.3607C67.71 13.3607 67.96 13.1696 68.4265 12.9834" stroke="#47647A" stroke-width="0.3" stroke-linecap="round" stroke-linejoin="round"/>
<path d="M68.4258 12.9824C69.1606 12.6884 70.438 12.4107 72.138 12.922C72.2357 12.9514 72.3285 12.9791 72.4198 13.0069" stroke="#47647A" stroke-width="0.3" stroke-linecap="round" stroke-linejoin="round"/>
<path d="M72.7528 12.6235C70.7694 12.0388 69.1686 12.6121 68.4258 12.9829" stroke="#47647A" stroke-width="0.3" stroke-linecap="round" stroke-linejoin="round"/>
<path d="M71.0732 12.1499L72.9654 11.5357C73.1815 11.4655 73.4008 11.4116 73.6217 11.3691" stroke="#47647A" stroke-width="0.3" stroke-linecap="round" stroke-linejoin="round"/>
<path d="M68.4267 12.9834C68.1349 13.1288 67.9746 13.2415 67.9746 13.2415" stroke="#47647A" stroke-width="0.3" stroke-linecap="round" stroke-linejoin="round"/>
<path d="M71.0723 12.1504L70.3975 12.3676" stroke="#47647A" stroke-width="0.3" stroke-linecap="round" stroke-linejoin="round"/>
<path d="M74 11.3086C73.8734 11.3249 73.7468 11.3445 73.6201 11.369" stroke="#47647A" stroke-width="0.3" stroke-linecap="round" stroke-linejoin="round"/>
<path d="M73.6205 11.3693L68.1602 11.0605" stroke="#47647A" stroke-width="0.3" stroke-linecap="round" stroke-linejoin="round"/>
<path d="M65.6969 14.0395L59.5354 13.4172C59.5354 13.4172 59.3065 12.8112 59.9404 12.2559" stroke="#47647A" stroke-width="0.3" stroke-linecap="round" stroke-linejoin="round"/>
<path d="M59.9665 12.2334C59.9564 12.2419 59.9496 12.2488 59.9395 12.2573" stroke="#47647A" stroke-width="0.3" stroke-linecap="round" stroke-linejoin="round"/>
<path d="M59.9398 12.2562C59.9302 12.2824 59.9414 12.315 59.975 12.3199L65.5122 12.8361C65.7556 12.8573 66.0005 12.8394 66.239 12.774L70.241 11.7091C70.2954 11.6944 70.3515 11.6895 70.4059 11.6895" stroke="#47647A" stroke-width="0.3" stroke-linecap="round" stroke-linejoin="round"/>
<path d="M70.4072 11.6855L70.5868 11.7362" stroke="#47647A" stroke-width="0.3" stroke-linecap="round" stroke-linejoin="round"/>
<path d="M59.9395 12.2558C59.9443 12.2444 59.9507 12.2346 59.9651 12.2313L63.6981 10.9703C64.7867 10.6028 65.9537 10.5293 67.079 10.7629L70.4071 11.6874" stroke="#47647A" stroke-width="0.3" stroke-linecap="round" stroke-linejoin="round"/>
<path d="M71.0731 12.1499C70.9705 11.8607 70.698 11.6827 70.4062 11.6876" stroke="#47647A" stroke-width="0.3" stroke-linecap="round" stroke-linejoin="round"/>
<path d="M128.868 31.3047C126.969 34.2268 116.329 30.3851 105.299 22.9237C94.2697 15.4624 86.8692 7.04547 88.7678 4.12333C90.6663 1.20118 101.147 4.87959 112.176 12.3409C123.206 19.8023 130.766 28.3825 128.868 31.3047Z" stroke="#47647A" stroke-width="0.87" stroke-miterlimit="10"/>
<path d="M88.707 4.16076C89.3474 3.5074 89.7507 3.03208 90.2102 2.32645C92.1087 -0.595696 102.589 3.08271 113.619 10.5441C124.648 18.0054 131.889 26.259 129.99 29.1811C129.635 29.7283 129.369 30.4584 128.889 31.2751" stroke="#47647A" stroke-width="0.87" stroke-miterlimit="10"/>
<path d="M91.5928 1.53955C93.4689 -1.34667 103.546 2.10144 114.102 9.24265C123.998 15.9379 130.8 23.5006 130.067 26.7984" stroke="#47647A" stroke-width="0.87" stroke-miterlimit="10"/>
<path d="M127.986 29.6189C124.88 30.9909 115.993 27.6196 106.732 21.3539C97.2537 14.9412 90.6648 7.7183 91.009 4.3584" stroke="#47647A" stroke-width="0.87" stroke-miterlimit="10"/>
<path d="M127.927 28.9889C124.864 30.3414 116.284 27.055 107.153 20.8775C97.8092 14.5562 91.3115 7.4346 91.6525 4.12207" stroke="#47647A" stroke-width="0.87" stroke-miterlimit="10"/>
<path d="M127.705 30.6214C129.525 27.8209 122.547 19.831 112.12 12.7754C101.693 5.71977 91.7641 2.27033 89.944 5.07084C88.1239 7.87134 95.1015 15.8613 105.529 22.9169C115.956 29.9725 125.885 33.4219 127.705 30.6214Z" stroke="#47647A" stroke-width="0.87" stroke-miterlimit="10"/>
<path d="M123.683 42.2423C123.99 35.3402 113.636 29.2544 100.556 28.6491C87.4762 28.0439 76.6233 33.1485 76.3157 40.0506C76.0081 46.9526 86.3623 53.0385 99.4424 53.6437C112.522 54.2489 123.375 49.1443 123.683 42.2423Z" stroke="#47647A" stroke-width="0.87" stroke-miterlimit="10"/>
<path d="M123.604 41.0757C123.604 42.8725 123.788 45.4222 123.682 47.8004C123.375 54.7032 112.523 59.8059 99.4429 59.1999C86.3627 58.5939 75.8486 52.5063 76.156 45.6052C76.2696 43.0407 76.3801 41.8924 76.3801 40.0957" stroke="#47647A" stroke-width="0.87" stroke-miterlimit="10"/>
<path d="M122.927 41.8023C123.224 35.1255 113.207 29.2376 100.554 28.6514C87.9001 28.0651 77.4016 33.0024 77.1044 39.6792C76.8073 46.356 86.8241 52.2438 99.4775 52.8301C112.131 53.4164 122.63 48.4791 122.927 41.8023Z" stroke="#47647A" stroke-width="0.87" stroke-miterlimit="10"/>
<path d="M122.149 41.6886C122.436 35.2398 112.761 29.553 100.54 28.9867C88.3179 28.4204 78.1777 33.1891 77.8907 39.6379C77.6037 46.0867 87.2786 51.7735 99.5002 52.3398C111.722 52.9061 121.862 48.1374 122.149 41.6886Z" stroke="#47647A" stroke-width="0.87" stroke-miterlimit="10"/>
<path d="M80.6025 39.9124C84.4461 36.4431 91.8946 34.1416 100.148 34.5238C110.824 35.0187 119.517 39.4011 121.111 44.9367" stroke="#47647A" stroke-width="0.87" stroke-miterlimit="10"/>
<path d="M79.9019 35.0322C79.9019 35.0322 81.2866 36.2834 81.1825 36.5023C80.9472 36.9988 80.3821 38.2729 80.3821 38.9524C80.3821 39.9324 80.563 40.5809 80.475 40.7409C80.3821 40.9125 78.3955 42.4413 78.3955 42.4413" stroke="#47647A" stroke-width="0.87" stroke-miterlimit="10"/>
<path d="M81.1826 36.502C81.3123 36.6637 81.3699 36.9332 81.3427 36.992C81.1073 37.4885 80.5423 38.7626 80.5423 39.4421C80.5423 40.4221 80.7232 41.0706 80.6351 41.2306C80.5423 41.4021 78.5557 42.931 78.5557 42.931" stroke="#47647A" stroke-width="0.87" stroke-miterlimit="10"/>
<path d="M99.4326 28.9883C99.4326 28.9883 101.045 29.8768 101.518 29.9226C101.992 29.9683 105.208 30.1072 106.316 30.785C107.116 31.275 109.463 30.4518 109.838 30.4583" stroke="#47647A" stroke-width="0.87" stroke-miterlimit="10"/>
<path d="M99.4325 28.9883C99.4325 28.9883 99.3589 29.3623 99.4982 29.4358C99.9592 29.6808 101.155 30.3767 101.52 30.4126C101.995 30.4583 105.21 30.5972 106.318 31.275C106.918 31.6426 108.719 31.275 109.783 30.9271C109.839 30.9092 109.745 30.4567 109.839 30.4583" stroke="#47647A" stroke-width="0.87" stroke-miterlimit="10"/>
<path d="M117.361 34.0527L116.881 35.5228C116.881 35.5228 116.881 35.8495 117.201 36.0128C117.521 36.1762 118.802 37.4829 118.962 38.1362C119.122 38.7896 121.896 39.6128 121.896 39.6128" stroke="#47647A" stroke-width="0.87" stroke-miterlimit="10"/>
<path d="M116.881 35.6035V36.0119C116.881 36.0119 116.881 36.3385 117.201 36.5019C117.521 36.6652 118.802 37.9719 118.962 38.6253C119.122 39.2787 121.896 40.1019 121.896 40.1019" stroke="#47647A" stroke-width="0.87" stroke-miterlimit="10"/>
<path d="M91.5879 51.2029L95.4298 50.0596C95.4298 50.0596 98.1288 50.5496 100.461 50.5496C102.794 50.5496 104.394 50.3862 104.394 50.3862L108.155 51.8236" stroke="#47647A" stroke-width="0.87" stroke-miterlimit="10"/>
<path d="M113.82 28.0625C113.82 28.0625 113.961 29.3725 113.82 29.7531C113.679 30.1336 112.975 31.0483 112.879 31.1121" stroke="#47647A" stroke-width="0.87" stroke-miterlimit="10"/>
<path d="M114.301 28.2256C114.301 28.2256 114.442 29.5356 114.301 29.9162C114.16 30.2967 113.455 31.2114 113.359 31.2751" stroke="#47647A" stroke-width="0.87" stroke-miterlimit="10"/>
<path d="M116.4 29.3154C116.4 29.3154 116.52 30.6793 116.381 31.0599C116.242 31.4405 115.696 32.1918 115.6 32.2555" stroke="#47647A" stroke-width="0.87" stroke-miterlimit="10"/>
<path d="M116.862 29.5332C116.862 29.5332 117.003 30.8432 116.862 31.2238C116.721 31.6043 116.017 32.5191 115.921 32.5828" stroke="#47647A" stroke-width="0.87" stroke-miterlimit="10"/>
<path d="M118.961 30.459C118.961 30.459 119.081 31.6595 118.942 32.0401C118.803 32.4207 117.937 33.4987 117.841 33.5624C117.841 33.5624 119.442 32.5824 119.922 32.4191C120.402 32.2557 122.049 33.4465 122.163 33.5624C122.323 33.7258 122.323 34.5425 121.896 35.3543C121.374 36.3457 121.27 36.3555 121.27 36.3555" stroke="#47647A" stroke-width="0.87" stroke-miterlimit="10"/>
<path d="M119.442 30.6221C119.442 30.6221 119.562 31.8226 119.423 32.2032C119.283 32.5838 119.057 32.8451 118.961 32.9088" stroke="#47647A" stroke-width="0.87" stroke-miterlimit="10"/>
<path d="M120.242 30.9492C120.242 30.9492 120.362 32.1498 120.223 32.5303" stroke="#47647A" stroke-width="0.87" stroke-miterlimit="10"/>
<path d="M119.226 34.487C119.226 34.487 120.988 33.0594 121.683 33.2358" stroke="#47647A" stroke-width="0.87" stroke-miterlimit="10"/>
<path d="M121.707 35.0543C121.852 34.5786 121.717 34.1134 121.406 34.0151C121.095 33.9168 120.726 34.2227 120.582 34.6984C120.437 35.174 120.572 35.6392 120.883 35.7375C121.194 35.8358 121.563 35.5299 121.707 35.0543Z" stroke="#47647A" stroke-width="0.87" stroke-miterlimit="10"/>
<path d="M110.189 30.1124L111.371 29.5881C111.371 29.5881 112.013 28.9902 112.447 28.9902C112.88 28.9902 113.859 29.5881 113.859 29.5881" stroke="#47647A" stroke-width="0.87" stroke-miterlimit="10"/>
<path d="M111.899 30.6872L113.82 29.7529" stroke="#47647A" stroke-width="0.87" stroke-miterlimit="10"/>
</svg>
