<svg width="88" height="62" viewBox="0 0 88 62" fill="none" xmlns="http://www.w3.org/2000/svg">
<path d="M10.8693 2.98242L3.23357 8.0826L2.39506 7.70225L1.83604 8.0826L1 9.87199L31.7754 26.1983L34.9884 28.2586C34.9884 28.2586 37.5015 30.97 38.0605 31.5665C38.6195 32.163 40.9471 34.0071 41.7856 34.4422C42.6241 34.8773 74.844 52.2871 74.844 52.2871L75.6355 60.8565L65.4397 55.3241C65.4397 55.3241 63.7182 54.4568 63.4387 52.6674C63.1592 50.878 61.7171 50.2816 59.7606 49.1405C57.804 47.9994 52.0309 44.801 52.0309 44.801C52.0309 44.801 51.3779 44.0951 50.5418 44.4207C49.7058 44.7463 49.8295 45.6136 48.7189 45.6136C47.6083 45.6136 40.9966 41.6545 40.9966 41.6545C40.9966 41.6545 39.8316 41.1128 38.9015 39.8103C37.9715 38.5079 33.3609 31.1314 33.3609 31.1314C33.3609 31.1314 32.9874 30.1546 31.2658 29.0711C29.5442 27.9877 3.69859 14.1567 3.69859 14.1567C3.69859 14.1567 2.39506 13.6784 2.30106 12.0965C2.20707 10.5146 2.23181 10.65 2.23181 10.65" stroke="#47647A" stroke-width="0.58" stroke-miterlimit="10"/>
<path d="M52.0278 44.8008L50.2593 45.5067C50.2593 45.5067 50.0119 46.0571 48.7158 45.6162" stroke="#47647A" stroke-width="0.58" stroke-miterlimit="10"/>
<path d="M75.6377 60.8553C75.6377 60.8553 75.7317 61.1809 76.1967 60.8553C76.6617 60.5297 78.0593 59.2272 78.0593 59.2272L77.4063 58.576C77.4063 58.576 77.1737 58.3052 77.4532 57.3831C77.7328 56.461 78.1508 55.9193 78.7098 55.539C79.2688 55.1586 85.3685 49.7905 85.3685 49.7905V50.822C85.3685 50.822 85.3685 51.0929 85.042 51.8536C84.7155 52.6143 84.5769 53.1013 84.5769 53.1013L86.113 51.7441C86.113 51.7441 86.3925 51.5827 86.3925 50.7125C86.3925 49.8423 85.9745 44.7998 85.9745 44.7998C85.9745 44.7998 85.8582 44.7191 85.69 44.7306C85.5218 44.7421 84.2529 45.9581 84.2529 45.9581L84.9504 46.2636C85.3239 46.4249 85.2918 46.7937 85.3017 47.3211C85.3116 47.8484 85.3685 49.7876 85.3685 49.7876" stroke="#47647A" stroke-width="0.58" stroke-miterlimit="10"/>
<path d="M82.4551 52.2871L84.4116 53.3446" stroke="#47647A" stroke-width="0.58" stroke-miterlimit="10"/>
<path d="M76.195 60.8552L75.4258 52.0811L84.8548 43.7422V44.7305L84.412 45.1656L84.1276 46.0531" stroke="#47647A" stroke-width="0.58" stroke-miterlimit="10"/>
<path d="M85.9681 44.8013L84.8525 44.0176" stroke="#47647A" stroke-width="0.58" stroke-miterlimit="10"/>
<path d="M84.2476 43.4726L74.9819 51.5551L44.0433 35.0127C44.0433 35.0127 40.6447 33.6382 37.5948 30.2727C34.545 26.9042 35.2673 27.881 35.2673 27.881L32.6355 25.9822C32.6355 25.9822 31.6114 25.5759 30.8422 24.1928C30.0729 22.8097 31.2379 22.8644 31.8662 23.6511C32.4945 24.4377 33.1005 24.9247 33.1005 24.9247L42.203 18.28L41.4115 17.4675C41.4115 17.4675 40.9464 16.6261 39.7592 16.1103C38.5719 15.5945 30.7729 11.5547 30.7729 11.5547C30.7729 11.5547 30.0506 12.2607 28.9326 11.7449C27.8146 11.2291 26.8252 10.1111 26.4888 9.35904L20.7379 6.07706C20.7379 6.07706 20.0849 6.97319 19.0609 6.7542C18.0368 6.53521 16.5923 5.10024 16.2435 4.25886C15.8948 3.41747 15.964 3.03712 15.1725 2.4954C14.381 1.95369 12.5456 1.1123 12.5456 1.1123L11.1729 2.65677L13.9654 3.46934C13.9654 3.46934 15.9269 4.0197 16.4389 4.79193C16.951 5.56416 18.0393 6.41131 18.0393 6.41131L40.3182 17.5453L42.6705 18.2772C43.0885 19.4153 45.7821 22.2795 46.9843 23.6482C48.6316 25.5183 52.6585 27.5526 52.6585 27.5526L84.8314 43.6052" stroke="#47647A" stroke-width="0.58" stroke-miterlimit="10"/>
<path d="M44.3728 20.556L43.2053 17.9512C43.2053 17.9512 42.7155 16.813 41.459 15.9457C40.2024 15.0784 31.7752 11.0098 31.7752 11.0098L30.7734 11.5515" stroke="#47647A" stroke-width="0.58" stroke-miterlimit="10"/>
<path d="M31.7755 11.0111C31.7755 11.0111 30.5536 11.8323 29.0695 10.6106C27.5854 9.38882 27.4865 9.12661 27.3282 8.76355L21.5451 5.60547L20.7412 6.07227" stroke="#47647A" stroke-width="0.58" stroke-miterlimit="10"/>
<path d="M20.9678 5.9417C20.9678 5.9417 19.7261 6.25866 18.984 5.71983C18.242 5.181 17.3862 4.63928 17.1066 3.98807C16.9657 3.66247 16.8049 2.98532 16.0084 2.5387L12.9437 1L12.5381 1.08933" stroke="#47647A" stroke-width="0.58" stroke-miterlimit="10"/>
<path d="M31.336 23.2079L21.6151 17.9521L20.4971 18.8886L30.8437 24.1905" stroke="#47647A" stroke-width="0.58" stroke-miterlimit="10"/>
<path d="M21.6134 17.9522C21.6134 17.9522 20.8095 18.1655 19.8844 17.9522C18.4547 17.6209 17.2303 15.3906 17.2303 15.3906L16.1123 16.3185C16.1123 16.3185 17.3367 18.5516 18.7664 18.8801C19.6915 19.0933 20.4954 18.8801 20.4954 18.8801" stroke="#47647A" stroke-width="0.58" stroke-miterlimit="10"/>
<path d="M3.23535 8.08301L5.54561 9.39119C6.21345 9.76866 6.83678 10.2412 7.40074 10.8031C8.0859 11.486 9.10745 12.3966 9.84208 12.5838C10.7647 12.8172 11.5711 12.5838 11.5711 12.5838L17.2329 15.3933" stroke="#47647A" stroke-width="0.58" stroke-miterlimit="10"/>
<path d="M11.5692 12.581L10.4512 13.5088C10.4512 13.5088 9.64727 13.722 8.72218 13.5088C7.79709 13.2956 6.87941 12.0825 6.38966 11.3045C6.03842 10.7455 5.59072 10.2758 5.07376 9.9329C4.8363 9.77442 4.56174 9.60442 4.2575 9.44017C3.20873 8.86965 1.83594 8.08301 1.83594 8.08301" stroke="#47647A" stroke-width="0.58" stroke-miterlimit="10"/>
<path d="M16.112 16.3163L10.4502 13.5068" stroke="#47647A" stroke-width="0.58" stroke-miterlimit="10"/>
<path d="M27.3268 8.7627L26.4883 9.35339" stroke="#47647A" stroke-width="0.58" stroke-miterlimit="10"/>
<path d="M83.3607 38.5707L85.1763 37.1617L84.6642 36.7006H83.8257L83.4077 35.9688H82.4777L80.6621 37.4325C80.6621 37.4325 81.4066 38.735 83.3632 38.5707H83.3607Z" stroke="#47647A" stroke-width="0.58" stroke-miterlimit="10"/>
<path d="M80.6635 37.4336C80.6635 37.4336 80.431 38.1943 79.9189 38.8426" stroke="#47647A" stroke-width="0.58" stroke-miterlimit="10"/>
<path d="M84.7373 43.5687C84.762 43.1422 85.1776 42.4219 85.1776 42.4219" stroke="#47647A" stroke-width="0.58" stroke-miterlimit="10"/>
<path d="M85.1798 37.1592C85.1798 37.1592 86.9261 38.3809 86.9954 41.0088L85.1798 42.4178C83.7823 41.2797 83.3643 38.5682 83.3643 38.5682" stroke="#47647A" stroke-width="0.58" stroke-miterlimit="10"/>
<path d="M86.9963 41.0107C86.9963 41.0107 87.1422 42.8808 85.5518 44.408" stroke="#47647A" stroke-width="0.58" stroke-miterlimit="10"/>
<path d="M82.7266 41.2296C83.0432 41.7627 83.2609 42.3303 83.3771 42.8807L84.1687 43.2783C84.2181 42.4139 83.9708 41.3967 83.4217 40.4746C82.4248 38.7976 80.822 38.0801 79.84 38.8697C79.6446 39.0281 79.4913 39.2327 79.375 39.4748C80.3619 38.9475 81.804 39.6765 82.7266 41.2267V41.2296Z" stroke="#47647A" stroke-width="0.58" stroke-miterlimit="10"/>
<path d="M79.3753 39.4756C79.2962 39.5188 79.2195 39.5649 79.1453 39.6254C78.9276 39.8012 78.7198 40.1066 78.5986 40.3832" stroke="#47647A" stroke-width="0.58" stroke-miterlimit="10"/>
<path d="M82.2379 41.9054C82.3442 42.0841 82.4357 42.2685 82.5198 42.4529L83.3757 42.8851C83.2594 42.3347 83.0417 41.7671 82.7251 41.234C81.8025 39.6809 80.3629 38.9548 79.3735 39.4821C79.2919 39.6521 79.2301 39.8394 79.1855 40.0411C80.1477 39.7818 81.4043 40.5108 82.2354 41.9112L82.2379 41.9054Z" stroke="#47647A" stroke-width="0.58" stroke-miterlimit="10"/>
<path d="M79.1131 40.7334C79.1131 40.4885 79.1403 40.2522 79.1873 40.0332C78.9968 40.0851 78.8187 40.1686 78.6579 40.2983C78.653 40.3041 78.648 40.3098 78.6406 40.3127" stroke="#47647A" stroke-width="0.58" stroke-miterlimit="10"/>
<path d="M79.1865 40.0332C79.1395 40.2522 79.1123 40.4856 79.1123 40.7334L82.5208 42.4508C82.4367 42.2663 82.3452 42.0848 82.2388 41.9033C81.4052 40.5029 80.1512 39.7739 79.189 40.0332H79.1865Z" stroke="#47647A" stroke-width="0.58" stroke-miterlimit="10"/>
<path d="M57.3968 25.5971L59.2124 24.188L58.7004 23.727H57.8619L57.4438 22.9951H56.5138L54.6982 24.4589C54.6982 24.4589 55.4428 25.7613 57.3993 25.5971H57.3968Z" stroke="#47647A" stroke-width="0.58" stroke-miterlimit="10"/>
<path d="M54.6957 24.4541C54.6957 24.4541 54.4632 25.2148 53.9512 25.8631" stroke="#47647A" stroke-width="0.58" stroke-miterlimit="10"/>
<path d="M58.7725 30.5921C58.7972 30.1657 59.2127 29.4453 59.2127 29.4453" stroke="#47647A" stroke-width="0.58" stroke-miterlimit="10"/>
<path d="M59.213 24.1826C59.213 24.1826 60.9593 25.4044 61.0286 28.0322L59.213 29.4413C57.8155 28.3031 57.3975 25.5917 57.3975 25.5917" stroke="#47647A" stroke-width="0.58" stroke-miterlimit="10"/>
<path d="M61.0282 28.0361C61.0282 28.0361 61.095 29.8053 59.9102 31.0876" stroke="#47647A" stroke-width="0.58" stroke-miterlimit="10"/>
<path d="M56.7588 28.254C57.0754 28.7871 57.2931 29.3547 57.4094 29.9051L58.2009 30.3027C58.2503 29.4383 58.003 28.4211 57.4539 27.4991C56.4571 25.822 54.8542 25.1046 53.8722 25.8941C53.6768 26.0526 53.5235 26.2571 53.4072 26.4992C54.3942 25.9719 55.8362 26.7009 56.7588 28.2511V28.254Z" stroke="#47647A" stroke-width="0.58" stroke-miterlimit="10"/>
<path d="M53.4056 26.501C53.3264 26.5442 53.2498 26.5903 53.1756 26.6508C52.9579 26.8266 52.7501 27.132 52.6289 27.4086" stroke="#47647A" stroke-width="0.58" stroke-miterlimit="10"/>
<path d="M56.2701 28.9259C56.3764 29.1046 56.468 29.289 56.5521 29.4734L57.4079 29.9056C57.2916 29.3552 57.074 28.7876 56.7574 28.2545C55.8347 26.7014 54.3952 25.9753 53.4058 26.5026C53.3241 26.6726 53.2623 26.8599 53.2178 27.0616C54.18 26.8023 55.4365 27.5313 56.2676 28.9317L56.2701 28.9259Z" stroke="#47647A" stroke-width="0.58" stroke-miterlimit="10"/>
<path d="M53.1472 27.7578C53.1472 27.5129 53.1745 27.2766 53.2215 27.0576C53.031 27.1095 52.8529 27.193 52.6921 27.3227C52.6872 27.3285 52.6822 27.3342 52.6748 27.3371" stroke="#47647A" stroke-width="0.58" stroke-miterlimit="10"/>
<path d="M53.2207 27.0576C53.1737 27.2766 53.1465 27.51 53.1465 27.7578L56.555 29.4752C56.4709 29.2908 56.3794 29.1092 56.273 28.9277C55.4394 27.5273 54.1854 26.7983 53.2232 27.0576H53.2207Z" stroke="#47647A" stroke-width="0.58" stroke-miterlimit="10"/>
<path d="M10.8706 8.88197C11.8667 8.57688 12.5693 7.86417 12.4397 7.29009C12.3101 6.71601 11.3976 6.49796 10.4014 6.80305C9.40521 7.10814 8.70269 7.82085 8.83224 8.39493C8.9618 8.96901 9.87439 9.18706 10.8706 8.88197Z" stroke="#47647A" stroke-width="0.58" stroke-miterlimit="10"/>
<path d="M20.977 14.132C21.9732 13.8269 22.6757 13.1142 22.5461 12.5401C22.4166 11.966 21.504 11.748 20.5078 12.053C19.5117 12.3581 18.8091 13.0709 18.9387 13.6449C19.0683 14.219 19.9808 14.4371 20.977 14.132Z" stroke="#47647A" stroke-width="0.58" stroke-miterlimit="10"/>
<path d="M31.7583 19.6017C32.7544 19.2966 33.457 18.5839 33.3274 18.0098C33.1978 17.4357 32.2853 17.2177 31.2891 17.5228C30.2929 17.8279 29.5904 18.5406 29.7199 19.1147C29.8495 19.6887 30.7621 19.9068 31.7583 19.6017Z" stroke="#47647A" stroke-width="0.58" stroke-miterlimit="10"/>
<path d="M44.4758 41.4432C45.0555 41.0533 44.9961 39.6692 44.3431 38.3516C43.6902 37.0341 42.6909 36.2821 42.1112 36.672C41.5315 37.0619 41.5909 38.446 42.2439 39.7635C42.8968 41.0811 43.8961 41.8331 44.4758 41.4432Z" stroke="#47647A" stroke-width="0.58" stroke-miterlimit="10"/>
<path d="M70.1526 55.4256C70.7323 55.0357 70.6729 53.6516 70.0199 52.3341C69.3669 51.0165 68.3676 50.2645 67.7879 50.6544C67.2082 51.0443 67.2676 52.4284 67.9206 53.746C68.5736 55.0635 69.5729 55.8155 70.1526 55.4256Z" stroke="#47647A" stroke-width="0.58" stroke-miterlimit="10"/>
</svg>
