<svg width="50" height="50" viewBox="0 0 50 50" fill="none" xmlns="http://www.w3.org/2000/svg">
<path fill-rule="evenodd" clip-rule="evenodd" d="M9.0779 28.3069H7.07723C3.95617 28.3069 6.22361 21.678 8.85117 21.678H12.0123C12.5191 21.678 13.4127 21.7714 13.8529 20.5176L14.5331 18.5703H10.1983C7.85084 18.5703 6.02353 19.3973 4.70309 20.7844C2.42232 23.1585 1.64872 26.8665 2.19558 28.6404C2.71575 30.2809 4.12957 31.3613 6.34364 31.388L8.06424 31.4013H10.1849L10.7051 29.8408C11.0919 28.7338 10.225 28.3069 9.0779 28.3069ZM33.4329 25.5593L34.0863 23.4386H27.1107C25.9503 23.4386 25.4301 23.7587 25.2301 24.4256L24.5765 26.5464H31.5522C32.7126 26.5464 33.2328 26.2262 33.4329 25.5593ZM23.5362 29.294L22.8826 31.4147H29.8583C31.0054 31.4147 31.5389 31.0946 31.739 30.4277L32.3925 28.3069H25.4168C24.2697 28.3069 23.7496 28.6271 23.5362 29.294ZM35.06 20.7044L35.7137 18.5837H28.7379C27.5775 18.5837 27.0573 18.9038 26.8573 19.5707L26.2037 21.6914H33.1794C34.3266 21.6914 34.8466 21.3713 35.06 20.7044ZM24.5232 21.1312C24.2297 19.1572 23.176 18.5837 20.6152 18.5837H15.9469L13.226 26.5464H14.9466C15.9736 26.5464 16.4938 26.5597 17.0406 25.0925L18.1743 21.678H19.9083C21.3888 21.678 21.0553 23.532 20.3084 25.3326C19.6415 26.9198 18.4811 28.3203 17.0806 28.3203H14.1863C13.0259 28.3203 12.4924 28.6404 12.279 29.3073L11.5587 31.428H13.6795L15.7602 31.4147C17.6008 31.4013 19.108 31.268 20.8686 29.6808C22.7359 27.9868 24.8966 23.6387 24.5232 21.1312ZM47.9712 18.5703H43.9299L40.1285 22.6117C39.6882 23.0785 39.2348 23.5453 38.7945 24.0922H38.7545L40.6485 18.5703H37.3543L32.9127 31.4147H36.2072L37.6208 27.3733L39.0879 26.1329L40.2485 29.7875C40.6085 30.9212 40.9822 31.4147 41.7825 31.4147H44.3033L41.7156 24.2389L47.9712 18.5703Z" fill="#5D798E"/>
</svg>
