<svg width="1920" height="257" viewBox="0 0 1920 257" fill="none" xmlns="http://www.w3.org/2000/svg">
<g clip-path="url(#clip0_1389_899)">
<g style="mix-blend-mode:screen">
<path d="M1326.36 224.915L593.59 224.886L-161.837 -46.8789H2081.85L2079.66 -46.0958L1326.36 224.915ZM593.809 224.103H1326.19L2077.16 -46.052H-157.157L593.809 224.103Z" fill="#888888"/>
<path d="M1350.15 215.518H569.87V216.33H1350.15V215.518Z" fill="#888888"/>
<path d="M1377.34 205.735H542.681V206.548H1377.34V205.735Z" fill="#888888"/>
<path d="M1408.6 194.49H511.42V195.302H1408.6V194.49Z" fill="#888888"/>
<path d="M1444.92 181.42H475.088V182.232H1444.92V181.42Z" fill="#888888"/>
<path d="M1487.65 166.049H432.361V166.862H1487.65V166.049Z" fill="#888888"/>
<path d="M1538.63 147.706H381.375V148.519H1538.63V147.706Z" fill="#888888"/>
<path d="M1600.52 125.444H319.483V126.256H1600.52V125.444Z" fill="#888888"/>
<path d="M1677.24 97.8396H242.772V98.6519H1677.24V97.8396Z" fill="#888888"/>
<path d="M1774.84 62.73H145.171V63.5423H1774.84V62.73Z" fill="#888888"/>
<path d="M1903.18 16.5547H16.8318V17.367H1903.18V16.5547Z" fill="#888888"/>
<path d="M1280.67 224.881L1280.31 224.137L1939.38 -46.8447L1939.75 -46.1005L1280.67 224.881Z" fill="#888888"/>
<path d="M1234.91 224.871L1234.5 224.152L1799.42 -46.8301L1799.84 -46.115L1234.91 224.871Z" fill="#888888"/>
<path d="M1189.16 224.852L1188.68 224.166L1659.45 -46.8154L1659.93 -46.1296L1189.16 224.852Z" fill="#888888"/>
<path d="M1143.42 224.828L1142.86 224.19L1519.48 -46.7913L1520.03 -46.1541L1143.42 224.828Z" fill="#888888"/>
<path d="M1097.68 224.789L1097.04 224.229L1379.5 -46.7524L1380.13 -46.1931L1097.68 224.789Z" fill="#888888"/>
<path d="M1051.95 224.725L1051.2 224.292L1239.5 -46.6897L1240.25 -46.2568L1051.95 224.725Z" fill="#888888"/>
<path d="M1006.21 224.633L1005.36 224.385L1099.52 -46.5964L1100.37 -46.3484L1006.21 224.633Z" fill="#888888"/>
<path d="M960.452 -46.4746H959.562V224.507H960.452V-46.4746Z" fill="#888888"/>
<path d="M913.797 224.633L819.646 -46.3484L820.487 -46.5964L914.645 224.385L913.797 224.633Z" fill="#888888"/>
<path d="M868.06 224.725L679.757 -46.2568L680.503 -46.6897L868.812 224.292L868.06 224.725Z" fill="#888888"/>
<path d="M822.329 224.789L539.875 -46.1931L540.511 -46.7524L822.972 224.229L822.329 224.789Z" fill="#888888"/>
<path d="M776.59 224.828L399.978 -46.1541L400.532 -46.7913L777.144 224.19L776.59 224.828Z" fill="#888888"/>
<path d="M730.844 224.852L260.08 -46.1296L260.552 -46.8154L731.316 224.166L730.844 224.852Z" fill="#888888"/>
<path d="M685.092 224.871L120.171 -46.115L120.588 -46.8301L685.503 224.152L685.092 224.871Z" fill="#888888"/>
<path d="M639.335 224.881L-19.7379 -46.1005L-19.3753 -46.8447L639.698 224.137L639.335 224.881Z" fill="#888888"/>
</g>
</g>
<defs>
<clipPath id="clip0_1389_899">
<rect width="1920" height="257" fill="white"/>
</clipPath>
</defs>
</svg>
