<svg width="1920" height="780" viewBox="0 0 1920 780" fill="none" xmlns="http://www.w3.org/2000/svg">
<g opacity="0.6">
<mask id="mask0_1389_640" style="mask-type:luminance" maskUnits="userSpaceOnUse" x="-1" y="0" width="1921" height="780">
<path d="M1920 0H-0.000244141V780H1920V0Z" fill="white"/>
</mask>
<g mask="url(#mask0_1389_640)">
<g style="mix-blend-mode:screen">
<path d="M1326.36 224.915L593.59 224.886L-161.837 -46.879H2081.85L2079.66 -46.0959L1326.36 224.915ZM593.809 224.103H1326.19L2077.16 -46.0521H-157.157L593.809 224.103Z" fill="url(#paint0_linear_1389_640)"/>
<path d="M1350.15 215.518H569.869V216.33H1350.15V215.518Z" fill="url(#paint1_linear_1389_640)"/>
<path d="M1377.34 205.735H542.68V206.548H1377.34V205.735Z" fill="url(#paint2_linear_1389_640)"/>
<path d="M1408.6 194.489H511.42V195.302H1408.6V194.489Z" fill="url(#paint3_linear_1389_640)"/>
<path d="M1444.92 181.42H475.088V182.232H1444.92V181.42Z" fill="url(#paint4_linear_1389_640)"/>
<path d="M1487.65 166.049H432.361V166.861H1487.65V166.049Z" fill="url(#paint5_linear_1389_640)"/>
<path d="M1538.63 147.706H381.375V148.519H1538.63V147.706Z" fill="url(#paint6_linear_1389_640)"/>
<path d="M1600.52 125.444H319.483V126.256H1600.52V125.444Z" fill="url(#paint7_linear_1389_640)"/>
<path d="M1677.24 97.8395H242.772V98.6518H1677.24V97.8395Z" fill="url(#paint8_linear_1389_640)"/>
<path d="M1774.84 62.7298H145.171V63.5421H1774.84V62.7298Z" fill="url(#paint9_linear_1389_640)"/>
<path d="M1903.18 16.5545H16.8319V17.3668H1903.18V16.5545Z" fill="url(#paint10_linear_1389_640)"/>
<path d="M1280.67 224.881L1280.31 224.137L1939.38 -46.8448L1939.75 -46.1006L1280.67 224.881Z" fill="url(#paint11_linear_1389_640)"/>
<path d="M1234.91 224.871L1234.5 224.151L1799.42 -46.8302L1799.84 -46.1152L1234.91 224.871Z" fill="url(#paint12_linear_1389_640)"/>
<path d="M1189.16 224.852L1188.68 224.166L1659.45 -46.8154L1659.93 -46.1296L1189.16 224.852Z" fill="url(#paint13_linear_1389_640)"/>
<path d="M1143.42 224.827L1142.86 224.19L1519.48 -46.7914L1520.03 -46.1542L1143.42 224.827Z" fill="url(#paint14_linear_1389_640)"/>
<path d="M1097.68 224.788L1097.04 224.229L1379.5 -46.7526L1380.13 -46.1932L1097.68 224.788Z" fill="url(#paint15_linear_1389_640)"/>
<path d="M1051.95 224.725L1051.2 224.292L1239.51 -46.6898L1240.25 -46.2569L1051.95 224.725Z" fill="url(#paint16_linear_1389_640)"/>
<path d="M1006.21 224.633L1005.36 224.385L1099.52 -46.5967L1100.37 -46.3486L1006.21 224.633Z" fill="url(#paint17_linear_1389_640)"/>
<path d="M960.452 -46.4747H959.562V224.507H960.452V-46.4747Z" fill="url(#paint18_linear_1389_640)"/>
<path d="M913.797 224.633L819.646 -46.3486L820.487 -46.5967L914.645 224.385L913.797 224.633Z" fill="url(#paint19_linear_1389_640)"/>
<path d="M868.059 224.725L679.756 -46.2569L680.502 -46.6898L868.812 224.292L868.059 224.725Z" fill="url(#paint20_linear_1389_640)"/>
<path d="M822.328 224.788L539.874 -46.1932L540.511 -46.7526L822.971 224.229L822.328 224.788Z" fill="url(#paint21_linear_1389_640)"/>
<path d="M776.589 224.827L399.977 -46.1542L400.531 -46.7914L777.144 224.19L776.589 224.827Z" fill="url(#paint22_linear_1389_640)"/>
<path d="M730.844 224.852L260.08 -46.1296L260.552 -46.8154L731.316 224.166L730.844 224.852Z" fill="url(#paint23_linear_1389_640)"/>
<path d="M685.092 224.871L120.171 -46.1152L120.588 -46.8302L685.503 224.151L685.092 224.871Z" fill="url(#paint24_linear_1389_640)"/>
<path d="M639.335 224.881L-19.7379 -46.1006L-19.3753 -46.8448L639.698 224.137L639.335 224.881Z" fill="url(#paint25_linear_1389_640)"/>
</g>
<g style="mix-blend-mode:screen">
<path d="M2081.85 826.878H-161.837L-159.661 826.095L593.632 555.084L1326.4 555.114L2081.85 826.878ZM-157.157 826.066H2077.16L1326.19 555.897H593.81L-157.157 826.066Z" fill="url(#paint26_linear_1389_640)"/>
<path d="M1350.15 563.67H569.869V564.482H1350.15V563.67Z" fill="url(#paint27_linear_1389_640)"/>
<path d="M1377.34 573.451H542.68V574.264H1377.34V573.451Z" fill="url(#paint28_linear_1389_640)"/>
<path d="M1408.6 584.702H511.42V585.514H1408.6V584.702Z" fill="url(#paint29_linear_1389_640)"/>
<path d="M1444.92 597.767H475.088V598.58H1444.92V597.767Z" fill="url(#paint30_linear_1389_640)"/>
<path d="M1487.65 613.138H432.361V613.951H1487.65V613.138Z" fill="url(#paint31_linear_1389_640)"/>
<path d="M1538.63 631.48H381.375V632.293H1538.63V631.48Z" fill="url(#paint32_linear_1389_640)"/>
<path d="M1600.52 653.749H319.483V654.561H1600.52V653.749Z" fill="url(#paint33_linear_1389_640)"/>
<path d="M1677.24 681.349H242.766V682.161H1677.24V681.349Z" fill="url(#paint34_linear_1389_640)"/>
<path d="M1774.84 716.463H145.171V717.275H1774.84V716.463Z" fill="url(#paint35_linear_1389_640)"/>
<path d="M1903.18 762.633H16.8319V763.445H1903.18V762.633Z" fill="url(#paint36_linear_1389_640)"/>
<path d="M-19.3753 826.844L-19.7379 826.105L639.335 555.123L639.698 555.862L-19.3753 826.844Z" fill="url(#paint37_linear_1389_640)"/>
<path d="M120.588 826.835L120.171 826.115L685.092 555.133L685.503 555.853L120.588 826.835Z" fill="url(#paint38_linear_1389_640)"/>
<path d="M260.552 826.82L260.08 826.129L730.844 555.147L731.316 555.833L260.552 826.82Z" fill="url(#paint39_linear_1389_640)"/>
<path d="M400.531 826.791L399.977 826.153L776.589 555.172L777.143 555.809L400.531 826.791Z" fill="url(#paint40_linear_1389_640)"/>
<path d="M540.51 826.757L539.874 826.193L822.328 555.211L822.971 555.77L540.51 826.757Z" fill="url(#paint41_linear_1389_640)"/>
<path d="M680.502 826.693L679.756 826.255L868.059 555.274L868.811 555.712L680.502 826.693Z" fill="url(#paint42_linear_1389_640)"/>
<path d="M820.487 826.596L819.646 826.353L913.797 555.372L914.645 555.615L820.487 826.596Z" fill="url(#paint43_linear_1389_640)"/>
<path d="M960.452 555.493H959.562V826.475H960.452V555.493Z" fill="url(#paint44_linear_1389_640)"/>
<path d="M1099.51 826.596L1005.36 555.615L1006.21 555.372L1100.36 826.353L1099.51 826.596Z" fill="url(#paint45_linear_1389_640)"/>
<path d="M1239.51 826.693L1051.2 555.712L1051.95 555.274L1240.25 826.255L1239.51 826.693Z" fill="url(#paint46_linear_1389_640)"/>
<path d="M1379.5 826.757L1097.04 555.77L1097.68 555.211L1380.13 826.193L1379.5 826.757Z" fill="url(#paint47_linear_1389_640)"/>
<path d="M1519.48 826.791L1142.86 555.809L1143.42 555.172L1520.03 826.153L1519.48 826.791Z" fill="url(#paint48_linear_1389_640)"/>
<path d="M1659.45 826.82L1188.68 555.833L1189.16 555.147L1659.93 826.129L1659.45 826.82Z" fill="url(#paint49_linear_1389_640)"/>
<path d="M1799.42 826.835L1234.5 555.853L1234.91 555.133L1799.84 826.115L1799.42 826.835Z" fill="url(#paint50_linear_1389_640)"/>
<path d="M1939.38 826.844L1280.31 555.862L1280.67 555.123L1939.75 826.105L1939.38 826.844Z" fill="url(#paint51_linear_1389_640)"/>
</g>
</g>
</g>
<defs>
<linearGradient id="paint0_linear_1389_640" x1="960.001" y1="-45.95" x2="960.001" y2="225.844" gradientUnits="userSpaceOnUse">
<stop offset="0.34" stop-color="#787878"/>
<stop offset="1"/>
</linearGradient>
<linearGradient id="paint1_linear_1389_640" x1="960.001" y1="-45.9277" x2="960.001" y2="225.761" gradientUnits="userSpaceOnUse">
<stop offset="0.34" stop-color="#787878"/>
<stop offset="1"/>
</linearGradient>
<linearGradient id="paint2_linear_1389_640" x1="960.002" y1="-45.9476" x2="960.002" y2="225.761" gradientUnits="userSpaceOnUse">
<stop offset="0.34" stop-color="#787878"/>
<stop offset="1"/>
</linearGradient>
<linearGradient id="paint3_linear_1389_640" x1="960.002" y1="-45.9522" x2="960.002" y2="225.761" gradientUnits="userSpaceOnUse">
<stop offset="0.34" stop-color="#787878"/>
<stop offset="1"/>
</linearGradient>
<linearGradient id="paint4_linear_1389_640" x1="960.008" y1="-46.0153" x2="960.008" y2="225.776" gradientUnits="userSpaceOnUse">
<stop offset="0.34" stop-color="#787878"/>
<stop offset="1"/>
</linearGradient>
<linearGradient id="paint5_linear_1389_640" x1="960.008" y1="-45.9515" x2="960.008" y2="225.762" gradientUnits="userSpaceOnUse">
<stop offset="0.34" stop-color="#787878"/>
<stop offset="1"/>
</linearGradient>
<linearGradient id="paint6_linear_1389_640" x1="960.007" y1="-45.9335" x2="960.007" y2="225.756" gradientUnits="userSpaceOnUse">
<stop offset="0.34" stop-color="#787878"/>
<stop offset="1"/>
</linearGradient>
<linearGradient id="paint7_linear_1389_640" x1="960.001" y1="-45.9507" x2="960.001" y2="225.763" gradientUnits="userSpaceOnUse">
<stop offset="0.34" stop-color="#787878"/>
<stop offset="1"/>
</linearGradient>
<linearGradient id="paint8_linear_1389_640" x1="960.008" y1="-45.9507" x2="960.008" y2="225.763" gradientUnits="userSpaceOnUse">
<stop offset="0.34" stop-color="#787878"/>
<stop offset="1"/>
</linearGradient>
<linearGradient id="paint9_linear_1389_640" x1="960.007" y1="-45.9497" x2="960.007" y2="225.761" gradientUnits="userSpaceOnUse">
<stop offset="0.34" stop-color="#787878"/>
<stop offset="1"/>
</linearGradient>
<linearGradient id="paint10_linear_1389_640" x1="960.008" y1="-45.9497" x2="960.008" y2="225.761" gradientUnits="userSpaceOnUse">
<stop offset="0.34" stop-color="#787878"/>
<stop offset="1"/>
</linearGradient>
<linearGradient id="paint11_linear_1389_640" x1="1610.03" y1="-45.945" x2="1610.03" y2="225.776" gradientUnits="userSpaceOnUse">
<stop offset="0.34" stop-color="#787878"/>
<stop offset="1"/>
</linearGradient>
<linearGradient id="paint12_linear_1389_640" x1="1517.17" y1="-45.9449" x2="1517.17" y2="225.757" gradientUnits="userSpaceOnUse">
<stop offset="0.34" stop-color="#787878"/>
<stop offset="1"/>
</linearGradient>
<linearGradient id="paint13_linear_1389_640" x1="1424.3" y1="-45.9447" x2="1424.3" y2="225.723" gradientUnits="userSpaceOnUse">
<stop offset="0.34" stop-color="#787878"/>
<stop offset="1"/>
</linearGradient>
<linearGradient id="paint14_linear_1389_640" x1="1331.45" y1="-45.945" x2="1331.45" y2="225.674" gradientUnits="userSpaceOnUse">
<stop offset="0.34" stop-color="#787878"/>
<stop offset="1"/>
</linearGradient>
<linearGradient id="paint15_linear_1389_640" x1="1238.59" y1="-45.9451" x2="1238.59" y2="225.596" gradientUnits="userSpaceOnUse">
<stop offset="0.34" stop-color="#787878"/>
<stop offset="1"/>
</linearGradient>
<linearGradient id="paint16_linear_1389_640" x1="1145.72" y1="-45.9456" x2="1145.72" y2="225.761" gradientUnits="userSpaceOnUse">
<stop offset="0.34" stop-color="#787878"/>
<stop offset="1"/>
</linearGradient>
<linearGradient id="paint17_linear_1389_640" x1="1052.87" y1="-45.9449" x2="1052.87" y2="225.762" gradientUnits="userSpaceOnUse">
<stop offset="0.34" stop-color="#787878"/>
<stop offset="1"/>
</linearGradient>
<linearGradient id="paint18_linear_1389_640" x1="960" y1="-45.9494" x2="960" y2="225.762" gradientUnits="userSpaceOnUse">
<stop offset="0.34" stop-color="#787878"/>
<stop offset="1"/>
</linearGradient>
<linearGradient id="paint19_linear_1389_640" x1="867.142" y1="-45.9449" x2="867.142" y2="225.762" gradientUnits="userSpaceOnUse">
<stop offset="0.34" stop-color="#787878"/>
<stop offset="1"/>
</linearGradient>
<linearGradient id="paint20_linear_1389_640" x1="774.284" y1="-45.9456" x2="774.284" y2="225.761" gradientUnits="userSpaceOnUse">
<stop offset="0.34" stop-color="#787878"/>
<stop offset="1"/>
</linearGradient>
<linearGradient id="paint21_linear_1389_640" x1="681.419" y1="-45.9451" x2="681.419" y2="225.596" gradientUnits="userSpaceOnUse">
<stop offset="0.34" stop-color="#787878"/>
<stop offset="1"/>
</linearGradient>
<linearGradient id="paint22_linear_1389_640" x1="588.56" y1="-45.945" x2="588.56" y2="225.674" gradientUnits="userSpaceOnUse">
<stop offset="0.34" stop-color="#787878"/>
<stop offset="1"/>
</linearGradient>
<linearGradient id="paint23_linear_1389_640" x1="495.701" y1="-45.9447" x2="495.701" y2="225.723" gradientUnits="userSpaceOnUse">
<stop offset="0.34" stop-color="#787878"/>
<stop offset="1"/>
</linearGradient>
<linearGradient id="paint24_linear_1389_640" x1="402.837" y1="-45.9449" x2="402.837" y2="225.757" gradientUnits="userSpaceOnUse">
<stop offset="0.34" stop-color="#787878"/>
<stop offset="1"/>
</linearGradient>
<linearGradient id="paint25_linear_1389_640" x1="309.98" y1="-45.945" x2="309.98" y2="225.776" gradientUnits="userSpaceOnUse">
<stop offset="0.34" stop-color="#787878"/>
<stop offset="1"/>
</linearGradient>
<linearGradient id="paint26_linear_1389_640" x1="960.001" y1="808.492" x2="960.001" y2="556.437" gradientUnits="userSpaceOnUse">
<stop offset="0.34" stop-color="#787878"/>
<stop offset="1"/>
</linearGradient>
<linearGradient id="paint27_linear_1389_640" x1="960.001" y1="808.503" x2="960.001" y2="556.442" gradientUnits="userSpaceOnUse">
<stop offset="0.34" stop-color="#787878"/>
<stop offset="1"/>
</linearGradient>
<linearGradient id="paint28_linear_1389_640" x1="960.002" y1="808.503" x2="960.002" y2="556.441" gradientUnits="userSpaceOnUse">
<stop offset="0.34" stop-color="#787878"/>
<stop offset="1"/>
</linearGradient>
<linearGradient id="paint29_linear_1389_640" x1="960.002" y1="808.502" x2="960.002" y2="556.44" gradientUnits="userSpaceOnUse">
<stop offset="0.34" stop-color="#787878"/>
<stop offset="1"/>
</linearGradient>
<linearGradient id="paint30_linear_1389_640" x1="960.008" y1="808.502" x2="960.008" y2="556.441" gradientUnits="userSpaceOnUse">
<stop offset="0.34" stop-color="#787878"/>
<stop offset="1"/>
</linearGradient>
<linearGradient id="paint31_linear_1389_640" x1="960.008" y1="808.488" x2="960.008" y2="556.44" gradientUnits="userSpaceOnUse">
<stop offset="0.34" stop-color="#787878"/>
<stop offset="1"/>
</linearGradient>
<linearGradient id="paint32_linear_1389_640" x1="960" y1="808.501" x2="960" y2="556.434" gradientUnits="userSpaceOnUse">
<stop offset="0.34" stop-color="#787878"/>
<stop offset="1"/>
</linearGradient>
<linearGradient id="paint33_linear_1389_640" x1="960.001" y1="808.48" x2="960.001" y2="556.451" gradientUnits="userSpaceOnUse">
<stop offset="0.34" stop-color="#787878"/>
<stop offset="1"/>
</linearGradient>
<linearGradient id="paint34_linear_1389_640" x1="960.002" y1="808.491" x2="960.002" y2="556.443" gradientUnits="userSpaceOnUse">
<stop offset="0.34" stop-color="#787878"/>
<stop offset="1"/>
</linearGradient>
<linearGradient id="paint35_linear_1389_640" x1="960.007" y1="808.5" x2="960.007" y2="556.433" gradientUnits="userSpaceOnUse">
<stop offset="0.34" stop-color="#787878"/>
<stop offset="1"/>
</linearGradient>
<linearGradient id="paint36_linear_1389_640" x1="960.008" y1="808.498" x2="960.008" y2="556.431" gradientUnits="userSpaceOnUse">
<stop offset="0.34" stop-color="#787878"/>
<stop offset="1"/>
</linearGradient>
<linearGradient id="paint37_linear_1389_640" x1="309.98" y1="808.496" x2="309.98" y2="556.441" gradientUnits="userSpaceOnUse">
<stop offset="0.34" stop-color="#787878"/>
<stop offset="1"/>
</linearGradient>
<linearGradient id="paint38_linear_1389_640" x1="402.837" y1="808.497" x2="402.837" y2="556.442" gradientUnits="userSpaceOnUse">
<stop offset="0.34" stop-color="#787878"/>
<stop offset="1"/>
</linearGradient>
<linearGradient id="paint39_linear_1389_640" x1="495.701" y1="808.497" x2="495.701" y2="556.436" gradientUnits="userSpaceOnUse">
<stop offset="0.34" stop-color="#787878"/>
<stop offset="1"/>
</linearGradient>
<linearGradient id="paint40_linear_1389_640" x1="588.56" y1="808.497" x2="588.56" y2="556.441" gradientUnits="userSpaceOnUse">
<stop offset="0.34" stop-color="#787878"/>
<stop offset="1"/>
</linearGradient>
<linearGradient id="paint41_linear_1389_640" x1="681.419" y1="808.497" x2="681.419" y2="556.441" gradientUnits="userSpaceOnUse">
<stop offset="0.34" stop-color="#787878"/>
<stop offset="1"/>
</linearGradient>
<linearGradient id="paint42_linear_1389_640" x1="774.284" y1="808.496" x2="774.284" y2="556.441" gradientUnits="userSpaceOnUse">
<stop offset="0.34" stop-color="#787878"/>
<stop offset="1"/>
</linearGradient>
<linearGradient id="paint43_linear_1389_640" x1="867.142" y1="808.497" x2="867.142" y2="556.442" gradientUnits="userSpaceOnUse">
<stop offset="0.34" stop-color="#787878"/>
<stop offset="1"/>
</linearGradient>
<linearGradient id="paint44_linear_1389_640" x1="960" y1="808.497" x2="960" y2="556.442" gradientUnits="userSpaceOnUse">
<stop offset="0.34" stop-color="#787878"/>
<stop offset="1"/>
</linearGradient>
<linearGradient id="paint45_linear_1389_640" x1="1052.87" y1="808.497" x2="1052.87" y2="556.442" gradientUnits="userSpaceOnUse">
<stop offset="0.34" stop-color="#787878"/>
<stop offset="1"/>
</linearGradient>
<linearGradient id="paint46_linear_1389_640" x1="1145.72" y1="808.496" x2="1145.72" y2="556.441" gradientUnits="userSpaceOnUse">
<stop offset="0.34" stop-color="#787878"/>
<stop offset="1"/>
</linearGradient>
<linearGradient id="paint47_linear_1389_640" x1="1238.59" y1="808.497" x2="1238.59" y2="556.441" gradientUnits="userSpaceOnUse">
<stop offset="0.34" stop-color="#787878"/>
<stop offset="1"/>
</linearGradient>
<linearGradient id="paint48_linear_1389_640" x1="1331.45" y1="808.497" x2="1331.45" y2="556.441" gradientUnits="userSpaceOnUse">
<stop offset="0.34" stop-color="#787878"/>
<stop offset="1"/>
</linearGradient>
<linearGradient id="paint49_linear_1389_640" x1="1424.3" y1="808.497" x2="1424.3" y2="556.436" gradientUnits="userSpaceOnUse">
<stop offset="0.34" stop-color="#787878"/>
<stop offset="1"/>
</linearGradient>
<linearGradient id="paint50_linear_1389_640" x1="1517.17" y1="808.497" x2="1517.17" y2="556.442" gradientUnits="userSpaceOnUse">
<stop offset="0.34" stop-color="#787878"/>
<stop offset="1"/>
</linearGradient>
<linearGradient id="paint51_linear_1389_640" x1="1610.03" y1="808.496" x2="1610.03" y2="556.441" gradientUnits="userSpaceOnUse">
<stop offset="0.34" stop-color="#787878"/>
<stop offset="1"/>
</linearGradient>
</defs>
</svg>
