<svg width="145" height="48" viewBox="0 0 145 48" fill="none" xmlns="http://www.w3.org/2000/svg">
<path d="M67.2683 29.0212H63.2395H60.8865H58.537L60.8865 23.2254L62.0295 26.0378H66.0582L60.8865 13.2946L52.3668 34.2972H56.3956L57.1399 32.4652H64.6365L65.3809 34.2972H69.4097L67.2683 29.0212Z" fill="white"/>
<path d="M82.9282 25.4411C84.4663 24.2547 85.4611 22.4088 85.4611 20.3257V20.1931C85.4611 16.613 82.526 13.7063 78.9029 13.7063H72.8386V17.3911H78.9382C80.5222 17.3911 81.8028 18.6578 81.8028 20.2245V20.2803C81.8028 21.8436 80.5187 23.1137 78.9382 23.1137H76.5217V20.371H72.8386V34.2902H76.5217V26.8055H78.9029C79.0758 26.8055 79.2487 26.7915 79.418 26.781L83.2245 34.2902H87.4155L82.9246 25.4341L82.9282 25.4411Z" fill="white"/>
<path d="M99.6818 13.7098L94.3231 21.1003V13.7098H90.6436V34.2972H94.3231V27.4859L104.176 13.7098H99.6818Z" fill="white"/>
<path d="M100.246 24.0872L97.8685 27.4161L101.594 34.2972H105.771L100.246 24.0872Z" fill="white"/>
<path d="M116.785 13.2213C110.763 13.2213 105.884 18.0506 105.884 24.0035C105.884 29.9564 110.766 34.7857 116.785 34.7857C122.803 34.7857 127.686 29.9564 127.686 24.0035C127.686 18.0506 122.803 13.2213 116.785 13.2213V13.2213ZM116.785 31.073C112.837 31.073 109.637 27.9081 109.637 24.0035C109.637 20.0989 112.837 16.934 116.785 16.934C120.732 16.934 123.932 20.0989 123.932 24.0035C123.932 27.9081 120.732 31.073 116.785 31.073Z" fill="white"/>
<path d="M141.32 13.7447V24.9038L131.122 13.0817V18.8287L141.32 30.6508L145 34.9183V29.1713V13.7447H141.32Z" fill="white"/>
<path d="M131.122 34.2972H134.805V27.0462L131.122 22.7752V34.2972Z" fill="white"/>
<path d="M29.0585 7.39401C36.3294 9.49113 41.6422 16.1314 41.6422 24C41.6422 27.3533 40.6756 30.4833 39.0034 33.1317L40.0724 35.8988C42.6053 32.5909 44.1082 28.4699 44.1082 24C44.1082 14.3972 37.1725 6.39953 27.9861 4.62692L29.055 7.39401H29.0585Z" fill="white"/>
<path d="M9.29931 33.1317C7.63066 30.4798 6.66051 27.3533 6.66051 24C6.66051 16.1314 11.9734 9.49462 19.2442 7.39401L20.3131 4.62692C11.1267 6.39604 4.19104 14.3937 4.19104 24C4.19104 28.4699 5.69389 32.5909 8.22685 35.8988L9.29578 33.1317H9.29931Z" fill="white"/>
<path d="M31.9478 39.4859C29.6018 40.6444 26.9559 41.3004 24.1513 41.3004C21.3467 41.3004 18.7009 40.6444 16.3513 39.4859L14.1041 41.0561C17.0569 42.7624 20.4859 43.7429 24.1513 43.7429C27.8167 43.7429 31.2422 42.7624 34.195 41.0596L31.9478 39.4894V39.4859Z" fill="white"/>
<path d="M24.1549 48C10.8374 48 0 37.2352 0 24C0 10.7648 10.8339 0 24.1549 0C37.4759 0 48.3098 10.7648 48.3098 24C48.3098 37.2352 37.4759 48 24.1549 48V48ZM24.1549 1.0503C11.3595 1.0503 0.952507 11.3475 0.952507 24C0.952507 36.6525 11.3631 46.9497 24.1549 46.9497C36.9467 46.9497 47.3573 36.6525 47.3573 24C47.3573 11.3475 36.9467 1.0503 24.1549 1.0503" fill="white"/>
<path d="M39.1411 40.9305L34.5973 28.8363H34.6043L41.6458 23.5045H6.66406L13.6915 28.8363H13.7126L8.99947 41.3771L16.4255 36.1745L19.2619 28.8363H29.0445L31.8808 36.1745L39.3104 41.3771L39.1411 40.9305Z" fill="white"/>
<path d="M22.4722 20.5281L24.1549 16.1803L25.8342 20.5281H31.4751L24.1549 1.05031L16.8347 20.5281H22.4722Z" fill="white"/>
</svg>
