<svg width="24" height="24" viewBox="0 0 24 24" fill="none" xmlns="http://www.w3.org/2000/svg">
<path d="M12 5.94141C16.4582 5.94141 19.1771 7.52808 20.7812 9.08008C21.5881 9.86072 22.1208 10.6405 22.4502 11.2217C22.6146 11.5118 22.7284 11.7514 22.7998 11.916C22.8128 11.9459 22.8228 11.9743 22.833 11.999C22.8228 12.0238 22.8128 12.052 22.7998 12.082C22.7284 12.2468 22.6148 12.4878 22.4502 12.7783C22.1207 13.3597 21.588 14.1392 20.7812 14.9199C19.1771 16.4723 16.4581 18.0596 12 18.0596C7.9911 18.0596 5.26401 16.4809 3.53516 14.9092C2.66836 14.1211 2.05156 13.3331 1.65234 12.7441C1.45302 12.4501 1.30842 12.206 1.21484 12.0381C1.20738 12.0247 1.20017 12.0114 1.19336 11.999C1.20006 11.9868 1.20752 11.9741 1.21484 11.9609C1.30842 11.793 1.45301 11.5489 1.65234 11.2549C2.05154 10.6661 2.66848 9.87857 3.53516 9.09082C5.264 7.51954 7.99106 5.94141 12 5.94141Z" stroke="#C6CE4E"/>
<circle cx="12.0001" cy="12.0001" r="3.59382" stroke="#C6CE4E"/>
</svg>
