<svg width="50" height="50" viewBox="0 0 50 50" fill="none" xmlns="http://www.w3.org/2000/svg">
<path d="M39.4209 33.8051H44.8451C45.3974 33.8051 45.8451 33.3573 45.8451 32.8051V14.5753C45.8451 14.3049 45.7356 14.0461 45.5416 13.8578L35.9941 4.59102C35.8075 4.4099 35.5577 4.3086 35.2976 4.3086L5.15429 4.30892C4.60201 4.30893 4.1543 4.75664 4.1543 5.30892V32.8051C4.1543 33.3573 4.60201 33.8051 5.1543 33.8051H21.7426" stroke="#5D798E"/>
<path d="M10.3262 10.4023L28.9409 10.4027" stroke="#5D798E" stroke-linecap="round"/>
<path d="M10.3262 16.1719L18.0155 16.1719" stroke="#5D798E" stroke-linecap="round"/>
<path d="M35.9922 4.66016V12.7291C35.9922 13.2814 36.4399 13.7291 36.9922 13.7291H45.1642" stroke="#5D798E" stroke-linecap="round"/>
<path d="M29.6846 18.2275C30.2823 17.5428 31.3466 17.5428 31.9443 18.2275L33.5449 20.0615C34.0588 20.6504 34.8189 20.9651 35.5986 20.9121L38.0264 20.7471C38.9332 20.6854 39.6864 21.4379 39.625 22.3447L39.46 24.7744C39.4071 25.5539 39.721 26.3134 40.3096 26.8271L42.1436 28.4277C42.8285 29.0255 42.8285 30.0907 42.1436 30.6885L40.3096 32.2891C39.721 32.8029 39.407 33.5623 39.46 34.3418L39.625 36.7705C39.6867 37.6775 38.9334 38.4308 38.0264 38.3691L35.5986 38.2041C34.8189 38.1511 34.0588 38.4658 33.5449 39.0547L31.9443 40.8887C31.3466 41.5733 30.2823 41.5733 29.6846 40.8887L28.084 39.0547C27.5701 38.4658 26.81 38.1511 26.0303 38.2041L23.6025 38.3691C22.6955 38.4308 21.9422 37.6775 22.0039 36.7705L22.1689 34.3418C22.2219 33.5623 21.9079 32.8029 21.3193 32.2891L19.4854 30.6885C18.8005 30.0907 18.8004 29.0255 19.4854 28.4277L21.3193 26.8271C21.9079 26.3134 22.2218 25.5539 22.1689 24.7744L22.0039 22.3447C21.9425 21.4379 22.6957 20.6854 23.6025 20.7471L26.0303 20.9121C26.81 20.9651 27.5701 20.6504 28.084 20.0615L29.6846 18.2275Z" stroke="#5D798E"/>
<path d="M23.2505 38.4688L20.498 42.4068H23.7717L25.0596 45.3055L28.6006 39.9941" stroke="#5D798E" stroke-linecap="round"/>
<path d="M38.5914 38.4688L41.2227 42.406H37.949L36.6611 45.3047L33.1201 39.9933" stroke="#5D798E" stroke-linecap="round"/>
<circle cx="30.8148" cy="29.559" r="5.55508" fill="url(#paint0_linear_2063_45494)"/>
<defs>
<linearGradient id="paint0_linear_2063_45494" x1="26.7686" y1="22.9029" x2="36.2799" y2="23.5435" gradientUnits="userSpaceOnUse">
<stop stop-color="#47647A"/>
<stop offset="1" stop-color="#769CB8"/>
</linearGradient>
</defs>
</svg>
