<svg width="50" height="50" viewBox="0 0 50 50" fill="none" xmlns="http://www.w3.org/2000/svg">
<path d="M23.7604 27.639C23.4677 27.4565 23.3784 27.0713 23.5608 26.7787L36.3471 6.26887L38.956 7.89532L29.3664 23.2776C29.317 23.3568 29.2567 23.4287 29.1873 23.4913L25.9656 26.3958L24.4835 27.5946C24.2766 27.762 23.9863 27.7798 23.7604 27.639Z" fill="url(#paint0_linear_2060_45342)"/>
<path d="M27.3054 35.0573L32.8324 38.4769C33.302 38.7675 33.9183 38.6224 34.2089 38.1527L48.4997 15.0553C48.7903 14.5856 48.6451 13.9693 48.1754 13.6788L34.3653 5.13421C33.8957 4.84363 33.2794 4.9888 32.9888 5.45846L24.6011 19.015" stroke="#5D798E"/>
<path d="M33.0176 34.4766L34.4242 32.0878" stroke="#5D798E" stroke-linecap="round" stroke-linejoin="bevel"/>
<path d="M35.5215 30.4492L36.9281 28.0605" stroke="#5D798E" stroke-linecap="round" stroke-linejoin="bevel"/>
<path d="M38.0059 26.4023L39.4125 24.0136" stroke="#5D798E" stroke-linecap="round" stroke-linejoin="bevel"/>
<path d="M40.6934 22.1992L42.1 19.8105" stroke="#5D798E" stroke-linecap="round" stroke-linejoin="bevel"/>
<path d="M43.4863 17.9688L44.893 15.58" stroke="#5D798E" stroke-linecap="round" stroke-linejoin="bevel"/>
<path d="M9.79297 31.2245C10.2553 31.0924 15.0102 23.101 17.454 20.2592C18.9024 18.575 21.706 17.7524 23.8048 17.4038C24.5928 17.2729 25.1096 18.1129 24.6986 18.7978L21.1378 24.7314C20.9489 25.0462 20.9477 25.4392 21.1346 25.7552L21.8531 26.9692C22.0331 27.2734 22.3601 27.46 22.7135 27.46C23.4004 27.46 24.2537 27.46 24.4551 27.46C24.7853 27.46 30.7954 21.0536 33.107 22.9028C35.4186 24.7521 30.3331 32.2813 25.3796 37.1686C22.0248 40.4786 15.9569 41.6156 13.2269 41.6597" stroke="#5D798E"/>
<path d="M3.0029 31.4696L8.35199 29.9607C8.86386 29.8163 9.39919 30.0978 9.5703 30.6014L13.5623 42.3493C13.7417 42.8774 13.4545 43.4502 12.9239 43.6223L7.50637 45.3793C6.98194 45.5494 6.41879 45.263 6.24741 44.739L2.32392 32.7429C2.14722 32.2026 2.45582 31.6239 3.0029 31.4696Z" fill="url(#paint1_linear_2060_45342)"/>
<defs>
<linearGradient id="paint0_linear_2060_45342" x1="24.7535" y1="24.2858" x2="41.0526" y2="15.0452" gradientUnits="userSpaceOnUse">
<stop stop-color="#47647A"/>
<stop offset="1" stop-color="#769CB8"/>
</linearGradient>
<linearGradient id="paint1_linear_2060_45342" x1="3.61449" y1="28.1191" x2="13.8127" y2="28.63" gradientUnits="userSpaceOnUse">
<stop stop-color="#47647A"/>
<stop offset="1" stop-color="#769CB8"/>
</linearGradient>
</defs>
</svg>
