<svg width="50" height="50" viewBox="0 0 50 50" fill="none" xmlns="http://www.w3.org/2000/svg">
<path d="M27.3054 35.0573L32.8324 38.4769C33.302 38.7675 33.9183 38.6224 34.2089 38.1527L48.4997 15.0553C48.7903 14.5856 48.6451 13.9693 48.1754 13.6788L34.3653 5.13421C33.8957 4.84363 33.2794 4.9888 32.9888 5.45846L24.6011 19.015" stroke="#5D798E"/>
<path d="M23.2352 26.2535C23.5438 26.4909 23.9357 26.9158 24.1883 27.4649" stroke="#5D798E" stroke-linecap="round"/>
<path d="M44.3463 17.3952C43.6415 16.8528 42.5017 15.332 43.5808 13.5879" stroke="#5D798E" stroke-linecap="round"/>
<path d="M36.8678 9.43693C36.3255 10.1417 34.8047 11.2815 33.0605 10.2024" stroke="#5D798E" stroke-linecap="round"/>
<path d="M30.7122 34.2115C31.2546 33.5067 32.7754 32.3669 34.5196 33.446" stroke="#5D798E" stroke-linecap="round"/>
<path d="M29.7859 23.1334C29.4001 22.0245 29.4991 20.7574 30.165 19.6811C31.3379 17.7853 33.8256 17.1994 35.7213 18.3723C37.6171 19.5452 38.203 22.0329 37.0301 23.9286C36.2432 25.2005 34.8645 25.8828 33.4698 25.8399" stroke="#5D798E"/>
<path d="M9.79297 31.2245C10.2553 31.0924 15.0102 23.101 17.454 20.2592C18.9024 18.575 21.706 17.7524 23.8048 17.4038C24.5928 17.2729 25.1096 18.1129 24.6986 18.7978L21.1378 24.7314C20.9489 25.0462 20.9477 25.4392 21.1346 25.7552L21.8531 26.9692C22.0331 27.2734 22.3601 27.46 22.7135 27.46C23.4004 27.46 24.2537 27.46 24.4551 27.46C24.7853 27.46 30.7954 21.0536 33.107 22.9028C35.4186 24.7521 30.3331 32.2813 25.3796 37.1686C22.0248 40.4786 15.9569 41.6156 13.2269 41.6597" stroke="#5D798E"/>
<path d="M3.0029 31.4696L8.35199 29.9607C8.86386 29.8163 9.39919 30.0978 9.5703 30.6014L13.5623 42.3493C13.7417 42.8774 13.4545 43.4502 12.9239 43.6223L7.50637 45.3793C6.98194 45.5494 6.41879 45.263 6.24741 44.739L2.32392 32.7429C2.14722 32.2026 2.45582 31.6239 3.0029 31.4696Z" fill="url(#paint0_linear_2060_44807)"/>
<defs>
<linearGradient id="paint0_linear_2060_44807" x1="3.61449" y1="28.1191" x2="13.8127" y2="28.63" gradientUnits="userSpaceOnUse">
<stop stop-color="#47647A"/>
<stop offset="1" stop-color="#769CB8"/>
</linearGradient>
</defs>
</svg>
