<svg width="50" height="50" viewBox="0 0 50 50" fill="none" xmlns="http://www.w3.org/2000/svg">
<path d="M22.38 21.8404V27.0764C22.38 27.6771 22.2327 28.1871 21.938 28.6064C21.6547 29.0258 21.2637 29.3374 20.765 29.5414C20.2663 29.7341 19.7733 29.8701 19.286 29.9494C18.7987 30.0288 18.2717 30.0684 17.705 30.0684C14.6223 30.0684 13.081 29.0711 13.081 27.0764V21.8574C13.081 19.7494 14.6223 18.6954 17.705 18.6954C20.8217 18.6954 22.38 19.7438 22.38 21.8404ZM20.782 27.0594V21.8064C20.782 20.4464 19.762 19.7664 17.722 19.7664C17.2913 19.7664 16.9117 19.7948 16.583 19.8514C16.2543 19.8968 15.937 19.9931 15.631 20.1404C15.325 20.2764 15.087 20.4861 14.917 20.7694C14.747 21.0414 14.662 21.3871 14.662 21.8064V27.0594C14.662 28.3288 15.6877 28.9634 17.739 28.9634C19.7677 28.9634 20.782 28.3288 20.782 27.0594ZM29.6341 20.7694V22.8944C29.6341 23.2684 29.5604 23.5744 29.4131 23.8124C29.2771 24.0504 29.0674 24.2204 28.7841 24.3224C28.5121 24.4244 28.2401 24.4924 27.9681 24.5264C27.7074 24.5604 27.3731 24.5774 26.9651 24.5774C26.5571 24.5774 26.2171 24.5604 25.9451 24.5264C25.6844 24.4924 25.4124 24.4244 25.1291 24.3224C24.8457 24.2204 24.6304 24.0504 24.4831 23.8124C24.3471 23.5744 24.2791 23.2684 24.2791 22.8944V20.7694C24.2791 20.0101 24.5171 19.5058 24.9931 19.2564C25.4804 18.9958 26.1377 18.8654 26.9651 18.8654C27.7924 18.8654 28.4441 18.9958 28.9201 19.2564C29.3961 19.5058 29.6341 20.0101 29.6341 20.7694ZM28.3081 22.8264V20.7014C28.3081 20.2934 28.2004 20.0328 27.9851 19.9194C27.7811 19.8061 27.4411 19.7494 26.9651 19.7494C26.4777 19.7494 26.1264 19.8061 25.9111 19.9194C25.7071 20.0328 25.6051 20.2934 25.6051 20.7014V22.8264C25.6051 23.1891 25.7127 23.4271 25.9281 23.5404C26.1434 23.6424 26.4891 23.6934 26.9651 23.6934C27.4411 23.6934 27.7811 23.6424 27.9851 23.5404C28.2004 23.4271 28.3081 23.1891 28.3081 22.8264ZM34.2411 18.6784L28.7331 30.0684H27.4241L32.9321 18.6784H34.2411ZM37.2501 26.2604V28.3854C37.2501 28.7594 37.1764 29.0654 37.0291 29.3034C36.8931 29.5414 36.6834 29.7114 36.4001 29.8134C36.1281 29.9154 35.8561 29.9834 35.5841 30.0174C35.3234 30.0514 34.9891 30.0684 34.5811 30.0684C34.1731 30.0684 33.8331 30.0514 33.5611 30.0174C33.3004 29.9834 33.0284 29.9154 32.7451 29.8134C32.4617 29.7114 32.2464 29.5414 32.0991 29.3034C31.9631 29.0654 31.8951 28.7594 31.8951 28.3854V26.2604C31.8951 25.5011 32.1331 24.9968 32.6091 24.7474C33.0964 24.4868 33.7537 24.3564 34.5811 24.3564C35.4084 24.3564 36.0601 24.4868 36.5361 24.7474C37.0121 24.9968 37.2501 25.5011 37.2501 26.2604ZM35.9241 28.3174V26.1924C35.9241 25.7844 35.8164 25.5238 35.6011 25.4104C35.3971 25.2971 35.0571 25.2404 34.5811 25.2404C34.0937 25.2404 33.7424 25.2971 33.5271 25.4104C33.3231 25.5238 33.2211 25.7844 33.2211 26.1924V28.3174C33.2211 28.6801 33.3287 28.9181 33.5441 29.0314C33.7594 29.1334 34.1051 29.1844 34.5811 29.1844C35.0571 29.1844 35.3971 29.1334 35.6011 29.0314C35.8164 28.9181 35.9241 28.6801 35.9241 28.3174Z" fill="#5D798E"/>
<path d="M22.2559 6.50977C23.7723 4.99624 26.2277 4.99624 27.7441 6.50977C29.0385 7.80168 30.9001 8.34787 32.6875 7.96094C34.7816 7.50747 36.8482 8.8355 37.3057 10.9287C37.6961 12.7154 38.9668 14.1815 40.6797 14.8223C42.6863 15.573 43.7058 17.8073 42.959 19.8154C42.3217 21.5295 42.5979 23.45 43.6924 24.915C44.9748 26.6315 44.6252 29.062 42.9111 30.3477C41.4483 31.445 40.6429 33.21 40.7715 35.0342C40.9223 37.1715 39.3138 39.0277 37.1768 39.1826C35.3529 39.3148 33.7208 40.3637 32.8428 41.9678C31.8142 43.8473 29.4576 44.5396 27.5762 43.5146C25.9702 42.6397 24.0298 42.6397 22.4238 43.5146C20.5424 44.5396 18.1858 43.8473 17.1572 41.9678C16.2792 40.3637 14.6471 39.3148 12.8232 39.1826C10.6862 39.0277 9.07768 37.1715 9.22852 35.0342C9.35714 33.21 8.55174 31.445 7.08887 30.3477C5.37484 29.062 5.02522 26.6315 6.30762 24.915C7.4021 23.45 7.67835 21.5295 7.04102 19.8154C6.29418 17.8073 7.31367 15.573 9.32031 14.8223C11.0332 14.1815 12.3039 12.7154 12.6943 10.9287C13.1518 8.8355 15.2184 7.50747 17.3125 7.96094C19.0999 8.34787 20.9615 7.80168 22.2559 6.50977Z" stroke="url(#paint0_linear_2060_45463)" stroke-width="1.5"/>
<defs>
<linearGradient id="paint0_linear_2060_45463" x1="8.76476" y1="-1.70672" x2="46.9277" y2="0.863594" gradientUnits="userSpaceOnUse">
<stop stop-color="#47647A"/>
<stop offset="1" stop-color="#769CB8"/>
</linearGradient>
</defs>
</svg>
