<svg width="48" height="50" viewBox="0 0 48 50" fill="none" xmlns="http://www.w3.org/2000/svg">
<path d="M15.9645 4.47949C16.8757 4.47949 17.6148 5.21771 17.6149 6.12891C17.6149 7.04018 16.8758 7.7793 15.9645 7.7793H15.6579C13.8075 7.7793 12.5652 7.78212 11.6169 7.89551C10.7126 8.00364 10.2622 8.19464 9.9323 8.45215C9.60242 8.70971 9.30733 9.10009 8.98308 9.95117C8.64303 10.8438 8.33913 12.0485 7.8903 13.8438L4.97136 25.5186C4.59619 27.0192 4.43125 27.686 4.31902 28.3525C4.09333 29.6928 4.02248 31.0548 4.10905 32.4111C4.15212 33.0856 4.24871 33.7657 4.46745 35.2969C4.93471 38.5677 5.13541 39.8528 5.59636 40.8564C6.55962 42.9536 8.38107 44.5335 10.5934 45.1904C11.6521 45.5047 12.9529 45.5215 16.2565 45.5215H31.3659C34.6697 45.5215 35.9703 45.5048 37.029 45.1904C39.2414 44.5335 41.0628 42.9537 42.026 40.8564C42.487 39.8528 42.6877 38.5676 43.155 35.2969C43.3737 33.7658 43.4693 33.0855 43.5124 32.4111C43.5989 31.0548 43.5291 29.6927 43.3034 28.3525C43.1912 27.686 43.0253 27.0193 42.6501 25.5186L39.7321 13.8438C39.2833 12.0484 38.9784 10.8438 38.6384 9.95117C38.3142 9.10032 38.0199 8.70969 37.6901 8.45215C37.3602 8.1946 36.9098 8.00366 36.0055 7.89551C35.0571 7.78209 33.8143 7.7793 31.9635 7.7793H31.6569C30.7458 7.77907 30.0075 7.04003 30.0075 6.12891C30.0076 5.21785 30.7459 4.47972 31.6569 4.47949H31.9635C33.7339 4.47949 35.2076 4.47592 36.3971 4.61816C37.6308 4.76568 38.7405 5.08648 39.7204 5.85156C40.7002 6.6166 41.28 7.61545 41.7223 8.77637C42.1488 9.89591 42.5039 11.3264 42.9333 13.0439L45.8522 24.7178C46.2155 26.171 46.4188 26.9819 46.5573 27.8047C46.8251 29.3953 46.9091 31.0114 46.8063 32.6211C46.7532 33.4537 46.6334 34.2808 46.4216 35.7637C45.9861 38.8117 45.7356 40.6862 45.0251 42.2334C43.6649 45.1949 41.0925 47.4257 37.9684 48.3535C36.3362 48.8382 34.445 48.8213 31.3659 48.8213H16.2565C13.1774 48.8213 11.2862 48.8381 9.65398 48.3535C6.52977 47.4258 3.95757 45.195 2.59734 42.2334C1.88679 40.6862 1.6363 38.8118 1.20085 35.7637C0.989005 34.2808 0.869234 33.4537 0.816086 32.6211C0.713342 31.0114 0.79632 29.3952 1.06413 27.8047C1.20268 26.9819 1.40687 26.171 1.77019 24.7178L4.68913 13.0439C5.11852 11.3264 5.47258 9.89591 5.89909 8.77637C6.34135 7.61549 6.92135 6.61661 7.90105 5.85156C8.88095 5.08648 9.99164 4.76568 11.2253 4.61816C12.4147 4.47599 13.8879 4.47949 15.6579 4.47949H15.9645ZM22.1608 2.33789C22.1608 1.42662 22.8999 0.6875 23.8112 0.6875C24.7225 0.687509 25.4616 1.42663 25.4616 2.33789V17.376L29.8874 12.9512C30.5317 12.3068 31.576 12.3069 32.2204 12.9512C32.8647 13.5955 32.8647 14.6398 32.2204 15.2842L24.9782 22.5273C24.3338 23.1717 23.2886 23.1717 22.6442 22.5273L15.402 15.2842L15.2887 15.1592C14.76 14.5111 14.7979 13.5553 15.402 12.9512C16.0062 12.3471 16.962 12.3091 17.61 12.8379L17.735 12.9512L22.1608 17.376V2.33789Z" fill="#47647A"/>
<path d="M12.5868 35.0913H15.0344C15.5101 35.0913 15.9473 34.9904 16.3456 34.7885C16.7438 34.5867 17.0837 34.3191 17.3655 33.9861C17.6469 33.653 17.8656 33.2721 18.0211 32.843C18.1762 32.4141 18.2542 31.9725 18.2542 31.5183C18.2542 31.0846 18.1716 30.6531 18.0064 30.2238C17.8411 29.7949 17.613 29.4115 17.3216 29.0732C17.0302 28.7352 16.6829 28.4626 16.2799 28.2557C15.8766 28.0489 15.4371 27.9453 14.9614 27.9453H10.5762V38.6945H12.5867V35.0913H12.5868ZM12.5868 29.7772H14.8305C15.0055 29.7772 15.1776 29.8151 15.3478 29.8908C15.5177 29.9665 15.6659 30.08 15.792 30.2314C15.9182 30.3828 16.0202 30.5671 16.0981 30.784C16.1758 31.0013 16.2147 31.2458 16.2147 31.5183C16.2147 32.0533 16.0908 32.4774 15.843 32.79C15.5953 33.103 15.2869 33.2594 14.9179 33.2594H12.5868V29.7772Z" fill="#D4DBE1"/>
<path d="M25.8885 38.3085C26.5401 38.0511 27.0982 37.6877 27.563 37.2184C28.0276 36.7491 28.3838 36.1839 28.6314 35.5228C28.8789 34.8618 29.0027 34.1223 29.0027 33.3048C29.0027 32.5681 28.8913 31.8741 28.6694 31.2231C28.447 30.5721 28.1137 30.0043 27.6693 29.5198C27.2245 29.0354 26.6715 28.6519 26.0099 28.3692C25.3481 28.0867 24.5778 27.9453 23.6989 27.9453H19.7891V38.6945H23.6989C24.5067 38.6945 25.2368 38.5658 25.8885 38.3085ZM21.88 29.7772H23.6985C24.2036 29.7772 24.6557 29.8631 25.0548 30.0346C25.4538 30.2063 25.7898 30.4485 26.0626 30.7613C26.3352 31.0742 26.5424 31.4477 26.6839 31.8816C26.8253 32.3157 26.8961 32.79 26.8961 33.3048C26.8961 33.8095 26.8253 34.2789 26.6839 34.7128C26.5424 35.1468 26.3378 35.5228 26.0702 35.8407C25.8024 36.1586 25.469 36.4084 25.07 36.5901C24.6707 36.7718 24.2138 36.8626 23.6985 36.8626H21.88V29.7772Z" fill="#D4DBE1"/>
<path d="M32.3142 34.2434H35.9455V32.5478H32.3142V29.7772H36.6795V27.9453H30.5371V38.6945H32.3142V34.2434Z" fill="#D4DBE1"/>
</svg>
