<svg width="50" height="50" viewBox="0 0 50 50" fill="none" xmlns="http://www.w3.org/2000/svg">
<g clip-path="url(#clip0_2065_45674)">
<path d="M14.8608 15.668C15.2556 16.5427 15.8656 17.4175 17.5883 18.6203C17.983 18.8755 18.4137 19.4586 18.0907 20.2241C17.7677 20.9895 17.1576 22.1194 17.5165 22.5568C17.8754 22.9942 19.1673 23.2129 20.2439 22.7755C20.2439 22.7755 20.4592 23.468 20.854 23.869C20.854 23.869 20.6746 24.2335 20.0645 24.0512C20.0645 24.0512 20.2798 24.5979 19.9927 25.2176C19.9927 25.2176 19.275 25.1083 18.9879 24.4522C18.9879 24.4522 18.7008 24.9625 18.1266 25.1447C18.1266 25.1447 17.66 24.8895 17.7677 23.9419C17.7677 23.9419 17.4088 24.7802 16.3681 24.926C16.3681 24.926 15.758 24.1606 16.5475 23.1035C16.5475 23.1035 15.9733 23.6138 14.9326 23.3587C14.9326 23.3587 14.7532 22.8119 15.6862 22.083C15.6862 22.083 14.6455 22.0465 14.2148 21.1353C14.2148 21.1353 14.6455 20.5886 15.758 20.6979C15.758 20.6979 14.7532 20.4792 14.5378 19.24C14.5378 19.24 15.2556 18.7661 16.4399 19.5315C16.4399 19.5315 16.2246 19.1306 15.758 18.7661C15.2556 18.3652 14.6814 17.2717 14.8608 15.668Z" fill="#5D798E"/>
<path d="M19.1304 28.061C18.9868 27.8423 18.8792 27.6601 18.7715 27.4414C18.9509 28.9358 19.0227 29.9563 19.8123 30.904C19.8123 30.904 20.2788 30.248 19.9917 28.6807C19.8481 28.6442 19.7046 28.5713 19.561 28.4619C19.561 28.4619 19.7405 29.118 19.6328 29.7377C19.6328 29.7741 19.3457 29.5919 19.1304 28.061Z" fill="#5D798E"/>
<path d="M17.73 27.9139C17.6223 27.8046 17.4429 27.5494 17.3711 27.3672C17.2993 28.242 17.084 30.5382 17.8377 31.2308C17.8377 31.2308 18.3401 30.8298 18.5554 27.513C18.4477 27.6952 18.2683 27.9139 18.1607 28.0232C18.1607 28.0232 18.2683 29.0803 17.9094 29.8457C17.8736 29.8093 17.5147 29.5177 17.73 27.9139Z" fill="#5D798E"/>
<path d="M15.9361 29.6671C16.5821 28.9017 16.7615 26.5689 16.7615 26.5689C16.8332 26.496 16.9409 26.4596 17.0127 26.3867C17.0486 26.3502 17.0845 26.3138 17.1204 26.2773C17.1204 26.3502 17.1204 26.4596 17.1204 26.5325C17.0127 27.9175 16.9051 29.3755 16.5103 30.068C16.0796 30.7605 15.326 31.1251 15.326 31.1251C14.6082 29.8129 15.4695 28.0633 16.2232 26.8605C16.2949 26.8241 16.4026 26.7876 16.5103 26.7512C16.2232 27.6988 15.7567 28.7923 15.9361 29.6671Z" fill="#5D798E"/>
<path d="M14.1402 25.6574C14.1402 25.8032 14.1761 25.9125 14.1761 25.9854C14.1761 26.0218 14.1761 26.0583 14.212 26.0947C13.6019 26.7144 13.1713 27.2611 12.2741 28.5368C11.3769 29.8126 9.94141 29.849 9.94141 29.849C10.085 28.8284 10.3362 28.0266 11.1257 27.1518C11.8793 26.277 12.8483 25.4751 13.5661 24.9648C13.7455 25.0377 13.9967 25.1106 14.2838 25.0742C14.3197 25.0742 14.3197 25.0742 14.3556 25.0742C14.2479 25.1835 14.212 25.3293 14.1761 25.4387C13.6378 25.7667 12.0588 26.5686 11.4128 27.8807C11.4487 27.8443 12.4177 27.5163 14.1402 25.6574Z" fill="#5D798E"/>
<path d="M13.0277 24.3789L13.0994 24.2695C13.1354 24.2331 13.1354 24.1966 13.1712 24.1602C12.597 24.3789 10.5156 25.1807 9.8337 25.5453C9.15179 25.9097 8.18285 26.7116 7.64453 28.3518C7.64453 28.3518 9.04416 28.4976 10.1926 27.5135C11.341 26.5294 12.7047 25.1807 13.2789 24.7434C13.2071 24.6705 13.1712 24.634 13.1354 24.5976C13.1354 24.5976 11.5563 26.0191 9.90547 26.6023C9.90547 26.6023 10.2643 25.9462 10.9103 25.4724C11.7357 24.8892 12.3099 24.7069 13.0277 24.3789Z" fill="#5D798E"/>
<path d="M11.8462 23.3958C11.8821 23.3229 11.8821 23.2864 11.918 23.25C11.2362 23.3958 9.51358 23.6145 8.7599 23.8332C8.00627 24.0883 6.60666 24.6351 5.78125 26.2388C5.78125 26.2388 7.00142 26.6033 9.26235 25.5098C11.5232 24.4164 12.241 24.1977 12.7076 24.0883C12.3487 24.0518 12.0975 23.9425 11.9898 23.8696C11.0926 24.2706 9.87244 24.7808 8.65226 24.7808C8.65226 24.7808 9.26235 24.3435 9.87244 24.0883C10.5184 23.8332 11.2721 23.5416 11.8462 23.3958Z" fill="#5D798E"/>
<path d="M11.8797 22.2668C12.095 22.3761 12.2744 22.4126 12.5615 22.449C12.418 22.5584 12.2385 22.6677 12.1308 22.85C11.3413 23.0687 9.94172 23.3238 7.71669 23.5061C5.45577 23.6883 4.27148 23.2509 4.27148 23.2509C5.06101 22.7771 6.31707 22.2668 7.17838 22.0845C8.03969 21.9023 10.2647 21.9388 11.2337 21.793C11.2337 21.793 11.3772 21.9023 11.5567 22.0117C10.7313 22.0845 8.97278 22.1574 8.07555 22.6313C8.03969 22.6677 9.6905 22.9229 11.8797 22.2668Z" fill="#5D798E"/>
<path d="M11.7366 20.9556C11.8442 20.8827 11.9878 20.8098 12.1672 20.7733C11.0188 20.4088 9.43976 19.8621 7.10707 19.7163C5.38447 19.6069 4.1284 19.7163 3.48242 19.8621C3.48242 19.8621 5.06148 20.992 6.85586 21.3929C8.65022 21.7939 10.1216 21.5387 11.1982 21.5387C11.27 21.4294 11.3418 21.32 11.4854 21.1742C10.2293 21.1742 8.14781 20.8462 7.39417 20.591C7.35829 20.591 9.15267 20.1901 11.7366 20.9556Z" fill="#5D798E"/>
<path d="M11.7002 19.5689C11.7002 19.6054 11.8437 20.2614 12.5974 20.6259C10.9825 19.8969 7.82434 19.496 6.13762 18.767C3.84081 17.7829 3.41016 16.5801 3.41016 16.5801C5.38397 16.5436 6.99891 17.0175 8.25498 17.4184C9.69046 17.8558 11.9155 18.6941 12.705 19.0586C12.4179 19.0586 12.0949 19.1679 11.8437 19.3502C10.7671 18.9128 10.2647 18.767 9.29574 18.4754C8.5062 18.2567 7.93198 18.2203 7.46545 18.1474C7.46545 18.1474 8.14734 18.6212 9.25983 18.9857C10.3365 19.3502 10.803 19.3867 11.7002 19.5689Z" fill="#5D798E"/>
<path d="M11.5923 17.7862C11.664 17.8956 11.8434 18.1871 11.9153 18.2965C9.36724 17.8591 6.56799 15.9273 5.70669 14.7245C4.84539 13.5217 5.0966 11.6992 5.0966 11.6992C5.92201 11.8815 7.75229 13.4488 8.21884 13.9591C8.68538 14.4329 10.1209 15.8544 11.0898 16.6198L11.4128 17.531C10.5515 16.8385 9.58255 16.0731 8.93656 15.5993C8.47002 15.2348 7.75229 14.7245 7.03453 14.4694C7.03453 14.4694 7.68051 15.3441 8.21884 15.7815C8.82892 16.2918 9.47487 16.6927 9.97732 16.9843C10.4439 17.203 10.6592 17.3488 11.5923 17.7862Z" fill="#5D798E"/>
<path d="M18.7711 24.9986C18.8429 24.9257 18.9146 24.8528 18.9864 24.8164C19.094 24.9622 19.4888 25.4725 19.7042 25.9463C19.8477 26.3837 19.9913 26.9305 20.0989 27.2585C20.1707 27.5865 20.4219 28.279 20.5296 28.4978C20.5296 28.4978 19.9195 28.5707 19.4529 28.0239C18.9864 27.4772 18.8429 26.9669 18.7711 26.4201C18.6634 26.0192 18.6993 25.436 18.7711 24.9986Z" fill="#5D798E"/>
<path d="M17.7643 25.1094C17.872 25.2552 17.9797 25.3281 18.0155 25.3281L18.0873 25.3645L18.1591 25.3281C18.2309 25.2916 18.3027 25.2916 18.3744 25.2552C18.4462 25.5103 18.4821 25.6196 18.518 25.8383C18.5539 26.1299 18.5897 26.5673 18.4821 26.9318C18.3385 27.3692 18.0873 27.6608 17.9437 27.8431C17.9437 27.8431 17.549 27.4056 17.4413 27.0047C17.3337 26.6037 17.2619 26.1664 17.4413 25.6925C17.5131 25.4738 17.6567 25.2187 17.7643 25.1094Z" fill="#5D798E"/>
<path d="M16.403 25.147C16.8336 25.0741 17.1207 24.9284 17.3719 24.7461C17.4078 24.8919 17.5155 25.1106 17.4437 25.3657C17.3719 25.6574 17.1925 25.9489 16.9054 26.2041C16.4747 26.5321 15.9364 26.8601 15.3263 26.7508C15.2905 26.7508 15.1469 26.3134 16.403 25.147Z" fill="#5D798E"/>
<path d="M15.8999 24.3438C15.9358 24.7447 16.1511 25.0363 16.1511 25.0363C16.0076 25.2185 15.4693 26.1297 14.3926 25.984C14.3926 25.984 14.1056 25.3643 14.8233 24.8905C15.3616 24.526 15.5769 24.4895 15.8999 24.3438Z" fill="#5D798E"/>
<path d="M16.008 23.5794C15.7208 23.6523 15.3261 23.6888 14.8954 23.5794L14.7878 23.543L14.7519 23.4336C14.1777 23.9074 13.5317 23.9803 13.3164 24.3813C13.3164 24.3813 13.6035 24.8916 14.3213 24.8187C15.039 24.7457 15.5773 24.3813 15.9721 23.9074C15.9362 23.7981 15.9721 23.6888 16.008 23.5794Z" fill="#5D798E"/>
<path d="M14.7516 22.9243C14.8593 22.7785 14.931 22.5234 15.1464 22.3047C14.6799 22.2318 14.2492 22.2318 13.675 22.3047C12.9931 22.4505 12.3113 22.5963 11.9883 23.6168C11.9883 23.6168 12.4189 23.9813 13.2085 23.8355C13.8544 23.6897 14.4286 23.3981 14.7516 22.9243Z" fill="#5D798E"/>
<path d="M14.4628 21.7928C14.2834 21.647 14.1398 21.4648 14.0322 21.2096L13.9604 21.0638C13.3862 20.8087 12.7761 20.6994 12.2019 20.918C11.6277 21.1367 11.4482 21.3919 11.3047 21.6106C11.3047 21.6106 11.9507 22.1573 12.7043 22.1938C13.4939 22.2667 14.1757 22.048 14.4628 21.7928Z" fill="#5D798E"/>
<path d="M14.6422 20.5878C14.7499 20.5514 14.8576 20.5149 14.9652 20.4785C14.714 20.2598 14.4628 19.8952 14.3192 19.385C14.068 19.4579 13.4221 19.4579 13.1349 19.3485C12.8479 19.2392 12.3095 19.2392 11.8789 19.5308C11.8789 19.5308 12.0224 20.2962 12.9914 20.5514C13.9604 20.8065 14.2833 20.7336 14.6422 20.5878Z" fill="#5D798E"/>
<path d="M14.3195 19.1309L14.463 19.058C14.463 19.058 14.6783 18.9122 15.0731 18.8758C14.7501 18.6571 14.0324 18.001 13.4941 17.7094C12.9199 17.3814 11.9868 16.944 11.4844 16.8711C11.4844 16.8711 11.9509 18.0739 12.4533 18.5477C12.9916 19.0945 13.3505 19.2767 14.3195 19.1309Z" fill="#5D798E"/>
<path d="M15.2891 18.5875C15.0737 18.2959 14.8584 17.8585 14.7507 17.3846C14.6431 16.9837 14.3918 15.9631 14.2483 15.708C14.1047 15.4528 13.5664 14.5416 12.5257 14.25C12.5257 14.25 12.2386 15.4164 12.7769 16.364C13.2076 17.1659 14.1407 18.0043 15.2891 18.5875Z" fill="#5D798E"/>
<path d="M21.0686 24.0885C21.2121 24.2343 21.2839 24.3072 21.5351 24.4166C21.5351 24.4166 21.8581 25.0726 21.4633 25.838C21.0686 26.6035 20.7097 27.4054 20.5661 27.8428C20.5661 27.8428 20.3508 27.8063 20.0996 26.6035C19.9202 25.7651 19.7407 25.5829 19.5254 25.2913C19.7407 25.4007 19.956 25.4371 19.956 25.4371L20.1355 25.4736L20.2072 25.3278C20.3508 25.0362 20.3867 24.781 20.3867 24.5624C20.3867 24.4895 20.3867 24.4166 20.3867 24.3437C20.7456 24.3437 20.9609 24.1614 21.0327 24.052C21.0327 24.052 21.0327 24.052 21.0327 24.0156L21.0686 24.0885Z" fill="#5D798E"/>
<path d="M12.2052 14.7197C12.2052 14.8291 12.2052 14.9749 12.2052 15.0842L12.241 15.3758C11.6309 14.5739 10.8773 13.6262 10.1954 12.715C9.7289 12.0954 9.29826 11.7309 8.86758 11.4393C9.26235 12.5692 9.94421 13.444 10.4108 13.9178C10.8773 14.3552 11.5951 15.1207 12.2769 15.5945L12.3487 15.8132C12.3846 16.0319 12.4922 16.2505 12.5999 16.4328C12.7435 16.7244 12.9588 16.9795 13.21 17.2711C12.9946 17.1618 12.7793 17.0524 12.564 16.9795L12.3487 16.9066C10.4825 15.8861 8.61636 13.8085 7.86273 12.3505C7.1091 10.8926 7.43209 9.21591 7.61153 8.30469C8.47281 9.03367 9.69299 10.4916 10.2313 11.2571C10.8414 12.2412 11.7027 13.5898 12.2052 14.7197Z" fill="#5D798E"/>
<path d="M38.5088 20.9556C38.4011 20.8827 38.2576 20.8098 38.0781 20.7733C39.2265 20.4088 40.8056 19.8621 43.1383 19.7163C44.8609 19.6069 46.117 19.7163 46.7629 19.8621C46.7629 19.8621 45.1839 20.992 43.3895 21.3929C41.5951 21.7939 40.1237 21.5387 39.0471 21.5387C38.9753 21.4294 38.9036 21.32 38.76 21.1742C40.0161 21.1742 42.0975 20.8462 42.8512 20.591C42.8871 20.591 41.0568 20.1901 38.5088 20.9556Z" fill="#5D798E"/>
<path d="M38.5088 19.5689C38.5088 19.6054 38.3652 20.2614 37.6116 20.6259C39.2265 19.8969 42.3846 19.496 44.0714 18.767C46.3682 17.7829 46.7988 16.5801 46.7988 16.5801C44.825 16.5436 43.21 17.0175 41.954 17.4184C40.5185 17.8558 38.2934 18.6941 37.5039 19.0586C37.791 19.0586 38.114 19.1679 38.3652 19.3502C39.4418 18.9128 39.9443 18.767 40.9132 18.4754C41.7027 18.2567 42.277 18.2203 42.7435 18.1474C42.7435 18.1474 42.0616 18.6212 40.9491 18.9857C39.8725 19.3502 39.4059 19.3867 38.5088 19.5689Z" fill="#5D798E"/>
<path d="M38.6179 17.7862C38.5461 17.8956 38.3667 18.1871 38.2949 18.2965C40.8429 17.8591 43.6422 15.9273 44.5035 14.7245C45.3648 13.5217 45.1136 11.6992 45.1136 11.6992C44.2881 11.8815 42.4579 13.4488 41.9913 13.9591C41.5248 14.4329 40.0893 15.8544 39.1204 16.6198L38.7974 17.531C39.6587 16.8385 40.6276 16.0731 41.2736 15.5993C41.7402 15.2348 42.4579 14.7245 43.1757 14.4693C43.1757 14.4693 42.5297 15.3441 41.9913 15.7815C41.3813 16.2918 40.7712 16.6927 40.2329 16.9843C39.8022 17.203 39.551 17.3488 38.6179 17.7862Z" fill="#5D798E"/>
<path d="M38.0068 14.7197C38.0068 14.8291 38.0068 14.9749 38.0068 15.0842L37.9709 15.3758C38.581 14.5739 39.3347 13.6262 40.0165 12.715C40.4831 12.0954 40.9137 11.7309 41.3444 11.4393C40.9496 12.5692 40.2677 13.444 39.8012 13.9178C39.3347 14.3552 38.6169 15.1207 37.935 15.5945L37.8633 15.8132C37.8274 16.0319 37.7197 16.2505 37.612 16.4328C37.4685 16.7244 37.2532 16.9795 37.002 17.2711C37.2173 17.1618 37.4326 17.0524 37.6479 16.9795L37.8633 16.9066C39.7294 15.8861 41.5956 13.8085 42.3492 12.3505C43.1029 10.8926 42.7799 9.21591 42.6004 8.30469C41.7391 9.03367 40.5189 10.4916 39.9806 11.2571C39.3705 12.2412 38.5451 13.5898 38.0068 14.7197Z" fill="#5D798E"/>
<path d="M14.6078 26.2409C13.8183 27.0428 12.2033 28.7923 12.3469 30.6876C12.3469 30.6876 13.8541 30.2138 14.5001 29.0839C15.1102 27.954 15.505 27.2614 15.7562 27.0063C15.5767 27.0428 15.4332 27.0428 15.2537 27.0063L15.1102 26.9699C14.7154 27.6624 13.9618 28.8287 13.2799 29.2661C13.2799 29.2661 13.1005 28.3184 15.1102 26.4231C15.1461 26.3502 15.182 26.2409 15.2179 26.168C15.0743 26.2044 14.859 26.2409 14.6078 26.2409Z" fill="#5D798E"/>
<path d="M35.3506 15.668C34.9559 16.5428 34.3458 17.4175 32.6232 18.6203C32.2284 18.8755 31.7978 19.4587 32.1208 20.2241C32.4438 20.9895 33.0538 22.1195 32.6949 22.5568C32.3361 22.9942 31.0441 23.2129 29.9675 22.7755C29.9675 22.7755 29.7522 23.4681 29.3574 23.869C29.3574 23.869 29.5368 24.2335 30.147 24.0513C30.147 24.0513 29.9316 24.598 30.2187 25.2176C30.2187 25.2176 30.9365 25.1083 31.2236 24.4522C31.2236 24.4522 31.5107 24.9625 32.0849 25.1447C32.0849 25.1447 32.5514 24.8896 32.4438 23.9419C32.4438 23.9419 32.8026 24.7803 33.8433 24.926C33.8433 24.926 34.4534 24.1606 33.6639 23.1036C33.6639 23.1036 34.2381 23.6138 35.2789 23.3587C35.2789 23.3587 35.4583 22.812 34.5252 22.083C34.5252 22.083 35.566 22.0466 35.9966 21.1353C35.9966 21.1353 35.566 20.5886 34.4534 20.698C34.4534 20.698 35.4583 20.4793 35.6736 19.24C35.6736 19.24 34.9559 18.7662 33.8075 19.5316C33.8075 19.5316 34.0228 19.1306 34.4893 18.7662C34.9559 18.3652 35.566 17.2718 35.3506 15.668Z" fill="#5D798E"/>
<path d="M31.1148 28.061C31.2584 27.8424 31.3661 27.6601 31.4737 27.4414C31.2943 28.9358 31.2225 29.9564 30.433 30.9041C30.433 30.9041 29.9664 30.248 30.2535 28.6807C30.3971 28.6442 30.5407 28.5713 30.6842 28.462C30.6842 28.462 30.5048 29.1181 30.6124 29.7377C30.6124 29.7741 30.8995 29.5919 31.1148 28.061Z" fill="#5D798E"/>
<path d="M32.4817 27.9139C32.5893 27.8046 32.7688 27.5494 32.8406 27.3672C32.9123 28.2419 33.1276 30.5382 32.374 31.2308C32.374 31.2308 31.8716 30.8298 31.6562 27.513C31.7639 27.6952 31.9434 27.9139 32.051 28.0232C32.051 28.0232 31.9434 29.0803 32.3022 29.8457C32.3381 29.8092 32.7329 29.5177 32.4817 27.9139Z" fill="#5D798E"/>
<path d="M34.2742 29.6632C33.6282 28.8977 33.4488 26.565 33.4488 26.565C33.377 26.4921 33.2693 26.4556 33.1975 26.3828C33.1617 26.3463 33.1258 26.3099 33.0898 26.2734C33.0898 26.3463 33.0898 26.4557 33.0898 26.5286C33.1975 27.9136 33.3052 29.3716 33.6999 30.0641C34.1306 30.7566 34.8842 31.1212 34.8842 31.1212C35.602 29.809 34.7407 28.0594 33.9871 26.8566C33.8794 26.8202 33.8076 26.7837 33.6999 26.7473C33.9871 27.695 34.4895 28.7884 34.2742 29.6632Z" fill="#5D798E"/>
<path d="M36.0708 25.6535C36.0708 25.7993 36.0349 25.9086 36.0349 25.9815C36.0349 26.0179 36.0349 26.0544 35.999 26.0909C36.6091 26.7105 37.0397 27.2572 37.937 28.5329C38.8341 29.8087 40.2696 29.8451 40.2696 29.8451C40.1261 28.8246 39.8748 28.0227 39.0854 27.1479C38.3317 26.2731 37.3627 25.4712 36.645 24.9609C36.4656 25.0338 36.2143 25.1067 35.9272 25.0703C35.8913 25.0703 35.8913 25.0703 35.8555 25.0703C35.9631 25.1796 35.999 25.3254 36.0349 25.4348C36.5732 25.7628 38.1523 26.5647 38.7982 27.8769C38.7982 27.8404 37.7934 27.5124 36.0708 25.6535Z" fill="#5D798E"/>
<path d="M37.218 24.3788L37.1462 24.2695C37.1104 24.2331 37.1104 24.1966 37.0745 24.1602C37.6487 24.3788 39.7301 25.1807 40.412 25.5452C41.0939 25.9097 42.0628 26.7116 42.6012 28.3518C42.6012 28.3518 41.2015 28.4976 40.0531 27.5135C38.9047 26.5293 37.541 25.1807 36.9668 24.7433C37.0386 24.6704 37.0745 24.634 37.1104 24.5975C37.1104 24.5975 38.6894 26.019 40.3403 26.6022C40.3403 26.6022 39.9814 25.9462 39.3354 25.4723C38.51 24.8891 37.8999 24.7069 37.218 24.3788Z" fill="#5D798E"/>
<path d="M38.4036 23.3958C38.3677 23.3229 38.3677 23.2864 38.3318 23.25C39.0137 23.3958 40.7362 23.6145 41.4899 23.8332C42.2435 24.0883 43.6431 24.6351 44.4686 26.2388C44.4686 26.2388 43.2484 26.6033 40.9875 25.5098C38.7265 24.4164 38.0088 24.1977 37.5781 24.0883C37.937 24.0519 38.1882 23.9425 38.2959 23.8696C39.1931 24.2706 40.4132 24.7808 41.6335 24.7808C41.6335 24.7808 41.0233 24.3435 40.4132 24.0883C39.6955 23.8332 38.9419 23.5416 38.4036 23.3958Z" fill="#5D798E"/>
<path d="M38.3303 22.2668C38.115 22.3761 37.9355 22.4126 37.6484 22.449C37.792 22.5584 37.9714 22.6678 38.0791 22.85C38.8686 23.0687 40.2323 23.3238 42.4933 23.5061C44.7542 23.6883 45.9385 23.2509 45.9385 23.2509C45.1489 22.7771 43.8928 22.2668 43.0316 22.0845C42.1703 21.9023 39.9452 21.9388 38.9762 21.793C38.9762 21.793 38.8327 21.9023 38.6533 22.0117C39.4787 22.0845 41.2372 22.1574 42.1344 22.6313C42.2061 22.6678 40.5194 22.9229 38.3303 22.2668Z" fill="#5D798E"/>
<path d="M31.474 24.9986C31.4023 24.9257 31.3305 24.8528 31.2587 24.8164C31.151 24.9622 30.7563 25.4725 30.541 25.9463C30.3974 26.3837 30.2539 26.9305 30.1462 27.2585C30.0745 27.5865 29.8232 28.279 29.6797 28.4977C29.6797 28.4977 30.2898 28.5707 30.7563 28.0239C31.2229 27.4772 31.3664 26.9669 31.4382 26.4201C31.5458 26.0192 31.5099 25.436 31.474 24.9986Z" fill="#5D798E"/>
<path d="M32.4419 25.1094C32.3342 25.2552 32.2265 25.3281 32.1907 25.3281L32.1189 25.3645L32.0471 25.3281C31.9754 25.2916 31.9035 25.2916 31.8318 25.2552C31.76 25.5103 31.7241 25.6196 31.6882 25.8383C31.6524 26.1299 31.6164 26.5673 31.7241 26.9318C31.8677 27.3692 32.1189 27.6608 32.2624 27.8431C32.2624 27.8431 32.6572 27.4056 32.8008 27.0047C32.9084 26.6038 32.9802 26.1664 32.8008 25.6925C32.6931 25.4738 32.5495 25.2187 32.4419 25.1094Z" fill="#5D798E"/>
<path d="M33.8442 25.147C33.4135 25.0741 33.1264 24.9284 32.8752 24.7461C32.8393 24.8919 32.7317 25.1106 32.8034 25.3657C32.8752 25.6574 33.0547 25.9489 33.3418 26.2041C33.7724 26.5321 34.3107 26.8601 34.9208 26.7508C34.9208 26.7508 35.0643 26.3134 33.8442 25.147Z" fill="#5D798E"/>
<path d="M34.3098 24.3438C34.2739 24.7447 34.0586 25.0363 34.0586 25.0363C34.2021 25.2185 34.7405 26.1298 35.8171 25.984C35.8171 25.984 36.1042 25.3643 35.3864 24.8905C34.884 24.526 34.6328 24.4896 34.3098 24.3438Z" fill="#5D798E"/>
<path d="M34.2031 23.5755C34.4902 23.6484 34.885 23.6848 35.3157 23.5755L35.4233 23.5391L35.4592 23.4297C36.0334 23.9035 36.6794 23.9764 36.8947 24.3774C36.8947 24.3774 36.6076 24.8876 35.8898 24.8147C35.1721 24.7418 34.6338 24.3774 34.239 23.9035C34.2749 23.7942 34.239 23.6848 34.2031 23.5755Z" fill="#5D798E"/>
<path d="M35.4573 22.9243C35.3496 22.7785 35.2778 22.5234 35.0625 22.3047C35.529 22.2318 35.9597 22.2318 36.5339 22.3047C37.2158 22.4505 37.8976 22.5963 38.2206 23.6168C38.2206 23.6168 37.7899 23.9813 37.0004 23.8356C36.3544 23.6898 35.7803 23.3981 35.4573 22.9243Z" fill="#5D798E"/>
<path d="M35.7461 21.7928C35.9255 21.647 36.0691 21.4648 36.1768 21.2096L36.2485 21.0638C36.8227 20.8087 37.4328 20.6994 38.007 20.918C38.5813 21.1367 38.7607 21.3919 38.9042 21.6106C38.9042 21.6106 38.2583 22.1573 37.5046 22.1938C36.751 22.2667 36.0332 22.0479 35.7461 21.7928Z" fill="#5D798E"/>
<path d="M35.5671 20.5878C35.4595 20.5514 35.3518 20.5149 35.2441 20.4784C35.4954 20.2598 35.7466 19.8953 35.8901 19.385C36.1413 19.4579 36.7873 19.4579 37.0744 19.3485C37.3615 19.2392 37.8998 19.2392 38.3305 19.5308C38.3305 19.5308 38.1869 20.2962 37.2179 20.5513C36.2849 20.8065 35.926 20.7336 35.5671 20.5878Z" fill="#5D798E"/>
<path d="M35.9255 19.1309L35.782 19.058C35.782 19.058 35.5307 18.9122 35.1719 18.8758C35.4948 18.6571 36.2126 18.001 36.7509 17.7094C37.3251 17.3814 38.2582 16.944 38.7606 16.8711C38.7606 16.8711 38.2941 18.0739 37.7916 18.5477C37.2533 19.0945 36.8586 19.2767 35.9255 19.1309Z" fill="#5D798E"/>
<path d="M34.9551 18.5836C35.1704 18.292 35.3858 17.8546 35.4934 17.3807C35.6011 16.9798 35.8523 15.9592 35.9958 15.7041C36.1394 15.4489 36.6777 14.5377 37.7184 14.2461C37.7184 14.2461 38.0056 15.4125 37.4672 16.3601C37.0007 17.162 36.1035 18.0003 34.9551 18.5836Z" fill="#5D798E"/>
<path d="M29.1788 24.0885C29.0353 24.2343 28.9635 24.3072 28.7123 24.4166C28.7123 24.4166 28.3894 25.0726 28.7841 25.8381C29.1788 26.6035 29.5378 27.4054 29.6813 27.8428C29.6813 27.8428 29.8966 27.8063 30.1478 26.6035C30.3272 25.7652 30.5067 25.5829 30.722 25.2914C30.5067 25.4007 30.2914 25.4371 30.2914 25.4371L30.1478 25.4736L30.0761 25.3278C29.9325 25.0362 29.8966 24.781 29.8966 24.5624C29.8966 24.4895 29.8966 24.4166 29.8966 24.3437C29.5378 24.3437 29.3224 24.1614 29.2506 24.0521C29.2506 24.0521 29.2506 24.052 29.2506 24.0156L29.1788 24.0885Z" fill="#5D798E"/>
<path d="M35.6015 26.237C36.3911 27.0388 38.006 28.7884 37.8625 30.6837C37.8625 30.6837 36.3552 30.2099 35.7092 29.08C35.0991 27.9501 34.7044 27.2575 34.4531 27.0024C34.6326 27.0388 34.7761 27.0388 34.9555 27.0024L35.0991 26.966C35.4938 27.6585 36.2475 28.8248 36.9294 29.2622C36.9294 29.2622 37.1088 28.3145 35.0991 26.4192C35.0632 26.3463 35.0273 26.237 34.9914 26.1641C35.135 26.2005 35.3503 26.237 35.6015 26.237Z" fill="#5D798E"/>
<path d="M23.9375 11.0012C23.9375 10.8554 24.4758 10.7461 25.1218 10.7461C25.7678 10.7461 26.3061 10.8554 26.3061 11.0012C26.3061 11.147 25.7678 11.2564 25.1218 11.2564C24.4758 11.2564 23.9375 11.147 23.9375 11.0012Z" fill="#5D798E"/>
<path d="M19.9199 12.388C19.9199 12.3151 20.2429 12.2422 20.6736 12.2422C21.1042 12.2422 21.4272 12.3151 21.4272 12.388C21.4272 12.4609 21.1042 12.5338 20.6736 12.5338C20.2429 12.5338 19.9199 12.4609 19.9199 12.388Z" fill="#5D798E"/>
<path d="M25.3376 11.5508C25.3376 11.6966 25.23 11.7694 25.1223 11.7694C24.9787 11.7694 24.8711 11.6601 24.8711 11.5508C24.8711 11.4049 24.9787 11.332 25.1223 11.332C25.23 11.332 25.3376 11.4414 25.3376 11.5508Z" fill="#5D798E"/>
<path d="M23.8295 10.7468C23.4348 9.79915 23.1836 9.10662 23.1836 8.85148C23.1836 8.70568 23.363 8.59634 23.5065 8.55988C23.6501 8.52344 23.7937 8.48699 23.9013 8.59634C24.1166 8.74213 24.2961 10.0543 24.3679 10.5646C24.1885 10.601 24.0808 10.6375 23.8295 10.7468Z" fill="#5D798E"/>
<path d="M24.5486 10.5293C24.6563 10.5293 24.7639 10.5293 24.8716 10.4929C24.7998 9.9826 24.6203 9.14428 24.5486 8.77979C24.4409 8.45175 24.3333 8.1966 24.082 8.16016C24.082 8.16016 24.2615 8.63399 24.3333 9.10783C24.4409 9.61811 24.5127 10.092 24.5486 10.5293Z" fill="#5D798E"/>
<path d="M23.9736 12.2055C23.3635 12.57 22.6816 12.4971 22.6816 12.4971C22.8252 12.2419 22.9329 12.0233 23.3276 11.7681C23.7224 11.4765 24.3325 11.44 24.5478 11.4765C24.5119 11.6223 24.2607 12.0233 23.9736 12.2055ZM23.3276 12.2419C23.7583 12.1326 24.1889 11.6588 24.1889 11.6588C23.507 11.7681 23.3276 12.2419 23.3276 12.2419Z" fill="#5D798E"/>
<path d="M19.7402 12.5716C19.7402 12.5716 20.4939 12.8632 21.2475 12.8267C22.0011 12.7903 23.4007 12.7538 23.8314 12.5352C23.8314 12.5352 23.7597 12.8267 23.4007 12.9726C23.4007 12.9726 23.5802 12.9726 23.7597 13.1548C23.7597 13.1548 23.652 13.3735 23.329 13.5193C23.329 13.5193 23.9032 14.1389 24.5133 14.066C24.5133 14.066 24.2262 14.4305 23.6161 14.2847C23.006 14.1389 22.7907 13.7744 22.683 13.6651C22.683 13.6651 22.7548 13.9931 22.7189 14.1389C22.7189 14.1389 22.4318 14.1389 22.2165 13.8473C22.2165 13.8473 22.36 14.1389 22.3959 14.3576C22.3959 14.3576 22.2165 14.394 21.9294 14.1754C21.9294 14.1754 22.0012 14.3576 22.0012 14.5398C22.0012 14.5398 21.2834 14.3212 20.9245 13.9567C20.9245 13.9567 20.9245 14.1754 20.9245 14.3212C20.9604 14.3576 19.812 14.2483 19.7402 12.5716ZM21.714 13.2277V13.1913C21.1039 13.2642 20.4221 13.2277 20.4221 13.2277C20.458 13.4464 20.5656 13.6286 20.7092 13.738C20.7451 13.2277 21.714 13.2277 21.714 13.2277Z" fill="#5D798E"/>
<path d="M19.5603 12.6792C19.5962 13.0437 19.6679 13.4082 19.8115 13.6634C19.8115 13.6634 19.3808 13.3353 19.2732 13.0437C19.1655 12.7521 19.1296 12.5334 19.5603 12.6792Z" fill="#5D798E"/>
<path d="M19.7756 13.8473C20.0627 13.9931 20.3498 14.3212 20.3498 14.3212C19.8833 14.4305 19.7039 14.5398 19.7039 14.5398C18.8426 13.9202 18.1248 14.5398 18.1248 14.5398C17.6582 14.2847 17.5506 13.6286 17.8018 13.2641C18.0172 12.9361 18.5555 12.9725 18.8066 13.0454C18.9502 13.5557 19.4885 13.7015 19.7756 13.8473ZM18.6631 14.066C18.7708 14.066 18.8426 13.9931 18.8426 13.8837C18.8426 13.7744 18.7708 13.7015 18.6631 13.7015C18.5555 13.7015 18.4837 13.7744 18.4837 13.8837C18.4837 13.9566 18.5913 14.066 18.6631 14.066Z" fill="#5D798E"/>
<path d="M20.422 14.3945C20.422 14.3945 20.745 14.8319 20.9603 15.0142C20.9603 15.0142 19.8119 15.0142 19.5248 16.0347C19.5248 16.0347 19.13 15.4151 19.4171 15.0142C19.7042 14.5767 19.9913 14.5038 20.422 14.3945Z" fill="#5D798E"/>
<path d="M21.6758 14.6471C21.6758 14.6471 22.0347 14.7565 22.1782 14.7929C22.1782 14.7929 22.1782 14.5742 22.1782 14.4648C22.2859 14.5013 22.4294 14.5377 22.5371 14.5377C22.5371 14.5377 22.896 15.3761 23.219 15.7406C23.219 15.7406 23.219 15.9228 23.0754 16.2144C23.0754 16.2144 22.8601 15.7042 22.5012 15.3032C22.2859 15.0845 22.1423 14.9752 21.6758 14.6471Z" fill="#5D798E"/>
<path d="M20.707 14.4648C20.8147 14.5013 21.4248 14.6836 21.7119 14.9023C22.0708 15.1574 22.322 15.4854 22.2861 15.9957C22.2861 15.9957 21.999 15.5948 21.676 15.4125C21.4248 15.2667 20.9583 14.8294 20.707 14.4648Z" fill="#5D798E"/>
<path d="M20.7073 10.6406C20.815 10.6406 21.0303 10.6771 21.0303 10.8593C21.0303 11.0416 20.7432 11.479 20.6714 11.6612C20.5996 11.479 20.3125 11.0416 20.3125 10.8593C20.3125 10.6771 20.5278 10.6406 20.6355 10.6406H20.7073Z" fill="#5D798E"/>
<path d="M20.4584 12.0622C20.4225 11.807 20.3149 11.151 20.1354 11.0052C19.9919 10.8594 19.7766 10.8594 19.6689 10.8594C19.5612 10.8594 19.4536 10.9687 19.4895 11.1145C19.5254 11.2603 20.0278 11.9893 20.0637 12.0986C20.2072 12.0622 20.2072 12.0986 20.4584 12.0622Z" fill="#5D798E"/>
<path d="M20.8867 12.0622C20.9226 11.807 21.0303 11.151 21.2097 11.0052C21.3533 10.8594 21.5686 10.8594 21.6763 10.8594C21.7839 10.8594 21.8916 10.9687 21.8557 11.1145C21.8198 11.2603 21.3174 11.9893 21.2815 12.0986C21.1379 12.0622 21.1738 12.0986 20.8867 12.0622Z" fill="#5D798E"/>
<path d="M21.2107 9.76422H20.8159V9.36328H20.5288V9.76422H20.1699V10.0194H20.5288V10.5297H20.8159V10.0194H21.2107V9.76422Z" fill="#5D798E"/>
<path d="M16.6887 12.4608C16.6887 12.3878 16.6887 12.3149 16.6887 12.2056C16.7246 11.9869 16.7246 11.8411 16.6887 11.6953C16.4375 11.8047 16.2221 11.8776 15.8633 12.4608C15.8992 12.4972 16.4734 12.1327 16.6887 12.4608Z" fill="#5D798E"/>
<path d="M17.1912 13.4484C17.1912 13.3026 17.2989 12.8287 17.4066 12.5007C17.5501 12.0997 17.4783 11.4801 17.2989 11.1156C17.1194 10.7511 17.0118 10.4231 17.0476 10.0586C17.0476 10.0586 16.6888 10.1679 16.5093 10.3137C16.4735 10.7511 16.7247 11.1521 16.8323 11.4072C16.9759 11.6988 16.94 12.0633 16.9041 12.282C16.8682 12.6465 16.94 13.0474 17.1912 13.4484Z" fill="#5D798E"/>
<path d="M17.2285 10.2371C17.2285 10.2007 17.2285 10.0549 17.2285 10.0184C17.2285 10.0184 17.7668 9.47167 18.2334 9.39877C18.5205 9.32588 18.6999 9.47167 18.8076 9.54457C18.8076 9.54457 18.6281 9.50812 18.4128 9.72682C18.1616 9.94551 17.8745 10.1642 17.6233 10.2371C17.408 10.2371 17.3362 10.2371 17.2285 10.2371Z" fill="#5D798E"/>
<path d="M18.8784 9.54688C19.0937 9.76557 19.2732 9.98426 19.2732 10.1665C19.2732 10.3488 19.0579 10.859 18.9143 11.0413C18.8066 11.2235 18.6272 11.4787 18.6272 11.7702C18.6272 11.916 18.7349 12.0619 18.8784 12.2077C18.8784 12.2077 18.1966 12.0619 18.1248 11.6245C18.053 11.26 18.1966 10.9684 18.3042 10.7861C18.4119 10.6039 18.699 10.1301 18.8066 9.94781C18.8426 9.76557 18.8784 9.61977 18.8784 9.54688Z" fill="#5D798E"/>
<path d="M22.7891 14.3203C22.9326 14.7942 23.1479 15.268 23.3632 15.6325C23.5786 15.9605 23.6862 16.4708 23.6862 16.653C23.6862 16.653 23.9733 15.9605 23.8298 15.4867C23.7221 15.0857 23.3991 14.539 22.7891 14.3203Z" fill="#5D798E"/>
<path d="M23.543 14.4648C23.543 14.4648 24.0095 14.4648 24.2248 14.6107C24.512 14.7929 24.7631 15.1938 24.8708 15.7042C24.8708 15.7042 24.4043 15.6312 24.189 15.3761C23.9377 15.1574 23.6865 14.7929 23.543 14.4648Z" fill="#5D798E"/>
<path d="M21.1748 15.3047C21.103 15.3047 20.8518 15.3776 20.7441 15.414C20.7441 15.414 21.1389 15.5234 21.3183 15.7056C21.4978 15.8514 21.6413 16.0701 21.7131 16.4346C21.8208 16.9449 22.1079 17.4916 22.1796 17.6738H22.2155C22.1438 17.3094 22.3949 16.5804 22.4309 16.5075C22.4309 16.5075 22.1079 16.3253 21.9643 16.1065C21.8566 15.8878 21.6772 15.6327 21.1748 15.3047Z" fill="#5D798E"/>
<path d="M23.2203 16.3984C23.328 16.6536 23.651 17.1274 23.5074 17.6377C23.3639 18.148 23.0409 18.3302 22.8614 18.7676C22.8614 18.7676 22.7179 18.0022 22.7538 17.419C22.7538 16.8358 22.9691 16.6171 23.2203 16.3984Z" fill="#5D798E"/>
<path d="M24.1159 16.4336C24.1159 16.4336 24.5825 17.3448 24.6543 17.7093C24.7261 18.0738 24.6543 18.2925 24.5107 18.5112C24.3672 18.7299 24.0801 18.9486 23.8289 19.386C23.8289 19.386 23.5418 19.0215 23.5059 18.8027C23.47 18.6205 23.5418 18.1102 23.5776 17.928C23.6495 17.7093 23.9006 17.0896 24.1159 16.4336Z" fill="#5D798E"/>
<path d="M24.3341 19.3164C24.2265 19.4258 23.6882 20.0818 23.6164 20.2641C23.5447 20.4463 23.437 20.8108 23.5805 21.066C23.76 21.3211 24.1188 21.722 24.4777 21.9043C24.4777 21.9043 24.1188 21.3211 24.1547 20.8472C24.1906 20.5557 24.406 20.2641 24.4418 20.0818C24.5136 19.8996 24.4777 19.608 24.3341 19.3164Z" fill="#5D798E"/>
<path d="M23.2925 18.9492C23.3642 19.0586 23.5078 19.3502 23.5437 19.6053C23.5795 19.8604 23.5078 20.0792 23.3642 20.4801C23.1848 20.9904 22.8977 21.5371 22.7541 21.7923C22.7541 21.7923 22.5029 21.4277 22.3594 21.0997C22.3594 21.0997 22.7541 20.553 22.9336 20.1521C23.1131 19.7511 23.2207 19.3137 23.2925 18.9492Z" fill="#5D798E"/>
<path d="M23.1137 18.7305C23.1137 18.7305 22.9342 20.0062 22.1806 20.9903C21.6782 21.6464 21.2475 21.8651 20.9963 21.8651C20.6016 21.8651 20.1709 21.5006 20.0273 21.1361C19.8838 20.7352 19.9196 20.1156 20.2068 19.8968C20.2068 19.8968 20.458 20.6623 20.9604 20.6987C21.5705 20.7352 22.3241 20.0426 23.1137 18.7305Z" fill="#5D798E"/>
<path d="M22.5029 18.2188C22.5747 18.4374 22.5747 18.802 22.5029 19.13C22.4311 19.3851 22.2875 19.7132 22.0005 19.8954C21.7492 20.0412 21.1391 20.0776 20.9238 19.5309C20.9238 19.5309 22.0005 19.6038 22.5029 18.2188Z" fill="#5D798E"/>
<path d="M24.2626 23.3945C24.4061 23.7955 24.9444 24.2693 24.9444 24.5609C24.9444 25.3628 24.5856 25.8366 24.5138 26.1282C24.5138 26.1282 23.8678 25.6179 23.7601 25.0347C23.7242 24.7432 23.7601 23.8319 24.2626 23.3945Z" fill="#5D798E"/>
<path d="M23.5799 23.9811C23.6516 23.7624 23.9029 23.2156 24.1541 22.9969C24.1541 22.9969 24.5129 21.9764 23.4004 21.3203C23.4004 21.3203 22.9339 21.9399 22.8262 22.5231C22.6827 23.1063 23.2928 23.4344 23.5799 23.9811Z" fill="#5D798E"/>
<path d="M22.1795 21.3555C22 21.5742 21.7488 21.8657 21.5694 21.9751C21.5694 21.9751 21.4976 22.4489 21.5335 22.7405C21.6053 23.1779 21.8924 23.6517 22 23.9798C22 23.9798 22.4666 23.3237 22.5383 22.9592C22.6101 22.5947 22.5742 22.2667 22.6101 22.0844C22.6101 22.1209 22.323 21.6835 22.1795 21.3555Z" fill="#5D798E"/>
<path d="M20.8887 23.579C20.7451 23.3603 20.3145 22.5949 20.3145 22.0117C20.3145 22.0117 20.8528 22.3033 21.3193 22.0846C21.3193 22.0846 21.3911 22.8136 21.2834 23.0687C21.2117 23.2874 21.1399 23.3968 20.8887 23.579Z" fill="#5D798E"/>
<path d="M21.0312 23.7252C21.103 23.6523 21.3542 23.4336 21.426 23.3242C21.426 23.3242 21.7849 23.9803 21.8567 24.199C21.8567 24.199 21.6772 24.2354 21.4619 24.0896C21.2824 23.9803 21.2107 23.9438 21.0312 23.7252Z" fill="#5D798E"/>
<path d="M22.7178 23.3242C22.6819 23.5065 22.0718 24.3083 22 24.4177C22 24.4177 22.0359 24.7093 22.2512 25.1467C22.4665 25.5841 22.7537 25.8756 22.9331 26.0214C22.9331 26.0214 23.2919 25.3654 23.3996 25.1102C23.5073 24.7822 23.5073 24.4541 23.4714 24.3448C23.3279 24.0896 22.8972 23.6887 22.7178 23.3242Z" fill="#5D798E"/>
<path d="M23.5791 25.5117C23.7227 25.7668 24.0816 26.2042 24.1533 26.5687C24.1892 26.8239 24.1533 27.079 24.0816 27.2612C24.0098 27.4435 23.7586 27.808 23.615 28.0996C23.615 28.0996 23.0767 27.5893 22.969 27.2248C22.8972 26.9332 22.8972 26.5687 23.0408 26.3136C23.1844 26.022 23.4715 25.7668 23.5791 25.5117Z" fill="#5D798E"/>
<path d="M22.0733 25.4375C22.2168 25.7291 22.5398 26.0571 22.6116 26.3122C22.6834 26.6403 22.7193 26.8225 22.5758 27.187C22.4322 27.5151 22.2887 27.6973 22.2169 27.916C22.2169 27.916 21.7862 27.3328 21.7144 27.1141C21.6427 26.859 21.6068 26.4945 21.7144 26.2393C21.8221 25.9842 21.9657 25.6562 22.0733 25.4375Z" fill="#5D798E"/>
<path d="M24.2268 27.5859C24.2268 27.5859 23.4731 28.4972 23.5091 28.971C23.5449 29.5907 23.9397 29.9916 23.9756 30.3561C23.9756 30.3561 24.3703 29.9187 24.5139 29.5907C24.6933 29.2626 24.801 28.971 24.7651 28.5701C24.6933 28.242 24.5857 27.9869 24.2268 27.5859Z" fill="#5D798E"/>
<path d="M22.8257 27.5156C22.9333 27.6979 23.2922 28.281 23.1846 28.6456C23.0769 29.01 22.718 29.5204 22.6103 29.7026C22.6103 29.7026 22.3233 29.0829 22.2515 28.7914C22.1797 28.5362 22.2515 28.0624 22.8257 27.5156Z" fill="#5D798E"/>
<path d="M30.2905 12.388C30.2905 12.3151 29.9675 12.2422 29.5369 12.2422C29.1062 12.2422 28.7832 12.3151 28.7832 12.388C28.7832 12.4609 29.1062 12.5338 29.5369 12.5338C29.9675 12.5338 30.2905 12.4609 30.2905 12.388Z" fill="#5D798E"/>
<path d="M25.1235 10.0203C25.1594 9.69231 25.5541 8.92688 25.5541 8.59884C25.5541 8.34369 25.3388 8.125 25.0876 8.125C24.8364 8.125 24.6211 8.34369 24.6211 8.59884C24.657 8.92688 25.0517 9.65586 25.1235 10.0203Z" fill="#5D798E"/>
<path d="M26.3782 10.7468C26.7729 9.79915 27.0242 9.10662 27.0242 8.85148C27.0242 8.70568 26.8447 8.59634 26.7012 8.55988C26.5576 8.52344 26.4141 8.48699 26.3064 8.59634C26.0911 8.74213 25.9117 10.0543 25.8398 10.5646C26.0193 10.601 26.1628 10.6375 26.3782 10.7468Z" fill="#5D798E"/>
<path d="M25.6621 10.5293C25.5544 10.5293 25.4468 10.5293 25.375 10.4929C25.4468 9.9826 25.6262 9.14428 25.698 8.77979C25.8056 8.45175 25.9133 8.1966 26.1645 8.16016C26.1645 8.16016 25.9851 8.63399 25.9133 9.10783C25.8056 9.61811 25.7339 10.092 25.6621 10.5293Z" fill="#5D798E"/>
<path d="M25.6602 11.4385C25.9114 11.4021 26.5215 11.4749 26.9162 11.7301C27.311 12.0217 27.4186 12.2404 27.5622 12.4591C27.5622 12.4591 26.8803 12.5319 26.2702 12.1675C25.9832 12.0217 25.7319 11.6207 25.6602 11.4385ZM26.019 11.6572C26.019 11.6572 26.4497 12.131 26.8803 12.2404C26.9162 12.2404 26.7368 11.7665 26.019 11.6572Z" fill="#5D798E"/>
<path d="M29.286 14.3563C29.286 14.2105 29.286 13.9918 29.286 13.9918C28.9271 14.3199 28.2094 14.575 28.2094 14.575C28.2094 14.3928 28.2812 14.2105 28.2812 14.2105C27.9582 14.3928 27.8146 14.3928 27.8146 14.3928C27.8505 14.1741 27.9941 13.8825 27.9941 13.8825C27.7788 14.1741 27.4916 14.1741 27.4916 14.1741C27.4558 14.0283 27.5275 13.7003 27.5275 13.7003C27.4198 13.846 27.2045 14.2105 26.5944 14.3199C25.9844 14.4657 25.6973 14.1012 25.6973 14.1012C26.3074 14.1376 26.8815 13.5545 26.8815 13.5545C26.5586 13.4451 26.4509 13.1899 26.4509 13.1899C26.6304 13.0077 26.8098 13.0077 26.8098 13.0077C26.4509 12.8255 26.3791 12.5703 26.3791 12.5703C26.8457 12.789 28.2094 12.789 28.963 12.8619C29.7166 12.8984 30.4703 12.6068 30.4703 12.6068C30.3985 14.247 29.286 14.3563 29.286 14.3563ZM29.5372 13.7003C29.6808 13.5909 29.7885 13.4087 29.8243 13.1899C29.8243 13.1899 29.1066 13.2264 28.5324 13.1535V13.1899C28.4965 13.2264 29.5013 13.2264 29.5372 13.7003Z" fill="#5D798E"/>
<path d="M30.6497 12.6792C30.6138 13.0437 30.542 13.4082 30.3984 13.6633C30.3984 13.6633 30.8291 13.3353 30.9368 13.0437C31.0803 12.7521 31.1162 12.5334 30.6497 12.6792Z" fill="#5D798E"/>
<path d="M31.4396 13.0454C31.6908 12.9725 32.2291 12.9361 32.4445 13.2641C32.6598 13.5922 32.5881 14.2483 32.1215 14.5398C32.1215 14.5398 31.4037 13.9202 30.5424 14.5398C30.5424 14.5398 30.3271 14.3941 29.8965 14.3212C29.8965 14.3212 30.1477 13.9931 30.4707 13.8473C30.7219 13.7015 31.2961 13.5557 31.4396 13.0454ZM31.7267 13.8837C31.7267 13.7744 31.655 13.7015 31.5473 13.7015C31.4397 13.7015 31.3678 13.7744 31.3678 13.8837C31.3678 13.9931 31.4397 14.066 31.5473 14.066C31.655 14.066 31.7267 13.9566 31.7267 13.8837Z" fill="#5D798E"/>
<path d="M29.7883 14.3945C29.7883 14.3945 29.4654 14.8319 29.25 15.0142C29.25 15.0142 30.3984 15.0142 30.6855 16.0347C30.6855 16.0347 31.0803 15.4151 30.7932 15.0142C30.5061 14.5768 30.219 14.5039 29.7883 14.3945Z" fill="#5D798E"/>
<path d="M28.5315 14.6471C28.5315 14.6471 28.1726 14.7565 28.029 14.7929C28.029 14.7929 28.029 14.5742 28.029 14.4648C27.9214 14.5013 27.7778 14.5377 27.6701 14.5377C27.6701 14.5377 27.3113 15.3761 26.9883 15.7406C26.9883 15.7406 26.9883 15.9228 27.1318 16.2144C27.1318 16.2144 27.3471 15.7042 27.706 15.3032C27.9573 15.0845 28.1008 14.9752 28.5315 14.6471Z" fill="#5D798E"/>
<path d="M29.5004 14.4648C29.3927 14.5013 28.7826 14.6836 28.4956 14.9023C28.1367 15.1574 27.8855 15.4854 27.9214 15.9957C27.9214 15.9957 28.2085 15.5948 28.5315 15.4125C28.8186 15.2667 29.2851 14.8294 29.5004 14.4648Z" fill="#5D798E"/>
<path d="M29.5027 10.6406C29.395 10.6406 29.1797 10.6771 29.1797 10.8593C29.1797 11.0416 29.4668 11.479 29.5385 11.6612C29.6103 11.479 29.8974 11.0416 29.8974 10.8593C29.8974 10.6771 29.6821 10.6406 29.5745 10.6406H29.5027Z" fill="#5D798E"/>
<path d="M29.752 12.0622C29.7878 11.807 29.8955 11.151 30.075 11.0052C30.2185 10.8594 30.4338 10.8594 30.5415 10.8594C30.6491 10.8594 30.7568 10.9687 30.7209 11.1145C30.685 11.2603 30.1826 11.9893 30.1467 12.0986C30.0032 12.0622 30.039 12.0986 29.752 12.0622Z" fill="#5D798E"/>
<path d="M29.3229 12.0622C29.287 11.807 29.1794 11.151 29.0358 11.0052C28.8923 10.8594 28.6769 10.8594 28.5693 10.8594C28.4616 10.8594 28.354 10.9687 28.3898 11.1145C28.4258 11.2603 28.9282 11.9893 28.9641 12.0986C29.0717 12.0622 29.0358 12.0986 29.3229 12.0622Z" fill="#5D798E"/>
<path d="M29.0352 9.76422H29.394V9.36328H29.6812V9.76422H30.0759V10.0194H29.6812V10.5297H29.394V10.0194H29.0352V9.76422Z" fill="#5D798E"/>
<path d="M24.5488 7.28766H24.9077V6.88672H25.1948V7.28766H25.5895V7.5428H25.1948V8.05309H24.9077V7.5428H24.5488V7.28766Z" fill="#5D798E"/>
<path d="M33.5562 12.4607C33.5562 12.3878 33.5562 12.3149 33.5562 12.2056C33.5203 11.9869 33.5203 11.8411 33.5562 11.6953C33.8074 11.8047 34.0227 11.8776 34.3816 12.4607C34.3457 12.4972 33.7356 12.1327 33.5562 12.4607Z" fill="#5D798E"/>
<path d="M33.0183 13.4484C33.0183 13.3026 32.9106 12.8287 32.803 12.5007C32.6594 12.0997 32.7311 11.4801 32.9106 11.1156C33.09 10.7511 33.1977 10.4231 33.1618 10.0586C33.1618 10.0586 33.5207 10.1679 33.7001 10.3137C33.736 10.7511 33.4848 11.1521 33.3771 11.4072C33.2336 11.6988 33.2695 12.0633 33.3054 12.282C33.3771 12.6465 33.2695 13.0474 33.0183 13.4484Z" fill="#5D798E"/>
<path d="M32.9814 10.2371C32.9814 10.2007 32.9814 10.0549 32.9814 10.0184C32.9814 10.0184 32.4431 9.47167 31.9766 9.39877C31.6894 9.32588 31.51 9.47167 31.4023 9.54457C31.4023 9.54457 31.5818 9.50812 31.7971 9.72682C32.0483 9.94551 32.3354 10.1642 32.5867 10.2371C32.8379 10.2371 32.8737 10.2371 32.9814 10.2371Z" fill="#5D798E"/>
<path d="M31.3674 9.54688C31.1521 9.76557 30.9727 9.98426 30.9727 10.1665C30.9727 10.3488 31.188 10.859 31.3315 11.0413C31.4392 11.2235 31.6186 11.4787 31.6186 11.7702C31.6186 11.916 31.511 12.0619 31.3674 12.2077C31.3674 12.2077 32.0493 12.0619 32.1211 11.6245C32.1928 11.26 32.0493 10.9684 31.9416 10.7861C31.834 10.6039 31.5468 10.1301 31.4392 9.94781C31.3674 9.76557 31.3315 9.61977 31.3674 9.54688Z" fill="#5D798E"/>
<path d="M27.4192 14.3203C27.2757 14.7942 27.0604 15.268 26.845 15.6325C26.6297 15.9605 26.5221 16.4708 26.5221 16.653C26.5221 16.653 26.1991 15.9605 26.3785 15.4867C26.4862 15.0857 26.8092 14.539 27.4192 14.3203Z" fill="#5D798E"/>
<path d="M26.6677 14.4648C26.6677 14.4648 26.2012 14.4648 25.9858 14.6107C25.6988 14.7929 25.4475 15.1938 25.3398 15.7042C25.3398 15.7042 25.8064 15.6312 26.0217 15.3761C26.2729 15.1574 26.56 14.7929 26.6677 14.4648Z" fill="#5D798E"/>
<path d="M29.0705 15.3047C29.1423 15.3047 29.3935 15.3776 29.5012 15.414C29.5012 15.414 29.1064 15.5234 28.9269 15.7056C28.7475 15.8514 28.6039 16.0701 28.5322 16.4346C28.4245 16.9449 28.1374 17.4916 28.0656 17.6738H28.0298C28.1015 17.3094 27.8503 16.5804 27.8145 16.5075C27.8145 16.5075 28.1374 16.3253 28.2809 16.1065C28.3527 15.8878 28.5322 15.6327 29.0705 15.3047Z" fill="#5D798E"/>
<path d="M27.0245 16.3984C26.9168 16.6536 26.5938 17.1274 26.7373 17.6377C26.8809 18.148 27.2039 18.3302 27.3833 18.7676C27.3833 18.7676 27.5269 18.0022 27.491 17.419C27.491 16.8358 27.2756 16.6171 27.0245 16.3984Z" fill="#5D798E"/>
<path d="M25.1239 17.7807C25.1598 17.4891 25.8058 16.7966 25.7699 16.3956C25.734 16.0312 25.2316 15.7396 25.1239 15.7031C25.0163 15.776 24.5138 16.0312 24.4779 16.3956C24.4062 16.7966 25.088 17.4891 25.1239 17.7807Z" fill="#5D798E"/>
<path d="M26.129 16.4336C26.129 16.4336 25.6624 17.3449 25.5907 17.7093C25.5189 18.0738 25.5907 18.2925 25.7342 18.5112C25.8777 18.7299 26.1648 18.9486 26.4161 19.386C26.4161 19.386 26.7031 19.0215 26.7391 18.8028C26.7749 18.6205 26.7031 18.1103 26.6673 17.928C26.5596 17.7093 26.3084 17.0897 26.129 16.4336Z" fill="#5D798E"/>
<path d="M25.1236 19.9331C25.3389 19.7509 25.5184 19.4593 25.5902 19.3135C25.6619 19.1677 25.6619 18.9125 25.5184 18.7303C25.3389 18.5116 25.1595 18.2565 25.1236 18.0742C25.1236 18.2565 24.9083 18.5116 24.7289 18.7303C24.5853 18.9125 24.6212 19.1312 24.6571 19.3135C24.693 19.4593 24.9083 19.7509 25.1236 19.9331Z" fill="#5D798E"/>
<path d="M25.878 19.3164C25.9856 19.4258 26.5239 20.0818 26.5957 20.2641C26.6675 20.4463 26.7751 20.8108 26.6316 21.066C26.4521 21.3211 26.0933 21.722 25.7344 21.9043C25.7344 21.9043 26.0933 21.3211 26.0574 20.8472C26.0215 20.5557 25.8062 20.2641 25.7703 20.0818C25.7344 19.8996 25.7703 19.608 25.878 19.3164Z" fill="#5D798E"/>
<path d="M26.9166 18.9492C26.8448 19.0586 26.7013 19.3502 26.6654 19.6053C26.6295 19.8604 26.7013 20.0792 26.8448 20.4801C27.0242 20.9904 27.3114 21.5371 27.4549 21.7923C27.4549 21.7923 27.7062 21.4277 27.8497 21.0997C27.8497 21.0997 27.4549 20.553 27.2755 20.1521C27.0961 19.7511 27.0242 19.3137 26.9166 18.9492Z" fill="#5D798E"/>
<path d="M27.1328 18.7305C27.1328 18.7305 27.3123 20.0062 28.0659 20.9903C28.5683 21.6464 28.999 21.8651 29.2502 21.8651C29.6449 21.8651 30.0756 21.5006 30.2192 21.1361C30.3627 20.7352 30.3268 20.1156 30.0397 19.8968C30.0397 19.8968 29.7885 20.6623 29.2861 20.6987C28.6401 20.7352 27.8864 20.0426 27.1328 18.7305Z" fill="#5D798E"/>
<path d="M27.7413 18.2188C27.6696 18.4374 27.6696 18.802 27.7413 19.13C27.8131 19.3851 27.9566 19.7132 28.2437 19.8954C28.495 20.0412 29.105 20.0776 29.3204 19.5309C29.3204 19.5309 28.2079 19.6038 27.7413 18.2188Z" fill="#5D798E"/>
<path d="M25.1223 22.0125C25.2659 21.9396 25.4094 21.8667 25.5889 21.6116C25.7324 21.3929 25.876 20.9919 25.7683 20.7003C25.6607 20.3359 25.4812 20.2265 25.3736 20.0078C25.2659 20.0807 25.23 20.1536 25.1223 20.2265C25.0147 20.1536 24.9429 20.0807 24.8711 20.0078C24.7635 20.2265 24.584 20.3723 24.4763 20.7003C24.4046 20.9919 24.5481 21.3929 24.6558 21.6116C24.8353 21.9032 24.9429 21.9396 25.1223 22.0125Z" fill="#5D798E"/>
<path d="M25.1234 24.2C25.1952 23.872 25.9129 23.2159 25.8412 22.8514C25.7335 22.3047 25.4105 22.414 25.1234 22.1953C24.8363 22.414 24.5133 22.3047 24.4057 22.8514C24.3339 23.2159 25.0158 23.872 25.1234 24.2Z" fill="#5D798E"/>
<path d="M25.9475 23.3984C25.8039 23.7994 25.2656 24.2732 25.2656 24.5648C25.2656 25.3667 25.6245 25.8405 25.6963 26.1321C25.6963 26.1321 26.3423 25.6218 26.4499 25.0386C26.5217 24.7471 26.4499 23.8359 25.9475 23.3984Z" fill="#5D798E"/>
<path d="M26.6646 23.9811C26.5927 23.7624 26.3416 23.2156 26.0903 22.9969C26.0903 22.9969 25.7315 21.9764 26.844 21.3203C26.844 21.3203 27.3105 21.9399 27.4182 22.5231C27.5258 23.1063 26.9517 23.4344 26.6646 23.9811Z" fill="#5D798E"/>
<path d="M28.0283 21.3555C28.2077 21.5742 28.459 21.8657 28.6384 21.9751C28.6384 21.9751 28.7102 22.4489 28.6743 22.7405C28.6025 23.1779 28.3154 23.6517 28.2077 23.9798C28.2077 23.9798 27.7412 23.3237 27.6694 22.9592C27.5977 22.5947 27.6336 22.2667 27.5977 22.0844C27.6336 22.1209 27.8847 21.6835 28.0283 21.3555Z" fill="#5D798E"/>
<path d="M29.3213 23.579C29.4648 23.3603 29.8955 22.5949 29.8955 22.0117C29.8955 22.0117 29.3572 22.3033 28.8906 22.0846C28.8906 22.0846 28.8188 22.8136 28.9265 23.0687C28.9983 23.2874 29.106 23.3968 29.3213 23.579Z" fill="#5D798E"/>
<path d="M29.177 23.7252C29.1052 23.6523 28.854 23.4336 28.7822 23.3242C28.7822 23.3242 28.4233 23.9803 28.3516 24.199C28.3516 24.199 28.531 24.2354 28.7463 24.0896C28.9616 23.9803 28.9975 23.9438 29.177 23.7252Z" fill="#5D798E"/>
<path d="M27.5271 23.3242C27.5629 23.5065 28.173 24.3083 28.2448 24.4177C28.2448 24.4177 28.2089 24.7093 27.9936 25.1467C27.7783 25.5841 27.4912 25.8756 27.3117 26.0214C27.3117 26.0214 26.9528 25.3654 26.8452 25.1102C26.7375 24.7822 26.7375 24.4541 26.7734 24.3448C26.917 24.0896 27.3117 23.6887 27.5271 23.3242Z" fill="#5D798E"/>
<path d="M25.123 28.209C25.1948 27.9903 25.5177 27.6987 25.6613 27.3342C25.7331 27.1155 25.7331 26.8239 25.6613 26.6417C25.5536 26.423 25.1948 25.9127 25.123 25.7305C25.0871 25.8763 24.6923 26.423 24.5847 26.6417C24.477 26.8239 24.477 27.1155 24.5847 27.3342C24.7282 27.7351 25.0512 27.9903 25.123 28.209Z" fill="#5D798E"/>
<path d="M26.6313 25.5117C26.4877 25.7668 26.1288 26.2042 26.057 26.5687C26.0212 26.8239 26.057 27.079 26.1288 27.2612C26.2006 27.4435 26.4518 27.808 26.5954 28.0996C26.5954 28.0996 27.1337 27.5893 27.2413 27.2248C27.3131 26.9332 27.3131 26.5687 27.1696 26.3136C27.026 26.022 26.7748 25.7668 26.6313 25.5117Z" fill="#5D798E"/>
<path d="M28.1363 25.4375C27.9927 25.7291 27.6697 26.0571 27.598 26.3122C27.5262 26.6403 27.4903 26.8225 27.6339 27.187C27.7774 27.5151 27.921 27.6973 27.9927 27.916C27.9927 27.916 28.4234 27.3328 28.4951 27.1141C28.5669 26.859 28.6028 26.4945 28.4951 26.2393C28.4234 25.9842 28.244 25.6562 28.1363 25.4375Z" fill="#5D798E"/>
<path d="M25.122 32.5811C25.1579 32.2895 25.7321 31.4512 25.7321 30.54C25.7321 30.0661 25.3373 29.3736 25.122 29.082C24.9066 29.3371 24.476 30.0661 24.5119 30.54C24.5119 31.4512 25.0861 32.326 25.122 32.5811Z" fill="#5D798E"/>
<path d="M26.0218 27.5859C26.0218 27.5859 26.7754 28.4972 26.7395 28.971C26.7036 29.5907 26.3088 29.9916 26.2729 30.3561C26.2729 30.3561 25.8782 29.9187 25.7346 29.5907C25.5552 29.2626 25.4475 28.971 25.4834 28.5701C25.5193 28.242 25.627 27.9869 26.0218 27.5859Z" fill="#5D798E"/>
<path d="M27.3827 27.5156C27.275 27.6979 26.9162 28.281 27.0238 28.6456C27.1315 29.01 27.4904 29.5204 27.598 29.7026C27.598 29.7026 27.8851 29.0829 27.9569 28.7914C28.0287 28.5362 27.9928 28.0624 27.3827 27.5156Z" fill="#5D798E"/>
<path d="M25.6257 34.0748C25.6616 33.3458 26.0563 32.9449 26.1281 32.5804C26.1999 32.1795 26.164 31.7785 25.8769 31.3047C25.6257 32.1795 25.3386 32.8356 25.1233 33.2729C24.9079 32.8356 24.6208 32.1795 24.3696 31.3047C24.0466 31.7785 24.0466 32.1795 24.1184 32.5804C24.1902 32.9449 24.585 33.3823 24.6208 34.0748C24.6567 34.8038 23.8672 35.0589 23.8672 35.0589C24.1184 35.1683 24.4414 35.2047 24.9079 34.7309C24.9797 34.658 25.0515 34.5487 25.1233 34.4393C25.1591 34.5487 25.2309 34.6216 25.3386 34.7309C25.8051 35.2047 26.1281 35.1683 26.3793 35.0589C26.3793 35.0589 25.5898 34.7674 25.6257 34.0748Z" fill="#5D798E"/>
<path d="M23.1485 29.3359C23.2202 29.5911 23.4715 30.1014 23.5073 30.2472C23.5791 30.5388 23.4715 30.8668 22.969 31.2313C22.969 31.2313 22.646 31.0126 22.5025 30.6846C22.3948 30.393 22.4666 30.2107 22.5742 30.0285C22.7178 29.8827 23.0049 29.5547 23.1485 29.3359Z" fill="#5D798E"/>
<path d="M24.1904 30.3945C24.1904 30.5403 24.0827 31.3422 23.8674 31.7431C23.5444 32.2898 23.0778 32.7273 22.6831 32.7273C22.2883 32.7273 22.2166 32.5086 22.0371 32.3992C22.0371 32.3992 22.1448 31.9254 22.5395 31.7796C23.0778 31.6338 23.8674 30.9777 24.1904 30.3945Z" fill="#5D798E"/>
<path d="M22.8264 31.4153C22.7546 31.3424 22.6469 31.3059 22.5393 31.1602C22.5393 31.1602 22.1445 31.3059 21.8215 31.5246C21.4985 31.7434 21.1755 32.1443 20.9961 32.3265C20.9961 32.3265 21.4985 32.4723 21.8215 32.3265C21.8215 32.3265 21.9292 31.8527 22.288 31.634C22.3598 31.5975 22.611 31.5246 22.8264 31.4153Z" fill="#5D798E"/>
<path d="M22.4326 31.0128C22.3608 30.9035 22.1813 30.6848 22.2173 30.3203C22.2173 30.3203 21.5354 30.7577 21.32 30.9399C21.1047 31.1222 20.6741 31.5596 20.5664 31.7054C20.5664 31.7054 21.1047 31.596 21.4995 31.4503C21.966 31.3044 22.2531 31.0857 22.4326 31.0128Z" fill="#5D798E"/>
<path d="M21.2465 31.7812C20.8876 31.927 20.0263 32.0728 19.6675 32.1457C19.3086 32.2551 19.0574 32.4374 18.7344 32.8018C18.7344 32.8018 19.2368 32.9476 19.5239 33.0205C19.5239 33.0205 19.9545 32.7289 20.457 32.5102C20.7441 32.4374 20.9235 32.1093 21.2465 31.7812Z" fill="#5D798E"/>
<path d="M20.4569 34.2952C20.5288 34.2223 20.6364 34.113 20.5646 33.8943C20.4929 33.7485 20.2058 33.5663 20.0263 33.4933C19.7392 33.3475 18.8779 33.1288 18.6267 33.0195C18.6267 33.0195 18.4831 33.1653 18.4114 33.3475C18.3755 33.4204 18.4114 33.4933 18.5549 33.4933C18.8061 33.5298 19.3445 33.4204 19.488 33.5298C19.6315 33.6392 19.5957 33.7485 19.5957 33.8943C19.5957 33.8943 19.8469 33.7485 20.0263 33.785C20.2058 33.8214 20.3493 33.9307 20.4569 34.2952Z" fill="#5D798E"/>
<path d="M19.7031 33.1288C19.7749 33.1652 20.0978 33.2381 20.4208 33.4568C20.4208 33.4568 20.5644 33.3839 20.6362 33.2746C20.7079 33.1652 20.9951 32.7278 21.2462 32.6549C21.2462 32.6549 21.0309 32.6185 20.8874 32.582C20.8874 32.582 20.6003 32.6549 20.4208 32.7278C20.2414 32.8007 19.9902 32.9101 19.7031 33.1288Z" fill="#5D798E"/>
<path d="M21.8932 32.582C21.8573 32.6185 21.7497 32.6549 21.5702 32.6549C21.5702 32.6549 20.8166 33.1652 20.7448 33.712C20.673 34.1493 20.8884 34.368 20.996 34.4409C21.1037 34.5138 21.6061 34.6961 21.965 34.0036C21.965 34.0036 21.3908 34.1858 21.2472 33.9307C21.1037 33.6391 21.3549 33.2381 21.4984 33.1288C21.7138 32.983 22.0727 32.8736 22.288 32.9101C22.288 32.8372 22.1085 32.6914 21.8932 32.582Z" fill="#5D798E"/>
<path d="M17.0476 38.5222C17.1552 38.1577 17.227 37.7568 17.4064 37.3558C17.7294 36.6269 18.5548 34.7315 20.2774 34.4035C20.4568 34.367 20.098 33.9661 19.9544 34.0025C19.8109 34.039 19.4879 34.2213 19.3444 34.2941C19.3444 34.2941 19.3444 33.8932 19.3444 33.8203C19.3444 33.7474 19.2726 33.7109 19.2008 33.7109C19.129 33.7109 18.7343 33.7109 18.5907 33.8567C18.196 34.3306 17.55 35.5334 17.1911 36.4446C16.8322 37.3558 16.581 37.6475 16.1862 37.5016C15.7915 37.3558 15.5762 36.9185 14.8584 37.0278C14.6072 37.0642 14.356 37.2465 14.1406 37.4652C14.2124 37.5746 14.2842 37.7203 14.6072 37.7203C14.9302 37.7203 15.5403 37.8661 15.8632 38.0848C16.1862 38.3764 16.5451 38.4858 17.0476 38.5222Z" fill="#5D798E"/>
<path d="M23.8678 32.582C23.9037 32.8736 24.0473 33.1652 24.1908 33.4568C24.1908 33.4568 23.6884 35.8989 21.7863 36.0811C21.7863 36.0811 21.8222 35.5709 22.3965 35.2064C22.9706 34.8054 23.796 34.2222 23.7243 33.311C23.7243 33.311 23.5807 33.3475 23.2936 33.6755C23.0424 34.0036 22.4323 34.9877 21.5352 34.9877C21.5352 34.9877 21.6787 34.5138 22.0735 34.2587C22.4682 34.0036 22.9706 33.6391 23.2219 33.2381C23.4372 32.8736 23.6884 32.6549 23.8678 32.582Z" fill="#5D798E"/>
<path d="M22.9707 41.4738L24.1191 43.114L24.9804 41.5467L24.6574 41C24.4421 41.4009 24.1909 41.8747 24.0473 42.0935C23.9396 41.9476 23.6526 41.5467 23.2578 41L22.9707 41.4738Z" fill="#5D798E"/>
<path d="M22.6837 40.09C21.5712 38.5227 20.2075 36.5544 20.0639 36.3357L20.4946 36.0077L19.1309 35.4609L19.1668 36.9554L19.6333 36.6273L22.3966 40.5638L22.6837 40.09Z" fill="#5D798E"/>
<path d="M13.2798 31.1978C13.6028 30.8334 14.177 31.1614 14.7512 31.6717C15.3254 32.2184 15.6843 32.7651 15.3613 33.1296C15.0383 33.4577 14.4641 33.1661 13.8899 32.6558C13.3157 32.109 12.9209 31.5623 13.2798 31.1978Z" fill="#5D798E"/>
<path d="M14.2136 37.7927C14.1777 37.7927 14.1777 37.7562 14.1777 37.7562C13.8547 37.5011 13.7111 37.0637 13.7111 36.5898C13.7111 35.7151 14.4289 34.9861 15.2902 34.9861C16.1515 34.9861 16.8692 35.7151 16.8692 36.5898C16.8692 36.6992 16.8334 36.9179 16.8334 36.9179C16.9051 36.7721 17.1563 36.1889 17.2281 36.0796C16.9769 35.2048 16.2232 34.5852 15.2902 34.5852C14.5007 34.5852 13.8188 35.059 13.4958 35.7151C13.6035 34.9132 13.9982 34.1842 14.2853 33.9291C14.6083 33.601 15.1825 33.4917 15.1825 33.4917C14.8237 33.5646 14.3212 33.3094 13.7829 32.7992C13.2446 32.3253 12.9934 31.8879 12.9575 31.5234C12.9934 32.0337 12.9575 32.3253 12.8498 32.7263C12.6704 33.273 12.1321 34.2935 12.3115 35.4599C12.4192 36.0796 12.8857 37.0272 13.6393 37.8291C13.7829 38.0114 13.8547 38.2665 13.8906 38.4123C13.8906 38.4123 15.0031 38.4123 15.2902 38.4487C15.2902 38.4487 15.5414 38.4123 15.5414 38.2665C15.5414 38.0843 15.3978 38.0478 15.2543 38.0478C15.0748 38.0114 14.5007 38.0478 14.2136 37.7927Z" fill="#5D798E"/>
<path d="M20.3847 38.1953C19.6669 38.4504 18.9492 38.5963 18.2673 38.7056C17.8367 38.7785 17.406 38.8149 16.9754 38.7785C16.9754 38.8514 16.9754 38.9243 16.9395 38.9972C16.9395 38.9972 17.0112 39.1065 17.0112 39.2159C17.4419 39.2159 17.8725 39.2159 18.3391 39.143C19.0927 39.0336 19.8822 38.8878 20.6718 38.5598L20.3847 38.1953Z" fill="#5D798E"/>
<path d="M21.5703 38.1581C22.5392 37.6114 23.4723 36.8095 24.2978 35.4973L24.4413 35.2422C24.226 35.3516 23.903 35.2787 23.903 35.2787C23.903 35.3151 23.8671 35.3516 23.8312 35.388C23.0417 36.5544 22.1804 37.3198 21.2832 37.7936L21.5703 38.1581Z" fill="#5D798E"/>
<path d="M15.2894 38.5581C15.1459 38.5216 14.7511 38.5581 14.4999 38.5945C14.2128 38.631 13.9257 38.7039 13.8898 38.8497C13.8539 38.9954 13.9615 39.1412 14.1051 39.3599C14.1769 39.5057 14.3922 39.4328 14.4999 39.3599C14.6075 39.3235 15.2535 38.959 15.3612 38.8497C15.4329 38.7403 15.4689 38.5945 15.2894 38.5581Z" fill="#5D798E"/>
<path d="M15.9361 38.9973C15.8643 38.9609 15.6848 38.888 15.5054 38.9609C15.326 39.0338 14.68 39.3982 14.6441 39.5805C14.6082 39.7628 14.68 39.8357 14.7877 39.8721C14.8953 39.9086 15.003 39.945 15.1107 39.945C15.2542 39.945 15.4336 39.8721 15.5054 39.7628C15.5771 39.6534 15.9001 39.2889 15.9361 39.216C15.9719 39.1431 16.0078 39.0338 15.9361 38.9973Z" fill="#5D798E"/>
<path d="M16.0078 39.3971C15.9002 39.5064 15.649 39.8345 15.6131 39.8709C15.5772 39.9074 15.6131 40.0167 15.7208 39.9803C15.7925 39.9803 16.2232 39.9438 16.4744 39.7616C16.7256 39.5793 16.905 39.2513 16.7256 39.1419C16.582 38.9961 16.2949 39.069 16.0078 39.3971Z" fill="#5D798E"/>
<path d="M16.1523 38.4132C16.0805 38.3768 15.7216 38.3039 15.6498 38.4132C15.5781 38.559 15.6139 38.7048 15.8652 38.8141C16.1163 38.9235 16.6188 39.0329 16.6906 38.887C16.8341 38.7777 16.6906 38.559 16.1523 38.4132Z" fill="#5D798E"/>
<path d="M27.0977 29.3359C27.0259 29.5911 26.7747 30.1014 26.7388 30.2472C26.667 30.5388 26.7747 30.8668 27.2771 31.2313C27.2771 31.2313 27.6001 31.0126 27.7436 30.6846C27.8513 30.393 27.7795 30.2107 27.6719 30.0285C27.4925 29.8827 27.2053 29.5547 27.0977 29.3359Z" fill="#5D798E"/>
<path d="M26.0215 30.3945C26.0215 30.5403 26.1292 31.3422 26.3445 31.7431C26.6675 32.2898 27.134 32.7273 27.5288 32.7273C27.9236 32.7273 27.9953 32.5086 28.1748 32.3992C28.1748 32.3992 28.0671 31.9254 27.6365 31.7796C27.134 31.6338 26.3445 30.9777 26.0215 30.3945Z" fill="#5D798E"/>
<path d="M27.3848 31.4153C27.4565 31.3424 27.5642 31.3059 27.636 31.1602C27.636 31.1602 28.0308 31.3059 28.3537 31.5246C28.6767 31.7434 28.9997 32.1443 29.1792 32.3265C29.1792 32.3265 28.6767 32.4723 28.3537 32.3265C28.3537 32.3265 28.2461 31.8527 27.8872 31.634C27.8513 31.5975 27.6001 31.5246 27.3848 31.4153Z" fill="#5D798E"/>
<path d="M27.7773 31.0128C27.8491 30.9035 28.0286 30.6848 27.9927 30.3203C27.9927 30.3203 28.6746 30.7577 28.8899 30.9399C29.1052 31.1222 29.5358 31.5596 29.6435 31.7054C29.6435 31.7054 29.1052 31.596 28.7104 31.4503C28.2798 31.3044 27.9568 31.0857 27.7773 31.0128Z" fill="#5D798E"/>
<path d="M28.9629 31.7812C29.3218 31.927 30.1831 32.0728 30.5419 32.1457C30.9008 32.2551 31.1521 32.4374 31.475 32.8018C31.475 32.8018 30.9726 32.9476 30.6855 33.0205C30.6855 33.0205 30.2548 32.7289 29.7524 32.5102C29.4653 32.4374 29.3218 32.1093 28.9629 31.7812Z" fill="#5D798E"/>
<path d="M29.7524 34.2953C29.6807 34.2224 29.573 34.113 29.6448 33.8943C29.7165 33.7485 30.0037 33.5663 30.1831 33.4934C30.4702 33.3476 31.3315 33.1289 31.5827 33.0195C31.5827 33.0195 31.7262 33.1653 31.798 33.3476C31.8339 33.4205 31.798 33.4934 31.6545 33.4934C31.4032 33.5298 30.8649 33.4205 30.7214 33.5298C30.5778 33.6392 30.6138 33.7485 30.6138 33.8943C30.6138 33.8943 30.3625 33.7485 30.1831 33.785C30.0395 33.8214 29.896 33.9307 29.7524 34.2953Z" fill="#5D798E"/>
<path d="M30.5061 33.1288C30.4343 33.1652 30.1113 33.2381 29.7883 33.4568C29.7883 33.4568 29.6447 33.3839 29.573 33.2746C29.5012 33.1652 29.2141 32.7278 28.9629 32.6549C28.9629 32.6549 29.1782 32.6185 29.3218 32.582C29.3218 32.582 29.6089 32.6549 29.7883 32.7278C29.9677 32.8007 30.219 32.9101 30.5061 33.1288Z" fill="#5D798E"/>
<path d="M28.3518 32.582C28.3877 32.6185 28.4953 32.6549 28.6748 32.6549C28.6748 32.6549 29.4284 33.1652 29.5002 33.712C29.572 34.1493 29.3567 34.368 29.249 34.4409C29.1413 34.5138 28.6389 34.6961 28.28 34.0036C28.28 34.0036 28.8542 34.1858 28.9977 33.9307C29.1413 33.6391 28.8901 33.2381 28.7465 33.1288C28.5312 32.983 28.1723 32.8736 27.957 32.9101C27.957 32.8372 28.1365 32.6914 28.3518 32.582Z" fill="#5D798E"/>
<path d="M33.197 38.5222C33.0894 38.1577 33.0175 37.7568 32.8381 37.3558C32.5151 36.6269 31.6897 34.7315 29.9671 34.4035C29.7877 34.367 30.1466 33.9661 30.2901 34.0025C30.4337 34.039 30.7567 34.2213 30.9002 34.2941C30.9002 34.2941 30.9002 33.8932 30.9002 33.8203C30.9002 33.7474 30.972 33.7109 31.0437 33.7109C31.1155 33.7109 31.5103 33.7109 31.6538 33.8567C32.0486 34.3306 32.6945 35.5334 33.0535 36.4446C33.4123 37.3558 33.6635 37.6475 34.0583 37.5016C34.4531 37.3558 34.7043 36.9185 35.3861 37.0278C35.6373 37.0642 35.8886 37.2465 36.1039 37.4652C36.0321 37.5746 35.9603 37.7203 35.6373 37.7203C35.3143 37.7203 34.7043 37.8661 34.3813 38.0848C34.0224 38.3764 33.6635 38.4858 33.197 38.5222Z" fill="#5D798E"/>
<path d="M26.3777 32.582C26.3418 32.8736 26.1982 33.1652 26.0547 33.4568C26.0547 33.4568 26.5571 35.8989 28.4592 36.0811C28.4592 36.0811 28.4233 35.5709 27.849 35.2064C27.2749 34.8054 26.4495 34.2222 26.5212 33.311C26.5212 33.311 26.6648 33.3475 26.9519 33.6755C27.2031 34.0036 27.8132 34.9877 28.7103 34.9877C28.7103 34.9877 28.5668 34.5138 28.172 34.2587C27.7773 34.0036 27.2749 33.6391 27.0236 33.2381C26.7725 32.8736 26.5212 32.6549 26.3777 32.582Z" fill="#5D798E"/>
<path d="M25.123 34.9492C25.2306 35.2773 25.9484 36.2978 26.2714 36.5894C26.5943 36.881 27.348 37.6465 27.7427 38.0474C27.7427 38.0474 26.5943 37.7558 25.9484 37.1726C25.9484 37.1726 25.4818 37.4642 25.1589 37.4642H25.123C24.8 37.4642 24.3334 37.1726 24.3334 37.1726C23.6875 37.7558 22.5391 38.0474 22.5391 38.0474C22.9338 37.6465 23.6875 36.881 24.0105 36.5894C24.2975 36.2978 25.0153 35.2773 25.123 34.9492Z" fill="#5D798E"/>
<path d="M25.1226 37.6458C25.3737 37.6458 25.625 37.5364 25.7685 37.5C25.625 37.7916 25.3737 38.2289 25.1226 38.4477C24.8713 38.2654 24.6201 37.7916 24.4766 37.5C24.6201 37.5729 24.8354 37.6458 25.1226 37.6458Z" fill="#5D798E"/>
<path d="M26.0921 43.1165L30.614 36.7015L31.0805 37.0295L31.1164 35.5352L29.7527 36.0819L30.1833 36.4099C29.968 36.7379 26.5945 41.5128 26.1639 42.1324L24.1183 38.3782L23.8671 38.7791L22.0369 41.5857L21.5703 41.2941V42.7885L22.934 42.2418L22.4675 41.9137C22.7187 41.5128 23.6877 40.0184 24.0465 39.5081L26.0921 43.1165Z" fill="#5D798E"/>
<path d="M26.9172 40.5606C26.63 40.0868 26.3071 39.6129 26.1636 39.3942C26.0559 39.6129 25.8046 40.0504 25.5534 40.4877L25.2305 39.9046L26.0917 38.3008L26.343 38.7017L27.2402 40.0868L26.9172 40.5606Z" fill="#5D798E"/>
<path d="M27.8496 41L28.1726 41.5103L28.6391 41.2187V42.7131L27.2754 42.1664L27.7419 41.8383C27.706 41.7654 27.6343 41.6561 27.5266 41.5103L27.8496 41Z" fill="#5D798E"/>
<path d="M36.9651 31.1978C36.6421 30.8334 36.0679 31.1614 35.4937 31.6717C34.9195 32.2184 34.5606 32.7651 34.8836 33.1296C35.2066 33.4577 35.7807 33.1661 36.355 32.6558C36.9291 32.109 37.288 31.5623 36.9651 31.1978Z" fill="#5D798E"/>
<path d="M36.0341 37.7927C36.07 37.7927 36.07 37.7562 36.07 37.7562C36.393 37.5011 36.5365 37.0637 36.5365 36.5898C36.5365 35.7151 35.8188 34.9861 34.9575 34.9861C34.0962 34.9861 33.3784 35.7151 33.3784 36.5898C33.3784 36.6992 33.4143 36.9179 33.4143 36.9179C33.3425 36.7721 33.0913 36.1889 33.0195 36.0796C33.2708 35.2048 34.0244 34.5852 34.9575 34.5852C35.747 34.5852 36.4289 35.059 36.7519 35.7151C36.6442 34.9132 36.2494 34.1842 35.9623 33.9291C35.6393 33.601 35.0651 33.4917 35.0651 33.4917C35.424 33.5646 35.9264 33.3094 36.4647 32.7992C37.003 32.3253 37.2543 31.8879 37.2902 31.5234C37.2543 32.0337 37.2901 32.3253 37.3978 32.7263C37.5773 33.273 38.1156 34.2935 37.9361 35.4599C37.8284 36.0796 37.3978 37.0272 36.6083 37.8291C36.4289 38.0114 36.393 38.2665 36.3571 38.4123C36.3571 38.4123 35.2446 38.4123 34.9575 38.4487C34.9575 38.4487 34.7062 38.4123 34.7062 38.2665C34.7062 38.0843 34.8498 38.0478 34.9933 38.0478C35.1728 38.0114 35.7111 38.0478 36.0341 37.7927Z" fill="#5D798E"/>
<path d="M28.6405 38.1217C27.6716 37.5749 26.7385 36.7731 25.9131 35.4609L25.7695 35.2422C25.9848 35.3516 26.3078 35.2787 26.3078 35.2787C26.3078 35.3151 26.3437 35.3516 26.3796 35.388C27.1692 36.5544 28.0304 37.3198 28.9276 37.7936L28.6405 38.1217Z" fill="#5D798E"/>
<path d="M29.8242 38.1953C30.542 38.4504 31.2597 38.5963 31.9416 38.7056C32.3722 38.7785 32.8029 38.8149 33.2335 38.7785C33.2335 38.8514 33.2335 38.9243 33.2694 38.9972C33.2694 38.9972 33.1976 39.1065 33.1976 39.2159C32.767 39.2159 32.3363 39.2159 31.8698 39.143C31.1161 39.0336 30.3266 38.8878 29.5371 38.5598L29.8242 38.1953Z" fill="#5D798E"/>
<path d="M34.9562 38.5581C35.0998 38.5216 35.4945 38.5581 35.7457 38.5945C36.0328 38.631 36.32 38.7039 36.3558 38.8497C36.3917 38.9954 36.2841 39.1412 36.1405 39.3599C36.0687 39.5057 35.8534 39.4328 35.7457 39.3599C35.6381 39.3235 34.9921 38.959 34.8844 38.8497C34.7768 38.7403 34.7409 38.5945 34.9562 38.5581Z" fill="#5D798E"/>
<path d="M34.2719 38.9973C34.3437 38.9609 34.5231 38.888 34.7025 38.9609C34.882 39.0338 35.5279 39.3982 35.5639 39.5805C35.5997 39.7628 35.5279 39.8357 35.4203 39.8721C35.3126 39.9086 35.205 39.945 35.0973 39.945C34.9538 39.945 34.7743 39.8721 34.7025 39.7628C34.6308 39.6534 34.3078 39.2889 34.2719 39.216C34.236 39.1431 34.2001 39.0338 34.2719 38.9973Z" fill="#5D798E"/>
<path d="M34.2025 39.3971C34.3102 39.5064 34.5613 39.8345 34.5973 39.8709C34.6332 39.9074 34.5973 40.0167 34.4896 39.9803C34.4178 39.9803 33.9872 39.9438 33.7359 39.7616C33.4848 39.5793 33.3053 39.2513 33.4847 39.1419C33.6642 38.9961 33.9154 39.069 34.2025 39.3971Z" fill="#5D798E"/>
<path d="M34.0574 38.4132C34.1291 38.3768 34.488 38.3039 34.5598 38.4132C34.6675 38.559 34.5957 38.7048 34.3445 38.8141C34.0932 38.9235 33.5908 39.0329 33.5191 38.887C33.3755 38.7777 33.519 38.559 34.0574 38.4132Z" fill="#5D798E"/>
</g>
<defs>
<clipPath id="clip0_2065_45674">
<rect width="44" height="37" fill="white" transform="translate(3 6.5)"/>
</clipPath>
</defs>
</svg>
