<svg xmlns="http://www.w3.org/2000/svg">
<symbol id="arrow1" viewBox="0 0 42 22">
  <path d="M11.6064 0.996094L2.19824 10.5H41.5V11.5H2.19824L11.6064 21.0039L10.8955 21.707L0.296875 11L10.8955 0.292969L11.6064 0.996094Z"/>
</symbol>
<symbol id="arrow2" viewBox="0 0 24 24">
  <path d="M0.756836 0.744141L23.1426 0.857422L23.2559 23.2432L20.7568 23.2559L20.6641 5.10352L2 23.7676L0.232422 22L11.0654 11.167C13.524 8.70842 15.9819 6.24858 18.8955 3.33496L0.744141 3.24316L0.756836 0.744141Z"/>
</symbol>
<symbol id="arrow3" viewBox="0 0 11 18">
  <path d="m5.25.95.074.004c.075.009.148.03.216.065l.083.05.075.063.012.012 4.072 3.989.081.096c.14.207.14.478 0 .685l-.08.098a.643.643 0 0 1-.797.08l-.1-.08-3.004-2.945V16.43a.628.628 0 0 1-.634.62.627.627 0 0 1-.633-.62V3.073l-3 2.939a.644.644 0 0 1-.796.08l-.1-.08a.613.613 0 0 1 0-.88L4.768 1.17a.636.636 0 0 1 .48-.22h.002Z"/>
</symbol>
<symbol id="arrow4" viewBox="0 0 16 14">
  <path d="M9.69408 0.943928C9.40118 0.651035 8.92631 0.651035 8.63342 0.943929C8.34052 1.23682 8.34052 1.7117 8.63342 2.00459L13.1864 6.55759H1.24708C0.832865 6.55759 0.497078 6.89337 0.497078 7.30759C0.497078 7.7218 0.832865 8.05759 1.24708 8.05759H13.1864L8.63342 12.6106C8.34052 12.9035 8.34052 13.3784 8.63342 13.6713C8.92631 13.9642 9.40118 13.9642 9.69408 13.6713L15.5274 7.83792C15.6681 7.69727 15.7471 7.5065 15.7471 7.30759C15.7471 7.10868 15.6681 6.91791 15.5274 6.77726L9.69408 0.943928Z"/>
</symbol>
<symbol id="burger1" viewBox="0 0 24 17">
  <rect width="24" height="2"/>
  <rect y="8.5" width="24" height="2"/>
  <rect y="16" width="24" height="2"/>
</symbol>
<symbol id="cart1" viewBox="0 0 19 21">
  <path fill-rule="evenodd" clip-rule="evenodd" d="M14.4607 0.235352H4.33454V5.40814H0.0709229V20.4092H18.7243V5.40814H14.4607V0.235352ZM12.8618 6.95996V10.3223H14.4607V6.95996H17.1254V18.8574H1.66978V6.95996H4.33454V10.3223H5.93341V6.95996H12.8618ZM12.8618 5.40814V1.78719H5.93341V5.40814H12.8618Z"/>
</symbol>
<symbol id="chevron1" viewBox="0 0 10 16">
  <path d="M1.61816 0.40625L9.08691 8.18359L1.61816 15.9609L0.381836 14.7734L6.70996 8.18359L0.381836 1.59375L1.61816 0.40625Z"/>
</symbol>
<symbol id="close1" viewBox="0 0 20 20">
  <path d="M20 2.01429L17.9857 0L10 7.98571L2.01429 0L0 2.01429L7.98571 10L0 17.9857L2.01429 20L10 12.0143L17.9857 20L20 17.9857L12.0143 10L20 2.01429Z"/>
</symbol>
<symbol id="close2" viewBox="0 0 34 34">
  <path d="m8.838 8.14 16.97 16.971-.706.707-16.97-16.97z"/>
  <path d="m8.486 25.46 16.97-16.97.707.707-16.97 16.97z"/>
</symbol>
<symbol id="compare1" viewBox="0 0 17 20">
  <path d="M1.99976 20H-0.000244141V6H1.99976V20Z"/>
  <path d="M6.99976 20H4.99976V0H6.99976V20Z"/>
  <path d="M11.9998 20H9.99976V8H11.9998V20Z"/>
  <path d="M16.9998 20H14.9998V2H16.9998V20Z"/>
</symbol>
<symbol id="cross1" viewBox="0 0 19 19">
  <path d="M9.19141 8.48438L17.3223 0.353516L18.0293 1.06055L9.89844 9.19141L17.6777 16.9707L16.9707 17.6777L9.19141 9.89844L1.05859 18.0312L0.351562 17.3242L8.48438 9.19141L0 0.707031L0.707031 0L9.19141 8.48438Z"/>
</symbol>
<symbol id="crosshair1" viewBox="0 0 48 48">
  <rect x="23" width="1" height="8" fill="#C6CE4E"/>
  <rect x="23" y="40" width="1" height="8" fill="#C6CE4E"/>
  <rect y="25" width="8" height="1" fill="#C6CE4E"/>
  <rect x="40" y="25" width="8" height="1" fill="#C6CE4E"/>
  <path d="M12 18V12H18" stroke="white"/>
  <path d="M36 18V12H30" stroke="white"/>
  <path d="M12 30V36H18" stroke="white"/>
  <path d="M36 30V36H30" stroke="white"/>
  <rect x="21" y="21" width="6" height="6" fill="white"/>
</symbol>
<symbol id="delete" viewBox="0 0 24 24">
  <path d="M21.622 2.787h-6.441V0H8.83v2.787H2.39v5.17h.972L5.294 24h13.424L20.65 7.956h.973V2.787Zm-11.384-1.38h3.537v1.38h-3.537v-1.38ZM3.797 4.193h16.419V6.55H3.796V4.194Zm13.674 18.4H6.541L4.78 7.956h14.453L17.47 22.594Z"/>
  <path d="M11.303 10.906h1.406v8.781h-1.406v-8.78Zm4.662 8.781.36-8.78h-1.407l-.36 8.78h1.407Zm-6.511 0-.36-8.78H7.687l.36 8.78h1.407Z"/>
</symbol>
<symbol id="heart1" viewBox="0 0 22 20">
  <path fill-rule="evenodd" clip-rule="evenodd" d="M2.79306 3.47496C2.09844 4.39665 1.7214 5.67751 1.7214 7.03075C1.7214 8.41355 2.25606 9.80381 3.13005 11.1463C4.00251 12.4866 5.18093 13.729 6.38503 14.7983C7.58595 15.8646 8.7908 16.7396 9.69739 17.3487C10.1498 17.6527 10.5259 17.8892 10.7875 18.0488C10.7878 18.0489 10.7873 18.0487 10.7875 18.0488C10.7877 18.0487 10.7887 18.0489 10.789 18.0488C11.0506 17.8892 11.4267 17.6527 11.8791 17.3487C12.7857 16.7396 13.9906 15.8646 15.1915 14.7983C16.3955 13.729 17.574 12.4866 18.4465 11.1463C19.3205 9.80381 19.8551 8.41355 19.8551 7.03075C19.8551 5.67601 19.4808 4.39528 18.7881 3.47429C18.1133 2.57705 17.1151 1.98595 15.7338 1.98595C14.33 1.98595 13.2738 2.57691 12.5523 3.18796C12.1912 3.49388 11.92 3.80015 11.741 4.02758C11.6519 4.14085 11.5866 4.23321 11.5454 4.29435C11.5247 4.32485 11.5102 4.34745 11.5019 4.36078C11.4977 4.36745 11.4949 4.37178 11.4938 4.37365C11.4936 4.37398 11.4933 4.37458 11.4938 4.37365L10.7912 5.56381L10.0848 4.37711C10.0853 4.37805 10.085 4.37745 10.0848 4.37711C10.0841 4.37605 10.0824 4.37328 10.0808 4.37068C10.0795 4.36865 10.078 4.36615 10.0761 4.36318C10.0675 4.34978 10.0529 4.32711 10.0321 4.29651C9.99048 4.23525 9.92465 4.14268 9.83488 4.02925C9.65462 3.80145 9.38206 3.49478 9.01974 3.1885C8.29548 2.57641 7.23917 1.98595 5.8427 1.98595C4.46913 1.98595 3.47025 2.5764 2.79306 3.47496ZM10.7883 19.0192L11.1882 19.7516L10.7883 19.9772L10.3883 19.7516L10.7883 19.0192ZM1.48431 2.45622C2.45908 1.16279 3.93294 0.310547 5.8427 0.310547C7.72954 0.310547 9.14601 1.11625 10.0738 1.90032C10.3533 2.13652 10.5908 2.37258 10.7866 2.58763C10.9817 2.37267 11.2184 2.13683 11.497 1.90087C12.424 1.11574 13.8407 0.310547 15.7338 0.310547C17.6496 0.310547 19.1242 1.16215 20.0979 2.45689C21.0537 3.72788 21.5037 5.38838 21.5037 7.03075C21.5037 8.85351 20.8019 10.5645 19.8213 12.0708C18.8392 13.5795 17.5449 14.9334 16.2762 16.06C15.0043 17.1893 13.7364 18.1093 12.7884 18.7463C12.3135 19.0654 11.917 19.3147 11.6376 19.4851C11.4978 19.5705 11.3873 19.636 11.3108 19.6808C11.2726 19.7032 11.2428 19.7204 11.2222 19.7322C11.2118 19.7382 11.2038 19.7428 11.1981 19.7461C11.1952 19.7476 11.193 19.749 11.1914 19.7499L11.1882 19.7516C11.188 19.7518 11.1882 19.7516 10.7883 19.0192C10.3883 19.7516 10.3886 19.7518 10.3883 19.7516L10.3851 19.7499C10.3835 19.749 10.3813 19.7476 10.3784 19.7461C10.3727 19.7428 10.3647 19.7382 10.3544 19.7322C10.3337 19.7204 10.3039 19.7032 10.2657 19.6808C10.1892 19.636 10.0787 19.5705 9.93895 19.4851C9.65957 19.3147 9.26304 19.0654 8.78818 18.7463C7.84017 18.1093 6.57221 17.1893 5.30038 16.06C4.03166 14.9334 2.73733 13.5795 1.7552 12.0708C0.774608 10.5645 0.072876 8.85351 0.072876 7.03075C0.072876 5.38688 0.526966 3.72651 1.48431 2.45622Z"/>
</symbol>
<symbol id="list1" viewBox="0 0 24 20">
  <path d="M24 20H0v-4h24v4Zm0-8H0V8h24v4Zm0-8H0V0h24v4Z"/>
</symbol>
<symbol id="list2" viewBox="0 0 20 20">
  <path d="M8 20H0v-8h8v8Zm12 0h-8v-8h8v8ZM8 8H0V0h8v8Zm12 0h-8V0h8v8Z"/>
</symbol>
<symbol id="location1" viewBox="0 0 13 16">
  <path fill-rule="evenodd" clip-rule="evenodd" d="M6.5 3C7.36715 3 8.20711 3.32954 8.83301 3.92871C9.46036 4.52929 9.82128 5.35365 9.82129 6.22266C9.82121 7.09147 9.46017 7.91512 8.83301 8.51562C8.2071 9.1148 7.36715 9.44434 6.5 9.44434C5.63285 9.44434 4.7929 9.1148 4.16699 8.51562C3.53983 7.91512 3.1788 7.09147 3.17871 6.22266C3.17872 5.35365 3.53964 4.52929 4.16699 3.92871C4.7929 3.32954 5.63285 3 6.5 3ZM6.5 4C5.88432 4 5.29375 4.23461 4.8584 4.65137C4.42321 5.0681 4.17872 5.63339 4.17871 6.22266C4.1788 6.81192 4.42313 7.37726 4.8584 7.79395C5.29375 8.21067 5.88434 8.44434 6.5 8.44434C7.11566 8.44434 7.70626 8.21067 8.1416 7.79395C8.57687 7.37726 8.82121 6.81192 8.82129 6.22266C8.82128 5.63339 8.57679 5.0681 8.1416 4.65137C7.70625 4.23461 7.11568 4 6.5 4Z"/>
  <path fill-rule="evenodd" clip-rule="evenodd" d="M6.5 0C7.35477 0.000368293 8.20123 0.162814 8.99024 0.477539C9.77914 0.792261 10.4956 1.25328 11.0977 1.83398C12.3157 3.00726 12.9999 4.59826 13 6.25586C13 9.03086 11.4049 11.4577 9.86914 13.1582C9.21434 13.8803 8.50441 14.5555 7.74512 15.1768C7.45588 15.4136 7.21285 15.5973 7.04199 15.7227C6.95597 15.7857 6.88981 15.8343 6.84277 15.8672L6.78809 15.9043L6.77441 15.915L6.76953 15.918L6.76758 15.9189C6.6074 16.0269 6.3926 16.0269 6.23242 15.9189L6.23047 15.918L6.22656 15.915L6.21191 15.9053C6.12645 15.8456 6.04181 15.7844 5.95801 15.7227C5.78715 15.5973 5.54458 15.4136 5.25488 15.1768C4.49559 14.5555 3.78566 13.8803 3.13086 13.1582C1.59514 11.4578 0.000100716 9.03128 4.80098e-07 6.25684C-0.000661365 4.5998 0.682996 3.00913 1.90234 1.83301C2.50441 1.25243 3.22092 0.792179 4.00977 0.477539C4.79877 0.162891 5.64527 0.000310057 6.5 0ZM6.5 1C5.77142 1.00031 5.0512 1.13896 4.38086 1.40625C3.71047 1.67359 3.10401 2.06354 2.59668 2.55273C1.56797 3.54497 0.999537 4.87733 1 6.25586C1.0001 8.65597 2.39196 10.8481 3.87109 12.4863C4.49243 13.1715 5.16745 13.8122 5.88867 14.4023L6.26367 14.7012C6.31965 14.7445 6.37283 14.7831 6.4209 14.8193L6.5 14.7129L6.57813 14.8193C6.72207 14.711 6.90429 14.5719 7.11133 14.4023L7.64356 13.9502C8.16645 13.4891 8.66198 13.0001 9.12793 12.4863C10.6073 10.848 12 8.65677 12 6.25586C11.9999 4.96208 11.4996 3.70958 10.5908 2.74316L10.4033 2.55371C9.89598 2.06438 9.28961 1.67369 8.61914 1.40625C8.03253 1.1723 7.40769 1.03719 6.77246 1.00684L6.5 1Z"/>
</symbol>
<symbol id="minus1" viewBox="0 0 12 2">
  <path d="M1.5 0.25C1.08579 0.25 0.75 0.585786 0.75 1C0.75 1.41421 1.08579 1.75 1.5 1.75L10.5 1.75C10.9142 1.75 11.25 1.41421 11.25 1C11.25 0.585788 10.9142 0.25 10.5 0.25H1.5Z"/>
</symbol>
<symbol id="param1" viewBox="0 0 24 24">
  <path d="M11.999 0C18.6258 6.49013e-09 23.9986 5.37234 23.999 11.999C23.999 13.9174 23.5457 15.7296 22.7451 17.3379C22.737 17.5682 22.6259 17.7869 22.4326 17.9238C20.3684 21.5512 16.4708 23.999 11.999 23.999C5.37228 23.9988 0.000264629 18.6267 0 12C0.000170082 5.3732 5.37223 0.000175304 11.999 0ZM12.666 22.4756C16.2944 22.248 19.4203 20.1787 21.124 17.1904L20.4033 15.5684L12.666 22.4756ZM3.48828 18.1445C5.14794 20.4395 7.71095 22.035 10.6572 22.4111C10.6954 22.2823 10.7675 22.1616 10.875 22.0654L12.6895 20.4443L3.48828 18.1445ZM1.8916 9.15918C1.63822 10.0626 1.50007 11.0146 1.5 11.999C1.5 13.5457 1.83696 15.0138 2.4375 16.3359L4.80469 16.9268L1.8916 9.15918ZM21.9482 15.3525C22.3031 14.2992 22.499 13.1719 22.499 11.999C22.4989 10.4588 22.1643 8.99741 21.5684 7.67969L18.251 7.03516L21.9482 15.3525ZM10.8857 11.0049V15.001H11.6406V13.8018C11.6817 13.8208 11.7211 13.8341 11.7588 13.8418C11.7966 13.8533 11.8502 13.8594 11.9189 13.8594C12.0739 13.8594 12.2139 13.823 12.3379 13.75C12.4653 13.677 12.5533 13.5781 12.6016 13.4551C12.6429 13.5973 12.7203 13.6972 12.834 13.7549C12.9511 13.8125 13.1195 13.8418 13.3398 13.8418C13.4466 13.8418 13.5505 13.8337 13.6504 13.8184V13.3281H13.5723C13.4622 13.3281 13.3884 13.3109 13.3506 13.2764C13.3162 13.2418 13.2988 13.163 13.2988 13.04V11.0098H12.5439V12.9424C12.5439 13.0538 12.5319 13.1366 12.5078 13.1904C12.4837 13.244 12.4377 13.2826 12.3691 13.3057C12.3002 13.3249 12.1911 13.334 12.043 13.334C11.926 13.334 11.8378 13.3229 11.7793 13.2998C11.7244 13.2768 11.6867 13.2382 11.666 13.1846C11.6488 13.1308 11.6406 13.0499 11.6406 12.9424V11.0049H10.8857ZM6.05957 10.0586L5 10.7969V11.5059L5.91406 10.9414V13.8018H6.66895V10.0586H6.05957ZM9.00488 10.001C8.62943 10.001 8.26926 10.0413 7.9248 10.1221V10.7568C8.31404 10.6607 8.62756 10.6123 8.86523 10.6123C9.06135 10.6123 9.20583 10.6336 9.29883 10.6758C9.38493 10.7142 9.4287 10.793 9.42871 10.9121V11.3906C9.42871 11.4906 9.37965 11.5773 9.2832 11.6504C9.18682 11.7233 9.05132 11.7931 8.87598 11.8584C8.70049 11.9237 8.54682 11.9884 8.41602 12.0537C8.25068 12.1344 8.11603 12.2525 8.0127 12.4062C7.90948 12.56 7.85742 12.7408 7.85742 12.9482V13.8018H10.2139V13.1729H8.60156V12.9824C8.60159 12.8671 8.65209 12.7672 8.75195 12.6826C8.85523 12.5981 8.99448 12.5213 9.16992 12.4521C9.33182 12.3945 9.4905 12.3289 9.64551 12.2559C9.81079 12.1828 9.94552 12.0748 10.0488 11.9326C10.1554 11.7867 10.2089 11.6157 10.209 11.4199V10.9004C10.2089 10.5778 10.1086 10.3474 9.90918 10.209C9.71287 10.0706 9.41123 10.001 9.00488 10.001ZM17.1836 10.9521C16.9427 10.9522 16.7622 10.9855 16.6416 11.0508C16.5245 11.1161 16.4447 11.2221 16.4033 11.3682C16.362 11.2259 16.2807 11.122 16.1602 11.0566C16.0397 10.9876 15.8628 10.9522 15.6289 10.9521C15.1846 10.9521 14.9379 11.0853 14.8896 11.3506V11.0098H14.1348V13.8018H14.8896V11.8691C14.8897 11.7467 14.8979 11.6604 14.915 11.6104C14.9357 11.5565 14.9756 11.5192 15.0342 11.5C15.0962 11.4808 15.1978 11.4717 15.3389 11.4717C15.4525 11.4717 15.5324 11.4808 15.5771 11.5C15.6253 11.5192 15.6562 11.5566 15.6699 11.6104C15.6836 11.6603 15.6904 11.7466 15.6904 11.8691V13.8018H16.4443V11.8691C16.4444 11.7466 16.4536 11.6603 16.4707 11.6104C16.4914 11.5565 16.5313 11.5192 16.5898 11.5C16.6519 11.4809 16.7537 11.4717 16.8945 11.4717C17.0079 11.4717 17.087 11.4809 17.1318 11.5C17.1801 11.5192 17.2108 11.5565 17.2246 11.6104C17.2383 11.6603 17.2461 11.7465 17.2461 11.8691V13.8018H18V11.7539C18 11.5619 17.9759 11.4082 17.9277 11.293C17.883 11.1776 17.8017 11.0929 17.6846 11.0391C17.5675 10.9815 17.4005 10.9521 17.1836 10.9521ZM11.7432 1.50684C7.82677 1.60065 4.4425 3.83627 2.71777 7.08984L3.75195 9.84766C3.74273 9.64424 3.8136 9.43738 3.96875 9.28223L11.7432 1.50684ZM11.2295 4.1416L20.5859 5.96094C19.0007 3.71133 16.5559 2.11311 13.7275 1.64453L11.2295 4.1416Z"/>
</symbol>
<symbol id="param2" viewBox="0 0 24 24">
  <path fill-rule="evenodd" clip-rule="evenodd" d="M12.7495 0.804056C12.7495 0.510212 12.7495 0.363289 12.8132 0.249429C12.8669 0.153659 12.9624 0.0699802 13.0643 0.0293353C13.1856 -0.0189873 13.3225 -0.00088995 13.5965 0.0353047C18.9858 0.747326 23.2535 5.01453 23.9656 10.4044C24.0018 10.6783 24.0199 10.8153 23.9715 10.9365C23.9309 11.0385 23.8472 11.134 23.7514 11.1876C23.6376 11.2514 23.4907 11.2514 23.1968 11.2514H20.0463C19.6323 11.2516 19.2963 11.5873 19.2963 12.0014C19.2965 12.4154 19.6324 12.7512 20.0463 12.7514H23.1967C23.4906 12.7514 23.6375 12.7514 23.7514 12.8152C23.8472 12.8689 23.9309 12.9643 23.9715 13.0663C24.0198 13.1876 24.0017 13.3245 23.9655 13.5985C23.253 18.9879 18.9854 23.2546 13.5965 23.9665C13.3225 24.0027 13.1856 24.0208 13.0643 23.9725C12.9624 23.9319 12.8669 23.8482 12.8132 23.7524C12.7495 23.6386 12.7495 23.4916 12.7495 23.1978V20.0483C12.7493 19.6342 12.4136 19.2983 11.9995 19.2983C11.5854 19.2984 11.2496 19.6342 11.2495 20.0483V23.1977C11.2495 23.4915 11.2495 23.6385 11.1857 23.7524C11.132 23.8481 11.0365 23.9318 10.9345 23.9725C10.8133 24.0208 10.6763 24.0026 10.4023 23.9664C5.01429 23.2537 0.747809 18.9872 0.0353847 13.5985C-0.000836965 13.3245 -0.0189478 13.1876 0.02937 13.0663C0.0700109 12.9643 0.15369 12.8689 0.249463 12.8152C0.363328 12.7514 0.510262 12.7514 0.80413 12.7514H3.95356C4.36764 12.7514 4.7034 12.4155 4.70356 12.0014C4.70356 11.5872 4.36773 11.2515 3.95356 11.2514H0.804059C0.510213 11.2514 0.36329 11.2514 0.249429 11.1876C0.153659 11.134 0.0699808 11.0385 0.0293356 10.9365C-0.0189872 10.8153 -0.000890087 10.6783 0.0353041 10.4044C0.747298 5.01516 5.01394 0.748226 10.4023 0.0354464C10.6763 -0.000796482 10.8133 -0.0189179 10.9345 0.0293958C11.0365 0.070033 11.132 0.153713 11.1857 0.249489C11.2495 0.363358 11.2495 0.510299 11.2495 0.804181V3.95258C11.2495 4.36674 11.5853 4.70249 11.9995 4.70258C12.4137 4.70258 12.7495 4.3668 12.7495 3.95258V0.804056ZM11.9995 9.98872C10.8886 9.98879 9.98796 10.8895 9.98774 12.0004C9.98774 13.1115 10.8885 14.0131 11.9995 14.0131C13.1105 14.0131 14.0112 13.1116 14.0112 12.0004C14.011 10.8895 13.1103 9.98872 11.9995 9.98872Z"/>
</symbol>
<symbol id="param3" viewBox="0 0 24 24">
  <path d="M0.219575 0.21967C0.512468 -0.0732233 0.987229 -0.0732232 1.28012 0.21967L23.7791 22.7187C24.0719 23.0116 24.072 23.4864 23.7791 23.7792C23.4863 24.0719 23.0114 24.0719 22.7186 23.7792L19.5526 20.6132C17.0797 23.5813 12.9774 24.5753 9.42465 23.6826C5.54272 22.707 2.25006 19.4696 2.24985 14.083C2.24985 11.032 3.53649 8.33749 5.11508 6.17572L0.219575 1.28022C-0.0732548 0.987387 -0.0731286 0.512578 0.219575 0.21967Z"/>
  <path d="M11.9989 0.411076C13.0173 0.411012 13.6573 0.965984 14.4637 1.61615C15.8206 2.71028 17.6297 4.37848 19.1043 6.48334C20.5784 8.58753 21.7489 11.1731 21.7489 14.083C21.7489 14.5566 21.7232 15.0153 21.6737 15.458C21.6274 15.8692 21.2569 16.1659 20.8456 16.1201C20.434 16.074 20.1376 15.7025 20.1834 15.291C20.2266 14.9055 20.2489 14.5027 20.2489 14.083C20.2489 11.5825 19.2421 9.29399 17.8758 7.34369C16.5102 5.39454 14.8153 3.82651 13.5213 2.78315C12.6113 2.0494 12.3922 1.91105 11.9989 1.91108C11.6057 1.91115 11.386 2.04995 10.4745 2.7851C10.1861 3.01767 9.87691 3.27711 9.55551 3.56147C9.2454 3.83567 8.77138 3.80687 8.49692 3.49701C8.22256 3.18693 8.25153 2.71295 8.56137 2.43842C8.90129 2.13767 9.22831 1.86291 9.53305 1.61713C10.3402 0.966161 10.9805 0.411187 11.9989 0.411076Z"/>
</symbol>
<symbol id="param4" viewBox="0 0 24 24">
  <path d="M5.34766 10.4971C5.69625 10.4971 5.95369 10.5413 6.11914 10.6309C6.28457 10.7161 6.36718 10.8621 6.36719 11.0684V12.9854C6.36719 13.0973 6.33826 13.1914 6.28028 13.2676C6.22665 13.3393 6.14628 13.3915 6.03906 13.4229C5.93176 13.4542 5.82647 13.4768 5.72363 13.4902C5.62527 13.4992 5.50205 13.5039 5.35449 13.5039C5.20722 13.5039 5.08221 13.4992 4.97949 13.4902C4.88123 13.4768 4.77809 13.4542 4.6709 13.4229C4.55912 13.3915 4.47414 13.3393 4.41602 13.2676C4.35795 13.1914 4.32813 13.0974 4.32813 12.9854V11.0684C4.32814 10.8576 4.41172 10.7092 4.57715 10.624C4.74256 10.539 4.99944 10.4971 5.34766 10.4971Z"/>
  <path d="M18.084 10.5635C18.4416 10.5635 18.7013 10.6063 18.8623 10.6914C19.0277 10.7721 19.1103 10.9159 19.1104 11.1221V12.918C19.1104 13.0704 19.0768 13.1831 19.0098 13.2549C18.9471 13.3265 18.8417 13.3755 18.6943 13.4023C18.5513 13.4247 18.3367 13.4365 18.0508 13.4365H17.2861V10.5635H18.084Z"/>
  <path fill-rule="evenodd" clip-rule="evenodd" d="M16.501 3.53052e-07C17.1293 -3.69082e-08 17.6525 -0.000511181 18.0762 0.0390629C18.5106 0.0796672 18.9158 0.167892 19.2891 0.391602C19.6768 0.624054 20.0019 0.948184 20.2344 1.33594C20.4581 1.70928 20.5463 2.11527 20.5869 2.5498C20.6123 2.82129 20.6189 3.13361 20.6221 3.48828C20.6286 3.48914 20.6351 3.49034 20.6416 3.49121C21.5416 3.61225 22.2995 3.8718 22.9014 4.47363C23.5031 5.07551 23.7618 5.83343 23.8828 6.7334C24.0009 7.61191 23.999 8.73206 23.999 10.125V13.875C23.999 15.2678 24.0009 16.3881 23.8828 17.2666C23.7618 18.1667 23.5033 18.9254 22.9014 19.5273C22.2996 20.1291 21.5415 20.3878 20.6416 20.5088C20.6351 20.5097 20.6286 20.5099 20.6221 20.5107C20.619 20.8658 20.6123 21.1785 20.5869 21.4502C20.5463 21.8848 20.4582 22.2907 20.2344 22.6641C20.0019 23.0519 19.6769 23.3759 19.2891 23.6084C18.9158 23.8321 18.5106 23.9203 18.0762 23.9609C17.6525 24.0005 17.1293 24 16.501 24H7.50098C6.87258 24 6.34946 24.0005 5.92578 23.9609C5.49124 23.9203 5.08527 23.8322 4.71192 23.6084C4.32433 23.376 3.99998 23.0516 3.76758 22.6641C3.54379 22.2907 3.45564 21.8848 3.41504 21.4502C3.38967 21.1785 3.38203 20.8658 3.37891 20.5107C3.37209 20.5098 3.36519 20.5097 3.3584 20.5088C2.45847 20.3878 1.70049 20.129 1.09863 19.5273C0.496718 18.9254 0.237229 18.1667 0.116213 17.2666C-0.00184393 16.3881 1.78813e-06 15.2678 1.78813e-06 13.875V10.125C1.78614e-06 8.73209 -0.00187744 7.6119 0.116213 6.7334C0.237229 5.83329 0.496718 5.07555 1.09863 4.47363C1.70055 3.87172 2.45829 3.61223 3.3584 3.49121C3.36523 3.49029 3.37205 3.48919 3.37891 3.48828C3.38203 3.1336 3.3897 2.8213 3.41504 2.5498C3.45564 2.11524 3.54379 1.70931 3.76758 1.33594C3.99999 0.94832 4.3243 0.624012 4.71192 0.391602C5.08529 0.167805 5.49121 0.0796599 5.92578 0.0390629C6.34946 -0.000489864 6.87257 2.86049e-07 7.50098 3.53052e-07H16.501ZM19.1211 20.6113C18.5613 20.6252 17.9385 20.625 17.249 20.625H6.75C6.06078 20.625 5.43834 20.6252 4.87891 20.6113C4.88243 20.8918 4.89024 21.118 4.90821 21.3105C4.93873 21.6373 4.993 21.7912 5.05371 21.8926C5.15938 22.0688 5.30713 22.2166 5.4834 22.3223C5.58476 22.383 5.73868 22.4372 6.06543 22.4678C6.40315 22.4993 6.84423 22.5 7.50098 22.5H16.501C17.1578 22.5 17.5988 22.4993 17.9365 22.4678C18.2634 22.4372 18.4172 22.383 18.5186 22.3223C18.6947 22.2166 18.8416 22.0687 18.9473 21.8926C19.008 21.7912 19.0632 21.6375 19.0938 21.3105C19.1117 21.118 19.1176 20.8918 19.1211 20.6113ZM5.34082 9.75C5.16661 9.75001 5.00109 9.75707 4.84473 9.77051C4.67489 9.78398 4.49156 9.81966 4.29492 9.87793C4.09834 9.93619 3.93291 10.0077 3.79883 10.0928C3.6468 10.1914 3.52122 10.3267 3.42285 10.4971C3.32911 10.6674 3.28223 10.8601 3.28223 11.0752V12.9854C3.28223 13.2454 3.34928 13.4675 3.4834 13.6514C3.61754 13.8307 3.80306 13.9613 4.04004 14.042C4.25911 14.1182 4.46971 14.1717 4.6709 14.2031C4.87636 14.2345 5.09968 14.25 5.34082 14.25C5.84161 14.25 6.29387 14.1693 6.69629 14.0078C6.91958 13.9182 7.09362 13.786 7.21875 13.6113C7.34842 13.4364 7.41406 13.2275 7.41406 12.9854V11.0752C7.41406 10.8421 7.36487 10.6424 7.2666 10.4766C7.17271 10.3151 7.05561 10.1893 6.91699 10.0996C6.77847 10.01 6.60207 9.93381 6.3877 9.87109C6.19996 9.82178 6.02992 9.7908 5.87793 9.77734C5.72591 9.75941 5.5465 9.75 5.34082 9.75ZM8.25586 14.1826H11.4414V13.4365H9.30176V9.81738H8.25586V14.1826ZM12.1465 14.1826H15.5332V13.4365H13.1924V12.3125H15.2451V11.5664H13.1924V10.5635H15.4658V9.81738H12.1465V14.1826ZM16.2402 14.1826H18.0977C18.6208 14.1826 19.0301 14.1469 19.3252 14.0752C19.6203 13.999 19.8323 13.8708 19.9619 13.6914C20.0916 13.5076 20.1572 13.2498 20.1572 12.918V11.1426C20.1572 10.8018 20.0878 10.5346 19.9492 10.3418C19.8106 10.149 19.593 10.0147 19.2979 9.93848C19.0028 9.85783 18.6003 9.81738 18.0908 9.81738H16.2402V14.1826ZM7.50098 1.5C6.84423 1.5 6.40315 1.50072 6.06543 1.53223C5.73862 1.56276 5.58476 1.61701 5.4834 1.67773C5.3071 1.78341 5.15939 1.93112 5.05371 2.10742C4.99299 2.20879 4.93873 2.36266 4.90821 2.68945C4.89026 2.88178 4.88243 3.1076 4.87891 3.3877C5.43834 3.37386 6.06079 3.375 6.75 3.375H17.249C17.9385 3.375 18.5613 3.37385 19.1211 3.3877C19.1176 3.10762 19.1117 2.88177 19.0938 2.68945C19.0632 2.36265 19.008 2.20879 18.9473 2.10742C18.8417 1.93129 18.6947 1.78337 18.5186 1.67773C18.4172 1.61698 18.2634 1.56277 17.9365 1.53223C17.5988 1.50068 17.1578 1.5 16.501 1.5H7.50098Z"/>
</symbol>
<symbol id="param5" viewBox="0 0 24 24">
  <path d="M13.5 7.49805C14.9142 7.49805 15.6212 7.49816 16.0605 7.9375C16.4999 8.37684 16.5 9.08385 16.5 10.498V13.4971C16.5 14.9111 16.4997 15.6183 16.0605 16.0576C15.6212 16.497 14.9142 16.4971 13.5 16.4971H10.501C9.08676 16.4971 8.37977 16.497 7.94043 16.0576C7.50126 15.6183 7.50098 14.9111 7.50098 13.4971V10.498C7.50098 9.08383 7.50109 8.37684 7.94043 7.9375C8.37977 7.49816 9.08676 7.49805 10.501 7.49805H13.5Z"/>
  <path fill-rule="evenodd" clip-rule="evenodd" d="M16.5 0C16.9142 0 17.25 0.335786 17.25 0.75V3.49023C17.2545 3.49084 17.2591 3.49158 17.2637 3.49219C18.1637 3.6132 18.9216 3.87278 19.5234 4.47461C19.9991 4.95036 20.2586 5.52374 20.4072 6.1875H23.248C23.6621 6.1877 23.998 6.52341 23.998 6.9375C23.998 7.35159 23.6621 7.6873 23.248 7.6875H20.5869C20.6217 8.38438 20.6221 9.19439 20.6221 10.126V10.6875H23.25C23.664 10.6877 24 11.0234 24 11.4375C23.9997 11.8514 23.6639 12.1873 23.25 12.1875H20.6221V13.875C20.6221 14.3421 20.6204 14.7786 20.6162 15.1855H23.25C23.664 15.1857 24 15.5215 24 15.9355C24 16.3496 23.664 16.6853 23.25 16.6855H20.5645C20.5492 16.8897 20.5305 17.0837 20.5059 17.2666C20.3848 18.1665 20.1252 18.9246 19.5234 19.5264C18.9216 20.128 18.1636 20.3878 17.2637 20.5088C17.2592 20.5094 17.2545 20.5092 17.25 20.5098V23.25C17.2496 23.6639 16.914 24 16.5 24C16.086 24 15.7504 23.6639 15.75 23.25V20.6104C15.1888 20.6244 14.5641 20.625 13.8721 20.625H12.749V23.249C12.7489 23.6631 12.4132 23.999 11.999 23.999C11.5849 23.999 11.2492 23.6631 11.249 23.249V20.625H10.124C9.434 20.625 8.81092 20.6242 8.25098 20.6104V23.25C8.25058 23.6639 7.91495 24 7.50098 24C7.087 24 6.75137 23.6639 6.75098 23.25V20.5107C6.7448 20.5099 6.73857 20.5096 6.73242 20.5088C5.83247 20.3878 5.07452 20.1281 4.47266 19.5264C3.87085 18.9246 3.61128 18.1665 3.49023 17.2666C3.46564 17.0837 3.44693 16.8897 3.43164 16.6855H0.75C0.335786 16.6855 -3.88316e-10 16.3498 0 15.9355C1.81066e-08 15.5213 0.335786 15.1855 0.75 15.1855H3.37988C3.37571 14.7786 3.37402 14.3421 3.37402 13.875V12.1875H0.75C0.335949 12.1875 0.000263763 11.8515 0 11.4375C1.81066e-08 11.0233 0.335786 10.6875 0.75 10.6875H3.37402V10.126C3.37402 9.1944 3.37441 8.38439 3.40918 7.6875H0.75C0.335786 7.6875 -3.88316e-10 7.35171 0 6.9375C1.81066e-08 6.52329 0.335786 6.1875 0.75 6.1875H3.58887C3.73745 5.52374 3.99702 4.95036 4.47266 4.47461C5.07456 3.87271 5.83234 3.61321 6.73242 3.49219C6.73791 3.49145 6.74351 3.49096 6.74902 3.49023V0.75C6.74902 0.335786 7.08481 0 7.49902 0C7.91324 0 8.24902 0.335786 8.24902 0.75V3.38867C8.80946 3.37473 9.43321 3.37598 10.124 3.37598H11.249V0.75C11.249 0.335786 11.5848 0 11.999 0C12.4132 0 12.749 0.335786 12.749 0.75V3.37598H13.8721C14.564 3.37598 15.1888 3.37465 15.75 3.38867V0.75C15.75 0.335786 16.0858 0 16.5 0ZM10.124 4.87598C8.68887 4.87598 7.68792 4.87799 6.93262 4.97949C6.19888 5.07815 5.80996 5.2584 5.5332 5.53516C5.25658 5.8119 5.07616 6.20101 4.97754 6.93457C4.8761 7.68982 4.87402 8.69113 4.87402 10.126V11.418C4.87418 11.4243 4.875 11.4311 4.875 11.4375C4.875 11.4437 4.87418 11.4499 4.87402 11.4561V13.875C4.87402 15.3099 4.87604 16.3112 4.97754 17.0664C5.07621 17.7999 5.2565 18.1891 5.5332 18.4658C5.80995 18.7424 6.19912 18.9229 6.93262 19.0215C7.68791 19.123 8.68892 19.125 10.124 19.125H11.9795C11.986 19.1248 11.9925 19.124 11.999 19.124C12.0056 19.124 12.0121 19.1248 12.0186 19.125H13.8721C15.3074 19.125 16.3091 19.123 17.0645 19.0215C17.7977 18.9229 18.1862 18.7423 18.4629 18.4658C18.7396 18.1891 18.9209 17.7999 19.0195 17.0664C19.121 16.3112 19.1221 15.3098 19.1221 13.875V10.126C19.1221 8.69119 19.121 7.6898 19.0195 6.93457C18.9209 6.20101 18.7395 5.8119 18.4629 5.53516C18.1862 5.2585 17.7979 5.07815 17.0645 4.97949C16.3091 4.87794 15.3075 4.87598 13.8721 4.87598H10.124Z"/>
</symbol>
<symbol id="play" viewBox="0 0 19 20">
  <path d="M19 10 0 20V0l19 10Z"/>
</symbol>
<symbol id="plus1" viewBox="0 0 12 11">
  <path d="M6.75 0.90448C6.75 0.490266 6.41421 0.15448 6 0.15448C5.58579 0.15448 5.25 0.490266 5.25 0.90448V4.65448H1.5C1.08579 4.65448 0.75 4.99027 0.75 5.40448C0.75 5.81869 1.08579 6.15448 1.5 6.15448H5.25V9.90448C5.25 10.3187 5.58579 10.6545 6 10.6545C6.41421 10.6545 6.75 10.3187 6.75 9.90448V6.15448H10.5C10.9142 6.15448 11.25 5.81869 11.25 5.40448C11.25 4.99027 10.9142 4.65448 10.5 4.65448H6.75V0.90448Z"/>
</symbol>
<symbol id="search1" viewBox="0 0 21 21">
  <path d="M16.031 14.617L20.314 18.899L18.899 20.314L14.617 16.031C13.0237 17.3082 11.042 18.0029 9 18C4.032 18 0 13.968 0 9C0 4.032 4.032 0 9 0C13.968 0 18 4.032 18 9C18.0029 11.042 17.3082 13.0237 16.031 14.617ZM14.025 13.875C15.2941 12.5699 16.0029 10.8204 16 9C16 5.132 12.867 2 9 2C5.132 2 2 5.132 2 9C2 12.867 5.132 16 9 16C10.8204 16.0029 12.5699 15.2941 13.875 14.025L14.025 13.875Z"/>
</symbol>
<symbol id="shipping1" viewBox="0 0 23 16">
  <path d="M22.8571 8.79412C22.8571 7.52525 21.827 6.49314 20.5608 6.49314H19.7133L17.4095 2.19187H14.9834V0.574768H0V13.6496H2.14233C2.43495 14.6854 3.3864 15.4469 4.51259 15.4469C5.63878 15.4469 6.59023 14.6854 6.88285 13.6496H15.7258C16.0182 14.6854 16.9697 15.4469 18.0961 15.4469C19.2222 15.4469 20.1737 14.6854 20.4661 13.6496H22.8571V8.79412ZM16.6084 3.53378L18.1934 6.49314H14.9834V3.53378H16.6084ZM4.51259 14.105C3.89265 14.105 3.3885 13.5997 3.3885 12.9787C3.3885 12.3575 3.89265 11.8522 4.51259 11.8522C5.13253 11.8522 5.63668 12.3575 5.63668 12.9787C5.63668 13.5997 5.13253 14.105 4.51259 14.105ZM4.51259 10.5105C3.3864 10.5105 2.43495 11.2719 2.14233 12.3077H1.33929V1.91667H13.6441V12.3077H6.88285C6.59023 11.2718 5.63878 10.5105 4.51259 10.5105ZM18.0961 14.105C17.4761 14.105 16.9718 13.5997 16.9718 12.9787C16.9718 12.3575 17.4761 11.8522 18.0961 11.8522C18.7158 11.8522 19.2201 12.3575 19.2201 12.9787C19.2201 13.5997 18.7158 14.105 18.0961 14.105ZM20.4661 12.3077C20.1735 11.2719 19.2221 10.5105 18.0959 10.5105C16.9697 10.5105 16.0182 11.2719 15.7258 12.3077H14.9834V7.83504H20.5607C21.0885 7.83504 21.5179 8.26522 21.5179 8.79412V9.16856H20.4911V10.5105H21.5179V12.3077H20.4661Z"/>
</symbol>
<symbol id="social-tg" viewBox="0 0 40 40">
  <path fill-rule="evenodd" clip-rule="evenodd" d="M40 40H0V0H40V40ZM27.9912 13.1309C28.1451 11.4581 26.3156 12.1343 26.2959 12.1416C20.6946 14.3679 14.3719 16.7424 9.23242 19.0674C7.14287 19.8032 8.33865 20.5388 8.3584 20.5508L11.6992 21.541C13.2406 21.9863 14.0635 21.4902 14.0635 21.4902L21.2588 16.791C23.8278 15.1096 23.2113 16.4945 22.5947 17.0879L17.1992 22.0352C16.3765 22.7276 16.7875 23.321 17.1475 23.6182C18.4315 24.7056 22.0769 26.9304 22.2861 27.0811C22.5433 27.279 23.9317 28.1692 24.8564 27.9717C25.7814 27.7735 25.8838 26.6357 25.8838 26.6357L27.1172 18.8691C27.4771 16.2478 27.9401 13.8238 27.9912 13.1309Z"/>
</symbol>
<symbol id="social-vk" viewBox="0 0 40 40">
  <path fill-rule="evenodd" clip-rule="evenodd" d="M40 40H0V0H40V40ZM8.88965 13C8.12715 13 8 13.3488 8 13.7227C8.00026 14.3961 8.88972 17.7835 12.1426 22.2666C14.3031 25.3291 17.3789 26.9755 20.1494 26.9756C21.8274 26.9756 22.0303 26.6012 22.0303 25.9785V23.6621C22.0303 22.9151 22.183 22.7901 22.7168 22.79C23.0978 22.79 23.7845 22.9891 25.335 24.459C27.1137 26.2024 27.4189 26.9998 28.4102 27H31.0283C31.7907 27 32.1466 26.6264 31.9434 25.9043C31.7149 25.1819 30.8509 24.135 29.7324 22.8896C29.1226 22.1927 28.2075 21.4208 27.9277 21.0469C27.5467 20.5486 27.6482 20.3486 27.9277 19.9004C27.9426 19.8452 31.106 15.458 31.4346 13.9707L31.4639 13.8711C31.5881 13.3755 31.3857 13.0254 30.6475 13.0254H28.0293C27.3688 13.0254 27.0637 13.3747 26.8857 13.748C26.8716 13.7816 25.5283 16.9474 23.6572 19.0039C23.0473 19.6017 22.768 19.8008 22.4375 19.8008C22.2595 19.8008 22.0303 19.6015 22.0303 19.0537V13.9463C22.0302 13.2989 21.827 13 21.2676 13H17.1504C16.7435 13 16.4894 13.2988 16.4893 13.5977C16.4893 14.2204 17.4297 14.3706 17.5312 16.1143V19.9023C17.5312 20.7244 17.3809 20.875 17.0479 20.875C16.1583 20.8746 13.9981 17.6607 12.7021 13.999C12.4502 13.2741 12.194 13.0001 11.5332 13H8.88965Z"/>
</symbol>
<symbol id="social-yt" viewBox="0 0 40 40">
<path d="M23.6787 20.3945L23.499 20.4854L22.9521 20.7666H22.9502L17.75 23.4404V17.3691L23.6787 20.3945Z"/>
<path fill-rule="evenodd" clip-rule="evenodd" d="M40 40H0V0H40V40ZM14.749 13C9.00044 13 9 14.6106 9 18.5684V22.4346C9 26.1969 9.81447 28 14.749 28H25.251C29.7083 28 31 26.9473 31 22.4346V18.5684C30.9973 14.4022 30.7799 13 25.249 13H14.749Z"/>
</symbol>
<symbol id="user1" viewBox="0 0 20 20">
<path d="M10 11.6602C10.7943 11.6602 11.5495 11.5039 12.2656 11.1914C12.9688 10.8919 13.584 10.4785 14.1113 9.95117C14.6387 9.42383 15.0586 8.80208 15.3711 8.08594C15.6706 7.38281 15.8203 6.6276 15.8203 5.82031C15.8203 5.01302 15.6706 4.25781 15.3711 3.55469C15.0586 2.85156 14.6387 2.23633 14.1113 1.70898C13.584 1.18164 12.9688 0.761719 12.2656 0.449219C11.5495 0.14974 10.7943 0 10 0C9.19271 0 8.43099 0.14974 7.71484 0.449219C7.01172 0.761719 6.39648 1.18164 5.86914 1.70898C5.3418 2.23633 4.92188 2.85156 4.60938 3.55469C4.3099 4.25781 4.16016 5.01302 4.16016 5.82031C4.16016 6.6276 4.3099 7.38281 4.60938 8.08594C4.92188 8.80208 5.3418 9.42383 5.86914 9.95117C6.39648 10.4785 7.01172 10.8919 7.71484 11.1914C8.43099 11.5039 9.19271 11.6602 10 11.6602ZM10 1.66016C10.5729 1.66016 11.1133 1.77083 11.6211 1.99219C12.1159 2.20052 12.5521 2.49349 12.9297 2.87109C13.3073 3.2487 13.6068 3.69141 13.8281 4.19922C14.0495 4.70703 14.1602 5.2474 14.1602 5.82031C14.1602 6.39323 14.0495 6.93359 13.8281 7.44141C13.6068 7.94922 13.3073 8.39193 12.9297 8.76953C12.5521 9.14714 12.1159 9.44661 11.6211 9.66797C11.1133 9.8763 10.5729 9.98047 10 9.98047C9.41406 9.98047 8.8737 9.8763 8.37891 9.66797C7.87109 9.44661 7.42839 9.14714 7.05078 8.76953C6.67318 8.39193 6.3737 7.94922 6.15234 7.44141C5.93099 6.93359 5.82031 6.39323 5.82031 5.82031C5.82031 5.2474 5.93099 4.70703 6.15234 4.19922C6.3737 3.69141 6.67318 3.2487 7.05078 2.87109C7.42839 2.49349 7.87109 2.20052 8.37891 1.99219C8.8737 1.77083 9.41406 1.66016 10 1.66016ZM5 12.4805C4.41406 12.4805 3.8737 12.5911 3.37891 12.8125C2.87109 13.0339 2.42839 13.3333 2.05078 13.7109C1.67318 14.0885 1.3737 14.5312 1.15234 15.0391C0.93099 15.5339 0.820312 16.0742 0.820312 16.6602V20H2.5V16.6602C2.5 15.9701 2.74414 15.3809 3.23242 14.8926C3.7207 14.4043 4.3099 14.1602 5 14.1602H15C15.6771 14.1602 16.263 14.4043 16.7578 14.8926C17.2526 15.3809 17.5 15.9701 17.5 16.6602V20H19.1602V16.6602C19.1602 16.0742 19.0495 15.5339 18.8281 15.0391C18.6068 14.5312 18.3073 14.0885 17.9297 13.7109C17.5521 13.3333 17.1159 13.0339 16.6211 12.8125C16.1133 12.5911 15.5729 12.4805 15 12.4805H5Z"/>
</symbol>
</svg>