<svg width="48" height="50" viewBox="0 0 48 50" fill="none" xmlns="http://www.w3.org/2000/svg">
<path d="M15.9645 4.47949C16.8757 4.47949 17.6148 5.21771 17.6149 6.12891C17.6149 7.04018 16.8758 7.7793 15.9645 7.7793H15.6579C13.8075 7.7793 12.5652 7.78212 11.6169 7.89551C10.7126 8.00364 10.2622 8.19464 9.9323 8.45215C9.60242 8.70971 9.30733 9.10009 8.98308 9.95117C8.64303 10.8438 8.33913 12.0485 7.8903 13.8438L4.97136 25.5186C4.59619 27.0192 4.43125 27.686 4.31902 28.3525C4.09333 29.6928 4.02248 31.0548 4.10905 32.4111C4.15212 33.0856 4.24871 33.7657 4.46745 35.2969C4.93471 38.5677 5.13541 39.8528 5.59636 40.8564C6.55962 42.9536 8.38107 44.5335 10.5934 45.1904C11.6521 45.5047 12.9529 45.5215 16.2565 45.5215H31.3659C34.6697 45.5215 35.9703 45.5048 37.029 45.1904C39.2414 44.5335 41.0628 42.9537 42.026 40.8564C42.487 39.8528 42.6877 38.5676 43.155 35.2969C43.3737 33.7658 43.4693 33.0855 43.5124 32.4111C43.5989 31.0548 43.5291 29.6927 43.3034 28.3525C43.1912 27.686 43.0253 27.0193 42.6501 25.5186L39.7321 13.8438C39.2833 12.0484 38.9784 10.8438 38.6384 9.95117C38.3142 9.10032 38.0199 8.70969 37.6901 8.45215C37.3602 8.1946 36.9098 8.00366 36.0055 7.89551C35.0571 7.78209 33.8143 7.7793 31.9635 7.7793H31.6569C30.7458 7.77907 30.0075 7.04003 30.0075 6.12891C30.0076 5.21785 30.7459 4.47972 31.6569 4.47949H31.9635C33.7339 4.47949 35.2076 4.47592 36.3971 4.61816C37.6308 4.76568 38.7405 5.08648 39.7204 5.85156C40.7002 6.6166 41.28 7.61545 41.7223 8.77637C42.1488 9.89591 42.5039 11.3264 42.9333 13.0439L45.8522 24.7178C46.2155 26.171 46.4188 26.9819 46.5573 27.8047C46.8251 29.3953 46.9091 31.0114 46.8063 32.6211C46.7532 33.4537 46.6334 34.2808 46.4216 35.7637C45.9861 38.8117 45.7356 40.6862 45.0251 42.2334C43.6649 45.1949 41.0925 47.4257 37.9684 48.3535C36.3362 48.8382 34.445 48.8213 31.3659 48.8213H16.2565C13.1774 48.8213 11.2862 48.8381 9.65398 48.3535C6.52977 47.4258 3.95757 45.195 2.59734 42.2334C1.88679 40.6862 1.6363 38.8118 1.20085 35.7637C0.989005 34.2808 0.869234 33.4537 0.816086 32.6211C0.713342 31.0114 0.79632 29.3952 1.06413 27.8047C1.20268 26.9819 1.40687 26.171 1.77019 24.7178L4.68913 13.0439C5.11852 11.3264 5.47258 9.89591 5.89909 8.77637C6.34135 7.61549 6.92135 6.61661 7.90105 5.85156C8.88095 5.08648 9.99164 4.76568 11.2253 4.61816C12.4147 4.47599 13.8879 4.47949 15.6579 4.47949H15.9645ZM22.1608 2.33789C22.1608 1.42662 22.8999 0.6875 23.8112 0.6875C24.7225 0.687509 25.4616 1.42663 25.4616 2.33789V17.376L29.8874 12.9512C30.5317 12.3068 31.576 12.3069 32.2204 12.9512C32.8647 13.5955 32.8647 14.6398 32.2204 15.2842L24.9782 22.5273C24.3338 23.1717 23.2886 23.1717 22.6442 22.5273L15.402 15.2842L15.2887 15.1592C14.76 14.5111 14.7979 13.5553 15.402 12.9512C16.0062 12.3471 16.962 12.3091 17.61 12.8379L17.735 12.9512L22.1608 17.376V2.33789Z" fill="#47647A"/>
<path d="M11.64 37.48L17.048 30.392H11.8V28.616H20.12V30.12L14.712 37.208H20.216V39H11.64V37.48ZM21.9169 28.616H24.4129V39H21.9169V28.616ZM26.6513 28.616H30.8113C31.8246 28.616 32.6246 28.6853 33.2113 28.824C33.8086 28.9627 34.2406 29.208 34.5073 29.56C34.7846 29.9013 34.9233 30.3813 34.9233 31V32.968C34.9233 33.6507 34.7739 34.184 34.4753 34.568C34.1873 34.952 33.7233 35.224 33.0833 35.384C32.4539 35.544 31.6006 35.624 30.5233 35.624H29.1473V39H26.6513V28.616ZM30.7313 33.912C31.3819 33.912 31.8406 33.8373 32.1073 33.688C32.3739 33.528 32.5073 33.2613 32.5073 32.888V31.224C32.5073 30.8827 32.3793 30.6587 32.1233 30.552C31.8779 30.4453 31.4033 30.392 30.6993 30.392H29.1473V33.912H30.7313Z" fill="#D4DBE1"/>
</svg>
