<svg xmlns="http://www.w3.org/2000/svg" version="1.1" xmlns:xlink="http://www.w3.org/1999/xlink" width="1000" height="1000"><style>
    #light-icon {
      display: inline;
    }
    #dark-icon {
      display: none;
    }

    @media (prefers-color-scheme: dark) {
      #light-icon {
        display: none;
      }
      #dark-icon {
        display: inline;
      }
    }
  </style><g id="light-icon"><svg xmlns="http://www.w3.org/2000/svg" version="1.1" xmlns:xlink="http://www.w3.org/1999/xlink" width="1000" height="1000"><g><g transform="matrix(1.953125,0,0,1.953125,0,0)"><svg xmlns="http://www.w3.org/2000/svg" version="1.1" xmlns:xlink="http://www.w3.org/1999/xlink" width="512" height="512"><svg width="512" height="512" viewBox="0 0 512 512" fill="none" xmlns="http://www.w3.org/2000/svg">
<path d="M305.727 89.9959C379.474 110.977 433.362 177.413 433.362 256.137C433.362 289.686 423.557 321.001 406.596 347.498L417.438 375.183C443.13 342.087 458.373 300.857 458.373 256.137C458.373 160.062 388.026 80.0462 294.849 62.3115L305.691 89.9959H305.727Z" fill="#16171D"></path>
<path d="M105.314 347.498C88.3887 320.966 78.5486 289.686 78.5486 256.137C78.5486 177.413 132.437 111.012 206.183 89.9959L217.025 62.3115C123.849 80.0113 53.5012 160.027 53.5012 256.137C53.5012 300.857 68.7443 342.087 94.4359 375.183L105.278 347.498H105.314Z" fill="#16171D"></path>
<path d="M335.053 411.056C311.258 422.646 284.422 429.209 255.975 429.209C227.528 429.209 200.692 422.646 176.861 411.056L154.068 426.765C184.017 443.837 218.797 453.647 255.975 453.647C293.153 453.647 327.897 443.837 357.847 426.8L335.053 411.09V411.056Z" fill="#16171D"></path>
<path d="M256 496.234C120.923 496.234 11 388.534 11 256.117C11 123.7 120.887 16 256 16C391.113 16 501 123.7 501 256.117C501 388.534 391.113 496.234 256 496.234V496.234ZM256 26.5081C126.218 26.5081 20.6612 129.53 20.6612 256.117C20.6612 382.704 126.254 485.725 256 485.725C385.746 485.725 491.339 382.704 491.339 256.117C491.339 129.53 385.746 26.5081 256 26.5081" fill="#16171D"></path>
<path d="M408.001 425.479L361.914 304.478H361.986L433.407 251.134H78.5915L149.869 304.478H150.084L102.279 429.947L177.601 377.895L206.369 304.478H305.593L334.362 377.895L409.719 429.947L408.001 425.479Z" fill="#16171D"></path>
<path d="M238.946 221.366L256.015 177.867L273.047 221.366H330.262L256.015 26.4934L181.767 221.366H238.946Z" fill="#16171D"></path>
</svg></svg></g></g></svg></g><g id="dark-icon"><svg xmlns="http://www.w3.org/2000/svg" version="1.1" xmlns:xlink="http://www.w3.org/1999/xlink" width="1000" height="1000"><g><g transform="matrix(1.953125,0,0,1.953125,0,0)"><svg xmlns="http://www.w3.org/2000/svg" version="1.1" xmlns:xlink="http://www.w3.org/1999/xlink" width="512" height="512"><svg width="512" height="512" viewBox="0 0 512 512" fill="none" xmlns="http://www.w3.org/2000/svg">
<path d="M305.727 89.9959C379.474 110.977 433.362 177.413 433.362 256.137C433.362 289.686 423.557 321.001 406.596 347.498L417.438 375.183C443.13 342.087 458.373 300.857 458.373 256.137C458.373 160.062 388.026 80.0462 294.849 62.3115L305.691 89.9959H305.727Z" fill="white"></path>
<path d="M105.314 347.498C88.3887 320.966 78.5486 289.686 78.5486 256.137C78.5486 177.413 132.437 111.012 206.183 89.9959L217.025 62.3115C123.849 80.0113 53.5012 160.027 53.5012 256.137C53.5012 300.857 68.7443 342.087 94.4359 375.183L105.278 347.498H105.314Z" fill="white"></path>
<path d="M335.053 411.056C311.258 422.646 284.422 429.209 255.975 429.209C227.528 429.209 200.692 422.646 176.861 411.056L154.068 426.765C184.017 443.837 218.797 453.647 255.975 453.647C293.153 453.647 327.897 443.837 357.847 426.8L335.053 411.09V411.056Z" fill="white"></path>
<path d="M256 496.234C120.923 496.234 11 388.534 11 256.117C11 123.7 120.887 16 256 16C391.113 16 501 123.7 501 256.117C501 388.534 391.113 496.234 256 496.234V496.234ZM256 26.5081C126.218 26.5081 20.6612 129.53 20.6612 256.117C20.6612 382.704 126.254 485.725 256 485.725C385.746 485.725 491.339 382.704 491.339 256.117C491.339 129.53 385.746 26.5081 256 26.5081" fill="white"></path>
<path d="M408.001 425.479L361.914 304.478H361.986L433.407 251.134H78.5915L149.869 304.478H150.084L102.279 429.947L177.601 377.895L206.369 304.478H305.593L334.362 377.895L409.719 429.947L408.001 425.479Z" fill="white"></path>
<path d="M238.946 221.366L256.015 177.867L273.047 221.366H330.262L256.015 26.4934L181.767 221.366H238.946Z" fill="white"></path>
</svg></svg></g></g></svg></g></svg>