<svg xmlns="http://www.w3.org/2000/svg" width="21" height="16" fill="currentColor" viewBox="0 0 21 16">
  <path d="M5.248-.05c.1 0 .2.023.29.069l.083.05c.026.018.051.04.075.063l.012.012L9.78 4.133a.613.613 0 0 1 0 .879.643.643 0 0 1-.895 0L5.88 2.067V15.43a.628.628 0 0 1-.634.62.627.627 0 0 1-.633-.62V2.073l-3 2.939a.643.643 0 0 1-.895 0 .613.613 0 0 1 0-.88L4.765.17a.636.636 0 0 1 .481-.219h.002Zm10.504 0c.348 0 .633.277.633.621v13.355l3-2.938a.643.643 0 0 1 .895 0 .613.613 0 0 1 0 .88l-4.047 3.963a.637.637 0 0 1-.481.219h-.002a.647.647 0 0 1-.22-.038l-.07-.03a.632.632 0 0 1-.158-.114l-.012-.012-4.072-3.989a.613.613 0 0 1 0-.879.642.642 0 0 1 .895 0l3.005 2.944V.572c0-.345.285-.622.634-.622Z"/>
</svg>
