<svg width="22" height="20" viewBox="0 0 22 20" xmlns="http://www.w3.org/2000/svg">
  <path fill-rule="evenodd" clip-rule="evenodd" d="M2.79306 3.47496C2.09844 4.39665 1.7214 5.67751 1.7214 7.03075C1.7214 8.41355 2.25606 9.80381 3.13005 11.1463C4.00251 12.4866 5.18093 13.729 6.38503 14.7983C7.58595 15.8646 8.7908 16.7396 9.69739 17.3487C10.1498 17.6527 10.5259 17.8892 10.7875 18.0488C10.7878 18.0489 10.7873 18.0487 10.7875 18.0488C10.7877 18.0487 10.7887 18.0489 10.789 18.0488C11.0506 17.8892 11.4267 17.6527 11.8791 17.3487C12.7857 16.7396 13.9906 15.8646 15.1915 14.7983C16.3955 13.729 17.574 12.4866 18.4465 11.1463C19.3205 9.80381 19.8551 8.41355 19.8551 7.03075C19.8551 5.67601 19.4808 4.39528 18.7881 3.47429C18.1133 2.57705 17.1151 1.98595 15.7338 1.98595C14.33 1.98595 13.2738 2.57691 12.5523 3.18796C12.1912 3.49388 11.92 3.80015 11.741 4.02758C11.6519 4.14085 11.5866 4.23321 11.5454 4.29435C11.5247 4.32485 11.5102 4.34745 11.5019 4.36078C11.4977 4.36745 11.4949 4.37178 11.4938 4.37365C11.4936 4.37398 11.4933 4.37458 11.4938 4.37365L10.7912 5.56381L10.0848 4.37711C10.0853 4.37805 10.085 4.37745 10.0848 4.37711C10.0841 4.37605 10.0824 4.37328 10.0808 4.37068C10.0795 4.36865 10.078 4.36615 10.0761 4.36318C10.0675 4.34978 10.0529 4.32711 10.0321 4.29651C9.99048 4.23525 9.92465 4.14268 9.83488 4.02925C9.65462 3.80145 9.38206 3.49478 9.01974 3.1885C8.29548 2.57641 7.23917 1.98595 5.8427 1.98595C4.46913 1.98595 3.47025 2.5764 2.79306 3.47496ZM10.7883 19.0192L11.1882 19.7516L10.7883 19.9772L10.3883 19.7516L10.7883 19.0192ZM1.48431 2.45622C2.45908 1.16279 3.93294 0.310547 5.8427 0.310547C7.72954 0.310547 9.14601 1.11625 10.0738 1.90032C10.3533 2.13652 10.5908 2.37258 10.7866 2.58763C10.9817 2.37267 11.2184 2.13683 11.497 1.90087C12.424 1.11574 13.8407 0.310547 15.7338 0.310547C17.6496 0.310547 19.1242 1.16215 20.0979 2.45689C21.0537 3.72788 21.5037 5.38838 21.5037 7.03075C21.5037 8.85351 20.8019 10.5645 19.8213 12.0708C18.8392 13.5795 17.5449 14.9334 16.2762 16.06C15.0043 17.1893 13.7364 18.1093 12.7884 18.7463C12.3135 19.0654 11.917 19.3147 11.6376 19.4851C11.4978 19.5705 11.3873 19.636 11.3108 19.6808C11.2726 19.7032 11.2428 19.7204 11.2222 19.7322C11.2118 19.7382 11.2038 19.7428 11.1981 19.7461C11.1952 19.7476 11.193 19.749 11.1914 19.7499L11.1882 19.7516C11.188 19.7518 11.1882 19.7516 10.7883 19.0192C10.3883 19.7516 10.3886 19.7518 10.3883 19.7516L10.3851 19.7499C10.3835 19.749 10.3813 19.7476 10.3784 19.7461C10.3727 19.7428 10.3647 19.7382 10.3544 19.7322C10.3337 19.7204 10.3039 19.7032 10.2657 19.6808C10.1892 19.636 10.0787 19.5705 9.93895 19.4851C9.65957 19.3147 9.26304 19.0654 8.78818 18.7463C7.84017 18.1093 6.57221 17.1893 5.30038 16.06C4.03166 14.9334 2.73733 13.5795 1.7552 12.0708C0.774608 10.5645 0.072876 8.85351 0.072876 7.03075C0.072876 5.38688 0.526966 3.72651 1.48431 2.45622Z" />
</svg>
