<svg width="13" height="16" viewBox="0 0 13 16" xmlns="http://www.w3.org/2000/svg">
  <path fill-rule="evenodd" clip-rule="evenodd" d="M6.5 3C7.36715 3 8.20711 3.32954 8.83301 3.92871C9.46036 4.52929 9.82128 5.35365 9.82129 6.22266C9.82121 7.09147 9.46017 7.91512 8.83301 8.51562C8.2071 9.1148 7.36715 9.44434 6.5 9.44434C5.63285 9.44434 4.7929 9.1148 4.16699 8.51562C3.53983 7.91512 3.1788 7.09147 3.17871 6.22266C3.17872 5.35365 3.53964 4.52929 4.16699 3.92871C4.7929 3.32954 5.63285 3 6.5 3ZM6.5 4C5.88432 4 5.29375 4.23461 4.8584 4.65137C4.42321 5.0681 4.17872 5.63339 4.17871 6.22266C4.1788 6.81192 4.42313 7.37726 4.8584 7.79395C5.29375 8.21067 5.88434 8.44434 6.5 8.44434C7.11566 8.44434 7.70626 8.21067 8.1416 7.79395C8.57687 7.37726 8.82121 6.81192 8.82129 6.22266C8.82128 5.63339 8.57679 5.0681 8.1416 4.65137C7.70625 4.23461 7.11568 4 6.5 4Z" />
  <path fill-rule="evenodd" clip-rule="evenodd" d="M6.5 0C7.35477 0.000368293 8.20123 0.162814 8.99024 0.477539C9.77914 0.792261 10.4956 1.25328 11.0977 1.83398C12.3157 3.00726 12.9999 4.59826 13 6.25586C13 9.03086 11.4049 11.4577 9.86914 13.1582C9.21434 13.8803 8.50441 14.5555 7.74512 15.1768C7.45588 15.4136 7.21285 15.5973 7.04199 15.7227C6.95597 15.7857 6.88981 15.8343 6.84277 15.8672L6.78809 15.9043L6.77441 15.915L6.76953 15.918L6.76758 15.9189C6.6074 16.0269 6.3926 16.0269 6.23242 15.9189L6.23047 15.918L6.22656 15.915L6.21191 15.9053C6.12645 15.8456 6.04181 15.7844 5.95801 15.7227C5.78715 15.5973 5.54458 15.4136 5.25488 15.1768C4.49559 14.5555 3.78566 13.8803 3.13086 13.1582C1.59514 11.4578 0.000100716 9.03128 4.80098e-07 6.25684C-0.000661365 4.5998 0.682996 3.00913 1.90234 1.83301C2.50441 1.25243 3.22092 0.792179 4.00977 0.477539C4.79877 0.162891 5.64527 0.000310057 6.5 0ZM6.5 1C5.77142 1.00031 5.0512 1.13896 4.38086 1.40625C3.71047 1.67359 3.10401 2.06354 2.59668 2.55273C1.56797 3.54497 0.999537 4.87733 1 6.25586C1.0001 8.65597 2.39196 10.8481 3.87109 12.4863C4.49243 13.1715 5.16745 13.8122 5.88867 14.4023L6.26367 14.7012C6.31965 14.7445 6.37283 14.7831 6.4209 14.8193L6.5 14.7129L6.57813 14.8193C6.72207 14.711 6.90429 14.5719 7.11133 14.4023L7.64356 13.9502C8.16645 13.4891 8.66198 13.0001 9.12793 12.4863C10.6073 10.848 12 8.65677 12 6.25586C11.9999 4.96208 11.4996 3.70958 10.5908 2.74316L10.4033 2.55371C9.89598 2.06438 9.28961 1.67369 8.61914 1.40625C8.03253 1.1723 7.40769 1.03719 6.77246 1.00684L6.5 1Z" />
</svg>
