<svg width="24" height="24" viewBox="0 0 24 24" xmlns="http://www.w3.org/2000/svg">
  <path d="M11.999 0C18.6258 6.49013e-09 23.9986 5.37234 23.999 11.999C23.999 13.9174 23.5457 15.7296 22.7451 17.3379C22.737 17.5682 22.6259 17.7869 22.4326 17.9238C20.3684 21.5512 16.4708 23.999 11.999 23.999C5.37228 23.9988 0.000264629 18.6267 0 12C0.000170082 5.3732 5.37223 0.000175304 11.999 0ZM12.666 22.4756C16.2944 22.248 19.4203 20.1787 21.124 17.1904L20.4033 15.5684L12.666 22.4756ZM3.48828 18.1445C5.14794 20.4395 7.71095 22.035 10.6572 22.4111C10.6954 22.2823 10.7675 22.1616 10.875 22.0654L12.6895 20.4443L3.48828 18.1445ZM1.8916 9.15918C1.63822 10.0626 1.50007 11.0146 1.5 11.999C1.5 13.5457 1.83696 15.0138 2.4375 16.3359L4.80469 16.9268L1.8916 9.15918ZM21.9482 15.3525C22.3031 14.2992 22.499 13.1719 22.499 11.999C22.4989 10.4588 22.1643 8.99741 21.5684 7.67969L18.251 7.03516L21.9482 15.3525ZM10.8857 11.0049V15.001H11.6406V13.8018C11.6817 13.8208 11.7211 13.8341 11.7588 13.8418C11.7966 13.8533 11.8502 13.8594 11.9189 13.8594C12.0739 13.8594 12.2139 13.823 12.3379 13.75C12.4653 13.677 12.5533 13.5781 12.6016 13.4551C12.6429 13.5973 12.7203 13.6972 12.834 13.7549C12.9511 13.8125 13.1195 13.8418 13.3398 13.8418C13.4466 13.8418 13.5505 13.8337 13.6504 13.8184V13.3281H13.5723C13.4622 13.3281 13.3884 13.3109 13.3506 13.2764C13.3162 13.2418 13.2988 13.163 13.2988 13.04V11.0098H12.5439V12.9424C12.5439 13.0538 12.5319 13.1366 12.5078 13.1904C12.4837 13.244 12.4377 13.2826 12.3691 13.3057C12.3002 13.3249 12.1911 13.334 12.043 13.334C11.926 13.334 11.8378 13.3229 11.7793 13.2998C11.7244 13.2768 11.6867 13.2382 11.666 13.1846C11.6488 13.1308 11.6406 13.0499 11.6406 12.9424V11.0049H10.8857ZM6.05957 10.0586L5 10.7969V11.5059L5.91406 10.9414V13.8018H6.66895V10.0586H6.05957ZM9.00488 10.001C8.62943 10.001 8.26926 10.0413 7.9248 10.1221V10.7568C8.31404 10.6607 8.62756 10.6123 8.86523 10.6123C9.06135 10.6123 9.20583 10.6336 9.29883 10.6758C9.38493 10.7142 9.4287 10.793 9.42871 10.9121V11.3906C9.42871 11.4906 9.37965 11.5773 9.2832 11.6504C9.18682 11.7233 9.05132 11.7931 8.87598 11.8584C8.70049 11.9237 8.54682 11.9884 8.41602 12.0537C8.25068 12.1344 8.11603 12.2525 8.0127 12.4062C7.90948 12.56 7.85742 12.7408 7.85742 12.9482V13.8018H10.2139V13.1729H8.60156V12.9824C8.60159 12.8671 8.65209 12.7672 8.75195 12.6826C8.85523 12.5981 8.99448 12.5213 9.16992 12.4521C9.33182 12.3945 9.4905 12.3289 9.64551 12.2559C9.81079 12.1828 9.94552 12.0748 10.0488 11.9326C10.1554 11.7867 10.2089 11.6157 10.209 11.4199V10.9004C10.2089 10.5778 10.1086 10.3474 9.90918 10.209C9.71287 10.0706 9.41123 10.001 9.00488 10.001ZM17.1836 10.9521C16.9427 10.9522 16.7622 10.9855 16.6416 11.0508C16.5245 11.1161 16.4447 11.2221 16.4033 11.3682C16.362 11.2259 16.2807 11.122 16.1602 11.0566C16.0397 10.9876 15.8628 10.9522 15.6289 10.9521C15.1846 10.9521 14.9379 11.0853 14.8896 11.3506V11.0098H14.1348V13.8018H14.8896V11.8691C14.8897 11.7467 14.8979 11.6604 14.915 11.6104C14.9357 11.5565 14.9756 11.5192 15.0342 11.5C15.0962 11.4808 15.1978 11.4717 15.3389 11.4717C15.4525 11.4717 15.5324 11.4808 15.5771 11.5C15.6253 11.5192 15.6562 11.5566 15.6699 11.6104C15.6836 11.6603 15.6904 11.7466 15.6904 11.8691V13.8018H16.4443V11.8691C16.4444 11.7466 16.4536 11.6603 16.4707 11.6104C16.4914 11.5565 16.5313 11.5192 16.5898 11.5C16.6519 11.4809 16.7537 11.4717 16.8945 11.4717C17.0079 11.4717 17.087 11.4809 17.1318 11.5C17.1801 11.5192 17.2108 11.5565 17.2246 11.6104C17.2383 11.6603 17.2461 11.7465 17.2461 11.8691V13.8018H18V11.7539C18 11.5619 17.9759 11.4082 17.9277 11.293C17.883 11.1776 17.8017 11.0929 17.6846 11.0391C17.5675 10.9815 17.4005 10.9521 17.1836 10.9521ZM11.7432 1.50684C7.82677 1.60065 4.4425 3.83627 2.71777 7.08984L3.75195 9.84766C3.74273 9.64424 3.8136 9.43738 3.96875 9.28223L11.7432 1.50684ZM11.2295 4.1416L20.5859 5.96094C19.0007 3.71133 16.5559 2.11311 13.7275 1.64453L11.2295 4.1416Z" />
</svg>
