<svg width="24" height="24" viewBox="0 0 24 24" xmlns="http://www.w3.org/2000/svg">
  <path d="M13.5 7.49805C14.9142 7.49805 15.6212 7.49816 16.0605 7.9375C16.4999 8.37684 16.5 9.08385 16.5 10.498V13.4971C16.5 14.9111 16.4997 15.6183 16.0605 16.0576C15.6212 16.497 14.9142 16.4971 13.5 16.4971H10.501C9.08676 16.4971 8.37977 16.497 7.94043 16.0576C7.50126 15.6183 7.50098 14.9111 7.50098 13.4971V10.498C7.50098 9.08383 7.50109 8.37684 7.94043 7.9375C8.37977 7.49816 9.08676 7.49805 10.501 7.49805H13.5Z" />
  <path fill-rule="evenodd" clip-rule="evenodd" d="M16.5 0C16.9142 0 17.25 0.335786 17.25 0.75V3.49023C17.2545 3.49084 17.2591 3.49158 17.2637 3.49219C18.1637 3.6132 18.9216 3.87278 19.5234 4.47461C19.9991 4.95036 20.2586 5.52374 20.4072 6.1875H23.248C23.6621 6.1877 23.998 6.52341 23.998 6.9375C23.998 7.35159 23.6621 7.6873 23.248 7.6875H20.5869C20.6217 8.38438 20.6221 9.19439 20.6221 10.126V10.6875H23.25C23.664 10.6877 24 11.0234 24 11.4375C23.9997 11.8514 23.6639 12.1873 23.25 12.1875H20.6221V13.875C20.6221 14.3421 20.6204 14.7786 20.6162 15.1855H23.25C23.664 15.1857 24 15.5215 24 15.9355C24 16.3496 23.664 16.6853 23.25 16.6855H20.5645C20.5492 16.8897 20.5305 17.0837 20.5059 17.2666C20.3848 18.1665 20.1252 18.9246 19.5234 19.5264C18.9216 20.128 18.1636 20.3878 17.2637 20.5088C17.2592 20.5094 17.2545 20.5092 17.25 20.5098V23.25C17.2496 23.6639 16.914 24 16.5 24C16.086 24 15.7504 23.6639 15.75 23.25V20.6104C15.1888 20.6244 14.5641 20.625 13.8721 20.625H12.749V23.249C12.7489 23.6631 12.4132 23.999 11.999 23.999C11.5849 23.999 11.2492 23.6631 11.249 23.249V20.625H10.124C9.434 20.625 8.81092 20.6242 8.25098 20.6104V23.25C8.25058 23.6639 7.91495 24 7.50098 24C7.087 24 6.75137 23.6639 6.75098 23.25V20.5107C6.7448 20.5099 6.73857 20.5096 6.73242 20.5088C5.83247 20.3878 5.07452 20.1281 4.47266 19.5264C3.87085 18.9246 3.61128 18.1665 3.49023 17.2666C3.46564 17.0837 3.44693 16.8897 3.43164 16.6855H0.75C0.335786 16.6855 -3.88316e-10 16.3498 0 15.9355C1.81066e-08 15.5213 0.335786 15.1855 0.75 15.1855H3.37988C3.37571 14.7786 3.37402 14.3421 3.37402 13.875V12.1875H0.75C0.335949 12.1875 0.000263763 11.8515 0 11.4375C1.81066e-08 11.0233 0.335786 10.6875 0.75 10.6875H3.37402V10.126C3.37402 9.1944 3.37441 8.38439 3.40918 7.6875H0.75C0.335786 7.6875 -3.88316e-10 7.35171 0 6.9375C1.81066e-08 6.52329 0.335786 6.1875 0.75 6.1875H3.58887C3.73745 5.52374 3.99702 4.95036 4.47266 4.47461C5.07456 3.87271 5.83234 3.61321 6.73242 3.49219C6.73791 3.49145 6.74351 3.49096 6.74902 3.49023V0.75C6.74902 0.335786 7.08481 0 7.49902 0C7.91324 0 8.24902 0.335786 8.24902 0.75V3.38867C8.80946 3.37473 9.43321 3.37598 10.124 3.37598H11.249V0.75C11.249 0.335786 11.5848 0 11.999 0C12.4132 0 12.749 0.335786 12.749 0.75V3.37598H13.8721C14.564 3.37598 15.1888 3.37465 15.75 3.38867V0.75C15.75 0.335786 16.0858 0 16.5 0ZM10.124 4.87598C8.68887 4.87598 7.68792 4.87799 6.93262 4.97949C6.19888 5.07815 5.80996 5.2584 5.5332 5.53516C5.25658 5.8119 5.07616 6.20101 4.97754 6.93457C4.8761 7.68982 4.87402 8.69113 4.87402 10.126V11.418C4.87418 11.4243 4.875 11.4311 4.875 11.4375C4.875 11.4437 4.87418 11.4499 4.87402 11.4561V13.875C4.87402 15.3099 4.87604 16.3112 4.97754 17.0664C5.07621 17.7999 5.2565 18.1891 5.5332 18.4658C5.80995 18.7424 6.19912 18.9229 6.93262 19.0215C7.68791 19.123 8.68892 19.125 10.124 19.125H11.9795C11.986 19.1248 11.9925 19.124 11.999 19.124C12.0056 19.124 12.0121 19.1248 12.0186 19.125H13.8721C15.3074 19.125 16.3091 19.123 17.0645 19.0215C17.7977 18.9229 18.1862 18.7423 18.4629 18.4658C18.7396 18.1891 18.9209 17.7999 19.0195 17.0664C19.121 16.3112 19.1221 15.3098 19.1221 13.875V10.126C19.1221 8.69119 19.121 7.6898 19.0195 6.93457C18.9209 6.20101 18.7395 5.8119 18.4629 5.53516C18.1862 5.2585 17.7979 5.07815 17.0645 4.97949C16.3091 4.87794 15.3075 4.87598 13.8721 4.87598H10.124Z" />
</svg>
