<svg width="24" height="24" viewBox="0 0 24 24" xmlns="http://www.w3.org/2000/svg">
  <path d="M5.34766 10.4971C5.69625 10.4971 5.95369 10.5413 6.11914 10.6309C6.28457 10.7161 6.36718 10.8621 6.36719 11.0684V12.9854C6.36719 13.0973 6.33826 13.1914 6.28028 13.2676C6.22665 13.3393 6.14628 13.3915 6.03906 13.4229C5.93176 13.4542 5.82647 13.4768 5.72363 13.4902C5.62527 13.4992 5.50205 13.5039 5.35449 13.5039C5.20722 13.5039 5.08221 13.4992 4.97949 13.4902C4.88123 13.4768 4.77809 13.4542 4.6709 13.4229C4.55912 13.3915 4.47414 13.3393 4.41602 13.2676C4.35795 13.1914 4.32813 13.0974 4.32813 12.9854V11.0684C4.32814 10.8576 4.41172 10.7092 4.57715 10.624C4.74256 10.539 4.99944 10.4971 5.34766 10.4971Z" />
  <path d="M18.084 10.5635C18.4416 10.5635 18.7013 10.6063 18.8623 10.6914C19.0277 10.7721 19.1103 10.9159 19.1104 11.1221V12.918C19.1104 13.0704 19.0768 13.1831 19.0098 13.2549C18.9471 13.3265 18.8417 13.3755 18.6943 13.4023C18.5513 13.4247 18.3367 13.4365 18.0508 13.4365H17.2861V10.5635H18.084Z" />
  <path fill-rule="evenodd" clip-rule="evenodd" d="M16.501 3.53052e-07C17.1293 -3.69082e-08 17.6525 -0.000511181 18.0762 0.0390629C18.5106 0.0796672 18.9158 0.167892 19.2891 0.391602C19.6768 0.624054 20.0019 0.948184 20.2344 1.33594C20.4581 1.70928 20.5463 2.11527 20.5869 2.5498C20.6123 2.82129 20.6189 3.13361 20.6221 3.48828C20.6286 3.48914 20.6351 3.49034 20.6416 3.49121C21.5416 3.61225 22.2995 3.8718 22.9014 4.47363C23.5031 5.07551 23.7618 5.83343 23.8828 6.7334C24.0009 7.61191 23.999 8.73206 23.999 10.125V13.875C23.999 15.2678 24.0009 16.3881 23.8828 17.2666C23.7618 18.1667 23.5033 18.9254 22.9014 19.5273C22.2996 20.1291 21.5415 20.3878 20.6416 20.5088C20.6351 20.5097 20.6286 20.5099 20.6221 20.5107C20.619 20.8658 20.6123 21.1785 20.5869 21.4502C20.5463 21.8848 20.4582 22.2907 20.2344 22.6641C20.0019 23.0519 19.6769 23.3759 19.2891 23.6084C18.9158 23.8321 18.5106 23.9203 18.0762 23.9609C17.6525 24.0005 17.1293 24 16.501 24H7.50098C6.87258 24 6.34946 24.0005 5.92578 23.9609C5.49124 23.9203 5.08527 23.8322 4.71192 23.6084C4.32433 23.376 3.99998 23.0516 3.76758 22.6641C3.54379 22.2907 3.45564 21.8848 3.41504 21.4502C3.38967 21.1785 3.38203 20.8658 3.37891 20.5107C3.37209 20.5098 3.36519 20.5097 3.3584 20.5088C2.45847 20.3878 1.70049 20.129 1.09863 19.5273C0.496718 18.9254 0.237229 18.1667 0.116213 17.2666C-0.00184393 16.3881 1.78813e-06 15.2678 1.78813e-06 13.875V10.125C1.78614e-06 8.73209 -0.00187744 7.6119 0.116213 6.7334C0.237229 5.83329 0.496718 5.07555 1.09863 4.47363C1.70055 3.87172 2.45829 3.61223 3.3584 3.49121C3.36523 3.49029 3.37205 3.48919 3.37891 3.48828C3.38203 3.1336 3.3897 2.8213 3.41504 2.5498C3.45564 2.11524 3.54379 1.70931 3.76758 1.33594C3.99999 0.94832 4.3243 0.624012 4.71192 0.391602C5.08529 0.167805 5.49121 0.0796599 5.92578 0.0390629C6.34946 -0.000489864 6.87257 2.86049e-07 7.50098 3.53052e-07H16.501ZM19.1211 20.6113C18.5613 20.6252 17.9385 20.625 17.249 20.625H6.75C6.06078 20.625 5.43834 20.6252 4.87891 20.6113C4.88243 20.8918 4.89024 21.118 4.90821 21.3105C4.93873 21.6373 4.993 21.7912 5.05371 21.8926C5.15938 22.0688 5.30713 22.2166 5.4834 22.3223C5.58476 22.383 5.73868 22.4372 6.06543 22.4678C6.40315 22.4993 6.84423 22.5 7.50098 22.5H16.501C17.1578 22.5 17.5988 22.4993 17.9365 22.4678C18.2634 22.4372 18.4172 22.383 18.5186 22.3223C18.6947 22.2166 18.8416 22.0687 18.9473 21.8926C19.008 21.7912 19.0632 21.6375 19.0938 21.3105C19.1117 21.118 19.1176 20.8918 19.1211 20.6113ZM5.34082 9.75C5.16661 9.75001 5.00109 9.75707 4.84473 9.77051C4.67489 9.78398 4.49156 9.81966 4.29492 9.87793C4.09834 9.93619 3.93291 10.0077 3.79883 10.0928C3.6468 10.1914 3.52122 10.3267 3.42285 10.4971C3.32911 10.6674 3.28223 10.8601 3.28223 11.0752V12.9854C3.28223 13.2454 3.34928 13.4675 3.4834 13.6514C3.61754 13.8307 3.80306 13.9613 4.04004 14.042C4.25911 14.1182 4.46971 14.1717 4.6709 14.2031C4.87636 14.2345 5.09968 14.25 5.34082 14.25C5.84161 14.25 6.29387 14.1693 6.69629 14.0078C6.91958 13.9182 7.09362 13.786 7.21875 13.6113C7.34842 13.4364 7.41406 13.2275 7.41406 12.9854V11.0752C7.41406 10.8421 7.36487 10.6424 7.2666 10.4766C7.17271 10.3151 7.05561 10.1893 6.91699 10.0996C6.77847 10.01 6.60207 9.93381 6.3877 9.87109C6.19996 9.82178 6.02992 9.7908 5.87793 9.77734C5.72591 9.75941 5.5465 9.75 5.34082 9.75ZM8.25586 14.1826H11.4414V13.4365H9.30176V9.81738H8.25586V14.1826ZM12.1465 14.1826H15.5332V13.4365H13.1924V12.3125H15.2451V11.5664H13.1924V10.5635H15.4658V9.81738H12.1465V14.1826ZM16.2402 14.1826H18.0977C18.6208 14.1826 19.0301 14.1469 19.3252 14.0752C19.6203 13.999 19.8323 13.8708 19.9619 13.6914C20.0916 13.5076 20.1572 13.2498 20.1572 12.918V11.1426C20.1572 10.8018 20.0878 10.5346 19.9492 10.3418C19.8106 10.149 19.593 10.0147 19.2979 9.93848C19.0028 9.85783 18.6003 9.81738 18.0908 9.81738H16.2402V14.1826ZM7.50098 1.5C6.84423 1.5 6.40315 1.50072 6.06543 1.53223C5.73862 1.56276 5.58476 1.61701 5.4834 1.67773C5.3071 1.78341 5.15939 1.93112 5.05371 2.10742C4.99299 2.20879 4.93873 2.36266 4.90821 2.68945C4.89026 2.88178 4.88243 3.1076 4.87891 3.3877C5.43834 3.37386 6.06079 3.375 6.75 3.375H17.249C17.9385 3.375 18.5613 3.37385 19.1211 3.3877C19.1176 3.10762 19.1117 2.88177 19.0938 2.68945C19.0632 2.36265 19.008 2.20879 18.9473 2.10742C18.8417 1.93129 18.6947 1.78337 18.5186 1.67773C18.4172 1.61698 18.2634 1.56277 17.9365 1.53223C17.5988 1.50068 17.1578 1.5 16.501 1.5H7.50098Z" />
</svg>
