<svg width="24" height="24" viewBox="0 0 24 24" xmlns="http://www.w3.org/2000/svg">
  <path fill-rule="evenodd" clip-rule="evenodd" d="M12.7495 0.804056C12.7495 0.510212 12.7495 0.363289 12.8132 0.249429C12.8669 0.153659 12.9624 0.0699802 13.0643 0.0293353C13.1856 -0.0189873 13.3225 -0.00088995 13.5965 0.0353047C18.9858 0.747326 23.2535 5.01453 23.9656 10.4044C24.0018 10.6783 24.0199 10.8153 23.9715 10.9365C23.9309 11.0385 23.8472 11.134 23.7514 11.1876C23.6376 11.2514 23.4907 11.2514 23.1968 11.2514H20.0463C19.6323 11.2516 19.2963 11.5873 19.2963 12.0014C19.2965 12.4154 19.6324 12.7512 20.0463 12.7514H23.1967C23.4906 12.7514 23.6375 12.7514 23.7514 12.8152C23.8472 12.8689 23.9309 12.9643 23.9715 13.0663C24.0198 13.1876 24.0017 13.3245 23.9655 13.5985C23.253 18.9879 18.9854 23.2546 13.5965 23.9665C13.3225 24.0027 13.1856 24.0208 13.0643 23.9725C12.9624 23.9319 12.8669 23.8482 12.8132 23.7524C12.7495 23.6386 12.7495 23.4916 12.7495 23.1978V20.0483C12.7493 19.6342 12.4136 19.2983 11.9995 19.2983C11.5854 19.2984 11.2496 19.6342 11.2495 20.0483V23.1977C11.2495 23.4915 11.2495 23.6385 11.1857 23.7524C11.132 23.8481 11.0365 23.9318 10.9345 23.9725C10.8133 24.0208 10.6763 24.0026 10.4023 23.9664C5.01429 23.2537 0.747809 18.9872 0.0353847 13.5985C-0.000836965 13.3245 -0.0189478 13.1876 0.02937 13.0663C0.0700109 12.9643 0.15369 12.8689 0.249463 12.8152C0.363328 12.7514 0.510262 12.7514 0.80413 12.7514H3.95356C4.36764 12.7514 4.7034 12.4155 4.70356 12.0014C4.70356 11.5872 4.36773 11.2515 3.95356 11.2514H0.804059C0.510213 11.2514 0.36329 11.2514 0.249429 11.1876C0.153659 11.134 0.0699808 11.0385 0.0293356 10.9365C-0.0189872 10.8153 -0.000890087 10.6783 0.0353041 10.4044C0.747298 5.01516 5.01394 0.748226 10.4023 0.0354464C10.6763 -0.000796482 10.8133 -0.0189179 10.9345 0.0293958C11.0365 0.070033 11.132 0.153713 11.1857 0.249489C11.2495 0.363358 11.2495 0.510299 11.2495 0.804181V3.95258C11.2495 4.36674 11.5853 4.70249 11.9995 4.70258C12.4137 4.70258 12.7495 4.3668 12.7495 3.95258V0.804056ZM11.9995 9.98872C10.8886 9.98879 9.98796 10.8895 9.98774 12.0004C9.98774 13.1115 10.8885 14.0131 11.9995 14.0131C13.1105 14.0131 14.0112 13.1116 14.0112 12.0004C14.011 10.8895 13.1103 9.98872 11.9995 9.98872Z" />
</svg>
