<svg width="24" height="24" viewBox="0 0 24 24" xmlns="http://www.w3.org/2000/svg">
  <path d="M0.219575 0.21967C0.512468 -0.0732233 0.987229 -0.0732232 1.28012 0.21967L23.7791 22.7187C24.0719 23.0116 24.072 23.4864 23.7791 23.7792C23.4863 24.0719 23.0114 24.0719 22.7186 23.7792L19.5526 20.6132C17.0797 23.5813 12.9774 24.5753 9.42465 23.6826C5.54272 22.707 2.25006 19.4696 2.24985 14.083C2.24985 11.032 3.53649 8.33749 5.11508 6.17572L0.219575 1.28022C-0.0732548 0.987387 -0.0731286 0.512578 0.219575 0.21967Z" />
  <path d="M11.9989 0.411076C13.0173 0.411012 13.6573 0.965984 14.4637 1.61615C15.8206 2.71028 17.6297 4.37848 19.1043 6.48334C20.5784 8.58753 21.7489 11.1731 21.7489 14.083C21.7489 14.5566 21.7232 15.0153 21.6737 15.458C21.6274 15.8692 21.2569 16.1659 20.8456 16.1201C20.434 16.074 20.1376 15.7025 20.1834 15.291C20.2266 14.9055 20.2489 14.5027 20.2489 14.083C20.2489 11.5825 19.2421 9.29399 17.8758 7.34369C16.5102 5.39454 14.8153 3.82651 13.5213 2.78315C12.6113 2.0494 12.3922 1.91105 11.9989 1.91108C11.6057 1.91115 11.386 2.04995 10.4745 2.7851C10.1861 3.01767 9.87691 3.27711 9.55551 3.56147C9.2454 3.83567 8.77138 3.80687 8.49692 3.49701C8.22256 3.18693 8.25153 2.71295 8.56137 2.43842C8.90129 2.13767 9.22831 1.86291 9.53305 1.61713C10.3402 0.966161 10.9805 0.411187 11.9989 0.411076Z" />
</svg>
