<svg width="23" height="16" viewBox="0 0 23 16" xmlns="http://www.w3.org/2000/svg">
  <path d="M22.8571 8.79412C22.8571 7.52525 21.827 6.49314 20.5608 6.49314H19.7133L17.4095 2.19187H14.9834V0.574768H0V13.6496H2.14233C2.43495 14.6854 3.3864 15.4469 4.51259 15.4469C5.63878 15.4469 6.59023 14.6854 6.88285 13.6496H15.7258C16.0182 14.6854 16.9697 15.4469 18.0961 15.4469C19.2222 15.4469 20.1737 14.6854 20.4661 13.6496H22.8571V8.79412ZM16.6084 3.53378L18.1934 6.49314H14.9834V3.53378H16.6084ZM4.51259 14.105C3.89265 14.105 3.3885 13.5997 3.3885 12.9787C3.3885 12.3575 3.89265 11.8522 4.51259 11.8522C5.13253 11.8522 5.63668 12.3575 5.63668 12.9787C5.63668 13.5997 5.13253 14.105 4.51259 14.105ZM4.51259 10.5105C3.3864 10.5105 2.43495 11.2719 2.14233 12.3077H1.33929V1.91667H13.6441V12.3077H6.88285C6.59023 11.2718 5.63878 10.5105 4.51259 10.5105ZM18.0961 14.105C17.4761 14.105 16.9718 13.5997 16.9718 12.9787C16.9718 12.3575 17.4761 11.8522 18.0961 11.8522C18.7158 11.8522 19.2201 12.3575 19.2201 12.9787C19.2201 13.5997 18.7158 14.105 18.0961 14.105ZM20.4661 12.3077C20.1735 11.2719 19.2221 10.5105 18.0959 10.5105C16.9697 10.5105 16.0182 11.2719 15.7258 12.3077H14.9834V7.83504H20.5607C21.0885 7.83504 21.5179 8.26522 21.5179 8.79412V9.16856H20.4911V10.5105H21.5179V12.3077H20.4661Z" />
</svg>
