<svg width="40" height="40" viewBox="0 0 40 40" xmlns="http://www.w3.org/2000/svg">
  <path fill-rule="evenodd" clip-rule="evenodd" d="M40 40H0V0H40V40ZM27.9912 13.1309C28.1451 11.4581 26.3156 12.1343 26.2959 12.1416C20.6946 14.3679 14.3719 16.7424 9.23242 19.0674C7.14287 19.8032 8.33865 20.5388 8.3584 20.5508L11.6992 21.541C13.2406 21.9863 14.0635 21.4902 14.0635 21.4902L21.2588 16.791C23.8278 15.1096 23.2113 16.4945 22.5947 17.0879L17.1992 22.0352C16.3765 22.7276 16.7875 23.321 17.1475 23.6182C18.4315 24.7056 22.0769 26.9304 22.2861 27.0811C22.5433 27.279 23.9317 28.1692 24.8564 27.9717C25.7814 27.7735 25.8838 26.6357 25.8838 26.6357L27.1172 18.8691C27.4771 16.2478 27.9401 13.8238 27.9912 13.1309Z" />
</svg>
