<svg width="40" height="40" viewBox="0 0 40 40" xmlns="http://www.w3.org/2000/svg">
  <path fill-rule="evenodd" clip-rule="evenodd" d="M40 40H0V0H40V40ZM8.88965 13C8.12715 13 8 13.3488 8 13.7227C8.00026 14.3961 8.88972 17.7835 12.1426 22.2666C14.3031 25.3291 17.3789 26.9755 20.1494 26.9756C21.8274 26.9756 22.0303 26.6012 22.0303 25.9785V23.6621C22.0303 22.9151 22.183 22.7901 22.7168 22.79C23.0978 22.79 23.7845 22.9891 25.335 24.459C27.1137 26.2024 27.4189 26.9998 28.4102 27H31.0283C31.7907 27 32.1466 26.6264 31.9434 25.9043C31.7149 25.1819 30.8509 24.135 29.7324 22.8896C29.1226 22.1927 28.2075 21.4208 27.9277 21.0469C27.5467 20.5486 27.6482 20.3486 27.9277 19.9004C27.9426 19.8452 31.106 15.458 31.4346 13.9707L31.4639 13.8711C31.5881 13.3755 31.3857 13.0254 30.6475 13.0254H28.0293C27.3688 13.0254 27.0637 13.3747 26.8857 13.748C26.8716 13.7816 25.5283 16.9474 23.6572 19.0039C23.0473 19.6017 22.768 19.8008 22.4375 19.8008C22.2595 19.8008 22.0303 19.6015 22.0303 19.0537V13.9463C22.0302 13.2989 21.827 13 21.2676 13H17.1504C16.7435 13 16.4894 13.2988 16.4893 13.5977C16.4893 14.2204 17.4297 14.3706 17.5312 16.1143V19.9023C17.5312 20.7244 17.3809 20.875 17.0479 20.875C16.1583 20.8746 13.9981 17.6607 12.7021 13.999C12.4502 13.2741 12.194 13.0001 11.5332 13H8.88965Z" />
</svg>
