<svg width="20" height="20" viewBox="0 0 20 20" xmlns="http://www.w3.org/2000/svg">
<path d="M10 11.6602C10.7943 11.6602 11.5495 11.5039 12.2656 11.1914C12.9688 10.8919 13.584 10.4785 14.1113 9.95117C14.6387 9.42383 15.0586 8.80208 15.3711 8.08594C15.6706 7.38281 15.8203 6.6276 15.8203 5.82031C15.8203 5.01302 15.6706 4.25781 15.3711 3.55469C15.0586 2.85156 14.6387 2.23633 14.1113 1.70898C13.584 1.18164 12.9688 0.761719 12.2656 0.449219C11.5495 0.14974 10.7943 0 10 0C9.19271 0 8.43099 0.14974 7.71484 0.449219C7.01172 0.761719 6.39648 1.18164 5.86914 1.70898C5.3418 2.23633 4.92188 2.85156 4.60938 3.55469C4.3099 4.25781 4.16016 5.01302 4.16016 5.82031C4.16016 6.6276 4.3099 7.38281 4.60938 8.08594C4.92188 8.80208 5.3418 9.42383 5.86914 9.95117C6.39648 10.4785 7.01172 10.8919 7.71484 11.1914C8.43099 11.5039 9.19271 11.6602 10 11.6602ZM10 1.66016C10.5729 1.66016 11.1133 1.77083 11.6211 1.99219C12.1159 2.20052 12.5521 2.49349 12.9297 2.87109C13.3073 3.2487 13.6068 3.69141 13.8281 4.19922C14.0495 4.70703 14.1602 5.2474 14.1602 5.82031C14.1602 6.39323 14.0495 6.93359 13.8281 7.44141C13.6068 7.94922 13.3073 8.39193 12.9297 8.76953C12.5521 9.14714 12.1159 9.44661 11.6211 9.66797C11.1133 9.8763 10.5729 9.98047 10 9.98047C9.41406 9.98047 8.8737 9.8763 8.37891 9.66797C7.87109 9.44661 7.42839 9.14714 7.05078 8.76953C6.67318 8.39193 6.3737 7.94922 6.15234 7.44141C5.93099 6.93359 5.82031 6.39323 5.82031 5.82031C5.82031 5.2474 5.93099 4.70703 6.15234 4.19922C6.3737 3.69141 6.67318 3.2487 7.05078 2.87109C7.42839 2.49349 7.87109 2.20052 8.37891 1.99219C8.8737 1.77083 9.41406 1.66016 10 1.66016ZM5 12.4805C4.41406 12.4805 3.8737 12.5911 3.37891 12.8125C2.87109 13.0339 2.42839 13.3333 2.05078 13.7109C1.67318 14.0885 1.3737 14.5312 1.15234 15.0391C0.93099 15.5339 0.820312 16.0742 0.820312 16.6602V20H2.5V16.6602C2.5 15.9701 2.74414 15.3809 3.23242 14.8926C3.7207 14.4043 4.3099 14.1602 5 14.1602H15C15.6771 14.1602 16.263 14.4043 16.7578 14.8926C17.2526 15.3809 17.5 15.9701 17.5 16.6602V20H19.1602V16.6602C19.1602 16.0742 19.0495 15.5339 18.8281 15.0391C18.6068 14.5312 18.3073 14.0885 17.9297 13.7109C17.5521 13.3333 17.1159 13.0339 16.6211 12.8125C16.1133 12.5911 15.5729 12.4805 15 12.4805H5Z" />
</svg>
